G04 MADE WITH FRITZING*
G04 WWW.FRITZING.ORG*
G04 DOUBLE SIDED*
G04 HOLES PLATED*
G04 CONTOUR ON CENTER OF CONTOUR VECTOR*
%ASAXBY*%
%FSLAX23Y23*%
%MOIN*%
%OFA0B0*%
%SFA1.0B1.0*%
%ADD10C,0.049370*%
%ADD11C,0.135984*%
%ADD12C,0.088000*%
%ADD13C,0.062000*%
%ADD14C,0.085000*%
%ADD15C,0.072992*%
%ADD16C,0.214724*%
%ADD17R,0.085000X0.085000*%
%ADD18R,0.072992X0.084803*%
%ADD19R,0.058000X0.098000*%
%ADD20R,0.151732X0.096614*%
%ADD21C,0.025748*%
%ADD22R,0.001000X0.001000*%
%LNMASK0*%
G90*
G70*
G54D10*
X2742Y845D03*
G54D11*
X2801Y296D03*
X1915Y296D03*
X412Y1671D03*
X413Y3047D03*
X4304Y1672D03*
X4304Y3049D03*
G54D10*
X2517Y920D03*
X2667Y920D03*
G54D12*
X1742Y1245D03*
X1742Y1145D03*
X2117Y3195D03*
X2517Y3895D03*
X2617Y3895D03*
X2717Y3895D03*
X2517Y3895D03*
X2617Y3895D03*
X2717Y3895D03*
G54D10*
X3117Y2720D03*
X2267Y2720D03*
X3617Y2795D03*
X2267Y2795D03*
X1267Y3695D03*
X2067Y2345D03*
X3917Y3295D03*
G54D13*
X3767Y1570D03*
X3767Y1670D03*
X3467Y1670D03*
X3467Y1570D03*
G54D12*
X2067Y4195D03*
X2167Y4195D03*
X2267Y4195D03*
X2367Y4195D03*
X2467Y4195D03*
X2567Y4195D03*
X2667Y4195D03*
X2067Y4195D03*
X2167Y4195D03*
X2267Y4195D03*
X2367Y4195D03*
X2467Y4195D03*
X2567Y4195D03*
X2667Y4195D03*
X2717Y3795D03*
X2617Y3795D03*
X2517Y3795D03*
X2417Y3795D03*
X2317Y3795D03*
X2217Y3795D03*
X2117Y3795D03*
X2017Y3795D03*
X2717Y3795D03*
X2617Y3795D03*
X2517Y3795D03*
X2417Y3795D03*
X2317Y3795D03*
X2217Y3795D03*
X2117Y3795D03*
X2017Y3795D03*
X3017Y1945D03*
X3017Y1845D03*
X1217Y1295D03*
X1317Y1295D03*
X1417Y1295D03*
X1517Y1295D03*
X1217Y1295D03*
X1317Y1295D03*
X1417Y1295D03*
X1517Y1295D03*
X3267Y1045D03*
X3167Y1045D03*
X3267Y1145D03*
X3167Y1145D03*
X3067Y945D03*
X3067Y1045D03*
X3067Y1145D03*
X3067Y945D03*
X3067Y1045D03*
X3067Y1145D03*
X3067Y1295D03*
X3167Y1295D03*
X3267Y1295D03*
X3067Y1295D03*
X3167Y1295D03*
X3267Y1295D03*
X3067Y1445D03*
X3167Y1445D03*
X3267Y1445D03*
X3067Y1445D03*
X3167Y1445D03*
X3267Y1445D03*
X2267Y995D03*
X2367Y995D03*
X2467Y995D03*
X2267Y995D03*
X2367Y995D03*
X2467Y995D03*
X1417Y1020D03*
X1517Y1020D03*
X1617Y1020D03*
X1417Y1020D03*
X1517Y1020D03*
X1617Y1020D03*
X1417Y1145D03*
X1517Y1145D03*
X1617Y1145D03*
X1417Y1145D03*
X1517Y1145D03*
X1617Y1145D03*
X2867Y2295D03*
X2967Y2295D03*
X3067Y2295D03*
X2867Y2295D03*
X2967Y2295D03*
X3067Y2295D03*
G54D14*
X2417Y1745D03*
X2317Y1745D03*
X2417Y1745D03*
X2317Y1745D03*
X2417Y1495D03*
X2317Y1495D03*
X2417Y1495D03*
X2317Y1495D03*
X1467Y745D03*
X1567Y745D03*
X1467Y745D03*
X1567Y745D03*
X3267Y745D03*
X3167Y745D03*
X3267Y745D03*
X3167Y745D03*
G54D12*
X3867Y745D03*
X3937Y816D03*
X4008Y887D03*
X3867Y745D03*
X3937Y816D03*
X4008Y887D03*
X3987Y3849D03*
X3917Y3920D03*
X3846Y3991D03*
X3987Y3849D03*
X3917Y3920D03*
X3846Y3991D03*
X871Y3991D03*
X800Y3920D03*
X729Y3850D03*
X871Y3991D03*
X800Y3920D03*
X729Y3850D03*
X731Y880D03*
X802Y809D03*
X873Y739D03*
X731Y880D03*
X802Y809D03*
X873Y739D03*
G54D10*
X3417Y945D03*
X1342Y870D03*
X2367Y2445D03*
X2417Y2545D03*
G54D14*
X967Y1395D03*
X967Y1695D03*
X1067Y1395D03*
X1067Y1695D03*
X1167Y1395D03*
X1167Y1695D03*
X1267Y1395D03*
X1267Y1695D03*
X1367Y1395D03*
X1367Y1695D03*
X1467Y1395D03*
X1467Y1695D03*
X1567Y1395D03*
X1567Y1695D03*
G54D12*
X2217Y1295D03*
X2317Y1295D03*
X2417Y1295D03*
X2517Y1295D03*
X2217Y1295D03*
X2317Y1295D03*
X2417Y1295D03*
X2517Y1295D03*
G54D15*
X1211Y1126D03*
X1142Y1195D03*
X1211Y1126D03*
X1142Y1195D03*
X3617Y1195D03*
X3547Y1126D03*
X3617Y1195D03*
X3547Y1126D03*
X3530Y3593D03*
X3599Y3524D03*
X3530Y3593D03*
X3599Y3524D03*
X1132Y3533D03*
X1202Y3602D03*
X1132Y3533D03*
X1202Y3602D03*
X1041Y978D03*
X971Y1047D03*
X1041Y978D03*
X971Y1047D03*
X3696Y970D03*
X3765Y1040D03*
X3696Y970D03*
X3765Y1040D03*
X3759Y3694D03*
X3689Y3764D03*
X3759Y3694D03*
X3689Y3764D03*
X1036Y3765D03*
X967Y3695D03*
X1036Y3765D03*
X967Y3695D03*
G54D14*
X2517Y2895D03*
X2217Y2895D03*
X2517Y2995D03*
X2217Y2995D03*
X2517Y3095D03*
X2217Y3095D03*
X2517Y3195D03*
X2217Y3195D03*
X2517Y3295D03*
X2217Y3295D03*
X2517Y3395D03*
X2217Y3395D03*
X2517Y3495D03*
X2217Y3495D03*
X2517Y3595D03*
X2217Y3595D03*
G54D12*
X3442Y2745D03*
X3442Y2645D03*
X3442Y2545D03*
X3442Y2445D03*
X3442Y2745D03*
X3442Y2645D03*
X3442Y2545D03*
X3442Y2445D03*
X1767Y2145D03*
X1292Y2745D03*
X1292Y2645D03*
X1292Y2545D03*
X1292Y2445D03*
X1292Y2745D03*
X1292Y2645D03*
X1292Y2545D03*
X1292Y2445D03*
X1817Y3595D03*
X1817Y3495D03*
X1817Y3395D03*
X1817Y3295D03*
X1817Y3195D03*
X2917Y3595D03*
X2917Y3495D03*
X2917Y3395D03*
X2917Y3295D03*
X2917Y3195D03*
G54D16*
X3452Y3151D03*
X3451Y1971D03*
X1282Y3150D03*
X1283Y1969D03*
G54D17*
X2417Y1745D03*
X2417Y1745D03*
X2417Y1495D03*
X2417Y1495D03*
G54D18*
X3142Y1745D03*
X3020Y1745D03*
X3142Y2045D03*
X3020Y2045D03*
G54D17*
X1467Y745D03*
X1467Y745D03*
X3267Y745D03*
X3267Y745D03*
G54D19*
X2275Y751D03*
X2366Y751D03*
X2457Y751D03*
G54D20*
X2366Y507D03*
G54D17*
X967Y1395D03*
X2517Y2895D03*
G54D18*
X3467Y895D03*
X3589Y895D03*
X1117Y845D03*
X1239Y845D03*
X1301Y973D03*
X1179Y973D03*
X3895Y1195D03*
X4017Y1195D03*
X3667Y3895D03*
X3545Y3895D03*
X3939Y3495D03*
X3817Y3495D03*
X1264Y3870D03*
X1142Y3870D03*
X1017Y3495D03*
X895Y3495D03*
G54D21*
G36*
X1211Y1159D02*
X1245Y1126D01*
X1211Y1092D01*
X1178Y1126D01*
X1211Y1159D01*
G37*
D02*
G36*
X1211Y1159D02*
X1245Y1126D01*
X1211Y1092D01*
X1178Y1126D01*
X1211Y1159D01*
G37*
D02*
G36*
X3583Y1195D02*
X3617Y1229D01*
X3650Y1195D01*
X3617Y1162D01*
X3583Y1195D01*
G37*
D02*
G36*
X3583Y1195D02*
X3617Y1229D01*
X3650Y1195D01*
X3617Y1162D01*
X3583Y1195D01*
G37*
D02*
G36*
X3530Y3560D02*
X3496Y3593D01*
X3530Y3627D01*
X3563Y3593D01*
X3530Y3560D01*
G37*
D02*
G36*
X3530Y3560D02*
X3496Y3593D01*
X3530Y3627D01*
X3563Y3593D01*
X3530Y3560D01*
G37*
D02*
G36*
X1165Y3533D02*
X1132Y3499D01*
X1099Y3533D01*
X1132Y3566D01*
X1165Y3533D01*
G37*
D02*
G36*
X1165Y3533D02*
X1132Y3499D01*
X1099Y3533D01*
X1132Y3566D01*
X1165Y3533D01*
G37*
D02*
G36*
X1041Y1011D02*
X1074Y978D01*
X1041Y944D01*
X1007Y978D01*
X1041Y1011D01*
G37*
D02*
G36*
X1041Y1011D02*
X1074Y978D01*
X1041Y944D01*
X1007Y978D01*
X1041Y1011D01*
G37*
D02*
G36*
X3729Y970D02*
X3696Y937D01*
X3662Y970D01*
X3696Y1003D01*
X3729Y970D01*
G37*
D02*
G36*
X3729Y970D02*
X3696Y937D01*
X3662Y970D01*
X3696Y1003D01*
X3729Y970D01*
G37*
D02*
G36*
X3759Y3728D02*
X3792Y3694D01*
X3759Y3661D01*
X3725Y3694D01*
X3759Y3728D01*
G37*
D02*
G36*
X3759Y3728D02*
X3792Y3694D01*
X3759Y3661D01*
X3725Y3694D01*
X3759Y3728D01*
G37*
D02*
G36*
X1003Y3765D02*
X1036Y3798D01*
X1070Y3765D01*
X1036Y3731D01*
X1003Y3765D01*
G37*
D02*
G36*
X1003Y3765D02*
X1036Y3798D01*
X1070Y3765D01*
X1036Y3731D01*
X1003Y3765D01*
G37*
D02*
G54D22*
X1858Y2187D02*
X1871Y2187D01*
X2860Y2187D02*
X2872Y2187D01*
X1854Y2186D02*
X1876Y2186D01*
X2855Y2186D02*
X2877Y2186D01*
X1851Y2185D02*
X1879Y2185D01*
X2852Y2185D02*
X2880Y2185D01*
X1848Y2184D02*
X1881Y2184D01*
X2849Y2184D02*
X2883Y2184D01*
X1846Y2183D02*
X1883Y2183D01*
X2847Y2183D02*
X2885Y2183D01*
X1844Y2182D02*
X1885Y2182D01*
X2846Y2182D02*
X2886Y2182D01*
X1843Y2181D02*
X1887Y2181D01*
X2844Y2181D02*
X2888Y2181D01*
X1841Y2180D02*
X1888Y2180D01*
X2842Y2180D02*
X2890Y2180D01*
X1840Y2179D02*
X1890Y2179D01*
X2841Y2179D02*
X2891Y2179D01*
X1838Y2178D02*
X1891Y2178D01*
X2840Y2178D02*
X2892Y2178D01*
X1837Y2177D02*
X1892Y2177D01*
X2839Y2177D02*
X2893Y2177D01*
X1836Y2176D02*
X1893Y2176D01*
X2838Y2176D02*
X2895Y2176D01*
X1835Y2175D02*
X1894Y2175D01*
X2836Y2175D02*
X2896Y2175D01*
X1834Y2174D02*
X1895Y2174D01*
X2836Y2174D02*
X2896Y2174D01*
X1833Y2173D02*
X1896Y2173D01*
X2835Y2173D02*
X2897Y2173D01*
X1833Y2172D02*
X1897Y2172D01*
X2834Y2172D02*
X2898Y2172D01*
X1832Y2171D02*
X1898Y2171D01*
X2833Y2171D02*
X2899Y2171D01*
X1831Y2170D02*
X1898Y2170D01*
X2832Y2170D02*
X2900Y2170D01*
X1830Y2169D02*
X1899Y2169D01*
X2832Y2169D02*
X2900Y2169D01*
X1830Y2168D02*
X1900Y2168D01*
X2831Y2168D02*
X2901Y2168D01*
X1829Y2167D02*
X1900Y2167D01*
X2830Y2167D02*
X2902Y2167D01*
X1828Y2166D02*
X1901Y2166D01*
X2830Y2166D02*
X2902Y2166D01*
X1828Y2165D02*
X1901Y2165D01*
X2829Y2165D02*
X2903Y2165D01*
X1827Y2164D02*
X1902Y2164D01*
X2829Y2164D02*
X2903Y2164D01*
X1827Y2163D02*
X1902Y2163D01*
X2828Y2163D02*
X2904Y2163D01*
X1826Y2162D02*
X1903Y2162D01*
X2828Y2162D02*
X2904Y2162D01*
X1826Y2161D02*
X1903Y2161D01*
X2827Y2161D02*
X2905Y2161D01*
X1826Y2160D02*
X1904Y2160D01*
X2827Y2160D02*
X2905Y2160D01*
X1825Y2159D02*
X1904Y2159D01*
X2827Y2159D02*
X2905Y2159D01*
X1825Y2158D02*
X1904Y2158D01*
X2826Y2158D02*
X2906Y2158D01*
X1825Y2157D02*
X1905Y2157D01*
X2826Y2157D02*
X2906Y2157D01*
X1825Y2156D02*
X1905Y2156D01*
X2826Y2156D02*
X2906Y2156D01*
X1824Y2155D02*
X1905Y2155D01*
X2826Y2155D02*
X2906Y2155D01*
X1824Y2154D02*
X1905Y2154D01*
X2825Y2154D02*
X2907Y2154D01*
X1824Y2153D02*
X1905Y2153D01*
X2825Y2153D02*
X2907Y2153D01*
X1824Y2152D02*
X1906Y2152D01*
X2825Y2152D02*
X2907Y2152D01*
X1824Y2151D02*
X1906Y2151D01*
X2825Y2151D02*
X2907Y2151D01*
X1823Y2150D02*
X1906Y2150D01*
X2825Y2150D02*
X2907Y2150D01*
X1823Y2149D02*
X1906Y2149D01*
X2825Y2149D02*
X2907Y2149D01*
X1823Y2148D02*
X1906Y2148D01*
X2825Y2148D02*
X2907Y2148D01*
X1823Y2147D02*
X1906Y2147D01*
X2825Y2147D02*
X2907Y2147D01*
X1823Y2146D02*
X1906Y2146D01*
X2825Y2146D02*
X2908Y2146D01*
X1823Y2145D02*
X1906Y2145D01*
X2825Y2145D02*
X2908Y2145D01*
X1823Y2144D02*
X1906Y2144D01*
X2825Y2144D02*
X2907Y2144D01*
X1823Y2143D02*
X1906Y2143D01*
X2825Y2143D02*
X2907Y2143D01*
X1823Y2142D02*
X1906Y2142D01*
X2825Y2142D02*
X2907Y2142D01*
X1823Y2141D02*
X1906Y2141D01*
X2825Y2141D02*
X2907Y2141D01*
X1824Y2140D02*
X1906Y2140D01*
X2825Y2140D02*
X2907Y2140D01*
X1824Y2139D02*
X1906Y2139D01*
X2825Y2139D02*
X2907Y2139D01*
X1824Y2138D02*
X1905Y2138D01*
X2825Y2138D02*
X2907Y2138D01*
X1824Y2137D02*
X1905Y2137D01*
X2825Y2137D02*
X2907Y2137D01*
X1824Y2136D02*
X1905Y2136D01*
X2826Y2136D02*
X2906Y2136D01*
X1825Y2135D02*
X1905Y2135D01*
X2826Y2135D02*
X2906Y2135D01*
X1825Y2134D02*
X1905Y2134D01*
X2826Y2134D02*
X2906Y2134D01*
X1825Y2133D02*
X1904Y2133D01*
X2826Y2133D02*
X2906Y2133D01*
X1825Y2132D02*
X1904Y2132D01*
X2827Y2132D02*
X2905Y2132D01*
X1826Y2131D02*
X1904Y2131D01*
X2827Y2131D02*
X2905Y2131D01*
X1826Y2130D02*
X1903Y2130D01*
X2828Y2130D02*
X2905Y2130D01*
X1827Y2129D02*
X1903Y2129D01*
X2828Y2129D02*
X2904Y2129D01*
X1827Y2128D02*
X1902Y2128D01*
X2828Y2128D02*
X2904Y2128D01*
X1828Y2127D02*
X1902Y2127D01*
X2829Y2127D02*
X2903Y2127D01*
X1828Y2126D02*
X1901Y2126D01*
X2829Y2126D02*
X2903Y2126D01*
X1829Y2125D02*
X1901Y2125D01*
X2830Y2125D02*
X2902Y2125D01*
X1829Y2124D02*
X1900Y2124D01*
X2831Y2124D02*
X2901Y2124D01*
X1830Y2123D02*
X1900Y2123D01*
X2831Y2123D02*
X2901Y2123D01*
X1830Y2122D02*
X1899Y2122D01*
X2832Y2122D02*
X2900Y2122D01*
X1831Y2121D02*
X1898Y2121D01*
X2833Y2121D02*
X2899Y2121D01*
X1832Y2120D02*
X1897Y2120D01*
X2833Y2120D02*
X2899Y2120D01*
X1833Y2119D02*
X1897Y2119D01*
X2834Y2119D02*
X2898Y2119D01*
X1834Y2118D02*
X1896Y2118D01*
X2835Y2118D02*
X2897Y2118D01*
X1834Y2117D02*
X1895Y2117D01*
X2836Y2117D02*
X2896Y2117D01*
X1835Y2116D02*
X1894Y2116D01*
X2837Y2116D02*
X2895Y2116D01*
X1836Y2115D02*
X1893Y2115D01*
X2838Y2115D02*
X2894Y2115D01*
X1838Y2114D02*
X1892Y2114D01*
X2839Y2114D02*
X2893Y2114D01*
X1839Y2113D02*
X1891Y2113D01*
X2840Y2113D02*
X2892Y2113D01*
X1840Y2112D02*
X1889Y2112D01*
X2841Y2112D02*
X2891Y2112D01*
X1841Y2111D02*
X1888Y2111D01*
X2843Y2111D02*
X2889Y2111D01*
X1843Y2110D02*
X1886Y2110D01*
X2844Y2110D02*
X2888Y2110D01*
X1845Y2109D02*
X1885Y2109D01*
X2846Y2109D02*
X2886Y2109D01*
X1847Y2108D02*
X1883Y2108D01*
X2848Y2108D02*
X2884Y2108D01*
X1849Y2107D02*
X1881Y2107D01*
X2850Y2107D02*
X2882Y2107D01*
X1851Y2106D02*
X1878Y2106D01*
X2853Y2106D02*
X2879Y2106D01*
X1855Y2105D02*
X1875Y2105D01*
X2856Y2105D02*
X2876Y2105D01*
X1860Y2104D02*
X1870Y2104D01*
X2861Y2104D02*
X2871Y2104D01*
X1859Y2087D02*
X1870Y2087D01*
X2860Y2087D02*
X2872Y2087D01*
X1854Y2086D02*
X1875Y2086D01*
X2856Y2086D02*
X2876Y2086D01*
X1851Y2085D02*
X1878Y2085D01*
X2852Y2085D02*
X2880Y2085D01*
X1848Y2084D02*
X1881Y2084D01*
X2850Y2084D02*
X2882Y2084D01*
X1846Y2083D02*
X1883Y2083D01*
X2848Y2083D02*
X2884Y2083D01*
X1844Y2082D02*
X1885Y2082D01*
X2846Y2082D02*
X2886Y2082D01*
X1843Y2081D02*
X1887Y2081D01*
X2844Y2081D02*
X2888Y2081D01*
X1841Y2080D02*
X1888Y2080D01*
X2843Y2080D02*
X2889Y2080D01*
X1840Y2079D02*
X1889Y2079D01*
X2841Y2079D02*
X2891Y2079D01*
X1839Y2078D02*
X1891Y2078D01*
X2840Y2078D02*
X2892Y2078D01*
X1837Y2077D02*
X1892Y2077D01*
X2839Y2077D02*
X2893Y2077D01*
X1836Y2076D02*
X1893Y2076D01*
X2838Y2076D02*
X2894Y2076D01*
X1835Y2075D02*
X1894Y2075D01*
X2837Y2075D02*
X2895Y2075D01*
X1834Y2074D02*
X1895Y2074D01*
X2836Y2074D02*
X2896Y2074D01*
X1833Y2073D02*
X1896Y2073D01*
X2835Y2073D02*
X2897Y2073D01*
X1833Y2072D02*
X1897Y2072D01*
X2834Y2072D02*
X2898Y2072D01*
X1832Y2071D02*
X1897Y2071D01*
X2833Y2071D02*
X2899Y2071D01*
X1831Y2070D02*
X1898Y2070D01*
X2832Y2070D02*
X2900Y2070D01*
X1830Y2069D02*
X1899Y2069D01*
X2832Y2069D02*
X2900Y2069D01*
X1830Y2068D02*
X1900Y2068D01*
X2831Y2068D02*
X2901Y2068D01*
X1829Y2067D02*
X1900Y2067D01*
X2831Y2067D02*
X2902Y2067D01*
X1829Y2066D02*
X1901Y2066D01*
X2830Y2066D02*
X2902Y2066D01*
X1828Y2065D02*
X1901Y2065D01*
X2829Y2065D02*
X2903Y2065D01*
X1827Y2064D02*
X1902Y2064D01*
X2829Y2064D02*
X2903Y2064D01*
X1827Y2063D02*
X1902Y2063D01*
X2828Y2063D02*
X2904Y2063D01*
X1827Y2062D02*
X1903Y2062D01*
X2828Y2062D02*
X2904Y2062D01*
X1826Y2061D02*
X1903Y2061D01*
X2827Y2061D02*
X2905Y2061D01*
X1826Y2060D02*
X1904Y2060D01*
X2827Y2060D02*
X2905Y2060D01*
X1825Y2059D02*
X1904Y2059D01*
X2827Y2059D02*
X2905Y2059D01*
X1825Y2058D02*
X1904Y2058D01*
X2826Y2058D02*
X2906Y2058D01*
X1825Y2057D02*
X1905Y2057D01*
X2826Y2057D02*
X2906Y2057D01*
X1825Y2056D02*
X1905Y2056D01*
X2826Y2056D02*
X2906Y2056D01*
X1824Y2055D02*
X1905Y2055D01*
X2826Y2055D02*
X2906Y2055D01*
X1824Y2054D02*
X1905Y2054D01*
X2825Y2054D02*
X2907Y2054D01*
X1824Y2053D02*
X1905Y2053D01*
X2825Y2053D02*
X2907Y2053D01*
X1824Y2052D02*
X1906Y2052D01*
X2825Y2052D02*
X2907Y2052D01*
X1824Y2051D02*
X1906Y2051D01*
X2825Y2051D02*
X2907Y2051D01*
X1823Y2050D02*
X1906Y2050D01*
X2825Y2050D02*
X2907Y2050D01*
X1823Y2049D02*
X1906Y2049D01*
X2825Y2049D02*
X2907Y2049D01*
X1823Y2048D02*
X1906Y2048D01*
X2825Y2048D02*
X2907Y2048D01*
X1823Y2047D02*
X1906Y2047D01*
X2825Y2047D02*
X2907Y2047D01*
X1823Y2046D02*
X1906Y2046D01*
X2825Y2046D02*
X2908Y2046D01*
X1823Y2045D02*
X1906Y2045D01*
X2825Y2045D02*
X2908Y2045D01*
X1823Y2044D02*
X1906Y2044D01*
X2825Y2044D02*
X2907Y2044D01*
X1823Y2043D02*
X1906Y2043D01*
X2825Y2043D02*
X2907Y2043D01*
X1823Y2042D02*
X1906Y2042D01*
X2825Y2042D02*
X2907Y2042D01*
X1823Y2041D02*
X1906Y2041D01*
X2825Y2041D02*
X2907Y2041D01*
X1824Y2040D02*
X1906Y2040D01*
X2825Y2040D02*
X2907Y2040D01*
X1824Y2039D02*
X1906Y2039D01*
X2825Y2039D02*
X2907Y2039D01*
X1824Y2038D02*
X1905Y2038D01*
X2825Y2038D02*
X2907Y2038D01*
X1824Y2037D02*
X1905Y2037D01*
X2825Y2037D02*
X2907Y2037D01*
X1824Y2036D02*
X1905Y2036D01*
X2826Y2036D02*
X2906Y2036D01*
X1825Y2035D02*
X1905Y2035D01*
X2826Y2035D02*
X2906Y2035D01*
X1825Y2034D02*
X1905Y2034D01*
X2826Y2034D02*
X2906Y2034D01*
X1825Y2033D02*
X1904Y2033D01*
X2826Y2033D02*
X2906Y2033D01*
X1825Y2032D02*
X1904Y2032D01*
X2827Y2032D02*
X2905Y2032D01*
X1826Y2031D02*
X1904Y2031D01*
X2827Y2031D02*
X2905Y2031D01*
X1826Y2030D02*
X1903Y2030D01*
X2827Y2030D02*
X2905Y2030D01*
X1827Y2029D02*
X1903Y2029D01*
X2828Y2029D02*
X2904Y2029D01*
X1827Y2028D02*
X1902Y2028D01*
X2828Y2028D02*
X2904Y2028D01*
X1827Y2027D02*
X1902Y2027D01*
X2829Y2027D02*
X2903Y2027D01*
X1828Y2026D02*
X1901Y2026D01*
X2829Y2026D02*
X2903Y2026D01*
X1829Y2025D02*
X1901Y2025D01*
X2830Y2025D02*
X2902Y2025D01*
X1829Y2024D02*
X1900Y2024D01*
X2831Y2024D02*
X2902Y2024D01*
X1830Y2023D02*
X1900Y2023D01*
X2831Y2023D02*
X2901Y2023D01*
X1830Y2022D02*
X1899Y2022D01*
X2832Y2022D02*
X2900Y2022D01*
X1831Y2021D02*
X1898Y2021D01*
X2832Y2021D02*
X2900Y2021D01*
X1832Y2020D02*
X1897Y2020D01*
X2833Y2020D02*
X2899Y2020D01*
X1833Y2019D02*
X1897Y2019D01*
X2834Y2019D02*
X2898Y2019D01*
X1833Y2018D02*
X1896Y2018D01*
X2835Y2018D02*
X2897Y2018D01*
X1834Y2017D02*
X1895Y2017D01*
X2836Y2017D02*
X2896Y2017D01*
X1835Y2016D02*
X1894Y2016D01*
X2837Y2016D02*
X2895Y2016D01*
X1836Y2015D02*
X1893Y2015D01*
X2838Y2015D02*
X2894Y2015D01*
X1837Y2014D02*
X1892Y2014D01*
X2839Y2014D02*
X2893Y2014D01*
X1839Y2013D02*
X1891Y2013D01*
X2840Y2013D02*
X2892Y2013D01*
X1840Y2012D02*
X1889Y2012D01*
X2841Y2012D02*
X2891Y2012D01*
X1841Y2011D02*
X1888Y2011D01*
X2843Y2011D02*
X2889Y2011D01*
X1843Y2010D02*
X1887Y2010D01*
X2844Y2010D02*
X2888Y2010D01*
X1844Y2009D02*
X1885Y2009D01*
X2846Y2009D02*
X2886Y2009D01*
X1846Y2008D02*
X1883Y2008D01*
X2848Y2008D02*
X2884Y2008D01*
X1848Y2007D02*
X1881Y2007D01*
X2850Y2007D02*
X2882Y2007D01*
X1851Y2006D02*
X1878Y2006D01*
X2852Y2006D02*
X2880Y2006D01*
X1854Y2005D02*
X1875Y2005D01*
X2856Y2005D02*
X2876Y2005D01*
X1859Y2004D02*
X1870Y2004D01*
X2860Y2004D02*
X2872Y2004D01*
X1860Y1987D02*
X1869Y1987D01*
X2861Y1987D02*
X2871Y1987D01*
X1855Y1986D02*
X1875Y1986D01*
X2856Y1986D02*
X2876Y1986D01*
X1851Y1985D02*
X1878Y1985D01*
X2853Y1985D02*
X2879Y1985D01*
X1849Y1984D02*
X1881Y1984D01*
X2850Y1984D02*
X2882Y1984D01*
X1847Y1983D02*
X1883Y1983D01*
X2848Y1983D02*
X2884Y1983D01*
X1845Y1982D02*
X1885Y1982D01*
X2846Y1982D02*
X2886Y1982D01*
X1843Y1981D02*
X1886Y1981D01*
X2844Y1981D02*
X2888Y1981D01*
X1841Y1980D02*
X1888Y1980D01*
X2843Y1980D02*
X2889Y1980D01*
X1840Y1979D02*
X1889Y1979D01*
X2841Y1979D02*
X2891Y1979D01*
X1839Y1978D02*
X1891Y1978D01*
X2840Y1978D02*
X2892Y1978D01*
X1838Y1977D02*
X1892Y1977D01*
X2839Y1977D02*
X2893Y1977D01*
X1836Y1976D02*
X1893Y1976D01*
X2838Y1976D02*
X2894Y1976D01*
X1835Y1975D02*
X1894Y1975D01*
X2837Y1975D02*
X2895Y1975D01*
X1834Y1974D02*
X1895Y1974D01*
X2836Y1974D02*
X2896Y1974D01*
X1834Y1973D02*
X1896Y1973D01*
X2835Y1973D02*
X2897Y1973D01*
X1833Y1972D02*
X1897Y1972D01*
X2834Y1972D02*
X2898Y1972D01*
X1832Y1971D02*
X1897Y1971D01*
X2833Y1971D02*
X2899Y1971D01*
X1831Y1970D02*
X1898Y1970D01*
X2833Y1970D02*
X2899Y1970D01*
X1831Y1969D02*
X1899Y1969D01*
X2832Y1969D02*
X2900Y1969D01*
X1830Y1968D02*
X1899Y1968D01*
X2831Y1968D02*
X2901Y1968D01*
X1829Y1967D02*
X1900Y1967D01*
X2831Y1967D02*
X2901Y1967D01*
X1829Y1966D02*
X1901Y1966D01*
X2830Y1966D02*
X2902Y1966D01*
X1828Y1965D02*
X1901Y1965D01*
X2829Y1965D02*
X2903Y1965D01*
X1828Y1964D02*
X1902Y1964D01*
X2829Y1964D02*
X2903Y1964D01*
X1827Y1963D02*
X1902Y1963D01*
X2828Y1963D02*
X2904Y1963D01*
X1827Y1962D02*
X1903Y1962D01*
X2828Y1962D02*
X2904Y1962D01*
X1826Y1961D02*
X1903Y1961D01*
X2828Y1961D02*
X2905Y1961D01*
X1826Y1960D02*
X1904Y1960D01*
X2827Y1960D02*
X2905Y1960D01*
X1825Y1959D02*
X1904Y1959D01*
X2827Y1959D02*
X2905Y1959D01*
X1825Y1958D02*
X1904Y1958D01*
X2826Y1958D02*
X2906Y1958D01*
X1825Y1957D02*
X1904Y1957D01*
X2826Y1957D02*
X2906Y1957D01*
X1825Y1956D02*
X1905Y1956D01*
X2826Y1956D02*
X2906Y1956D01*
X1824Y1955D02*
X1905Y1955D01*
X2826Y1955D02*
X2906Y1955D01*
X1824Y1954D02*
X1905Y1954D01*
X2825Y1954D02*
X2907Y1954D01*
X1824Y1953D02*
X1905Y1953D01*
X2825Y1953D02*
X2907Y1953D01*
X1824Y1952D02*
X1906Y1952D01*
X2825Y1952D02*
X2907Y1952D01*
X1824Y1951D02*
X1906Y1951D01*
X2825Y1951D02*
X2907Y1951D01*
X1823Y1950D02*
X1906Y1950D01*
X2825Y1950D02*
X2907Y1950D01*
X1823Y1949D02*
X1906Y1949D01*
X2825Y1949D02*
X2907Y1949D01*
X1823Y1948D02*
X1906Y1948D01*
X2825Y1948D02*
X2907Y1948D01*
X1823Y1947D02*
X1906Y1947D01*
X2825Y1947D02*
X2907Y1947D01*
X1823Y1946D02*
X1906Y1946D01*
X2825Y1946D02*
X2908Y1946D01*
X1823Y1945D02*
X1906Y1945D01*
X2825Y1945D02*
X2908Y1945D01*
X1823Y1944D02*
X1906Y1944D01*
X2825Y1944D02*
X2907Y1944D01*
X1823Y1943D02*
X1906Y1943D01*
X2825Y1943D02*
X2907Y1943D01*
X1823Y1942D02*
X1906Y1942D01*
X2825Y1942D02*
X2907Y1942D01*
X1823Y1941D02*
X1906Y1941D01*
X2825Y1941D02*
X2907Y1941D01*
X1824Y1940D02*
X1906Y1940D01*
X2825Y1940D02*
X2907Y1940D01*
X1824Y1939D02*
X1906Y1939D01*
X2825Y1939D02*
X2907Y1939D01*
X1824Y1938D02*
X1905Y1938D01*
X2825Y1938D02*
X2907Y1938D01*
X1824Y1937D02*
X1905Y1937D01*
X2825Y1937D02*
X2907Y1937D01*
X1824Y1936D02*
X1905Y1936D01*
X2826Y1936D02*
X2906Y1936D01*
X1825Y1935D02*
X1905Y1935D01*
X2826Y1935D02*
X2906Y1935D01*
X1825Y1934D02*
X1905Y1934D01*
X2826Y1934D02*
X2906Y1934D01*
X1825Y1933D02*
X1904Y1933D01*
X2826Y1933D02*
X2906Y1933D01*
X1825Y1932D02*
X1904Y1932D01*
X2827Y1932D02*
X2905Y1932D01*
X1826Y1931D02*
X1904Y1931D01*
X2827Y1931D02*
X2905Y1931D01*
X1826Y1930D02*
X1903Y1930D01*
X2827Y1930D02*
X2905Y1930D01*
X1826Y1929D02*
X1903Y1929D01*
X2828Y1929D02*
X2904Y1929D01*
X1827Y1928D02*
X1902Y1928D01*
X2828Y1928D02*
X2904Y1928D01*
X1827Y1927D02*
X1902Y1927D01*
X2829Y1927D02*
X2903Y1927D01*
X1828Y1926D02*
X1901Y1926D01*
X2829Y1926D02*
X2903Y1926D01*
X1828Y1925D02*
X1901Y1925D01*
X2830Y1925D02*
X2902Y1925D01*
X1829Y1924D02*
X1900Y1924D01*
X2830Y1924D02*
X2902Y1924D01*
X1830Y1923D02*
X1900Y1923D01*
X2831Y1923D02*
X2901Y1923D01*
X1830Y1922D02*
X1899Y1922D01*
X2832Y1922D02*
X2900Y1922D01*
X1831Y1921D02*
X1898Y1921D01*
X2832Y1921D02*
X2900Y1921D01*
X1832Y1920D02*
X1898Y1920D01*
X2833Y1920D02*
X2899Y1920D01*
X1832Y1919D02*
X1897Y1919D01*
X2834Y1919D02*
X2898Y1919D01*
X1833Y1918D02*
X1896Y1918D01*
X2835Y1918D02*
X2897Y1918D01*
X1834Y1917D02*
X1895Y1917D01*
X2836Y1917D02*
X2896Y1917D01*
X1835Y1916D02*
X1894Y1916D01*
X2836Y1916D02*
X2896Y1916D01*
X1836Y1915D02*
X1893Y1915D01*
X2837Y1915D02*
X2895Y1915D01*
X1837Y1914D02*
X1892Y1914D01*
X2839Y1914D02*
X2893Y1914D01*
X1838Y1913D02*
X1891Y1913D01*
X2840Y1913D02*
X2892Y1913D01*
X1840Y1912D02*
X1890Y1912D01*
X2841Y1912D02*
X2891Y1912D01*
X1841Y1911D02*
X1888Y1911D01*
X2842Y1911D02*
X2890Y1911D01*
X1843Y1910D02*
X1887Y1910D01*
X2844Y1910D02*
X2888Y1910D01*
X1844Y1909D02*
X1885Y1909D01*
X2846Y1909D02*
X2886Y1909D01*
X1846Y1908D02*
X1883Y1908D01*
X2847Y1908D02*
X2885Y1908D01*
X1848Y1907D02*
X1881Y1907D01*
X2849Y1907D02*
X2883Y1907D01*
X1851Y1906D02*
X1879Y1906D01*
X2852Y1906D02*
X2880Y1906D01*
X1854Y1905D02*
X1876Y1905D01*
X2855Y1905D02*
X2877Y1905D01*
X1858Y1904D02*
X1871Y1904D01*
X2860Y1904D02*
X2873Y1904D01*
X1861Y1887D02*
X1869Y1887D01*
X2862Y1887D02*
X2870Y1887D01*
X1855Y1886D02*
X1874Y1886D01*
X2857Y1886D02*
X2875Y1886D01*
X1852Y1885D02*
X1878Y1885D01*
X2853Y1885D02*
X2879Y1885D01*
X1849Y1884D02*
X1880Y1884D01*
X2850Y1884D02*
X2882Y1884D01*
X1847Y1883D02*
X1883Y1883D01*
X2848Y1883D02*
X2884Y1883D01*
X1845Y1882D02*
X1884Y1882D01*
X2846Y1882D02*
X2886Y1882D01*
X1843Y1881D02*
X1886Y1881D01*
X2845Y1881D02*
X2887Y1881D01*
X1842Y1880D02*
X1888Y1880D01*
X2843Y1880D02*
X2889Y1880D01*
X1840Y1879D02*
X1889Y1879D01*
X2842Y1879D02*
X2890Y1879D01*
X1839Y1878D02*
X1890Y1878D01*
X2840Y1878D02*
X2892Y1878D01*
X1838Y1877D02*
X1892Y1877D01*
X2839Y1877D02*
X2893Y1877D01*
X1837Y1876D02*
X1893Y1876D01*
X2838Y1876D02*
X2894Y1876D01*
X1836Y1875D02*
X1894Y1875D01*
X2837Y1875D02*
X2895Y1875D01*
X1835Y1874D02*
X1895Y1874D01*
X2836Y1874D02*
X2896Y1874D01*
X1834Y1873D02*
X1896Y1873D01*
X2835Y1873D02*
X2897Y1873D01*
X1833Y1872D02*
X1897Y1872D01*
X2834Y1872D02*
X2898Y1872D01*
X1832Y1871D02*
X1897Y1871D01*
X2833Y1871D02*
X2899Y1871D01*
X1831Y1870D02*
X1898Y1870D01*
X2833Y1870D02*
X2899Y1870D01*
X1831Y1869D02*
X1899Y1869D01*
X2832Y1869D02*
X2900Y1869D01*
X1830Y1868D02*
X1899Y1868D01*
X2831Y1868D02*
X2901Y1868D01*
X1829Y1867D02*
X1900Y1867D01*
X2831Y1867D02*
X2901Y1867D01*
X1829Y1866D02*
X1901Y1866D01*
X2830Y1866D02*
X2902Y1866D01*
X1828Y1865D02*
X1901Y1865D01*
X2829Y1865D02*
X2903Y1865D01*
X1828Y1864D02*
X1902Y1864D01*
X2829Y1864D02*
X2903Y1864D01*
X1827Y1863D02*
X1902Y1863D01*
X2828Y1863D02*
X2904Y1863D01*
X1827Y1862D02*
X1903Y1862D01*
X2828Y1862D02*
X2904Y1862D01*
X1826Y1861D02*
X1903Y1861D01*
X2828Y1861D02*
X2904Y1861D01*
X1826Y1860D02*
X1903Y1860D01*
X2827Y1860D02*
X2905Y1860D01*
X1826Y1859D02*
X1904Y1859D01*
X2827Y1859D02*
X2905Y1859D01*
X1825Y1858D02*
X1904Y1858D01*
X2827Y1858D02*
X2906Y1858D01*
X1825Y1857D02*
X1904Y1857D01*
X2826Y1857D02*
X2906Y1857D01*
X1825Y1856D02*
X1905Y1856D01*
X2826Y1856D02*
X2906Y1856D01*
X1824Y1855D02*
X1905Y1855D01*
X2826Y1855D02*
X2906Y1855D01*
X1824Y1854D02*
X1905Y1854D01*
X2825Y1854D02*
X2907Y1854D01*
X1824Y1853D02*
X1905Y1853D01*
X2825Y1853D02*
X2907Y1853D01*
X1824Y1852D02*
X1906Y1852D01*
X2825Y1852D02*
X2907Y1852D01*
X1824Y1851D02*
X1906Y1851D01*
X2825Y1851D02*
X2907Y1851D01*
X1823Y1850D02*
X1906Y1850D01*
X2825Y1850D02*
X2907Y1850D01*
X1823Y1849D02*
X1906Y1849D01*
X2825Y1849D02*
X2907Y1849D01*
X1823Y1848D02*
X1906Y1848D01*
X2825Y1848D02*
X2907Y1848D01*
X1823Y1847D02*
X1906Y1847D01*
X2825Y1847D02*
X2907Y1847D01*
X1823Y1846D02*
X1906Y1846D01*
X2825Y1846D02*
X2908Y1846D01*
X1823Y1845D02*
X1906Y1845D01*
X2824Y1845D02*
X2908Y1845D01*
X1823Y1844D02*
X1906Y1844D01*
X2825Y1844D02*
X2908Y1844D01*
X1823Y1843D02*
X1906Y1843D01*
X2825Y1843D02*
X2907Y1843D01*
X1823Y1842D02*
X1906Y1842D01*
X2825Y1842D02*
X2907Y1842D01*
X1823Y1841D02*
X1906Y1841D01*
X2825Y1841D02*
X2907Y1841D01*
X1824Y1840D02*
X1906Y1840D01*
X2825Y1840D02*
X2907Y1840D01*
X1824Y1839D02*
X1906Y1839D01*
X2825Y1839D02*
X2907Y1839D01*
X1824Y1838D02*
X1905Y1838D01*
X2825Y1838D02*
X2907Y1838D01*
X1824Y1837D02*
X1905Y1837D01*
X2825Y1837D02*
X2907Y1837D01*
X1824Y1836D02*
X1905Y1836D01*
X2826Y1836D02*
X2906Y1836D01*
X1824Y1835D02*
X1905Y1835D01*
X2826Y1835D02*
X2906Y1835D01*
X1825Y1834D02*
X1905Y1834D01*
X2826Y1834D02*
X2906Y1834D01*
X1825Y1833D02*
X1904Y1833D01*
X2826Y1833D02*
X2906Y1833D01*
X1825Y1832D02*
X1904Y1832D01*
X2827Y1832D02*
X2905Y1832D01*
X1826Y1831D02*
X1904Y1831D01*
X2827Y1831D02*
X2905Y1831D01*
X1826Y1830D02*
X1903Y1830D01*
X2827Y1830D02*
X2905Y1830D01*
X1826Y1829D02*
X1903Y1829D01*
X2828Y1829D02*
X2904Y1829D01*
X1827Y1828D02*
X1902Y1828D01*
X2828Y1828D02*
X2904Y1828D01*
X1827Y1827D02*
X1902Y1827D01*
X2829Y1827D02*
X2903Y1827D01*
X1828Y1826D02*
X1902Y1826D01*
X2829Y1826D02*
X2903Y1826D01*
X1828Y1825D02*
X1901Y1825D01*
X2830Y1825D02*
X2902Y1825D01*
X1829Y1824D02*
X1900Y1824D01*
X2830Y1824D02*
X2902Y1824D01*
X1830Y1823D02*
X1900Y1823D01*
X2831Y1823D02*
X2901Y1823D01*
X1830Y1822D02*
X1899Y1822D01*
X2832Y1822D02*
X2900Y1822D01*
X1831Y1821D02*
X1898Y1821D01*
X2832Y1821D02*
X2900Y1821D01*
X1832Y1820D02*
X1898Y1820D01*
X2833Y1820D02*
X2899Y1820D01*
X1832Y1819D02*
X1897Y1819D01*
X2834Y1819D02*
X2898Y1819D01*
X1833Y1818D02*
X1896Y1818D01*
X2835Y1818D02*
X2898Y1818D01*
X1834Y1817D02*
X1895Y1817D01*
X2835Y1817D02*
X2897Y1817D01*
X1835Y1816D02*
X1894Y1816D01*
X2836Y1816D02*
X2896Y1816D01*
X1836Y1815D02*
X1893Y1815D01*
X2837Y1815D02*
X2895Y1815D01*
X1837Y1814D02*
X1892Y1814D01*
X2838Y1814D02*
X2894Y1814D01*
X1838Y1813D02*
X1891Y1813D01*
X2840Y1813D02*
X2892Y1813D01*
X1840Y1812D02*
X1890Y1812D01*
X2841Y1812D02*
X2891Y1812D01*
X1841Y1811D02*
X1888Y1811D01*
X2842Y1811D02*
X2890Y1811D01*
X1842Y1810D02*
X1887Y1810D01*
X2844Y1810D02*
X2888Y1810D01*
X1844Y1809D02*
X1885Y1809D01*
X2845Y1809D02*
X2887Y1809D01*
X1846Y1808D02*
X1884Y1808D01*
X2847Y1808D02*
X2885Y1808D01*
X1848Y1807D02*
X1882Y1807D01*
X2849Y1807D02*
X2883Y1807D01*
X1850Y1806D02*
X1879Y1806D01*
X2852Y1806D02*
X2881Y1806D01*
X1853Y1805D02*
X1876Y1805D01*
X2855Y1805D02*
X2878Y1805D01*
X1857Y1804D02*
X1872Y1804D01*
X2859Y1804D02*
X2873Y1804D01*
X1863Y1787D02*
X1867Y1787D01*
X2864Y1787D02*
X2868Y1787D01*
X1856Y1786D02*
X1873Y1786D01*
X2857Y1786D02*
X2875Y1786D01*
X1852Y1785D02*
X1877Y1785D01*
X2853Y1785D02*
X2879Y1785D01*
X1849Y1784D02*
X1880Y1784D01*
X2851Y1784D02*
X2881Y1784D01*
X1847Y1783D02*
X1882Y1783D01*
X2848Y1783D02*
X2884Y1783D01*
X1845Y1782D02*
X1884Y1782D01*
X2846Y1782D02*
X2886Y1782D01*
X1843Y1781D02*
X1886Y1781D01*
X2845Y1781D02*
X2887Y1781D01*
X1842Y1780D02*
X1887Y1780D01*
X2843Y1780D02*
X2889Y1780D01*
X1840Y1779D02*
X1889Y1779D01*
X2842Y1779D02*
X2890Y1779D01*
X1839Y1778D02*
X1890Y1778D01*
X2840Y1778D02*
X2892Y1778D01*
X1838Y1777D02*
X1891Y1777D01*
X2839Y1777D02*
X2893Y1777D01*
X1837Y1776D02*
X1893Y1776D01*
X2838Y1776D02*
X2894Y1776D01*
X1836Y1775D02*
X1894Y1775D01*
X2837Y1775D02*
X2895Y1775D01*
X1835Y1774D02*
X1895Y1774D01*
X2836Y1774D02*
X2896Y1774D01*
X1834Y1773D02*
X1896Y1773D01*
X2835Y1773D02*
X2897Y1773D01*
X1833Y1772D02*
X1896Y1772D01*
X2834Y1772D02*
X2898Y1772D01*
X1832Y1771D02*
X1897Y1771D01*
X2834Y1771D02*
X2899Y1771D01*
X1831Y1770D02*
X1898Y1770D01*
X2833Y1770D02*
X2899Y1770D01*
X1831Y1769D02*
X1899Y1769D01*
X2832Y1769D02*
X2900Y1769D01*
X1830Y1768D02*
X1899Y1768D01*
X2831Y1768D02*
X2901Y1768D01*
X1829Y1767D02*
X1900Y1767D01*
X2831Y1767D02*
X2901Y1767D01*
X1829Y1766D02*
X1901Y1766D01*
X2830Y1766D02*
X2902Y1766D01*
X1828Y1765D02*
X1901Y1765D01*
X2830Y1765D02*
X2903Y1765D01*
X1828Y1764D02*
X1902Y1764D01*
X2829Y1764D02*
X2903Y1764D01*
X1827Y1763D02*
X1902Y1763D01*
X2829Y1763D02*
X2904Y1763D01*
X1827Y1762D02*
X1903Y1762D01*
X2828Y1762D02*
X2904Y1762D01*
X1826Y1761D02*
X1903Y1761D01*
X2828Y1761D02*
X2904Y1761D01*
X1826Y1760D02*
X1903Y1760D01*
X2827Y1760D02*
X2905Y1760D01*
X1826Y1759D02*
X1904Y1759D01*
X2827Y1759D02*
X2905Y1759D01*
X1825Y1758D02*
X1904Y1758D01*
X2827Y1758D02*
X2905Y1758D01*
X1825Y1757D02*
X1904Y1757D01*
X2826Y1757D02*
X2906Y1757D01*
X1825Y1756D02*
X1905Y1756D01*
X2826Y1756D02*
X2906Y1756D01*
X1824Y1755D02*
X1905Y1755D01*
X2826Y1755D02*
X2906Y1755D01*
X1824Y1754D02*
X1905Y1754D01*
X2826Y1754D02*
X2907Y1754D01*
X1824Y1753D02*
X1905Y1753D01*
X2825Y1753D02*
X2907Y1753D01*
X1824Y1752D02*
X1906Y1752D01*
X2825Y1752D02*
X2907Y1752D01*
X1824Y1751D02*
X1906Y1751D01*
X2825Y1751D02*
X2907Y1751D01*
X1823Y1750D02*
X1906Y1750D01*
X2825Y1750D02*
X2907Y1750D01*
X1823Y1749D02*
X1906Y1749D01*
X2825Y1749D02*
X2907Y1749D01*
X1823Y1748D02*
X1906Y1748D01*
X2825Y1748D02*
X2907Y1748D01*
X1823Y1747D02*
X1906Y1747D01*
X2825Y1747D02*
X2907Y1747D01*
X1823Y1746D02*
X1906Y1746D01*
X2825Y1746D02*
X2908Y1746D01*
X1823Y1745D02*
X1906Y1745D01*
X2824Y1745D02*
X2908Y1745D01*
X1823Y1744D02*
X1906Y1744D01*
X2825Y1744D02*
X2908Y1744D01*
X1823Y1743D02*
X1906Y1743D01*
X2825Y1743D02*
X2907Y1743D01*
X1823Y1742D02*
X1906Y1742D01*
X2825Y1742D02*
X2907Y1742D01*
X1823Y1741D02*
X1906Y1741D01*
X2825Y1741D02*
X2907Y1741D01*
X1824Y1740D02*
X1906Y1740D01*
X2825Y1740D02*
X2907Y1740D01*
X1824Y1739D02*
X1906Y1739D01*
X2825Y1739D02*
X2907Y1739D01*
X1824Y1738D02*
X1906Y1738D01*
X2825Y1738D02*
X2907Y1738D01*
X1824Y1737D02*
X1905Y1737D01*
X2825Y1737D02*
X2907Y1737D01*
X1824Y1736D02*
X1905Y1736D01*
X2826Y1736D02*
X2906Y1736D01*
X1824Y1735D02*
X1905Y1735D01*
X2826Y1735D02*
X2906Y1735D01*
X1825Y1734D02*
X1905Y1734D01*
X2826Y1734D02*
X2906Y1734D01*
X1825Y1733D02*
X1904Y1733D01*
X2826Y1733D02*
X2906Y1733D01*
X1825Y1732D02*
X1904Y1732D01*
X2827Y1732D02*
X2905Y1732D01*
X1826Y1731D02*
X1904Y1731D01*
X2827Y1731D02*
X2905Y1731D01*
X1826Y1730D02*
X1903Y1730D01*
X2827Y1730D02*
X2905Y1730D01*
X1826Y1729D02*
X1903Y1729D01*
X2828Y1729D02*
X2904Y1729D01*
X1827Y1728D02*
X1903Y1728D01*
X2828Y1728D02*
X2904Y1728D01*
X1827Y1727D02*
X1902Y1727D01*
X2829Y1727D02*
X2903Y1727D01*
X1828Y1726D02*
X1902Y1726D01*
X2829Y1726D02*
X2903Y1726D01*
X1828Y1725D02*
X1901Y1725D01*
X2830Y1725D02*
X2902Y1725D01*
X1829Y1724D02*
X1900Y1724D01*
X2830Y1724D02*
X2902Y1724D01*
X1830Y1723D02*
X1900Y1723D01*
X2831Y1723D02*
X2901Y1723D01*
X1830Y1722D02*
X1899Y1722D01*
X2831Y1722D02*
X2901Y1722D01*
X1831Y1721D02*
X1899Y1721D01*
X2832Y1721D02*
X2900Y1721D01*
X1832Y1720D02*
X1898Y1720D01*
X2833Y1720D02*
X2899Y1720D01*
X1832Y1719D02*
X1897Y1719D01*
X2834Y1719D02*
X2898Y1719D01*
X1833Y1718D02*
X1896Y1718D01*
X2834Y1718D02*
X2898Y1718D01*
X1834Y1717D02*
X1895Y1717D01*
X2835Y1717D02*
X2897Y1717D01*
X1835Y1716D02*
X1894Y1716D01*
X2836Y1716D02*
X2896Y1716D01*
X1836Y1715D02*
X1894Y1715D01*
X2837Y1715D02*
X2895Y1715D01*
X1837Y1714D02*
X1892Y1714D01*
X2838Y1714D02*
X2894Y1714D01*
X1838Y1713D02*
X1891Y1713D01*
X2839Y1713D02*
X2893Y1713D01*
X1839Y1712D02*
X1890Y1712D01*
X2841Y1712D02*
X2891Y1712D01*
X1841Y1711D02*
X1889Y1711D01*
X2842Y1711D02*
X2890Y1711D01*
X1842Y1710D02*
X1887Y1710D01*
X2843Y1710D02*
X2889Y1710D01*
X1844Y1709D02*
X1886Y1709D01*
X2845Y1709D02*
X2887Y1709D01*
X1845Y1708D02*
X1884Y1708D01*
X2847Y1708D02*
X2885Y1708D01*
X1847Y1707D02*
X1882Y1707D01*
X2849Y1707D02*
X2883Y1707D01*
X1850Y1706D02*
X1880Y1706D01*
X2851Y1706D02*
X2881Y1706D01*
X1853Y1705D02*
X1877Y1705D01*
X2854Y1705D02*
X2878Y1705D01*
X1857Y1704D02*
X1873Y1704D01*
X2858Y1704D02*
X2874Y1704D01*
X3435Y1701D02*
X3497Y1701D01*
X3735Y1701D02*
X3797Y1701D01*
X3431Y1700D02*
X3501Y1700D01*
X3731Y1700D02*
X3801Y1700D01*
X3428Y1699D02*
X3503Y1699D01*
X3728Y1699D02*
X3803Y1699D01*
X3426Y1698D02*
X3506Y1698D01*
X3726Y1698D02*
X3806Y1698D01*
X3425Y1697D02*
X3507Y1697D01*
X3725Y1697D02*
X3807Y1697D01*
X3423Y1696D02*
X3509Y1696D01*
X3723Y1696D02*
X3809Y1696D01*
X3422Y1695D02*
X3510Y1695D01*
X3722Y1695D02*
X3810Y1695D01*
X3420Y1694D02*
X3512Y1694D01*
X3720Y1694D02*
X3812Y1694D01*
X3419Y1693D02*
X3513Y1693D01*
X3719Y1693D02*
X3813Y1693D01*
X3418Y1692D02*
X3514Y1692D01*
X3718Y1692D02*
X3814Y1692D01*
X3417Y1691D02*
X3515Y1691D01*
X3717Y1691D02*
X3815Y1691D01*
X3416Y1690D02*
X3516Y1690D01*
X3716Y1690D02*
X3815Y1690D01*
X3416Y1689D02*
X3516Y1689D01*
X3716Y1689D02*
X3816Y1689D01*
X3415Y1688D02*
X3517Y1688D01*
X3715Y1688D02*
X3817Y1688D01*
X3414Y1687D02*
X3518Y1687D01*
X3714Y1687D02*
X3818Y1687D01*
X1856Y1686D02*
X1873Y1686D01*
X2858Y1686D02*
X2874Y1686D01*
X3414Y1686D02*
X3518Y1686D01*
X3714Y1686D02*
X3818Y1686D01*
X1853Y1685D02*
X1877Y1685D01*
X2854Y1685D02*
X2878Y1685D01*
X3413Y1685D02*
X3519Y1685D01*
X3713Y1685D02*
X3819Y1685D01*
X1850Y1684D02*
X1880Y1684D01*
X2851Y1684D02*
X2881Y1684D01*
X3413Y1684D02*
X3519Y1684D01*
X3713Y1684D02*
X3819Y1684D01*
X1847Y1683D02*
X1882Y1683D01*
X2849Y1683D02*
X2883Y1683D01*
X3412Y1683D02*
X3520Y1683D01*
X3712Y1683D02*
X3820Y1683D01*
X1845Y1682D02*
X1884Y1682D01*
X2847Y1682D02*
X2885Y1682D01*
X3412Y1682D02*
X3520Y1682D01*
X3712Y1682D02*
X3820Y1682D01*
X1844Y1681D02*
X1886Y1681D01*
X2845Y1681D02*
X2887Y1681D01*
X3411Y1681D02*
X3462Y1681D01*
X3470Y1681D02*
X3521Y1681D01*
X3711Y1681D02*
X3762Y1681D01*
X3770Y1681D02*
X3820Y1681D01*
X1842Y1680D02*
X1887Y1680D01*
X2843Y1680D02*
X2889Y1680D01*
X3411Y1680D02*
X3460Y1680D01*
X3472Y1680D02*
X3521Y1680D01*
X3711Y1680D02*
X3760Y1680D01*
X3772Y1680D02*
X3821Y1680D01*
X1841Y1679D02*
X1889Y1679D01*
X2842Y1679D02*
X2890Y1679D01*
X3411Y1679D02*
X3459Y1679D01*
X3473Y1679D02*
X3521Y1679D01*
X3711Y1679D02*
X3758Y1679D01*
X3773Y1679D02*
X3821Y1679D01*
X1839Y1678D02*
X1890Y1678D01*
X2841Y1678D02*
X2891Y1678D01*
X3410Y1678D02*
X3457Y1678D01*
X3474Y1678D02*
X3521Y1678D01*
X3710Y1678D02*
X3757Y1678D01*
X3774Y1678D02*
X3821Y1678D01*
X1838Y1677D02*
X1891Y1677D01*
X2839Y1677D02*
X2893Y1677D01*
X3410Y1677D02*
X3457Y1677D01*
X3475Y1677D02*
X3522Y1677D01*
X3710Y1677D02*
X3757Y1677D01*
X3775Y1677D02*
X3822Y1677D01*
X1837Y1676D02*
X1892Y1676D01*
X2838Y1676D02*
X2894Y1676D01*
X3410Y1676D02*
X3456Y1676D01*
X3476Y1676D02*
X3522Y1676D01*
X3710Y1676D02*
X3756Y1676D01*
X3776Y1676D02*
X3822Y1676D01*
X1836Y1675D02*
X1894Y1675D01*
X2837Y1675D02*
X2895Y1675D01*
X3410Y1675D02*
X3455Y1675D01*
X3477Y1675D02*
X3522Y1675D01*
X3710Y1675D02*
X3755Y1675D01*
X3777Y1675D02*
X3822Y1675D01*
X1835Y1674D02*
X1895Y1674D01*
X2836Y1674D02*
X2896Y1674D01*
X3410Y1674D02*
X3455Y1674D01*
X3477Y1674D02*
X3522Y1674D01*
X3710Y1674D02*
X3755Y1674D01*
X3777Y1674D02*
X3822Y1674D01*
X1834Y1673D02*
X1895Y1673D01*
X2835Y1673D02*
X2897Y1673D01*
X3410Y1673D02*
X3455Y1673D01*
X3477Y1673D02*
X3522Y1673D01*
X3710Y1673D02*
X3755Y1673D01*
X3777Y1673D02*
X3822Y1673D01*
X1833Y1672D02*
X1896Y1672D01*
X2834Y1672D02*
X2898Y1672D01*
X3410Y1672D02*
X3455Y1672D01*
X3477Y1672D02*
X3522Y1672D01*
X3710Y1672D02*
X3755Y1672D01*
X3777Y1672D02*
X3822Y1672D01*
X1832Y1671D02*
X1897Y1671D01*
X2834Y1671D02*
X2898Y1671D01*
X3409Y1671D02*
X3455Y1671D01*
X3477Y1671D02*
X3522Y1671D01*
X3709Y1671D02*
X3754Y1671D01*
X3777Y1671D02*
X3822Y1671D01*
X1832Y1670D02*
X1898Y1670D01*
X2833Y1670D02*
X2899Y1670D01*
X3409Y1670D02*
X3455Y1670D01*
X3477Y1670D02*
X3522Y1670D01*
X3709Y1670D02*
X3754Y1670D01*
X3777Y1670D02*
X3822Y1670D01*
X1831Y1669D02*
X1899Y1669D01*
X2832Y1669D02*
X2900Y1669D01*
X3410Y1669D02*
X3455Y1669D01*
X3477Y1669D02*
X3522Y1669D01*
X3710Y1669D02*
X3755Y1669D01*
X3777Y1669D02*
X3822Y1669D01*
X1830Y1668D02*
X1899Y1668D01*
X2831Y1668D02*
X2901Y1668D01*
X3410Y1668D02*
X3455Y1668D01*
X3477Y1668D02*
X3522Y1668D01*
X3710Y1668D02*
X3755Y1668D01*
X3777Y1668D02*
X3822Y1668D01*
X1829Y1667D02*
X1900Y1667D01*
X2831Y1667D02*
X2901Y1667D01*
X3410Y1667D02*
X3455Y1667D01*
X3477Y1667D02*
X3522Y1667D01*
X3710Y1667D02*
X3755Y1667D01*
X3777Y1667D02*
X3822Y1667D01*
X1829Y1666D02*
X1900Y1666D01*
X2830Y1666D02*
X2902Y1666D01*
X3410Y1666D02*
X3455Y1666D01*
X3477Y1666D02*
X3522Y1666D01*
X3710Y1666D02*
X3755Y1666D01*
X3777Y1666D02*
X3822Y1666D01*
X1828Y1665D02*
X1901Y1665D01*
X2830Y1665D02*
X2902Y1665D01*
X3410Y1665D02*
X3456Y1665D01*
X3476Y1665D02*
X3522Y1665D01*
X3710Y1665D02*
X3756Y1665D01*
X3776Y1665D02*
X3822Y1665D01*
X1828Y1664D02*
X1902Y1664D01*
X2829Y1664D02*
X2903Y1664D01*
X3410Y1664D02*
X3457Y1664D01*
X3475Y1664D02*
X3522Y1664D01*
X3710Y1664D02*
X3757Y1664D01*
X3775Y1664D02*
X3822Y1664D01*
X1827Y1663D02*
X1902Y1663D01*
X2829Y1663D02*
X2903Y1663D01*
X3410Y1663D02*
X3457Y1663D01*
X3474Y1663D02*
X3521Y1663D01*
X3710Y1663D02*
X3757Y1663D01*
X3774Y1663D02*
X3821Y1663D01*
X1827Y1662D02*
X1903Y1662D01*
X2828Y1662D02*
X2904Y1662D01*
X3411Y1662D02*
X3459Y1662D01*
X3473Y1662D02*
X3521Y1662D01*
X3711Y1662D02*
X3759Y1662D01*
X3773Y1662D02*
X3821Y1662D01*
X1826Y1661D02*
X1903Y1661D01*
X2828Y1661D02*
X2904Y1661D01*
X3411Y1661D02*
X3460Y1661D01*
X3472Y1661D02*
X3521Y1661D01*
X3711Y1661D02*
X3760Y1661D01*
X3772Y1661D02*
X3821Y1661D01*
X1826Y1660D02*
X1903Y1660D01*
X2827Y1660D02*
X2905Y1660D01*
X3411Y1660D02*
X3462Y1660D01*
X3470Y1660D02*
X3520Y1660D01*
X3711Y1660D02*
X3762Y1660D01*
X3770Y1660D02*
X3820Y1660D01*
X1826Y1659D02*
X1904Y1659D01*
X2827Y1659D02*
X2905Y1659D01*
X3412Y1659D02*
X3520Y1659D01*
X3712Y1659D02*
X3820Y1659D01*
X1825Y1658D02*
X1904Y1658D01*
X2827Y1658D02*
X2905Y1658D01*
X3412Y1658D02*
X3520Y1658D01*
X3712Y1658D02*
X3820Y1658D01*
X1825Y1657D02*
X1904Y1657D01*
X2826Y1657D02*
X2906Y1657D01*
X3413Y1657D02*
X3519Y1657D01*
X3713Y1657D02*
X3819Y1657D01*
X1825Y1656D02*
X1905Y1656D01*
X2826Y1656D02*
X2906Y1656D01*
X3413Y1656D02*
X3519Y1656D01*
X3713Y1656D02*
X3819Y1656D01*
X1824Y1655D02*
X1905Y1655D01*
X2826Y1655D02*
X2906Y1655D01*
X3414Y1655D02*
X3518Y1655D01*
X3714Y1655D02*
X3818Y1655D01*
X1824Y1654D02*
X1905Y1654D01*
X2826Y1654D02*
X2907Y1654D01*
X3414Y1654D02*
X3518Y1654D01*
X3714Y1654D02*
X3818Y1654D01*
X1824Y1653D02*
X1905Y1653D01*
X2825Y1653D02*
X2907Y1653D01*
X3415Y1653D02*
X3517Y1653D01*
X3715Y1653D02*
X3817Y1653D01*
X1824Y1652D02*
X1906Y1652D01*
X2825Y1652D02*
X2907Y1652D01*
X3416Y1652D02*
X3516Y1652D01*
X3716Y1652D02*
X3816Y1652D01*
X1824Y1651D02*
X1906Y1651D01*
X2825Y1651D02*
X2907Y1651D01*
X3416Y1651D02*
X3516Y1651D01*
X3716Y1651D02*
X3815Y1651D01*
X1824Y1650D02*
X1906Y1650D01*
X2825Y1650D02*
X2907Y1650D01*
X3417Y1650D02*
X3515Y1650D01*
X3717Y1650D02*
X3815Y1650D01*
X1823Y1649D02*
X1906Y1649D01*
X2825Y1649D02*
X2907Y1649D01*
X3418Y1649D02*
X3514Y1649D01*
X3718Y1649D02*
X3814Y1649D01*
X1823Y1648D02*
X1906Y1648D01*
X2825Y1648D02*
X2907Y1648D01*
X3419Y1648D02*
X3513Y1648D01*
X3719Y1648D02*
X3813Y1648D01*
X1823Y1647D02*
X1906Y1647D01*
X2825Y1647D02*
X2907Y1647D01*
X3420Y1647D02*
X3512Y1647D01*
X3720Y1647D02*
X3812Y1647D01*
X1823Y1646D02*
X1906Y1646D01*
X2825Y1646D02*
X2908Y1646D01*
X3422Y1646D02*
X3510Y1646D01*
X3722Y1646D02*
X3810Y1646D01*
X1823Y1645D02*
X1906Y1645D01*
X2824Y1645D02*
X2908Y1645D01*
X3423Y1645D02*
X3509Y1645D01*
X3723Y1645D02*
X3809Y1645D01*
X1823Y1644D02*
X1906Y1644D01*
X2825Y1644D02*
X2908Y1644D01*
X3425Y1644D02*
X3507Y1644D01*
X3725Y1644D02*
X3807Y1644D01*
X1823Y1643D02*
X1906Y1643D01*
X2825Y1643D02*
X2907Y1643D01*
X3426Y1643D02*
X3505Y1643D01*
X3726Y1643D02*
X3805Y1643D01*
X1823Y1642D02*
X1906Y1642D01*
X2825Y1642D02*
X2907Y1642D01*
X3429Y1642D02*
X3503Y1642D01*
X3729Y1642D02*
X3803Y1642D01*
X1823Y1641D02*
X1906Y1641D01*
X2825Y1641D02*
X2907Y1641D01*
X3431Y1641D02*
X3501Y1641D01*
X3731Y1641D02*
X3801Y1641D01*
X1823Y1640D02*
X1906Y1640D01*
X2825Y1640D02*
X2907Y1640D01*
X3435Y1640D02*
X3496Y1640D01*
X3735Y1640D02*
X3796Y1640D01*
X1824Y1639D02*
X1906Y1639D01*
X2825Y1639D02*
X2907Y1639D01*
X1824Y1638D02*
X1906Y1638D01*
X2825Y1638D02*
X2907Y1638D01*
X1824Y1637D02*
X1905Y1637D01*
X2825Y1637D02*
X2907Y1637D01*
X1824Y1636D02*
X1905Y1636D01*
X2826Y1636D02*
X2907Y1636D01*
X1824Y1635D02*
X1905Y1635D01*
X2826Y1635D02*
X2906Y1635D01*
X1825Y1634D02*
X1905Y1634D01*
X2826Y1634D02*
X2906Y1634D01*
X1825Y1633D02*
X1904Y1633D01*
X2826Y1633D02*
X2906Y1633D01*
X1825Y1632D02*
X1904Y1632D01*
X2827Y1632D02*
X2905Y1632D01*
X1826Y1631D02*
X1904Y1631D01*
X2827Y1631D02*
X2905Y1631D01*
X1826Y1630D02*
X1903Y1630D01*
X2827Y1630D02*
X2905Y1630D01*
X1826Y1629D02*
X1903Y1629D01*
X2828Y1629D02*
X2904Y1629D01*
X1827Y1628D02*
X1903Y1628D01*
X2828Y1628D02*
X2904Y1628D01*
X1827Y1627D02*
X1902Y1627D01*
X2829Y1627D02*
X2903Y1627D01*
X1828Y1626D02*
X1902Y1626D01*
X2829Y1626D02*
X2903Y1626D01*
X1828Y1625D02*
X1901Y1625D01*
X2830Y1625D02*
X2903Y1625D01*
X1829Y1624D02*
X1901Y1624D01*
X2830Y1624D02*
X2902Y1624D01*
X1829Y1623D02*
X1900Y1623D01*
X2831Y1623D02*
X2901Y1623D01*
X1830Y1622D02*
X1899Y1622D01*
X2831Y1622D02*
X2901Y1622D01*
X1831Y1621D02*
X1899Y1621D01*
X2832Y1621D02*
X2900Y1621D01*
X1831Y1620D02*
X1898Y1620D01*
X2833Y1620D02*
X2899Y1620D01*
X1832Y1619D02*
X1897Y1619D01*
X2834Y1619D02*
X2899Y1619D01*
X1833Y1618D02*
X1896Y1618D01*
X2834Y1618D02*
X2898Y1618D01*
X1834Y1617D02*
X1896Y1617D01*
X2835Y1617D02*
X2897Y1617D01*
X1835Y1616D02*
X1895Y1616D01*
X2836Y1616D02*
X2896Y1616D01*
X1836Y1615D02*
X1894Y1615D01*
X2837Y1615D02*
X2895Y1615D01*
X1837Y1614D02*
X1893Y1614D01*
X2838Y1614D02*
X2894Y1614D01*
X1838Y1613D02*
X1891Y1613D01*
X2839Y1613D02*
X2893Y1613D01*
X1839Y1612D02*
X1890Y1612D01*
X2841Y1612D02*
X2892Y1612D01*
X1841Y1611D02*
X1889Y1611D01*
X2842Y1611D02*
X2890Y1611D01*
X1842Y1610D02*
X1887Y1610D01*
X2843Y1610D02*
X2889Y1610D01*
X1844Y1609D02*
X1886Y1609D01*
X2845Y1609D02*
X2887Y1609D01*
X1845Y1608D02*
X1884Y1608D01*
X2847Y1608D02*
X2886Y1608D01*
X1847Y1607D02*
X1882Y1607D01*
X2849Y1607D02*
X2884Y1607D01*
X1849Y1606D02*
X1880Y1606D01*
X2851Y1606D02*
X2881Y1606D01*
X1852Y1605D02*
X1877Y1605D01*
X2854Y1605D02*
X2879Y1605D01*
X1856Y1604D02*
X1873Y1604D01*
X2857Y1604D02*
X2875Y1604D01*
X1863Y1603D02*
X1866Y1603D01*
X2865Y1603D02*
X2867Y1603D01*
X3435Y1601D02*
X3497Y1601D01*
X3735Y1601D02*
X3797Y1601D01*
X3431Y1600D02*
X3501Y1600D01*
X3731Y1600D02*
X3801Y1600D01*
X3428Y1599D02*
X3503Y1599D01*
X3728Y1599D02*
X3803Y1599D01*
X3426Y1598D02*
X3506Y1598D01*
X3726Y1598D02*
X3806Y1598D01*
X3425Y1597D02*
X3507Y1597D01*
X3725Y1597D02*
X3807Y1597D01*
X3423Y1596D02*
X3509Y1596D01*
X3723Y1596D02*
X3809Y1596D01*
X3422Y1595D02*
X3510Y1595D01*
X3722Y1595D02*
X3810Y1595D01*
X3420Y1594D02*
X3512Y1594D01*
X3720Y1594D02*
X3812Y1594D01*
X3419Y1593D02*
X3513Y1593D01*
X3719Y1593D02*
X3813Y1593D01*
X3418Y1592D02*
X3514Y1592D01*
X3718Y1592D02*
X3814Y1592D01*
X3417Y1591D02*
X3515Y1591D01*
X3717Y1591D02*
X3815Y1591D01*
X3416Y1590D02*
X3516Y1590D01*
X3716Y1590D02*
X3815Y1590D01*
X3416Y1589D02*
X3516Y1589D01*
X3716Y1589D02*
X3816Y1589D01*
X3415Y1588D02*
X3517Y1588D01*
X3715Y1588D02*
X3817Y1588D01*
X3414Y1587D02*
X3518Y1587D01*
X3714Y1587D02*
X3818Y1587D01*
X1857Y1586D02*
X1872Y1586D01*
X2858Y1586D02*
X2874Y1586D01*
X3414Y1586D02*
X3518Y1586D01*
X3714Y1586D02*
X3818Y1586D01*
X1853Y1585D02*
X1876Y1585D01*
X2854Y1585D02*
X2878Y1585D01*
X3413Y1585D02*
X3519Y1585D01*
X3713Y1585D02*
X3819Y1585D01*
X1850Y1584D02*
X1879Y1584D01*
X2851Y1584D02*
X2881Y1584D01*
X3413Y1584D02*
X3519Y1584D01*
X3713Y1584D02*
X3819Y1584D01*
X1848Y1583D02*
X1882Y1583D01*
X2849Y1583D02*
X2883Y1583D01*
X3412Y1583D02*
X3520Y1583D01*
X3712Y1583D02*
X3820Y1583D01*
X1846Y1582D02*
X1884Y1582D01*
X2847Y1582D02*
X2885Y1582D01*
X3412Y1582D02*
X3520Y1582D01*
X3712Y1582D02*
X3820Y1582D01*
X1844Y1581D02*
X1885Y1581D01*
X2845Y1581D02*
X2887Y1581D01*
X3411Y1581D02*
X3462Y1581D01*
X3470Y1581D02*
X3521Y1581D01*
X3711Y1581D02*
X3762Y1581D01*
X3770Y1581D02*
X3820Y1581D01*
X1842Y1580D02*
X1887Y1580D01*
X2844Y1580D02*
X2888Y1580D01*
X3411Y1580D02*
X3460Y1580D01*
X3472Y1580D02*
X3521Y1580D01*
X3711Y1580D02*
X3760Y1580D01*
X3772Y1580D02*
X3821Y1580D01*
X1841Y1579D02*
X1889Y1579D01*
X2842Y1579D02*
X2890Y1579D01*
X3411Y1579D02*
X3459Y1579D01*
X3473Y1579D02*
X3521Y1579D01*
X3711Y1579D02*
X3758Y1579D01*
X3773Y1579D02*
X3821Y1579D01*
X1839Y1578D02*
X1890Y1578D01*
X2841Y1578D02*
X2891Y1578D01*
X3410Y1578D02*
X3457Y1578D01*
X3474Y1578D02*
X3521Y1578D01*
X3710Y1578D02*
X3757Y1578D01*
X3774Y1578D02*
X3821Y1578D01*
X1838Y1577D02*
X1891Y1577D01*
X2840Y1577D02*
X2893Y1577D01*
X3410Y1577D02*
X3457Y1577D01*
X3475Y1577D02*
X3522Y1577D01*
X3710Y1577D02*
X3757Y1577D01*
X3775Y1577D02*
X3822Y1577D01*
X1837Y1576D02*
X1892Y1576D01*
X2838Y1576D02*
X2894Y1576D01*
X3410Y1576D02*
X3456Y1576D01*
X3476Y1576D02*
X3522Y1576D01*
X3710Y1576D02*
X3756Y1576D01*
X3776Y1576D02*
X3822Y1576D01*
X1836Y1575D02*
X1893Y1575D01*
X2837Y1575D02*
X2895Y1575D01*
X3410Y1575D02*
X3455Y1575D01*
X3477Y1575D02*
X3522Y1575D01*
X3710Y1575D02*
X3755Y1575D01*
X3777Y1575D02*
X3822Y1575D01*
X1835Y1574D02*
X1894Y1574D01*
X2836Y1574D02*
X2896Y1574D01*
X3410Y1574D02*
X3455Y1574D01*
X3477Y1574D02*
X3522Y1574D01*
X3710Y1574D02*
X3755Y1574D01*
X3777Y1574D02*
X3822Y1574D01*
X1834Y1573D02*
X1895Y1573D01*
X2835Y1573D02*
X2897Y1573D01*
X3410Y1573D02*
X3455Y1573D01*
X3477Y1573D02*
X3522Y1573D01*
X3710Y1573D02*
X3755Y1573D01*
X3777Y1573D02*
X3822Y1573D01*
X1833Y1572D02*
X1896Y1572D01*
X2835Y1572D02*
X2898Y1572D01*
X3410Y1572D02*
X3455Y1572D01*
X3477Y1572D02*
X3522Y1572D01*
X3710Y1572D02*
X3755Y1572D01*
X3777Y1572D02*
X3822Y1572D01*
X1832Y1571D02*
X1897Y1571D01*
X2834Y1571D02*
X2898Y1571D01*
X3409Y1571D02*
X3455Y1571D01*
X3477Y1571D02*
X3522Y1571D01*
X3709Y1571D02*
X3754Y1571D01*
X3777Y1571D02*
X3822Y1571D01*
X1832Y1570D02*
X1898Y1570D01*
X2833Y1570D02*
X2899Y1570D01*
X3409Y1570D02*
X3455Y1570D01*
X3477Y1570D02*
X3522Y1570D01*
X3709Y1570D02*
X3754Y1570D01*
X3777Y1570D02*
X3822Y1570D01*
X1831Y1569D02*
X1898Y1569D01*
X2832Y1569D02*
X2900Y1569D01*
X3410Y1569D02*
X3455Y1569D01*
X3477Y1569D02*
X3522Y1569D01*
X3710Y1569D02*
X3755Y1569D01*
X3777Y1569D02*
X3822Y1569D01*
X1830Y1568D02*
X1899Y1568D01*
X2832Y1568D02*
X2901Y1568D01*
X3410Y1568D02*
X3455Y1568D01*
X3477Y1568D02*
X3522Y1568D01*
X3710Y1568D02*
X3755Y1568D01*
X3777Y1568D02*
X3822Y1568D01*
X1830Y1567D02*
X1900Y1567D01*
X2831Y1567D02*
X2901Y1567D01*
X3410Y1567D02*
X3455Y1567D01*
X3477Y1567D02*
X3522Y1567D01*
X3710Y1567D02*
X3755Y1567D01*
X3777Y1567D02*
X3822Y1567D01*
X1829Y1566D02*
X1900Y1566D01*
X2830Y1566D02*
X2902Y1566D01*
X3410Y1566D02*
X3455Y1566D01*
X3477Y1566D02*
X3522Y1566D01*
X3710Y1566D02*
X3755Y1566D01*
X3777Y1566D02*
X3822Y1566D01*
X1828Y1565D02*
X1901Y1565D01*
X2830Y1565D02*
X2902Y1565D01*
X3410Y1565D02*
X3456Y1565D01*
X3476Y1565D02*
X3522Y1565D01*
X3710Y1565D02*
X3756Y1565D01*
X3776Y1565D02*
X3822Y1565D01*
X1828Y1564D02*
X1902Y1564D01*
X2829Y1564D02*
X2903Y1564D01*
X3410Y1564D02*
X3457Y1564D01*
X3475Y1564D02*
X3522Y1564D01*
X3710Y1564D02*
X3757Y1564D01*
X3775Y1564D02*
X3822Y1564D01*
X1827Y1563D02*
X1902Y1563D01*
X2829Y1563D02*
X2903Y1563D01*
X3411Y1563D02*
X3457Y1563D01*
X3474Y1563D02*
X3521Y1563D01*
X3710Y1563D02*
X3757Y1563D01*
X3774Y1563D02*
X3821Y1563D01*
X1827Y1562D02*
X1903Y1562D01*
X2828Y1562D02*
X2904Y1562D01*
X3411Y1562D02*
X3459Y1562D01*
X3473Y1562D02*
X3521Y1562D01*
X3711Y1562D02*
X3759Y1562D01*
X3773Y1562D02*
X3821Y1562D01*
X1826Y1561D02*
X1903Y1561D01*
X2828Y1561D02*
X2904Y1561D01*
X3411Y1561D02*
X3460Y1561D01*
X3472Y1561D02*
X3521Y1561D01*
X3711Y1561D02*
X3760Y1561D01*
X3772Y1561D02*
X3821Y1561D01*
X1826Y1560D02*
X1903Y1560D01*
X2827Y1560D02*
X2905Y1560D01*
X3411Y1560D02*
X3462Y1560D01*
X3470Y1560D02*
X3520Y1560D01*
X3711Y1560D02*
X3762Y1560D01*
X3770Y1560D02*
X3820Y1560D01*
X1826Y1559D02*
X1904Y1559D01*
X2827Y1559D02*
X2905Y1559D01*
X3412Y1559D02*
X3520Y1559D01*
X3712Y1559D02*
X3820Y1559D01*
X1825Y1558D02*
X1904Y1558D01*
X2827Y1558D02*
X2905Y1558D01*
X3412Y1558D02*
X3520Y1558D01*
X3712Y1558D02*
X3820Y1558D01*
X1825Y1557D02*
X1904Y1557D01*
X2826Y1557D02*
X2906Y1557D01*
X3413Y1557D02*
X3519Y1557D01*
X3713Y1557D02*
X3819Y1557D01*
X1825Y1556D02*
X1905Y1556D01*
X2826Y1556D02*
X2906Y1556D01*
X3413Y1556D02*
X3519Y1556D01*
X3713Y1556D02*
X3819Y1556D01*
X1824Y1555D02*
X1905Y1555D01*
X2826Y1555D02*
X2906Y1555D01*
X3414Y1555D02*
X3518Y1555D01*
X3714Y1555D02*
X3818Y1555D01*
X1824Y1554D02*
X1905Y1554D01*
X2826Y1554D02*
X2906Y1554D01*
X3414Y1554D02*
X3518Y1554D01*
X3714Y1554D02*
X3818Y1554D01*
X1824Y1553D02*
X1905Y1553D01*
X2825Y1553D02*
X2907Y1553D01*
X3415Y1553D02*
X3517Y1553D01*
X3715Y1553D02*
X3817Y1553D01*
X1824Y1552D02*
X1906Y1552D01*
X2825Y1552D02*
X2907Y1552D01*
X3416Y1552D02*
X3516Y1552D01*
X3716Y1552D02*
X3816Y1552D01*
X1824Y1551D02*
X1906Y1551D01*
X2825Y1551D02*
X2907Y1551D01*
X3416Y1551D02*
X3515Y1551D01*
X3716Y1551D02*
X3815Y1551D01*
X1824Y1550D02*
X1906Y1550D01*
X2825Y1550D02*
X2907Y1550D01*
X3417Y1550D02*
X3515Y1550D01*
X3717Y1550D02*
X3815Y1550D01*
X1823Y1549D02*
X1906Y1549D01*
X2825Y1549D02*
X2907Y1549D01*
X3418Y1549D02*
X3514Y1549D01*
X3718Y1549D02*
X3814Y1549D01*
X1823Y1548D02*
X1906Y1548D01*
X2825Y1548D02*
X2907Y1548D01*
X3419Y1548D02*
X3513Y1548D01*
X3719Y1548D02*
X3813Y1548D01*
X1823Y1547D02*
X1906Y1547D01*
X2825Y1547D02*
X2907Y1547D01*
X3420Y1547D02*
X3512Y1547D01*
X3720Y1547D02*
X3812Y1547D01*
X1823Y1546D02*
X1906Y1546D01*
X2825Y1546D02*
X2908Y1546D01*
X3422Y1546D02*
X3510Y1546D01*
X3722Y1546D02*
X3810Y1546D01*
X1823Y1545D02*
X1906Y1545D01*
X2824Y1545D02*
X2908Y1545D01*
X3423Y1545D02*
X3509Y1545D01*
X3723Y1545D02*
X3809Y1545D01*
X1823Y1544D02*
X1906Y1544D01*
X2825Y1544D02*
X2908Y1544D01*
X3425Y1544D02*
X3507Y1544D01*
X3725Y1544D02*
X3807Y1544D01*
X1823Y1543D02*
X1906Y1543D01*
X2825Y1543D02*
X2907Y1543D01*
X3426Y1543D02*
X3505Y1543D01*
X3726Y1543D02*
X3805Y1543D01*
X1823Y1542D02*
X1906Y1542D01*
X2825Y1542D02*
X2907Y1542D01*
X3429Y1542D02*
X3503Y1542D01*
X3729Y1542D02*
X3803Y1542D01*
X1823Y1541D02*
X1906Y1541D01*
X2825Y1541D02*
X2907Y1541D01*
X3431Y1541D02*
X3501Y1541D01*
X3731Y1541D02*
X3801Y1541D01*
X1823Y1540D02*
X1906Y1540D01*
X2825Y1540D02*
X2907Y1540D01*
X3435Y1540D02*
X3496Y1540D01*
X3735Y1540D02*
X3796Y1540D01*
X1824Y1539D02*
X1906Y1539D01*
X2825Y1539D02*
X2907Y1539D01*
X1824Y1538D02*
X1906Y1538D01*
X2825Y1538D02*
X2907Y1538D01*
X1824Y1537D02*
X1905Y1537D01*
X2825Y1537D02*
X2907Y1537D01*
X1824Y1536D02*
X1905Y1536D01*
X2825Y1536D02*
X2907Y1536D01*
X1824Y1535D02*
X1905Y1535D01*
X2826Y1535D02*
X2906Y1535D01*
X1825Y1534D02*
X1905Y1534D01*
X2826Y1534D02*
X2906Y1534D01*
X1825Y1533D02*
X1904Y1533D01*
X2826Y1533D02*
X2906Y1533D01*
X1825Y1532D02*
X1904Y1532D01*
X2827Y1532D02*
X2906Y1532D01*
X1826Y1531D02*
X1904Y1531D01*
X2827Y1531D02*
X2905Y1531D01*
X1826Y1530D02*
X1903Y1530D01*
X2827Y1530D02*
X2905Y1530D01*
X1826Y1529D02*
X1903Y1529D01*
X2828Y1529D02*
X2904Y1529D01*
X1827Y1528D02*
X1903Y1528D01*
X2828Y1528D02*
X2904Y1528D01*
X1827Y1527D02*
X1902Y1527D01*
X2828Y1527D02*
X2904Y1527D01*
X1828Y1526D02*
X1902Y1526D01*
X2829Y1526D02*
X2903Y1526D01*
X1828Y1525D02*
X1901Y1525D01*
X2829Y1525D02*
X2903Y1525D01*
X1829Y1524D02*
X1901Y1524D01*
X2830Y1524D02*
X2902Y1524D01*
X1829Y1523D02*
X1900Y1523D01*
X2831Y1523D02*
X2901Y1523D01*
X1830Y1522D02*
X1899Y1522D01*
X2831Y1522D02*
X2901Y1522D01*
X1831Y1521D02*
X1899Y1521D01*
X2832Y1521D02*
X2900Y1521D01*
X1831Y1520D02*
X1898Y1520D01*
X2833Y1520D02*
X2899Y1520D01*
X1832Y1519D02*
X1897Y1519D01*
X2833Y1519D02*
X2899Y1519D01*
X1833Y1518D02*
X1896Y1518D01*
X2834Y1518D02*
X2898Y1518D01*
X1834Y1517D02*
X1896Y1517D01*
X2835Y1517D02*
X2897Y1517D01*
X1835Y1516D02*
X1895Y1516D01*
X2836Y1516D02*
X2896Y1516D01*
X1836Y1515D02*
X1894Y1515D01*
X2837Y1515D02*
X2895Y1515D01*
X1837Y1514D02*
X1893Y1514D01*
X2838Y1514D02*
X2894Y1514D01*
X1838Y1513D02*
X1892Y1513D01*
X2839Y1513D02*
X2893Y1513D01*
X1839Y1512D02*
X1890Y1512D01*
X2840Y1512D02*
X2892Y1512D01*
X1840Y1511D02*
X1889Y1511D01*
X2842Y1511D02*
X2890Y1511D01*
X1842Y1510D02*
X1888Y1510D01*
X2843Y1510D02*
X2889Y1510D01*
X1843Y1509D02*
X1886Y1509D01*
X2845Y1509D02*
X2887Y1509D01*
X1845Y1508D02*
X1884Y1508D01*
X2846Y1508D02*
X2886Y1508D01*
X1847Y1507D02*
X1882Y1507D01*
X2848Y1507D02*
X2884Y1507D01*
X1849Y1506D02*
X1880Y1506D01*
X2850Y1506D02*
X2882Y1506D01*
X1852Y1505D02*
X1878Y1505D01*
X2853Y1505D02*
X2879Y1505D01*
X1856Y1504D02*
X1874Y1504D01*
X2857Y1504D02*
X2875Y1504D01*
X1861Y1503D02*
X1868Y1503D01*
X2863Y1503D02*
X2869Y1503D01*
X1858Y1486D02*
X1871Y1486D01*
X2859Y1486D02*
X2873Y1486D01*
X1854Y1485D02*
X1876Y1485D01*
X2855Y1485D02*
X2877Y1485D01*
X1850Y1484D02*
X1879Y1484D01*
X2852Y1484D02*
X2880Y1484D01*
X1848Y1483D02*
X1881Y1483D01*
X2849Y1483D02*
X2883Y1483D01*
X1846Y1482D02*
X1883Y1482D01*
X2847Y1482D02*
X2885Y1482D01*
X1844Y1481D02*
X1885Y1481D01*
X2846Y1481D02*
X2887Y1481D01*
X1843Y1480D02*
X1887Y1480D01*
X2844Y1480D02*
X2888Y1480D01*
X1841Y1479D02*
X1888Y1479D01*
X2842Y1479D02*
X2890Y1479D01*
X1840Y1478D02*
X1890Y1478D01*
X2841Y1478D02*
X2891Y1478D01*
X1838Y1477D02*
X1891Y1477D01*
X2840Y1477D02*
X2892Y1477D01*
X1837Y1476D02*
X1892Y1476D01*
X2839Y1476D02*
X2893Y1476D01*
X1836Y1475D02*
X1893Y1475D01*
X2837Y1475D02*
X2895Y1475D01*
X1835Y1474D02*
X1894Y1474D01*
X2836Y1474D02*
X2896Y1474D01*
X1834Y1473D02*
X1895Y1473D01*
X2836Y1473D02*
X2897Y1473D01*
X1833Y1472D02*
X1896Y1472D01*
X2835Y1472D02*
X2897Y1472D01*
X1832Y1471D02*
X1897Y1471D01*
X2834Y1471D02*
X2898Y1471D01*
X1832Y1470D02*
X1898Y1470D01*
X2833Y1470D02*
X2899Y1470D01*
X1831Y1469D02*
X1898Y1469D01*
X2832Y1469D02*
X2900Y1469D01*
X1830Y1468D02*
X1899Y1468D01*
X2832Y1468D02*
X2900Y1468D01*
X1830Y1467D02*
X1900Y1467D01*
X2831Y1467D02*
X2901Y1467D01*
X1829Y1466D02*
X1900Y1466D01*
X2830Y1466D02*
X2902Y1466D01*
X1828Y1465D02*
X1901Y1465D01*
X2830Y1465D02*
X2902Y1465D01*
X1828Y1464D02*
X1901Y1464D01*
X2829Y1464D02*
X2903Y1464D01*
X1827Y1463D02*
X1902Y1463D01*
X2829Y1463D02*
X2903Y1463D01*
X1827Y1462D02*
X1902Y1462D01*
X2828Y1462D02*
X2904Y1462D01*
X1826Y1461D02*
X1903Y1461D01*
X2828Y1461D02*
X2904Y1461D01*
X1826Y1460D02*
X1903Y1460D01*
X2827Y1460D02*
X2905Y1460D01*
X1826Y1459D02*
X1904Y1459D01*
X2827Y1459D02*
X2905Y1459D01*
X1825Y1458D02*
X1904Y1458D01*
X2827Y1458D02*
X2905Y1458D01*
X1825Y1457D02*
X1904Y1457D01*
X2826Y1457D02*
X2906Y1457D01*
X1825Y1456D02*
X1905Y1456D01*
X2826Y1456D02*
X2906Y1456D01*
X1825Y1455D02*
X1905Y1455D01*
X2826Y1455D02*
X2906Y1455D01*
X1824Y1454D02*
X1905Y1454D01*
X2826Y1454D02*
X2906Y1454D01*
X1824Y1453D02*
X1905Y1453D01*
X2825Y1453D02*
X2907Y1453D01*
X1824Y1452D02*
X1905Y1452D01*
X2825Y1452D02*
X2907Y1452D01*
X1824Y1451D02*
X1906Y1451D01*
X2825Y1451D02*
X2907Y1451D01*
X1824Y1450D02*
X1906Y1450D01*
X2825Y1450D02*
X2907Y1450D01*
X1823Y1449D02*
X1906Y1449D01*
X2825Y1449D02*
X2907Y1449D01*
X1823Y1448D02*
X1906Y1448D01*
X2825Y1448D02*
X2907Y1448D01*
X1823Y1447D02*
X1906Y1447D01*
X2825Y1447D02*
X2907Y1447D01*
X1823Y1446D02*
X1906Y1446D01*
X2825Y1446D02*
X2907Y1446D01*
X1823Y1445D02*
X1906Y1445D01*
X2825Y1445D02*
X2908Y1445D01*
X1823Y1444D02*
X1906Y1444D01*
X2825Y1444D02*
X2908Y1444D01*
X1823Y1443D02*
X1906Y1443D01*
X2825Y1443D02*
X2907Y1443D01*
X1823Y1442D02*
X1906Y1442D01*
X2825Y1442D02*
X2907Y1442D01*
X1823Y1441D02*
X1906Y1441D01*
X2825Y1441D02*
X2907Y1441D01*
X1823Y1440D02*
X1906Y1440D01*
X2825Y1440D02*
X2907Y1440D01*
X1824Y1439D02*
X1906Y1439D01*
X2825Y1439D02*
X2907Y1439D01*
X1824Y1438D02*
X1906Y1438D01*
X2825Y1438D02*
X2907Y1438D01*
X1824Y1437D02*
X1905Y1437D01*
X2825Y1437D02*
X2907Y1437D01*
X1824Y1436D02*
X1905Y1436D01*
X2825Y1436D02*
X2907Y1436D01*
X1824Y1435D02*
X1905Y1435D01*
X2826Y1435D02*
X2906Y1435D01*
X1825Y1434D02*
X1905Y1434D01*
X2826Y1434D02*
X2906Y1434D01*
X1825Y1433D02*
X1904Y1433D01*
X2826Y1433D02*
X2906Y1433D01*
X1825Y1432D02*
X1904Y1432D01*
X2826Y1432D02*
X2906Y1432D01*
X1825Y1431D02*
X1904Y1431D01*
X2827Y1431D02*
X2905Y1431D01*
X1826Y1430D02*
X1904Y1430D01*
X2827Y1430D02*
X2905Y1430D01*
X1826Y1429D02*
X1903Y1429D01*
X2828Y1429D02*
X2905Y1429D01*
X1827Y1428D02*
X1903Y1428D01*
X2828Y1428D02*
X2904Y1428D01*
X1827Y1427D02*
X1902Y1427D01*
X2828Y1427D02*
X2904Y1427D01*
X1828Y1426D02*
X1902Y1426D01*
X2829Y1426D02*
X2903Y1426D01*
X1828Y1425D02*
X1901Y1425D01*
X2829Y1425D02*
X2903Y1425D01*
X1829Y1424D02*
X1901Y1424D01*
X2830Y1424D02*
X2902Y1424D01*
X1829Y1423D02*
X1900Y1423D01*
X2831Y1423D02*
X2901Y1423D01*
X1830Y1422D02*
X1899Y1422D01*
X2831Y1422D02*
X2901Y1422D01*
X1831Y1421D02*
X1899Y1421D01*
X2832Y1421D02*
X2900Y1421D01*
X1831Y1420D02*
X1898Y1420D01*
X2833Y1420D02*
X2899Y1420D01*
X1832Y1419D02*
X1897Y1419D01*
X2833Y1419D02*
X2899Y1419D01*
X1833Y1418D02*
X1897Y1418D01*
X2834Y1418D02*
X2898Y1418D01*
X1834Y1417D02*
X1896Y1417D01*
X2835Y1417D02*
X2897Y1417D01*
X1834Y1416D02*
X1895Y1416D01*
X2836Y1416D02*
X2896Y1416D01*
X1835Y1415D02*
X1894Y1415D01*
X2837Y1415D02*
X2895Y1415D01*
X1836Y1414D02*
X1893Y1414D01*
X2838Y1414D02*
X2894Y1414D01*
X1838Y1413D02*
X1892Y1413D01*
X2839Y1413D02*
X2893Y1413D01*
X1839Y1412D02*
X1891Y1412D01*
X2840Y1412D02*
X2892Y1412D01*
X1840Y1411D02*
X1889Y1411D01*
X2842Y1411D02*
X2891Y1411D01*
X1842Y1410D02*
X1888Y1410D01*
X2843Y1410D02*
X2889Y1410D01*
X1843Y1409D02*
X1886Y1409D01*
X2844Y1409D02*
X2888Y1409D01*
X1845Y1408D02*
X1885Y1408D01*
X2846Y1408D02*
X2886Y1408D01*
X1847Y1407D02*
X1883Y1407D01*
X2848Y1407D02*
X2884Y1407D01*
X1849Y1406D02*
X1881Y1406D01*
X2850Y1406D02*
X2882Y1406D01*
X1851Y1405D02*
X1878Y1405D01*
X2853Y1405D02*
X2879Y1405D01*
X1855Y1404D02*
X1874Y1404D01*
X2856Y1404D02*
X2876Y1404D01*
X1860Y1403D02*
X1869Y1403D01*
X2862Y1403D02*
X2870Y1403D01*
X1859Y1386D02*
X1871Y1386D01*
X2860Y1386D02*
X2872Y1386D01*
X1854Y1385D02*
X1875Y1385D01*
X2855Y1385D02*
X2877Y1385D01*
X1851Y1384D02*
X1879Y1384D01*
X2852Y1384D02*
X2880Y1384D01*
X1848Y1383D02*
X1881Y1383D01*
X2850Y1383D02*
X2882Y1383D01*
X1846Y1382D02*
X1883Y1382D01*
X2848Y1382D02*
X2885Y1382D01*
X1844Y1381D02*
X1885Y1381D01*
X2846Y1381D02*
X2886Y1381D01*
X1843Y1380D02*
X1887Y1380D01*
X2844Y1380D02*
X2888Y1380D01*
X1841Y1379D02*
X1888Y1379D01*
X2843Y1379D02*
X2889Y1379D01*
X1840Y1378D02*
X1889Y1378D01*
X2841Y1378D02*
X2891Y1378D01*
X1839Y1377D02*
X1891Y1377D01*
X2840Y1377D02*
X2892Y1377D01*
X1837Y1376D02*
X1892Y1376D01*
X2839Y1376D02*
X2893Y1376D01*
X1836Y1375D02*
X1893Y1375D01*
X2838Y1375D02*
X2894Y1375D01*
X1835Y1374D02*
X1894Y1374D01*
X2837Y1374D02*
X2896Y1374D01*
X1834Y1373D02*
X1895Y1373D01*
X2836Y1373D02*
X2896Y1373D01*
X1833Y1372D02*
X1896Y1372D01*
X2835Y1372D02*
X2897Y1372D01*
X1833Y1371D02*
X1897Y1371D01*
X2834Y1371D02*
X2898Y1371D01*
X1832Y1370D02*
X1898Y1370D01*
X2833Y1370D02*
X2899Y1370D01*
X1831Y1369D02*
X1898Y1369D01*
X2832Y1369D02*
X2900Y1369D01*
X1830Y1368D02*
X1899Y1368D01*
X2832Y1368D02*
X2900Y1368D01*
X1830Y1367D02*
X1900Y1367D01*
X2831Y1367D02*
X2901Y1367D01*
X1829Y1366D02*
X1900Y1366D01*
X2830Y1366D02*
X2902Y1366D01*
X1829Y1365D02*
X1901Y1365D01*
X2830Y1365D02*
X2902Y1365D01*
X1828Y1364D02*
X1901Y1364D01*
X2829Y1364D02*
X2903Y1364D01*
X1827Y1363D02*
X1902Y1363D01*
X2829Y1363D02*
X2903Y1363D01*
X1827Y1362D02*
X1902Y1362D01*
X2828Y1362D02*
X2904Y1362D01*
X1826Y1361D02*
X1903Y1361D01*
X2828Y1361D02*
X2904Y1361D01*
X1826Y1360D02*
X1903Y1360D01*
X2827Y1360D02*
X2905Y1360D01*
X1826Y1359D02*
X1904Y1359D01*
X2827Y1359D02*
X2905Y1359D01*
X1825Y1358D02*
X1904Y1358D01*
X2827Y1358D02*
X2905Y1358D01*
X1825Y1357D02*
X1904Y1357D01*
X2826Y1357D02*
X2906Y1357D01*
X1825Y1356D02*
X1905Y1356D01*
X2826Y1356D02*
X2906Y1356D01*
X1825Y1355D02*
X1905Y1355D01*
X2826Y1355D02*
X2906Y1355D01*
X1824Y1354D02*
X1905Y1354D01*
X2826Y1354D02*
X2906Y1354D01*
X1824Y1353D02*
X1905Y1353D01*
X2825Y1353D02*
X2907Y1353D01*
X1824Y1352D02*
X1905Y1352D01*
X2825Y1352D02*
X2907Y1352D01*
X1824Y1351D02*
X1906Y1351D01*
X2825Y1351D02*
X2907Y1351D01*
X1824Y1350D02*
X1906Y1350D01*
X2825Y1350D02*
X2907Y1350D01*
X1823Y1349D02*
X1906Y1349D01*
X2825Y1349D02*
X2907Y1349D01*
X1823Y1348D02*
X1906Y1348D01*
X2825Y1348D02*
X2907Y1348D01*
X1823Y1347D02*
X1906Y1347D01*
X2825Y1347D02*
X2907Y1347D01*
X1823Y1346D02*
X1906Y1346D01*
X2825Y1346D02*
X2907Y1346D01*
X1823Y1345D02*
X1906Y1345D01*
X2825Y1345D02*
X2908Y1345D01*
X1823Y1344D02*
X1906Y1344D01*
X2825Y1344D02*
X2908Y1344D01*
X1823Y1343D02*
X1906Y1343D01*
X2825Y1343D02*
X2907Y1343D01*
X1823Y1342D02*
X1906Y1342D01*
X2825Y1342D02*
X2907Y1342D01*
X1823Y1341D02*
X1906Y1341D01*
X2825Y1341D02*
X2907Y1341D01*
X1823Y1340D02*
X1906Y1340D01*
X2825Y1340D02*
X2907Y1340D01*
X1824Y1339D02*
X1906Y1339D01*
X2825Y1339D02*
X2907Y1339D01*
X1824Y1338D02*
X1906Y1338D01*
X2825Y1338D02*
X2907Y1338D01*
X1824Y1337D02*
X1905Y1337D01*
X2825Y1337D02*
X2907Y1337D01*
X1824Y1336D02*
X1905Y1336D01*
X2825Y1336D02*
X2907Y1336D01*
X1824Y1335D02*
X1905Y1335D01*
X2826Y1335D02*
X2906Y1335D01*
X1825Y1334D02*
X1905Y1334D01*
X2826Y1334D02*
X2906Y1334D01*
X1825Y1333D02*
X1905Y1333D01*
X2826Y1333D02*
X2906Y1333D01*
X1825Y1332D02*
X1904Y1332D01*
X2826Y1332D02*
X2906Y1332D01*
X1825Y1331D02*
X1904Y1331D01*
X2827Y1331D02*
X2905Y1331D01*
X1826Y1330D02*
X1904Y1330D01*
X2827Y1330D02*
X2905Y1330D01*
X1826Y1329D02*
X1903Y1329D01*
X2827Y1329D02*
X2905Y1329D01*
X1827Y1328D02*
X1903Y1328D01*
X2828Y1328D02*
X2904Y1328D01*
X1827Y1327D02*
X1902Y1327D01*
X2828Y1327D02*
X2904Y1327D01*
X1827Y1326D02*
X1902Y1326D01*
X2829Y1326D02*
X2903Y1326D01*
X1828Y1325D02*
X1901Y1325D01*
X2829Y1325D02*
X2903Y1325D01*
X1829Y1324D02*
X1901Y1324D01*
X2830Y1324D02*
X2902Y1324D01*
X1829Y1323D02*
X1900Y1323D01*
X2831Y1323D02*
X2902Y1323D01*
X1830Y1322D02*
X1900Y1322D01*
X2831Y1322D02*
X2901Y1322D01*
X1830Y1321D02*
X1899Y1321D01*
X2832Y1321D02*
X2900Y1321D01*
X1831Y1320D02*
X1898Y1320D01*
X2833Y1320D02*
X2900Y1320D01*
X1832Y1319D02*
X1897Y1319D01*
X2833Y1319D02*
X2899Y1319D01*
X1833Y1318D02*
X1897Y1318D01*
X2834Y1318D02*
X2898Y1318D01*
X1833Y1317D02*
X1896Y1317D01*
X2835Y1317D02*
X2897Y1317D01*
X1834Y1316D02*
X1895Y1316D01*
X2836Y1316D02*
X2896Y1316D01*
X1835Y1315D02*
X1894Y1315D01*
X2837Y1315D02*
X2895Y1315D01*
X1836Y1314D02*
X1893Y1314D01*
X2838Y1314D02*
X2894Y1314D01*
X1837Y1313D02*
X1892Y1313D01*
X2839Y1313D02*
X2893Y1313D01*
X1839Y1312D02*
X1891Y1312D01*
X2840Y1312D02*
X2892Y1312D01*
X1840Y1311D02*
X1889Y1311D01*
X2841Y1311D02*
X2891Y1311D01*
X1841Y1310D02*
X1888Y1310D01*
X2843Y1310D02*
X2889Y1310D01*
X1843Y1309D02*
X1886Y1309D01*
X2844Y1309D02*
X2888Y1309D01*
X1845Y1308D02*
X1885Y1308D01*
X2846Y1308D02*
X2886Y1308D01*
X1846Y1307D02*
X1883Y1307D01*
X2848Y1307D02*
X2884Y1307D01*
X1848Y1306D02*
X1881Y1306D01*
X2850Y1306D02*
X2882Y1306D01*
X1851Y1305D02*
X1878Y1305D01*
X2852Y1305D02*
X2880Y1305D01*
X1854Y1304D02*
X1875Y1304D01*
X2856Y1304D02*
X2876Y1304D01*
X1859Y1303D02*
X1870Y1303D01*
X2861Y1303D02*
X2871Y1303D01*
X1860Y1286D02*
X1870Y1286D01*
X2861Y1286D02*
X2871Y1286D01*
X1855Y1285D02*
X1875Y1285D01*
X2856Y1285D02*
X2876Y1285D01*
X1851Y1284D02*
X1878Y1284D01*
X2853Y1284D02*
X2880Y1284D01*
X1849Y1283D02*
X1881Y1283D01*
X2850Y1283D02*
X2882Y1283D01*
X1846Y1282D02*
X1883Y1282D01*
X2848Y1282D02*
X2884Y1282D01*
X1845Y1281D02*
X1885Y1281D01*
X2846Y1281D02*
X2886Y1281D01*
X1843Y1280D02*
X1886Y1280D01*
X2844Y1280D02*
X2888Y1280D01*
X1841Y1279D02*
X1888Y1279D01*
X2843Y1279D02*
X2889Y1279D01*
X1840Y1278D02*
X1889Y1278D01*
X2841Y1278D02*
X2891Y1278D01*
X1839Y1277D02*
X1891Y1277D01*
X2840Y1277D02*
X2892Y1277D01*
X1838Y1276D02*
X1892Y1276D01*
X2839Y1276D02*
X2893Y1276D01*
X1836Y1275D02*
X1893Y1275D01*
X2838Y1275D02*
X2894Y1275D01*
X1835Y1274D02*
X1894Y1274D01*
X2837Y1274D02*
X2895Y1274D01*
X1834Y1273D02*
X1895Y1273D01*
X2836Y1273D02*
X2896Y1273D01*
X1834Y1272D02*
X1896Y1272D01*
X2835Y1272D02*
X2897Y1272D01*
X1833Y1271D02*
X1897Y1271D01*
X2834Y1271D02*
X2898Y1271D01*
X1832Y1270D02*
X1897Y1270D01*
X2833Y1270D02*
X2899Y1270D01*
X1831Y1269D02*
X1898Y1269D01*
X2833Y1269D02*
X2900Y1269D01*
X1830Y1268D02*
X1899Y1268D01*
X2832Y1268D02*
X2900Y1268D01*
X1830Y1267D02*
X1900Y1267D01*
X2831Y1267D02*
X2901Y1267D01*
X1829Y1266D02*
X1900Y1266D01*
X2831Y1266D02*
X2901Y1266D01*
X1829Y1265D02*
X1901Y1265D01*
X2830Y1265D02*
X2902Y1265D01*
X1828Y1264D02*
X1901Y1264D01*
X2829Y1264D02*
X2903Y1264D01*
X1828Y1263D02*
X1902Y1263D01*
X2829Y1263D02*
X2903Y1263D01*
X1827Y1262D02*
X1902Y1262D01*
X2828Y1262D02*
X2904Y1262D01*
X1827Y1261D02*
X1903Y1261D01*
X2828Y1261D02*
X2904Y1261D01*
X1826Y1260D02*
X1903Y1260D01*
X2828Y1260D02*
X2905Y1260D01*
X1826Y1259D02*
X1904Y1259D01*
X2827Y1259D02*
X2905Y1259D01*
X1825Y1258D02*
X1904Y1258D01*
X2827Y1258D02*
X2905Y1258D01*
X1825Y1257D02*
X1904Y1257D01*
X2826Y1257D02*
X2906Y1257D01*
X1825Y1256D02*
X1905Y1256D01*
X2826Y1256D02*
X2906Y1256D01*
X1825Y1255D02*
X1905Y1255D01*
X2826Y1255D02*
X2906Y1255D01*
X1824Y1254D02*
X1905Y1254D01*
X2826Y1254D02*
X2906Y1254D01*
X1824Y1253D02*
X1905Y1253D01*
X2825Y1253D02*
X2907Y1253D01*
X1824Y1252D02*
X1905Y1252D01*
X2825Y1252D02*
X2907Y1252D01*
X1824Y1251D02*
X1906Y1251D01*
X2825Y1251D02*
X2907Y1251D01*
X1824Y1250D02*
X1906Y1250D01*
X2825Y1250D02*
X2907Y1250D01*
X1823Y1249D02*
X1906Y1249D01*
X2825Y1249D02*
X2907Y1249D01*
X1823Y1248D02*
X1906Y1248D01*
X2825Y1248D02*
X2907Y1248D01*
X1823Y1247D02*
X1906Y1247D01*
X2825Y1247D02*
X2907Y1247D01*
X1823Y1246D02*
X1906Y1246D01*
X2825Y1246D02*
X2907Y1246D01*
X1823Y1245D02*
X1906Y1245D01*
X2825Y1245D02*
X2908Y1245D01*
X1823Y1244D02*
X1906Y1244D01*
X2825Y1244D02*
X2908Y1244D01*
X1823Y1243D02*
X1906Y1243D01*
X2825Y1243D02*
X2907Y1243D01*
X1823Y1242D02*
X1906Y1242D01*
X2825Y1242D02*
X2907Y1242D01*
X1823Y1241D02*
X1906Y1241D01*
X2825Y1241D02*
X2907Y1241D01*
X1823Y1240D02*
X1906Y1240D01*
X2825Y1240D02*
X2907Y1240D01*
X1824Y1239D02*
X1906Y1239D01*
X2825Y1239D02*
X2907Y1239D01*
X1824Y1238D02*
X1906Y1238D01*
X2825Y1238D02*
X2907Y1238D01*
X1824Y1237D02*
X1905Y1237D01*
X2825Y1237D02*
X2907Y1237D01*
X1824Y1236D02*
X1905Y1236D01*
X2825Y1236D02*
X2907Y1236D01*
X1824Y1235D02*
X1905Y1235D01*
X2826Y1235D02*
X2906Y1235D01*
X1825Y1234D02*
X1905Y1234D01*
X2826Y1234D02*
X2906Y1234D01*
X1825Y1233D02*
X1905Y1233D01*
X2826Y1233D02*
X2906Y1233D01*
X1825Y1232D02*
X1904Y1232D01*
X2826Y1232D02*
X2906Y1232D01*
X1825Y1231D02*
X1904Y1231D01*
X2827Y1231D02*
X2905Y1231D01*
X1826Y1230D02*
X1904Y1230D01*
X2827Y1230D02*
X2905Y1230D01*
X1826Y1229D02*
X1903Y1229D01*
X2827Y1229D02*
X2905Y1229D01*
X1826Y1228D02*
X1903Y1228D01*
X2828Y1228D02*
X2904Y1228D01*
X1827Y1227D02*
X1902Y1227D01*
X2828Y1227D02*
X2904Y1227D01*
X1827Y1226D02*
X1902Y1226D01*
X2829Y1226D02*
X2903Y1226D01*
X1828Y1225D02*
X1901Y1225D01*
X2829Y1225D02*
X2903Y1225D01*
X1828Y1224D02*
X1901Y1224D01*
X2830Y1224D02*
X2902Y1224D01*
X1829Y1223D02*
X1900Y1223D01*
X2830Y1223D02*
X2902Y1223D01*
X1830Y1222D02*
X1900Y1222D01*
X2831Y1222D02*
X2901Y1222D01*
X1830Y1221D02*
X1899Y1221D01*
X2832Y1221D02*
X2900Y1221D01*
X1831Y1220D02*
X1898Y1220D01*
X2832Y1220D02*
X2900Y1220D01*
X1832Y1219D02*
X1898Y1219D01*
X2833Y1219D02*
X2899Y1219D01*
X1833Y1218D02*
X1897Y1218D01*
X2834Y1218D02*
X2898Y1218D01*
X1833Y1217D02*
X1896Y1217D01*
X2835Y1217D02*
X2897Y1217D01*
X1834Y1216D02*
X1895Y1216D01*
X2836Y1216D02*
X2896Y1216D01*
X1835Y1215D02*
X1894Y1215D01*
X2837Y1215D02*
X2896Y1215D01*
X1836Y1214D02*
X1893Y1214D01*
X2838Y1214D02*
X2895Y1214D01*
X1837Y1213D02*
X1892Y1213D01*
X2839Y1213D02*
X2893Y1213D01*
X1838Y1212D02*
X1891Y1212D01*
X2840Y1212D02*
X2892Y1212D01*
X1840Y1211D02*
X1890Y1211D01*
X2841Y1211D02*
X2891Y1211D01*
X1841Y1210D02*
X1888Y1210D01*
X2843Y1210D02*
X2890Y1210D01*
X1843Y1209D02*
X1887Y1209D01*
X2844Y1209D02*
X2888Y1209D01*
X1844Y1208D02*
X1885Y1208D01*
X2846Y1208D02*
X2886Y1208D01*
X1846Y1207D02*
X1883Y1207D01*
X2847Y1207D02*
X2885Y1207D01*
X1848Y1206D02*
X1881Y1206D01*
X2849Y1206D02*
X2883Y1206D01*
X1851Y1205D02*
X1879Y1205D01*
X2852Y1205D02*
X2880Y1205D01*
X1854Y1204D02*
X1875Y1204D01*
X2855Y1204D02*
X2877Y1204D01*
X1859Y1203D02*
X1871Y1203D01*
X2860Y1203D02*
X2872Y1203D01*
X1860Y1186D02*
X1869Y1186D01*
X2862Y1186D02*
X2870Y1186D01*
X1855Y1185D02*
X1874Y1185D01*
X2856Y1185D02*
X2876Y1185D01*
X1852Y1184D02*
X1878Y1184D01*
X2853Y1184D02*
X2879Y1184D01*
X1849Y1183D02*
X1881Y1183D01*
X2850Y1183D02*
X2882Y1183D01*
X1847Y1182D02*
X1883Y1182D01*
X2848Y1182D02*
X2884Y1182D01*
X1845Y1181D02*
X1885Y1181D01*
X2846Y1181D02*
X2886Y1181D01*
X1843Y1180D02*
X1886Y1180D01*
X2845Y1180D02*
X2888Y1180D01*
X1842Y1179D02*
X1888Y1179D01*
X2843Y1179D02*
X2889Y1179D01*
X1840Y1178D02*
X1889Y1178D01*
X2842Y1178D02*
X2890Y1178D01*
X1839Y1177D02*
X1890Y1177D01*
X2840Y1177D02*
X2892Y1177D01*
X1838Y1176D02*
X1892Y1176D01*
X2839Y1176D02*
X2893Y1176D01*
X1837Y1175D02*
X1893Y1175D01*
X2838Y1175D02*
X2894Y1175D01*
X1835Y1174D02*
X1894Y1174D01*
X2837Y1174D02*
X2895Y1174D01*
X1835Y1173D02*
X1895Y1173D01*
X2836Y1173D02*
X2896Y1173D01*
X1834Y1172D02*
X1896Y1172D01*
X2835Y1172D02*
X2897Y1172D01*
X1833Y1171D02*
X1897Y1171D01*
X2834Y1171D02*
X2898Y1171D01*
X1832Y1170D02*
X1897Y1170D01*
X2833Y1170D02*
X2899Y1170D01*
X1831Y1169D02*
X1898Y1169D01*
X2833Y1169D02*
X2899Y1169D01*
X1831Y1168D02*
X1899Y1168D01*
X2832Y1168D02*
X2900Y1168D01*
X1830Y1167D02*
X1899Y1167D01*
X2831Y1167D02*
X2901Y1167D01*
X1829Y1166D02*
X1900Y1166D01*
X2831Y1166D02*
X2901Y1166D01*
X1829Y1165D02*
X1901Y1165D01*
X2830Y1165D02*
X2902Y1165D01*
X1828Y1164D02*
X1901Y1164D01*
X2829Y1164D02*
X2903Y1164D01*
X1828Y1163D02*
X1902Y1163D01*
X2829Y1163D02*
X2903Y1163D01*
X1827Y1162D02*
X1902Y1162D01*
X2828Y1162D02*
X2904Y1162D01*
X1827Y1161D02*
X1903Y1161D01*
X2828Y1161D02*
X2904Y1161D01*
X1826Y1160D02*
X1903Y1160D01*
X2828Y1160D02*
X2904Y1160D01*
X1826Y1159D02*
X1903Y1159D01*
X2827Y1159D02*
X2905Y1159D01*
X1825Y1158D02*
X1904Y1158D01*
X2827Y1158D02*
X2905Y1158D01*
X1825Y1157D02*
X1904Y1157D01*
X2826Y1157D02*
X2906Y1157D01*
X1825Y1156D02*
X1904Y1156D01*
X2826Y1156D02*
X2906Y1156D01*
X1825Y1155D02*
X1905Y1155D01*
X2826Y1155D02*
X2906Y1155D01*
X1824Y1154D02*
X1905Y1154D01*
X2826Y1154D02*
X2906Y1154D01*
X1824Y1153D02*
X1905Y1153D01*
X2825Y1153D02*
X2907Y1153D01*
X1824Y1152D02*
X1905Y1152D01*
X2825Y1152D02*
X2907Y1152D01*
X1824Y1151D02*
X1906Y1151D01*
X2825Y1151D02*
X2907Y1151D01*
X1824Y1150D02*
X1906Y1150D01*
X2825Y1150D02*
X2907Y1150D01*
X1823Y1149D02*
X1906Y1149D01*
X2825Y1149D02*
X2907Y1149D01*
X1823Y1148D02*
X1906Y1148D01*
X2825Y1148D02*
X2907Y1148D01*
X1823Y1147D02*
X1906Y1147D01*
X2825Y1147D02*
X2907Y1147D01*
X1823Y1146D02*
X1906Y1146D01*
X2825Y1146D02*
X2907Y1146D01*
X1823Y1145D02*
X1906Y1145D01*
X2825Y1145D02*
X2908Y1145D01*
X1823Y1144D02*
X1906Y1144D01*
X2824Y1144D02*
X2908Y1144D01*
X1823Y1143D02*
X1906Y1143D01*
X2825Y1143D02*
X2908Y1143D01*
X1823Y1142D02*
X1906Y1142D01*
X2825Y1142D02*
X2907Y1142D01*
X1823Y1141D02*
X1906Y1141D01*
X2825Y1141D02*
X2907Y1141D01*
X1823Y1140D02*
X1906Y1140D01*
X2825Y1140D02*
X2907Y1140D01*
X1824Y1139D02*
X1906Y1139D01*
X2825Y1139D02*
X2907Y1139D01*
X1824Y1138D02*
X1906Y1138D01*
X2825Y1138D02*
X2907Y1138D01*
X1824Y1137D02*
X1905Y1137D01*
X2825Y1137D02*
X2907Y1137D01*
X1824Y1136D02*
X1905Y1136D01*
X2825Y1136D02*
X2907Y1136D01*
X1824Y1135D02*
X1905Y1135D01*
X2826Y1135D02*
X2906Y1135D01*
X1825Y1134D02*
X1905Y1134D01*
X2826Y1134D02*
X2906Y1134D01*
X1825Y1133D02*
X1905Y1133D01*
X2826Y1133D02*
X2906Y1133D01*
X1825Y1132D02*
X1904Y1132D01*
X2826Y1132D02*
X2906Y1132D01*
X1825Y1131D02*
X1904Y1131D01*
X2827Y1131D02*
X2905Y1131D01*
X1826Y1130D02*
X1904Y1130D01*
X2827Y1130D02*
X2905Y1130D01*
X1826Y1129D02*
X1903Y1129D01*
X2827Y1129D02*
X2905Y1129D01*
X1826Y1128D02*
X1903Y1128D01*
X2828Y1128D02*
X2904Y1128D01*
X1827Y1127D02*
X1902Y1127D01*
X2828Y1127D02*
X2904Y1127D01*
X1827Y1126D02*
X1902Y1126D01*
X2829Y1126D02*
X2903Y1126D01*
X1828Y1125D02*
X1901Y1125D01*
X2829Y1125D02*
X2903Y1125D01*
X1828Y1124D02*
X1901Y1124D01*
X2830Y1124D02*
X2902Y1124D01*
X1829Y1123D02*
X1900Y1123D01*
X2830Y1123D02*
X2902Y1123D01*
X1830Y1122D02*
X1900Y1122D01*
X2831Y1122D02*
X2901Y1122D01*
X1830Y1121D02*
X1899Y1121D01*
X2832Y1121D02*
X2900Y1121D01*
X1831Y1120D02*
X1898Y1120D01*
X2832Y1120D02*
X2900Y1120D01*
X1832Y1119D02*
X1898Y1119D01*
X2833Y1119D02*
X2899Y1119D01*
X1832Y1118D02*
X1897Y1118D01*
X2834Y1118D02*
X2898Y1118D01*
X1833Y1117D02*
X1896Y1117D01*
X2835Y1117D02*
X2897Y1117D01*
X1834Y1116D02*
X1895Y1116D01*
X2835Y1116D02*
X2897Y1116D01*
X1835Y1115D02*
X1894Y1115D01*
X2836Y1115D02*
X2896Y1115D01*
X1836Y1114D02*
X1893Y1114D01*
X2837Y1114D02*
X2895Y1114D01*
X1837Y1113D02*
X1892Y1113D01*
X2839Y1113D02*
X2894Y1113D01*
X1838Y1112D02*
X1891Y1112D01*
X2840Y1112D02*
X2892Y1112D01*
X1840Y1111D02*
X1890Y1111D01*
X2841Y1111D02*
X2891Y1111D01*
X1841Y1110D02*
X1888Y1110D01*
X2842Y1110D02*
X2890Y1110D01*
X1842Y1109D02*
X1887Y1109D01*
X2844Y1109D02*
X2888Y1109D01*
X1844Y1108D02*
X1885Y1108D01*
X2845Y1108D02*
X2887Y1108D01*
X1846Y1107D02*
X1884Y1107D01*
X2847Y1107D02*
X2885Y1107D01*
X1848Y1106D02*
X1881Y1106D01*
X2849Y1106D02*
X2883Y1106D01*
X1850Y1105D02*
X1879Y1105D01*
X2852Y1105D02*
X2880Y1105D01*
X1853Y1104D02*
X1876Y1104D01*
X2855Y1104D02*
X2877Y1104D01*
X1858Y1103D02*
X1872Y1103D01*
X2859Y1103D02*
X2873Y1103D01*
X1862Y1086D02*
X1867Y1086D01*
X2863Y1086D02*
X2869Y1086D01*
X1856Y1085D02*
X1874Y1085D01*
X2857Y1085D02*
X2875Y1085D01*
X1852Y1084D02*
X1877Y1084D01*
X2853Y1084D02*
X2879Y1084D01*
X1849Y1083D02*
X1880Y1083D01*
X2851Y1083D02*
X2882Y1083D01*
X1847Y1082D02*
X1882Y1082D01*
X2848Y1082D02*
X2884Y1082D01*
X1845Y1081D02*
X1884Y1081D01*
X2846Y1081D02*
X2886Y1081D01*
X1843Y1080D02*
X1886Y1080D01*
X2845Y1080D02*
X2887Y1080D01*
X1842Y1079D02*
X1888Y1079D01*
X2843Y1079D02*
X2889Y1079D01*
X1840Y1078D02*
X1889Y1078D01*
X2842Y1078D02*
X2890Y1078D01*
X1839Y1077D02*
X1890Y1077D01*
X2840Y1077D02*
X2892Y1077D01*
X1838Y1076D02*
X1892Y1076D01*
X2839Y1076D02*
X2893Y1076D01*
X1837Y1075D02*
X1893Y1075D01*
X2838Y1075D02*
X2894Y1075D01*
X1836Y1074D02*
X1894Y1074D01*
X2837Y1074D02*
X2895Y1074D01*
X1835Y1073D02*
X1895Y1073D01*
X2836Y1073D02*
X2896Y1073D01*
X1834Y1072D02*
X1896Y1072D01*
X2835Y1072D02*
X2897Y1072D01*
X1833Y1071D02*
X1896Y1071D01*
X2834Y1071D02*
X2898Y1071D01*
X1832Y1070D02*
X1897Y1070D01*
X2833Y1070D02*
X2899Y1070D01*
X1831Y1069D02*
X1898Y1069D01*
X2833Y1069D02*
X2899Y1069D01*
X1831Y1068D02*
X1899Y1068D01*
X2832Y1068D02*
X2900Y1068D01*
X1830Y1067D02*
X1899Y1067D01*
X2831Y1067D02*
X2901Y1067D01*
X1829Y1066D02*
X1900Y1066D01*
X2831Y1066D02*
X2901Y1066D01*
X1829Y1065D02*
X1901Y1065D01*
X2830Y1065D02*
X2902Y1065D01*
X1828Y1064D02*
X1901Y1064D01*
X2830Y1064D02*
X2903Y1064D01*
X1828Y1063D02*
X1902Y1063D01*
X2829Y1063D02*
X2903Y1063D01*
X1827Y1062D02*
X1902Y1062D01*
X2829Y1062D02*
X2904Y1062D01*
X1827Y1061D02*
X1903Y1061D01*
X2828Y1061D02*
X2904Y1061D01*
X1826Y1060D02*
X1903Y1060D01*
X2828Y1060D02*
X2904Y1060D01*
X1826Y1059D02*
X1903Y1059D01*
X2827Y1059D02*
X2905Y1059D01*
X1826Y1058D02*
X1904Y1058D01*
X2827Y1058D02*
X2905Y1058D01*
X1825Y1057D02*
X1904Y1057D01*
X2827Y1057D02*
X2906Y1057D01*
X1825Y1056D02*
X1904Y1056D01*
X2826Y1056D02*
X2906Y1056D01*
X1825Y1055D02*
X1905Y1055D01*
X2826Y1055D02*
X2906Y1055D01*
X1824Y1054D02*
X1905Y1054D01*
X2826Y1054D02*
X2906Y1054D01*
X1824Y1053D02*
X1905Y1053D01*
X2826Y1053D02*
X2907Y1053D01*
X1824Y1052D02*
X1905Y1052D01*
X2825Y1052D02*
X2907Y1052D01*
X1824Y1051D02*
X1906Y1051D01*
X2825Y1051D02*
X2907Y1051D01*
X1824Y1050D02*
X1906Y1050D01*
X2825Y1050D02*
X2907Y1050D01*
X1823Y1049D02*
X1906Y1049D01*
X2825Y1049D02*
X2907Y1049D01*
X1823Y1048D02*
X1906Y1048D01*
X2825Y1048D02*
X2907Y1048D01*
X1823Y1047D02*
X1906Y1047D01*
X2825Y1047D02*
X2907Y1047D01*
X1823Y1046D02*
X1906Y1046D01*
X2825Y1046D02*
X2907Y1046D01*
X1823Y1045D02*
X1906Y1045D01*
X2825Y1045D02*
X2908Y1045D01*
X1823Y1044D02*
X1906Y1044D01*
X2824Y1044D02*
X2908Y1044D01*
X1823Y1043D02*
X1906Y1043D01*
X2825Y1043D02*
X2908Y1043D01*
X1823Y1042D02*
X1906Y1042D01*
X2825Y1042D02*
X2907Y1042D01*
X1823Y1041D02*
X1906Y1041D01*
X2825Y1041D02*
X2907Y1041D01*
X1823Y1040D02*
X1906Y1040D01*
X2825Y1040D02*
X2907Y1040D01*
X1824Y1039D02*
X1906Y1039D01*
X2825Y1039D02*
X2907Y1039D01*
X1824Y1038D02*
X1906Y1038D01*
X2825Y1038D02*
X2907Y1038D01*
X1824Y1037D02*
X1906Y1037D01*
X2825Y1037D02*
X2907Y1037D01*
X1824Y1036D02*
X1905Y1036D01*
X2825Y1036D02*
X2907Y1036D01*
X1824Y1035D02*
X1905Y1035D01*
X2826Y1035D02*
X2906Y1035D01*
X1824Y1034D02*
X1905Y1034D01*
X2826Y1034D02*
X2906Y1034D01*
X1825Y1033D02*
X1905Y1033D01*
X2826Y1033D02*
X2906Y1033D01*
X1825Y1032D02*
X1904Y1032D01*
X2826Y1032D02*
X2906Y1032D01*
X1825Y1031D02*
X1904Y1031D01*
X2827Y1031D02*
X2905Y1031D01*
X1826Y1030D02*
X1904Y1030D01*
X2827Y1030D02*
X2905Y1030D01*
X1826Y1029D02*
X1903Y1029D01*
X2827Y1029D02*
X2905Y1029D01*
X1826Y1028D02*
X1903Y1028D01*
X2828Y1028D02*
X2904Y1028D01*
X1827Y1027D02*
X1903Y1027D01*
X2828Y1027D02*
X2904Y1027D01*
X1827Y1026D02*
X1902Y1026D01*
X2829Y1026D02*
X2903Y1026D01*
X1828Y1025D02*
X1902Y1025D01*
X2829Y1025D02*
X2903Y1025D01*
X1828Y1024D02*
X1901Y1024D01*
X2830Y1024D02*
X2902Y1024D01*
X1829Y1023D02*
X1900Y1023D01*
X2830Y1023D02*
X2902Y1023D01*
X1830Y1022D02*
X1900Y1022D01*
X2831Y1022D02*
X2901Y1022D01*
X1830Y1021D02*
X1899Y1021D01*
X2832Y1021D02*
X2901Y1021D01*
X1831Y1020D02*
X1898Y1020D01*
X2832Y1020D02*
X2900Y1020D01*
X1832Y1019D02*
X1898Y1019D01*
X2833Y1019D02*
X2899Y1019D01*
X1832Y1018D02*
X1897Y1018D01*
X2834Y1018D02*
X2898Y1018D01*
X1833Y1017D02*
X1896Y1017D01*
X2834Y1017D02*
X2898Y1017D01*
X1834Y1016D02*
X1895Y1016D01*
X2835Y1016D02*
X2897Y1016D01*
X1835Y1015D02*
X1894Y1015D01*
X2836Y1015D02*
X2896Y1015D01*
X1836Y1014D02*
X1893Y1014D01*
X2837Y1014D02*
X2895Y1014D01*
X1837Y1013D02*
X1892Y1013D01*
X2838Y1013D02*
X2894Y1013D01*
X1838Y1012D02*
X1891Y1012D01*
X2839Y1012D02*
X2893Y1012D01*
X1839Y1011D02*
X1890Y1011D01*
X2841Y1011D02*
X2891Y1011D01*
X1841Y1010D02*
X1889Y1010D01*
X2842Y1010D02*
X2890Y1010D01*
X1842Y1009D02*
X1887Y1009D01*
X2844Y1009D02*
X2888Y1009D01*
X1844Y1008D02*
X1885Y1008D01*
X2845Y1008D02*
X2887Y1008D01*
X1846Y1007D02*
X1884Y1007D01*
X2847Y1007D02*
X2885Y1007D01*
X1848Y1006D02*
X1882Y1006D01*
X2849Y1006D02*
X2883Y1006D01*
X1850Y1005D02*
X1879Y1005D01*
X2851Y1005D02*
X2881Y1005D01*
X1853Y1004D02*
X1877Y1004D01*
X2854Y1004D02*
X2878Y1004D01*
X1857Y1003D02*
X1873Y1003D01*
X2858Y1003D02*
X2874Y1003D01*
X1864Y986D02*
X1865Y986D01*
X2866Y986D02*
X2866Y986D01*
X1856Y985D02*
X1873Y985D01*
X2858Y985D02*
X2875Y985D01*
X1852Y984D02*
X1877Y984D01*
X2854Y984D02*
X2878Y984D01*
X1850Y983D02*
X1880Y983D01*
X2851Y983D02*
X2881Y983D01*
X1847Y982D02*
X1882Y982D01*
X2849Y982D02*
X2883Y982D01*
X1845Y981D02*
X1884Y981D01*
X2847Y981D02*
X2885Y981D01*
X1844Y980D02*
X1886Y980D01*
X2845Y980D02*
X2887Y980D01*
X1842Y979D02*
X1887Y979D01*
X2843Y979D02*
X2889Y979D01*
X1841Y978D02*
X1889Y978D01*
X2842Y978D02*
X2890Y978D01*
X1839Y977D02*
X1890Y977D01*
X2841Y977D02*
X2891Y977D01*
X1838Y976D02*
X1891Y976D01*
X2839Y976D02*
X2893Y976D01*
X1837Y975D02*
X1892Y975D01*
X2838Y975D02*
X2894Y975D01*
X1836Y974D02*
X1894Y974D01*
X2837Y974D02*
X2895Y974D01*
X1835Y973D02*
X1895Y973D01*
X2836Y973D02*
X2896Y973D01*
X1834Y972D02*
X1895Y972D01*
X2835Y972D02*
X2897Y972D01*
X1833Y971D02*
X1896Y971D01*
X2834Y971D02*
X2898Y971D01*
X1832Y970D02*
X1897Y970D01*
X2834Y970D02*
X2898Y970D01*
X1831Y969D02*
X1898Y969D01*
X2833Y969D02*
X2899Y969D01*
X1831Y968D02*
X1899Y968D01*
X2832Y968D02*
X2900Y968D01*
X1830Y967D02*
X1899Y967D01*
X2831Y967D02*
X2901Y967D01*
X1829Y966D02*
X1900Y966D01*
X2831Y966D02*
X2901Y966D01*
X1829Y965D02*
X1901Y965D01*
X2830Y965D02*
X2902Y965D01*
X1828Y964D02*
X1901Y964D01*
X2830Y964D02*
X2902Y964D01*
X1828Y963D02*
X1902Y963D01*
X2829Y963D02*
X2903Y963D01*
X1827Y962D02*
X1902Y962D01*
X2829Y962D02*
X2903Y962D01*
X1827Y961D02*
X1903Y961D01*
X2828Y961D02*
X2904Y961D01*
X1826Y960D02*
X1903Y960D01*
X2828Y960D02*
X2904Y960D01*
X1826Y959D02*
X1903Y959D01*
X2827Y959D02*
X2905Y959D01*
X1826Y958D02*
X1904Y958D01*
X2827Y958D02*
X2905Y958D01*
X1825Y957D02*
X1904Y957D01*
X2827Y957D02*
X2905Y957D01*
X1825Y956D02*
X1904Y956D01*
X2826Y956D02*
X2906Y956D01*
X1825Y955D02*
X1905Y955D01*
X2826Y955D02*
X2906Y955D01*
X1824Y954D02*
X1905Y954D01*
X2826Y954D02*
X2906Y954D01*
X1824Y953D02*
X1905Y953D01*
X2826Y953D02*
X2907Y953D01*
X1824Y952D02*
X1905Y952D01*
X2825Y952D02*
X2907Y952D01*
X1824Y951D02*
X1906Y951D01*
X2825Y951D02*
X2907Y951D01*
X1824Y950D02*
X1906Y950D01*
X2825Y950D02*
X2907Y950D01*
X1824Y949D02*
X1906Y949D01*
X2825Y949D02*
X2907Y949D01*
X1823Y948D02*
X1906Y948D01*
X2825Y948D02*
X2907Y948D01*
X1823Y947D02*
X1906Y947D01*
X2825Y947D02*
X2907Y947D01*
X1823Y946D02*
X1906Y946D01*
X2825Y946D02*
X2907Y946D01*
X1823Y945D02*
X1906Y945D01*
X2825Y945D02*
X2908Y945D01*
X1823Y944D02*
X1906Y944D01*
X2824Y944D02*
X2908Y944D01*
X1823Y943D02*
X1906Y943D01*
X2825Y943D02*
X2908Y943D01*
X1823Y942D02*
X1906Y942D01*
X2825Y942D02*
X2907Y942D01*
X1823Y941D02*
X1906Y941D01*
X2825Y941D02*
X2907Y941D01*
X1823Y940D02*
X1906Y940D01*
X2825Y940D02*
X2907Y940D01*
X1824Y939D02*
X1906Y939D01*
X2825Y939D02*
X2907Y939D01*
X1824Y938D02*
X1906Y938D01*
X2825Y938D02*
X2907Y938D01*
X1824Y937D02*
X1906Y937D01*
X2825Y937D02*
X2907Y937D01*
X1824Y936D02*
X1905Y936D01*
X2825Y936D02*
X2907Y936D01*
X1824Y935D02*
X1905Y935D01*
X2826Y935D02*
X2907Y935D01*
X1824Y934D02*
X1905Y934D01*
X2826Y934D02*
X2906Y934D01*
X1825Y933D02*
X1905Y933D01*
X2826Y933D02*
X2906Y933D01*
X1825Y932D02*
X1904Y932D01*
X2826Y932D02*
X2906Y932D01*
X1825Y931D02*
X1904Y931D01*
X2827Y931D02*
X2905Y931D01*
X1826Y930D02*
X1904Y930D01*
X2827Y930D02*
X2905Y930D01*
X1826Y929D02*
X1903Y929D01*
X2827Y929D02*
X2905Y929D01*
X1826Y928D02*
X1903Y928D01*
X2828Y928D02*
X2904Y928D01*
X1827Y927D02*
X1903Y927D01*
X2828Y927D02*
X2904Y927D01*
X1827Y926D02*
X1902Y926D01*
X2829Y926D02*
X2903Y926D01*
X1828Y925D02*
X1902Y925D01*
X2829Y925D02*
X2903Y925D01*
X1828Y924D02*
X1901Y924D01*
X2830Y924D02*
X2902Y924D01*
X1829Y923D02*
X1901Y923D01*
X2830Y923D02*
X2902Y923D01*
X1829Y922D02*
X1900Y922D01*
X2831Y922D02*
X2901Y922D01*
X1830Y921D02*
X1899Y921D01*
X2831Y921D02*
X2901Y921D01*
X1831Y920D02*
X1899Y920D01*
X2832Y920D02*
X2900Y920D01*
X1831Y919D02*
X1898Y919D01*
X2833Y919D02*
X2899Y919D01*
X1832Y918D02*
X1897Y918D01*
X2834Y918D02*
X2898Y918D01*
X1833Y917D02*
X1896Y917D01*
X2834Y917D02*
X2898Y917D01*
X1834Y916D02*
X1895Y916D01*
X2835Y916D02*
X2897Y916D01*
X1835Y915D02*
X1895Y915D01*
X2836Y915D02*
X2896Y915D01*
X1836Y914D02*
X1894Y914D01*
X2837Y914D02*
X2895Y914D01*
X1837Y913D02*
X1892Y913D01*
X2838Y913D02*
X2894Y913D01*
X1838Y912D02*
X1891Y912D01*
X2839Y912D02*
X2893Y912D01*
X1839Y911D02*
X1890Y911D01*
X2841Y911D02*
X2891Y911D01*
X1841Y910D02*
X1889Y910D01*
X2842Y910D02*
X2890Y910D01*
X1842Y909D02*
X1887Y909D01*
X2843Y909D02*
X2889Y909D01*
X1844Y908D02*
X1886Y908D01*
X2845Y908D02*
X2887Y908D01*
X1845Y907D02*
X1884Y907D01*
X2847Y907D02*
X2885Y907D01*
X1847Y906D02*
X1882Y906D01*
X2849Y906D02*
X2883Y906D01*
X1850Y905D02*
X1880Y905D01*
X2851Y905D02*
X2881Y905D01*
X1852Y904D02*
X1877Y904D01*
X2854Y904D02*
X2878Y904D01*
X1856Y903D02*
X1873Y903D01*
X2858Y903D02*
X2874Y903D01*
X1864Y902D02*
X1865Y902D01*
X2866Y902D02*
X2866Y902D01*
X1857Y885D02*
X1873Y885D01*
X2858Y885D02*
X2874Y885D01*
X1853Y884D02*
X1877Y884D01*
X2854Y884D02*
X2878Y884D01*
X1850Y883D02*
X1879Y883D01*
X2851Y883D02*
X2881Y883D01*
X1848Y882D02*
X1882Y882D01*
X2849Y882D02*
X2883Y882D01*
X1846Y881D02*
X1884Y881D01*
X2847Y881D02*
X2885Y881D01*
X1844Y880D02*
X1885Y880D01*
X2845Y880D02*
X2887Y880D01*
X1842Y879D02*
X1887Y879D01*
X2844Y879D02*
X2888Y879D01*
X1841Y878D02*
X1889Y878D01*
X2842Y878D02*
X2890Y878D01*
X1839Y877D02*
X1890Y877D01*
X2841Y877D02*
X2891Y877D01*
X1838Y876D02*
X1891Y876D01*
X2839Y876D02*
X2893Y876D01*
X1837Y875D02*
X1892Y875D01*
X2838Y875D02*
X2894Y875D01*
X1836Y874D02*
X1893Y874D01*
X2837Y874D02*
X2895Y874D01*
X1835Y873D02*
X1894Y873D01*
X2836Y873D02*
X2896Y873D01*
X1834Y872D02*
X1895Y872D01*
X2835Y872D02*
X2897Y872D01*
X1833Y871D02*
X1896Y871D01*
X2834Y871D02*
X2898Y871D01*
X1832Y870D02*
X1897Y870D01*
X2834Y870D02*
X2898Y870D01*
X1832Y869D02*
X1898Y869D01*
X2833Y869D02*
X2899Y869D01*
X1831Y868D02*
X1898Y868D01*
X2832Y868D02*
X2900Y868D01*
X1830Y867D02*
X1899Y867D01*
X2832Y867D02*
X2901Y867D01*
X1830Y866D02*
X1900Y866D01*
X2831Y866D02*
X2901Y866D01*
X1829Y865D02*
X1900Y865D01*
X2830Y865D02*
X2902Y865D01*
X1828Y864D02*
X1901Y864D01*
X2830Y864D02*
X2902Y864D01*
X1828Y863D02*
X1902Y863D01*
X2829Y863D02*
X2903Y863D01*
X1827Y862D02*
X1902Y862D01*
X2829Y862D02*
X2903Y862D01*
X1827Y861D02*
X1903Y861D01*
X2828Y861D02*
X2904Y861D01*
X1826Y860D02*
X1903Y860D01*
X2828Y860D02*
X2904Y860D01*
X1826Y859D02*
X1903Y859D01*
X2827Y859D02*
X2905Y859D01*
X1826Y858D02*
X1904Y858D01*
X2827Y858D02*
X2905Y858D01*
X1825Y857D02*
X1904Y857D01*
X2827Y857D02*
X2905Y857D01*
X1825Y856D02*
X1904Y856D01*
X2826Y856D02*
X2906Y856D01*
X1825Y855D02*
X1905Y855D01*
X2826Y855D02*
X2906Y855D01*
X1824Y854D02*
X1905Y854D01*
X2826Y854D02*
X2906Y854D01*
X1824Y853D02*
X1905Y853D01*
X2826Y853D02*
X2906Y853D01*
X1824Y852D02*
X1905Y852D01*
X2825Y852D02*
X2907Y852D01*
X1824Y851D02*
X1906Y851D01*
X2825Y851D02*
X2907Y851D01*
X1824Y850D02*
X1906Y850D01*
X2825Y850D02*
X2907Y850D01*
X1824Y849D02*
X1906Y849D01*
X2825Y849D02*
X2907Y849D01*
X1823Y848D02*
X1906Y848D01*
X2825Y848D02*
X2907Y848D01*
X1823Y847D02*
X1906Y847D01*
X2825Y847D02*
X2907Y847D01*
X1823Y846D02*
X1906Y846D01*
X2825Y846D02*
X2907Y846D01*
X1823Y845D02*
X1906Y845D01*
X2825Y845D02*
X2908Y845D01*
X1823Y844D02*
X1906Y844D01*
X2824Y844D02*
X2908Y844D01*
X1823Y843D02*
X1906Y843D01*
X2825Y843D02*
X2908Y843D01*
X1823Y842D02*
X1906Y842D01*
X2825Y842D02*
X2907Y842D01*
X1823Y841D02*
X1906Y841D01*
X2825Y841D02*
X2907Y841D01*
X1823Y840D02*
X1906Y840D01*
X2825Y840D02*
X2907Y840D01*
X1823Y839D02*
X1906Y839D01*
X2825Y839D02*
X2907Y839D01*
X1824Y838D02*
X1906Y838D01*
X2825Y838D02*
X2907Y838D01*
X1824Y837D02*
X1906Y837D01*
X2825Y837D02*
X2907Y837D01*
X1824Y836D02*
X1905Y836D01*
X2825Y836D02*
X2907Y836D01*
X1824Y835D02*
X1905Y835D01*
X2826Y835D02*
X2907Y835D01*
X1824Y834D02*
X1905Y834D01*
X2826Y834D02*
X2906Y834D01*
X1825Y833D02*
X1905Y833D01*
X2826Y833D02*
X2906Y833D01*
X1825Y832D02*
X1904Y832D01*
X2826Y832D02*
X2906Y832D01*
X1825Y831D02*
X1904Y831D01*
X2827Y831D02*
X2906Y831D01*
X1826Y830D02*
X1904Y830D01*
X2827Y830D02*
X2905Y830D01*
X1826Y829D02*
X1903Y829D01*
X2827Y829D02*
X2905Y829D01*
X1826Y828D02*
X1903Y828D01*
X2828Y828D02*
X2904Y828D01*
X1827Y827D02*
X1903Y827D01*
X2828Y827D02*
X2904Y827D01*
X1827Y826D02*
X1902Y826D01*
X2829Y826D02*
X2904Y826D01*
X1828Y825D02*
X1902Y825D01*
X2829Y825D02*
X2903Y825D01*
X1828Y824D02*
X1901Y824D01*
X2830Y824D02*
X2903Y824D01*
X1829Y823D02*
X1901Y823D01*
X2830Y823D02*
X2902Y823D01*
X1829Y822D02*
X1900Y822D01*
X2831Y822D02*
X2901Y822D01*
X1830Y821D02*
X1899Y821D01*
X2831Y821D02*
X2901Y821D01*
X1831Y820D02*
X1899Y820D01*
X2832Y820D02*
X2900Y820D01*
X1831Y819D02*
X1898Y819D01*
X2833Y819D02*
X2899Y819D01*
X1832Y818D02*
X1897Y818D01*
X2833Y818D02*
X2899Y818D01*
X1833Y817D02*
X1896Y817D01*
X2834Y817D02*
X2898Y817D01*
X1834Y816D02*
X1896Y816D01*
X2835Y816D02*
X2897Y816D01*
X1835Y815D02*
X1895Y815D01*
X2836Y815D02*
X2896Y815D01*
X1836Y814D02*
X1894Y814D01*
X2837Y814D02*
X2895Y814D01*
X1837Y813D02*
X1893Y813D01*
X2838Y813D02*
X2894Y813D01*
X1838Y812D02*
X1892Y812D01*
X2839Y812D02*
X2893Y812D01*
X1839Y811D02*
X1890Y811D01*
X2840Y811D02*
X2892Y811D01*
X1840Y810D02*
X1889Y810D01*
X2842Y810D02*
X2890Y810D01*
X1842Y809D02*
X1888Y809D01*
X2843Y809D02*
X2889Y809D01*
X1843Y808D02*
X1886Y808D01*
X2845Y808D02*
X2887Y808D01*
X1845Y807D02*
X1884Y807D01*
X2846Y807D02*
X2886Y807D01*
X1847Y806D02*
X1882Y806D01*
X2848Y806D02*
X2884Y806D01*
X1849Y805D02*
X1880Y805D01*
X2851Y805D02*
X2882Y805D01*
X1852Y804D02*
X1877Y804D01*
X2853Y804D02*
X2879Y804D01*
X1856Y803D02*
X1874Y803D01*
X2857Y803D02*
X2875Y803D01*
X1862Y802D02*
X1867Y802D01*
X2863Y802D02*
X2869Y802D01*
X1858Y785D02*
X1872Y785D01*
X2859Y785D02*
X2873Y785D01*
X1853Y784D02*
X1876Y784D01*
X2855Y784D02*
X2877Y784D01*
X1850Y783D02*
X1879Y783D01*
X2852Y783D02*
X2880Y783D01*
X1848Y782D02*
X1882Y782D01*
X2849Y782D02*
X2883Y782D01*
X1846Y781D02*
X1884Y781D01*
X2847Y781D02*
X2885Y781D01*
X1844Y780D02*
X1885Y780D01*
X2845Y780D02*
X2887Y780D01*
X1842Y779D02*
X1887Y779D01*
X2844Y779D02*
X2888Y779D01*
X1841Y778D02*
X1888Y778D01*
X2842Y778D02*
X2890Y778D01*
X1840Y777D02*
X1890Y777D01*
X2841Y777D02*
X2891Y777D01*
X1838Y776D02*
X1891Y776D01*
X2840Y776D02*
X2892Y776D01*
X1837Y775D02*
X1892Y775D01*
X2838Y775D02*
X2894Y775D01*
X1836Y774D02*
X1893Y774D01*
X2837Y774D02*
X2895Y774D01*
X1835Y773D02*
X1894Y773D01*
X2836Y773D02*
X2896Y773D01*
X1834Y772D02*
X1895Y772D01*
X2835Y772D02*
X2897Y772D01*
X1833Y771D02*
X1896Y771D01*
X2835Y771D02*
X2897Y771D01*
X1832Y770D02*
X1897Y770D01*
X2834Y770D02*
X2898Y770D01*
X1832Y769D02*
X1898Y769D01*
X2833Y769D02*
X2899Y769D01*
X1831Y768D02*
X1898Y768D01*
X2832Y768D02*
X2900Y768D01*
X1830Y767D02*
X1899Y767D01*
X2832Y767D02*
X2900Y767D01*
X1830Y766D02*
X1900Y766D01*
X2831Y766D02*
X2901Y766D01*
X1829Y765D02*
X1900Y765D01*
X2830Y765D02*
X2902Y765D01*
X1828Y764D02*
X1901Y764D01*
X2830Y764D02*
X2902Y764D01*
X1828Y763D02*
X1901Y763D01*
X2829Y763D02*
X2903Y763D01*
X1827Y762D02*
X1902Y762D01*
X2829Y762D02*
X2903Y762D01*
X1827Y761D02*
X1902Y761D01*
X2828Y761D02*
X2904Y761D01*
X1826Y760D02*
X1903Y760D01*
X2828Y760D02*
X2904Y760D01*
X1826Y759D02*
X1903Y759D01*
X2827Y759D02*
X2905Y759D01*
X1826Y758D02*
X1904Y758D01*
X2827Y758D02*
X2905Y758D01*
X1825Y757D02*
X1904Y757D01*
X2827Y757D02*
X2905Y757D01*
X1825Y756D02*
X1904Y756D01*
X2826Y756D02*
X2906Y756D01*
X1825Y755D02*
X1905Y755D01*
X2826Y755D02*
X2906Y755D01*
X1825Y754D02*
X1905Y754D01*
X2826Y754D02*
X2906Y754D01*
X1824Y753D02*
X1905Y753D01*
X2826Y753D02*
X2906Y753D01*
X1824Y752D02*
X1905Y752D01*
X2825Y752D02*
X2907Y752D01*
X1824Y751D02*
X1905Y751D01*
X2825Y751D02*
X2907Y751D01*
X1824Y750D02*
X1906Y750D01*
X2825Y750D02*
X2907Y750D01*
X1824Y749D02*
X1906Y749D01*
X2825Y749D02*
X2907Y749D01*
X1823Y748D02*
X1906Y748D01*
X2825Y748D02*
X2907Y748D01*
X1823Y747D02*
X1906Y747D01*
X2825Y747D02*
X2907Y747D01*
X1823Y746D02*
X1906Y746D01*
X2825Y746D02*
X2907Y746D01*
X1823Y745D02*
X1906Y745D01*
X2825Y745D02*
X2908Y745D01*
X1823Y744D02*
X1906Y744D01*
X2824Y744D02*
X2908Y744D01*
X1823Y743D02*
X1906Y743D01*
X2825Y743D02*
X2908Y743D01*
X1823Y742D02*
X1906Y742D01*
X2825Y742D02*
X2907Y742D01*
X1823Y741D02*
X1906Y741D01*
X2825Y741D02*
X2907Y741D01*
X1823Y740D02*
X1906Y740D01*
X2825Y740D02*
X2907Y740D01*
X1823Y739D02*
X1906Y739D01*
X2825Y739D02*
X2907Y739D01*
X1824Y738D02*
X1906Y738D01*
X2825Y738D02*
X2907Y738D01*
X1824Y737D02*
X1906Y737D01*
X2825Y737D02*
X2907Y737D01*
X1824Y736D02*
X1905Y736D01*
X2825Y736D02*
X2907Y736D01*
X1824Y735D02*
X1905Y735D01*
X2825Y735D02*
X2907Y735D01*
X1824Y734D02*
X1905Y734D01*
X2826Y734D02*
X2906Y734D01*
X1825Y733D02*
X1905Y733D01*
X2826Y733D02*
X2906Y733D01*
X1825Y732D02*
X1904Y732D01*
X2826Y732D02*
X2906Y732D01*
X1825Y731D02*
X1904Y731D01*
X2826Y731D02*
X2906Y731D01*
X1825Y730D02*
X1904Y730D01*
X2827Y730D02*
X2905Y730D01*
X1826Y729D02*
X1903Y729D01*
X2827Y729D02*
X2905Y729D01*
X1826Y728D02*
X1903Y728D01*
X2828Y728D02*
X2904Y728D01*
X1827Y727D02*
X1903Y727D01*
X2828Y727D02*
X2904Y727D01*
X1827Y726D02*
X1902Y726D01*
X2828Y726D02*
X2904Y726D01*
X1828Y725D02*
X1902Y725D01*
X2829Y725D02*
X2903Y725D01*
X1828Y724D02*
X1901Y724D01*
X2829Y724D02*
X2903Y724D01*
X1829Y723D02*
X1901Y723D01*
X2830Y723D02*
X2902Y723D01*
X1829Y722D02*
X1900Y722D01*
X2831Y722D02*
X2901Y722D01*
X1830Y721D02*
X1899Y721D01*
X2831Y721D02*
X2901Y721D01*
X1831Y720D02*
X1899Y720D01*
X2832Y720D02*
X2900Y720D01*
X1831Y719D02*
X1898Y719D01*
X2833Y719D02*
X2899Y719D01*
X1832Y718D02*
X1897Y718D01*
X2833Y718D02*
X2899Y718D01*
X1833Y717D02*
X1897Y717D01*
X2834Y717D02*
X2898Y717D01*
X1834Y716D02*
X1896Y716D01*
X2835Y716D02*
X2897Y716D01*
X1835Y715D02*
X1895Y715D01*
X2836Y715D02*
X2896Y715D01*
X1835Y714D02*
X1894Y714D01*
X2837Y714D02*
X2895Y714D01*
X1837Y713D02*
X1893Y713D01*
X2838Y713D02*
X2894Y713D01*
X1838Y712D02*
X1892Y712D01*
X2839Y712D02*
X2893Y712D01*
X1839Y711D02*
X1890Y711D01*
X2840Y711D02*
X2892Y711D01*
X1840Y710D02*
X1889Y710D01*
X2842Y710D02*
X2890Y710D01*
X1842Y709D02*
X1888Y709D01*
X2843Y709D02*
X2889Y709D01*
X1843Y708D02*
X1886Y708D01*
X2845Y708D02*
X2887Y708D01*
X1845Y707D02*
X1885Y707D01*
X2846Y707D02*
X2886Y707D01*
X1847Y706D02*
X1883Y706D01*
X2848Y706D02*
X2884Y706D01*
X1849Y705D02*
X1881Y705D01*
X2850Y705D02*
X2882Y705D01*
X1852Y704D02*
X1878Y704D01*
X2853Y704D02*
X2879Y704D01*
X1855Y703D02*
X1874Y703D01*
X2857Y703D02*
X2876Y703D01*
X1861Y702D02*
X1869Y702D01*
X2862Y702D02*
X2870Y702D01*
D02*
G04 End of Mask0*
M02*