; NON-PLATED HOLES START AT T1
; THROUGH (PLATED) HOLES START AT T100
M48
INCH
T1C0.125984
T2C0.204724
T100C0.031497
T101C0.015748
T102C0.035000
T103C0.038000
T104C0.035050
T105C0.032000
%
T1
X043036Y030490
X004117Y016709
X004133Y030471
X019153Y002960
X043035Y016717
X028011Y002958
T2
X034508Y019710
X012829Y019690
X012823Y031499
X034521Y031508
T100
X011320Y035325
X036167Y011951
X010406Y009776
X012113Y011255
X035295Y035932
X036889Y037637
X035471Y011255
X035991Y035236
X012016Y036021
X009667Y036951
X010363Y037647
X011417Y011951
X036958Y009700
X009710Y010471
X037585Y036941
X037654Y010396
T101
X034167Y009451
X031167Y027201
X027417Y008451
X022667Y027201
X022667Y027951
X013417Y008701
X024167Y025451
X036167Y027951
X025167Y009201
X039167Y032951
X023667Y024451
X012667Y036951
X026667Y009201
X020667Y023451
T102
X025167Y032951
X009667Y013951
X025167Y029951
X023167Y017451
X014667Y016951
X012667Y013951
X011667Y016951
X022167Y028951
X015667Y007451
X022167Y030951
X022167Y033951
X011667Y013951
X025167Y028951
X032667Y007451
X022167Y032951
X010667Y016951
X009667Y016951
X023167Y014951
X031667Y007451
X022167Y031951
X025167Y030951
X014667Y007451
X025167Y035951
X025167Y031951
X025167Y034951
X012667Y016951
X024167Y014951
X022167Y029951
X014667Y013951
X010667Y013951
X022167Y035951
X013667Y016951
X022167Y034951
X015667Y016951
X025167Y033951
X015667Y013951
X013667Y013951
X024167Y017451
T103
X018167Y035951
X030667Y012951
X032667Y010451
X018167Y032951
X032667Y011451
X012917Y024451
X008001Y039202
X032667Y012951
X031667Y012951
X023667Y041951
X025667Y041951
X025167Y037951
X021667Y041951
X007294Y038495
X015167Y011451
X029167Y035951
X016167Y010201
X023167Y037951
X018167Y031951
X029167Y032951
X018167Y034951
X028667Y022951
X031667Y014451
X026667Y041951
X034417Y024451
X038460Y039908
X017417Y011451
X021167Y037951
X017667Y021451
X026167Y038951
X021167Y031951
X024167Y012951
X012167Y012951
X008708Y039910
X030167Y018451
X030667Y011451
X007311Y008801
X020667Y041951
X012917Y026451
X022667Y009951
X022167Y012951
X040081Y008865
X022167Y037951
X014167Y011451
X015167Y012951
X039874Y038494
X030667Y014451
X024667Y041951
X034417Y026451
X027167Y038951
X020167Y037951
X008725Y007387
X008018Y008094
X031667Y011451
X039167Y039201
X030167Y019451
X029167Y033951
X025167Y038951
X031667Y010451
X027167Y037951
X032667Y014451
X012917Y027451
X039374Y008158
X024167Y037951
X026167Y037951
X017417Y012451
X012917Y025451
X016167Y011451
X030667Y009451
X025167Y012951
X034417Y025451
X030667Y010451
X018167Y033951
X038667Y007451
X014167Y012951
X014167Y010201
X015167Y010201
X023667Y009951
X023167Y012951
X034417Y027451
X024667Y009951
X022667Y041951
X029167Y034951
X029167Y031951
X029667Y022951
X013167Y012951
X030667Y022951
T104
X028667Y019450
X018653Y015444
X018653Y010437
X028667Y020451
X028667Y007432
X028667Y011438
X018653Y020451
X018653Y018448
X028667Y017447
X028667Y008434
X018653Y011438
X018653Y019450
X028667Y010437
X018653Y013441
X018653Y014442
X028667Y009435
X018653Y008434
X018653Y017447
X018653Y021453
X018653Y009435
X028667Y012440
X018653Y016445
X028667Y021453
X028667Y016445
X028667Y014442
X018653Y012440
X028667Y018448
X028667Y013441
X018653Y007432
X028667Y015444
T105
X034667Y016701
X037667Y016701
X037667Y015701
X034667Y015701
T00
M30
