; NON-PLATED HOLES START AT T1
; THROUGH (PLATED) HOLES START AT T100
M48
INCH
T100C0.032000
T101C0.031496
T102C0.038000
%
T100
X026073Y003093
X026073Y002093
X023073Y002093
X023073Y003093
T101
X000823Y001593
X001610Y001593
X002398Y001593
X000823Y003343
X002398Y003343
X001610Y003343
T102
X018323Y002093
X005573Y001593
X004573Y001593
X022073Y002093
X009073Y004093
X009073Y001093
X018323Y001093
X004573Y003593
X020073Y001093
X020073Y003093
X020073Y004093
X009073Y002093
X005573Y003593
X009073Y003093
X018323Y003093
X020073Y002093
X022073Y003093
T00
M30
