G04 MADE WITH FRITZING*
G04 WWW.FRITZING.ORG*
G04 SINGLE SIDED*
G04 HOLES NOT PLATED*
G04 CONTOUR ON CENTER OF CONTOUR VECTOR*
%ASAXBY*%
%FSLAX23Y23*%
%MOIN*%
%OFA0B0*%
%SFA1.0B1.0*%
%ADD10R,1.771650X1.574800X1.755650X1.558800*%
%ADD11C,0.008000*%
%ADD12C,0.010000*%
%ADD13C,0.005000*%
%ADD14C,0.020000*%
%ADD15R,0.001000X0.001000*%
%LNSILK1*%
G90*
G70*
G54D11*
X4Y1571D02*
X1768Y1571D01*
X1768Y4D01*
X4Y4D01*
X4Y1571D01*
D02*
G54D12*
X366Y677D02*
X366Y577D01*
D02*
X366Y577D02*
X466Y577D01*
D02*
X466Y577D02*
X466Y677D01*
D02*
X466Y677D02*
X366Y677D01*
G54D13*
D02*
X366Y642D02*
X401Y677D01*
G54D12*
D02*
X1003Y129D02*
X1003Y29D01*
D02*
X1003Y29D02*
X1103Y29D01*
D02*
X1103Y29D02*
X1103Y129D01*
D02*
X1103Y129D02*
X1003Y129D01*
G54D13*
D02*
X1003Y94D02*
X1038Y129D01*
G54D12*
D02*
X719Y681D02*
X719Y581D01*
D02*
X719Y581D02*
X819Y581D01*
D02*
X819Y581D02*
X819Y681D01*
D02*
X819Y681D02*
X719Y681D01*
G54D13*
D02*
X719Y646D02*
X754Y681D01*
G54D12*
D02*
X1419Y1526D02*
X1419Y1426D01*
D02*
X1419Y1426D02*
X1519Y1426D01*
D02*
X1519Y1426D02*
X1519Y1526D01*
D02*
X1519Y1526D02*
X1419Y1526D01*
G54D13*
D02*
X1419Y1491D02*
X1454Y1526D01*
G54D12*
D02*
X1144Y1524D02*
X1144Y1424D01*
D02*
X1144Y1424D02*
X1244Y1424D01*
D02*
X1244Y1424D02*
X1244Y1524D01*
D02*
X1244Y1524D02*
X1144Y1524D01*
G54D13*
D02*
X1144Y1489D02*
X1179Y1524D01*
G54D12*
D02*
X853Y1529D02*
X853Y1429D01*
D02*
X853Y1429D02*
X953Y1429D01*
D02*
X953Y1429D02*
X953Y1529D01*
D02*
X953Y1529D02*
X853Y1529D01*
G54D13*
D02*
X853Y1494D02*
X888Y1529D01*
G54D12*
D02*
X261Y1526D02*
X261Y1426D01*
D02*
X261Y1426D02*
X361Y1426D01*
D02*
X361Y1426D02*
X361Y1526D01*
D02*
X361Y1526D02*
X261Y1526D01*
G54D13*
D02*
X261Y1491D02*
X296Y1526D01*
G54D12*
D02*
X1603Y1279D02*
X1603Y879D01*
D02*
X1603Y879D02*
X1703Y879D01*
D02*
X1703Y879D02*
X1703Y1279D01*
D02*
X1703Y1279D02*
X1603Y1279D01*
G54D13*
D02*
X1603Y1244D02*
X1638Y1279D01*
G54D12*
D02*
X1253Y229D02*
X1453Y229D01*
D02*
X1453Y229D02*
X1453Y329D01*
D02*
X1453Y329D02*
X1253Y329D01*
D02*
X1253Y329D02*
X1253Y229D01*
G54D13*
D02*
X1288Y229D02*
X1253Y264D01*
G54D12*
D02*
X653Y29D02*
X853Y29D01*
D02*
X853Y29D02*
X853Y129D01*
D02*
X853Y129D02*
X653Y129D01*
D02*
X653Y129D02*
X653Y29D01*
G54D13*
D02*
X688Y29D02*
X653Y64D01*
G54D12*
D02*
X203Y279D02*
X403Y279D01*
D02*
X403Y279D02*
X403Y379D01*
D02*
X403Y379D02*
X203Y379D01*
D02*
X203Y379D02*
X203Y279D01*
G54D13*
D02*
X238Y279D02*
X203Y314D01*
G54D12*
D02*
X53Y1529D02*
X53Y1229D01*
D02*
X53Y1229D02*
X153Y1229D01*
D02*
X153Y1229D02*
X153Y1529D01*
D02*
X153Y1529D02*
X53Y1529D01*
G54D13*
D02*
X53Y1494D02*
X88Y1529D01*
G54D12*
D02*
X596Y529D02*
X609Y529D01*
D02*
X804Y529D02*
X811Y529D01*
D02*
X609Y574D02*
X804Y574D01*
D02*
X804Y574D02*
X804Y484D01*
D02*
X804Y484D02*
X609Y484D01*
D02*
X609Y484D02*
X609Y574D01*
G54D14*
D02*
X629Y484D02*
X629Y574D01*
G36*
X204Y1530D02*
X204Y1516D01*
X1544Y1516D01*
X1544Y583D01*
X1554Y583D01*
X1554Y1530D01*
X204Y1530D01*
G37*
D02*
G36*
X204Y1516D02*
X204Y583D01*
X217Y583D01*
X217Y1516D01*
X204Y1516D01*
G37*
D02*
G36*
X204Y583D02*
X204Y580D01*
X1554Y580D01*
X1554Y583D01*
X204Y583D01*
G37*
D02*
G36*
X204Y583D02*
X204Y580D01*
X1554Y580D01*
X1554Y583D01*
X204Y583D01*
G37*
D02*
G36*
X204Y580D02*
X204Y573D01*
X1554Y573D01*
X1554Y580D01*
X204Y580D01*
G37*
D02*
G36*
X304Y1500D02*
X304Y1496D01*
X297Y1496D01*
X297Y1493D01*
X291Y1493D01*
X291Y1490D01*
X287Y1490D01*
X287Y1486D01*
X317Y1486D01*
X317Y1483D01*
X321Y1483D01*
X321Y1480D01*
X324Y1480D01*
X324Y1466D01*
X321Y1466D01*
X321Y1463D01*
X317Y1463D01*
X317Y1460D01*
X331Y1460D01*
X331Y1463D01*
X334Y1463D01*
X334Y1483D01*
X331Y1483D01*
X331Y1490D01*
X327Y1490D01*
X327Y1493D01*
X324Y1493D01*
X324Y1496D01*
X317Y1496D01*
X317Y1500D01*
X304Y1500D01*
G37*
D02*
G36*
X287Y1486D02*
X287Y1483D01*
X284Y1483D01*
X284Y1466D01*
X287Y1466D01*
X287Y1460D01*
X301Y1460D01*
X301Y1463D01*
X297Y1463D01*
X297Y1470D01*
X294Y1470D01*
X294Y1476D01*
X297Y1476D01*
X297Y1483D01*
X301Y1483D01*
X301Y1486D01*
X287Y1486D01*
G37*
D02*
G36*
X291Y1460D02*
X291Y1456D01*
X331Y1456D01*
X331Y1460D01*
X291Y1460D01*
G37*
D02*
G36*
X291Y1460D02*
X291Y1456D01*
X331Y1456D01*
X331Y1460D01*
X291Y1460D01*
G37*
D02*
G36*
X294Y1456D02*
X294Y1453D01*
X297Y1453D01*
X297Y1450D01*
X321Y1450D01*
X321Y1453D01*
X327Y1453D01*
X327Y1456D01*
X294Y1456D01*
G37*
D02*
G36*
X894Y1500D02*
X894Y1496D01*
X887Y1496D01*
X887Y1493D01*
X881Y1493D01*
X881Y1486D01*
X907Y1486D01*
X907Y1483D01*
X911Y1483D01*
X911Y1480D01*
X914Y1480D01*
X914Y1466D01*
X911Y1466D01*
X911Y1463D01*
X907Y1463D01*
X907Y1460D01*
X921Y1460D01*
X921Y1463D01*
X924Y1463D01*
X924Y1486D01*
X921Y1486D01*
X921Y1490D01*
X917Y1490D01*
X917Y1493D01*
X914Y1493D01*
X914Y1496D01*
X907Y1496D01*
X907Y1500D01*
X894Y1500D01*
G37*
D02*
G36*
X877Y1486D02*
X877Y1480D01*
X874Y1480D01*
X874Y1466D01*
X877Y1466D01*
X877Y1460D01*
X894Y1460D01*
X894Y1463D01*
X887Y1463D01*
X887Y1483D01*
X891Y1483D01*
X891Y1486D01*
X877Y1486D01*
G37*
D02*
G36*
X881Y1460D02*
X881Y1456D01*
X921Y1456D01*
X921Y1460D01*
X881Y1460D01*
G37*
D02*
G36*
X881Y1460D02*
X881Y1456D01*
X921Y1456D01*
X921Y1460D01*
X881Y1460D01*
G37*
D02*
G36*
X884Y1456D02*
X884Y1453D01*
X887Y1453D01*
X887Y1450D01*
X911Y1450D01*
X911Y1453D01*
X917Y1453D01*
X917Y1456D01*
X884Y1456D01*
G37*
D02*
G36*
X1187Y1500D02*
X1187Y1496D01*
X1181Y1496D01*
X1181Y1493D01*
X1177Y1493D01*
X1177Y1490D01*
X1174Y1490D01*
X1174Y1486D01*
X1204Y1486D01*
X1204Y1483D01*
X1207Y1483D01*
X1207Y1476D01*
X1211Y1476D01*
X1211Y1473D01*
X1207Y1473D01*
X1207Y1463D01*
X1204Y1463D01*
X1204Y1460D01*
X1217Y1460D01*
X1217Y1466D01*
X1221Y1466D01*
X1221Y1483D01*
X1217Y1483D01*
X1217Y1490D01*
X1214Y1490D01*
X1214Y1493D01*
X1207Y1493D01*
X1207Y1496D01*
X1201Y1496D01*
X1201Y1500D01*
X1187Y1500D01*
G37*
D02*
G36*
X1174Y1486D02*
X1174Y1483D01*
X1171Y1483D01*
X1171Y1463D01*
X1174Y1463D01*
X1174Y1460D01*
X1187Y1460D01*
X1187Y1463D01*
X1184Y1463D01*
X1184Y1466D01*
X1181Y1466D01*
X1181Y1480D01*
X1184Y1480D01*
X1184Y1483D01*
X1187Y1483D01*
X1187Y1486D01*
X1174Y1486D01*
G37*
D02*
G36*
X1174Y1460D02*
X1174Y1456D01*
X1214Y1456D01*
X1214Y1460D01*
X1174Y1460D01*
G37*
D02*
G36*
X1174Y1460D02*
X1174Y1456D01*
X1214Y1456D01*
X1214Y1460D01*
X1174Y1460D01*
G37*
D02*
G36*
X1177Y1456D02*
X1177Y1453D01*
X1184Y1453D01*
X1184Y1450D01*
X1207Y1450D01*
X1207Y1453D01*
X1211Y1453D01*
X1211Y1456D01*
X1177Y1456D01*
G37*
D02*
G36*
X1464Y1500D02*
X1464Y1496D01*
X1457Y1496D01*
X1457Y1493D01*
X1454Y1493D01*
X1454Y1490D01*
X1451Y1490D01*
X1451Y1486D01*
X1481Y1486D01*
X1481Y1483D01*
X1484Y1483D01*
X1484Y1466D01*
X1481Y1466D01*
X1481Y1463D01*
X1477Y1463D01*
X1477Y1460D01*
X1494Y1460D01*
X1494Y1470D01*
X1497Y1470D01*
X1497Y1480D01*
X1494Y1480D01*
X1494Y1486D01*
X1491Y1486D01*
X1491Y1490D01*
X1487Y1490D01*
X1487Y1493D01*
X1484Y1493D01*
X1484Y1496D01*
X1477Y1496D01*
X1477Y1500D01*
X1464Y1500D01*
G37*
D02*
G36*
X1447Y1486D02*
X1447Y1476D01*
X1444Y1476D01*
X1444Y1470D01*
X1447Y1470D01*
X1447Y1460D01*
X1464Y1460D01*
X1464Y1463D01*
X1461Y1463D01*
X1461Y1466D01*
X1457Y1466D01*
X1457Y1483D01*
X1461Y1483D01*
X1461Y1486D01*
X1447Y1486D01*
G37*
D02*
G36*
X1451Y1460D02*
X1451Y1456D01*
X1491Y1456D01*
X1491Y1460D01*
X1451Y1460D01*
G37*
D02*
G36*
X1451Y1460D02*
X1451Y1456D01*
X1491Y1456D01*
X1491Y1460D01*
X1451Y1460D01*
G37*
D02*
G36*
X1454Y1456D02*
X1454Y1453D01*
X1457Y1453D01*
X1457Y1450D01*
X1484Y1450D01*
X1484Y1453D01*
X1487Y1453D01*
X1487Y1456D01*
X1454Y1456D01*
G37*
D02*
G36*
X411Y653D02*
X411Y650D01*
X404Y650D01*
X404Y646D01*
X401Y646D01*
X401Y643D01*
X397Y643D01*
X397Y640D01*
X427Y640D01*
X427Y636D01*
X431Y636D01*
X431Y620D01*
X427Y620D01*
X427Y616D01*
X424Y616D01*
X424Y613D01*
X441Y613D01*
X441Y623D01*
X444Y623D01*
X444Y633D01*
X441Y633D01*
X441Y640D01*
X437Y640D01*
X437Y643D01*
X434Y643D01*
X434Y646D01*
X431Y646D01*
X431Y650D01*
X424Y650D01*
X424Y653D01*
X411Y653D01*
G37*
D02*
G36*
X394Y640D02*
X394Y630D01*
X391Y630D01*
X391Y623D01*
X394Y623D01*
X394Y616D01*
X397Y616D01*
X397Y613D01*
X411Y613D01*
X411Y616D01*
X407Y616D01*
X407Y620D01*
X404Y620D01*
X404Y633D01*
X407Y633D01*
X407Y640D01*
X394Y640D01*
G37*
D02*
G36*
X397Y613D02*
X397Y610D01*
X437Y610D01*
X437Y613D01*
X397Y613D01*
G37*
D02*
G36*
X397Y613D02*
X397Y610D01*
X437Y610D01*
X437Y613D01*
X397Y613D01*
G37*
D02*
G36*
X401Y610D02*
X401Y606D01*
X407Y606D01*
X407Y603D01*
X431Y603D01*
X431Y606D01*
X434Y606D01*
X434Y610D01*
X401Y610D01*
G37*
D02*
G36*
X764Y653D02*
X764Y650D01*
X757Y650D01*
X757Y646D01*
X754Y646D01*
X754Y643D01*
X751Y643D01*
X751Y640D01*
X781Y640D01*
X781Y636D01*
X784Y636D01*
X784Y630D01*
X787Y630D01*
X787Y623D01*
X784Y623D01*
X784Y616D01*
X777Y616D01*
X777Y613D01*
X794Y613D01*
X794Y620D01*
X797Y620D01*
X797Y636D01*
X794Y636D01*
X794Y643D01*
X791Y643D01*
X791Y646D01*
X787Y646D01*
X787Y650D01*
X781Y650D01*
X781Y653D01*
X764Y653D01*
G37*
D02*
G36*
X751Y640D02*
X751Y636D01*
X747Y636D01*
X747Y616D01*
X751Y616D01*
X751Y613D01*
X764Y613D01*
X764Y616D01*
X761Y616D01*
X761Y623D01*
X757Y623D01*
X757Y633D01*
X761Y633D01*
X761Y636D01*
X764Y636D01*
X764Y640D01*
X751Y640D01*
G37*
D02*
G36*
X751Y613D02*
X751Y610D01*
X791Y610D01*
X791Y613D01*
X751Y613D01*
G37*
D02*
G36*
X751Y613D02*
X751Y610D01*
X791Y610D01*
X791Y613D01*
X751Y613D01*
G37*
D02*
G36*
X754Y610D02*
X754Y606D01*
X761Y606D01*
X761Y603D01*
X784Y603D01*
X784Y606D01*
X787Y606D01*
X787Y610D01*
X754Y610D01*
G37*
D02*
G54D15*
X408Y1512D02*
X438Y1512D01*
X456Y1512D02*
X465Y1512D01*
X486Y1512D02*
X488Y1512D01*
X407Y1511D02*
X439Y1511D01*
X456Y1511D02*
X465Y1511D01*
X485Y1511D02*
X489Y1511D01*
X407Y1510D02*
X440Y1510D01*
X456Y1510D02*
X466Y1510D01*
X484Y1510D02*
X490Y1510D01*
X406Y1509D02*
X440Y1509D01*
X456Y1509D02*
X466Y1509D01*
X484Y1509D02*
X490Y1509D01*
X406Y1508D02*
X440Y1508D01*
X456Y1508D02*
X466Y1508D01*
X484Y1508D02*
X490Y1508D01*
X407Y1507D02*
X439Y1507D01*
X456Y1507D02*
X467Y1507D01*
X484Y1507D02*
X490Y1507D01*
X408Y1506D02*
X438Y1506D01*
X456Y1506D02*
X467Y1506D01*
X484Y1506D02*
X490Y1506D01*
X671Y1506D02*
X702Y1506D01*
X719Y1506D02*
X728Y1506D01*
X748Y1506D02*
X752Y1506D01*
X420Y1505D02*
X426Y1505D01*
X456Y1505D02*
X468Y1505D01*
X484Y1505D02*
X490Y1505D01*
X670Y1505D02*
X703Y1505D01*
X719Y1505D02*
X729Y1505D01*
X747Y1505D02*
X753Y1505D01*
X420Y1504D02*
X426Y1504D01*
X456Y1504D02*
X468Y1504D01*
X484Y1504D02*
X490Y1504D01*
X670Y1504D02*
X703Y1504D01*
X719Y1504D02*
X729Y1504D01*
X747Y1504D02*
X753Y1504D01*
X420Y1503D02*
X426Y1503D01*
X456Y1503D02*
X469Y1503D01*
X484Y1503D02*
X490Y1503D01*
X670Y1503D02*
X703Y1503D01*
X719Y1503D02*
X729Y1503D01*
X747Y1503D02*
X753Y1503D01*
X420Y1502D02*
X426Y1502D01*
X456Y1502D02*
X469Y1502D01*
X484Y1502D02*
X490Y1502D01*
X670Y1502D02*
X703Y1502D01*
X719Y1502D02*
X730Y1502D01*
X747Y1502D02*
X753Y1502D01*
X420Y1501D02*
X426Y1501D01*
X456Y1501D02*
X470Y1501D01*
X484Y1501D02*
X490Y1501D01*
X671Y1501D02*
X702Y1501D01*
X719Y1501D02*
X730Y1501D01*
X747Y1501D02*
X753Y1501D01*
X420Y1500D02*
X426Y1500D01*
X456Y1500D02*
X470Y1500D01*
X484Y1500D02*
X490Y1500D01*
X673Y1500D02*
X700Y1500D01*
X719Y1500D02*
X731Y1500D01*
X747Y1500D02*
X753Y1500D01*
X420Y1499D02*
X426Y1499D01*
X456Y1499D02*
X470Y1499D01*
X484Y1499D02*
X490Y1499D01*
X683Y1499D02*
X689Y1499D01*
X719Y1499D02*
X731Y1499D01*
X747Y1499D02*
X753Y1499D01*
X420Y1498D02*
X426Y1498D01*
X456Y1498D02*
X462Y1498D01*
X464Y1498D02*
X471Y1498D01*
X484Y1498D02*
X490Y1498D01*
X683Y1498D02*
X689Y1498D01*
X719Y1498D02*
X732Y1498D01*
X747Y1498D02*
X753Y1498D01*
X420Y1497D02*
X426Y1497D01*
X456Y1497D02*
X462Y1497D01*
X465Y1497D02*
X471Y1497D01*
X484Y1497D02*
X490Y1497D01*
X683Y1497D02*
X689Y1497D01*
X719Y1497D02*
X732Y1497D01*
X747Y1497D02*
X753Y1497D01*
X786Y1497D02*
X787Y1497D01*
X420Y1496D02*
X426Y1496D01*
X456Y1496D02*
X462Y1496D01*
X465Y1496D02*
X472Y1496D01*
X484Y1496D02*
X490Y1496D01*
X683Y1496D02*
X689Y1496D01*
X719Y1496D02*
X732Y1496D01*
X747Y1496D02*
X753Y1496D01*
X784Y1496D02*
X788Y1496D01*
X420Y1495D02*
X426Y1495D01*
X456Y1495D02*
X462Y1495D01*
X465Y1495D02*
X472Y1495D01*
X484Y1495D02*
X490Y1495D01*
X683Y1495D02*
X689Y1495D01*
X719Y1495D02*
X733Y1495D01*
X747Y1495D02*
X753Y1495D01*
X784Y1495D02*
X789Y1495D01*
X420Y1494D02*
X426Y1494D01*
X456Y1494D02*
X462Y1494D01*
X466Y1494D02*
X473Y1494D01*
X484Y1494D02*
X490Y1494D01*
X683Y1494D02*
X689Y1494D01*
X719Y1494D02*
X733Y1494D01*
X747Y1494D02*
X753Y1494D01*
X783Y1494D02*
X789Y1494D01*
X420Y1493D02*
X426Y1493D01*
X456Y1493D02*
X462Y1493D01*
X466Y1493D02*
X473Y1493D01*
X484Y1493D02*
X490Y1493D01*
X683Y1493D02*
X689Y1493D01*
X719Y1493D02*
X725Y1493D01*
X727Y1493D02*
X734Y1493D01*
X747Y1493D02*
X753Y1493D01*
X783Y1493D02*
X789Y1493D01*
X420Y1492D02*
X426Y1492D01*
X456Y1492D02*
X462Y1492D01*
X467Y1492D02*
X473Y1492D01*
X484Y1492D02*
X490Y1492D01*
X683Y1492D02*
X689Y1492D01*
X719Y1492D02*
X725Y1492D01*
X728Y1492D02*
X734Y1492D01*
X747Y1492D02*
X753Y1492D01*
X783Y1492D02*
X789Y1492D01*
X420Y1491D02*
X426Y1491D01*
X456Y1491D02*
X462Y1491D01*
X467Y1491D02*
X474Y1491D01*
X484Y1491D02*
X490Y1491D01*
X683Y1491D02*
X689Y1491D01*
X719Y1491D02*
X725Y1491D01*
X728Y1491D02*
X735Y1491D01*
X747Y1491D02*
X753Y1491D01*
X783Y1491D02*
X789Y1491D01*
X420Y1490D02*
X426Y1490D01*
X456Y1490D02*
X462Y1490D01*
X468Y1490D02*
X474Y1490D01*
X484Y1490D02*
X490Y1490D01*
X683Y1490D02*
X689Y1490D01*
X719Y1490D02*
X725Y1490D01*
X728Y1490D02*
X735Y1490D01*
X747Y1490D02*
X753Y1490D01*
X783Y1490D02*
X789Y1490D01*
X420Y1489D02*
X426Y1489D01*
X456Y1489D02*
X462Y1489D01*
X468Y1489D02*
X475Y1489D01*
X484Y1489D02*
X490Y1489D01*
X683Y1489D02*
X689Y1489D01*
X719Y1489D02*
X725Y1489D01*
X729Y1489D02*
X736Y1489D01*
X747Y1489D02*
X753Y1489D01*
X783Y1489D02*
X789Y1489D01*
X420Y1488D02*
X426Y1488D01*
X456Y1488D02*
X462Y1488D01*
X469Y1488D02*
X475Y1488D01*
X484Y1488D02*
X490Y1488D01*
X508Y1488D02*
X538Y1488D01*
X683Y1488D02*
X689Y1488D01*
X719Y1488D02*
X725Y1488D01*
X729Y1488D02*
X736Y1488D01*
X747Y1488D02*
X753Y1488D01*
X783Y1488D02*
X789Y1488D01*
X420Y1487D02*
X426Y1487D01*
X456Y1487D02*
X462Y1487D01*
X469Y1487D02*
X476Y1487D01*
X484Y1487D02*
X490Y1487D01*
X507Y1487D02*
X539Y1487D01*
X683Y1487D02*
X689Y1487D01*
X719Y1487D02*
X725Y1487D01*
X730Y1487D02*
X736Y1487D01*
X747Y1487D02*
X753Y1487D01*
X783Y1487D02*
X789Y1487D01*
X420Y1486D02*
X426Y1486D01*
X456Y1486D02*
X462Y1486D01*
X469Y1486D02*
X476Y1486D01*
X484Y1486D02*
X490Y1486D01*
X506Y1486D02*
X540Y1486D01*
X683Y1486D02*
X689Y1486D01*
X719Y1486D02*
X725Y1486D01*
X730Y1486D02*
X737Y1486D01*
X747Y1486D02*
X753Y1486D01*
X783Y1486D02*
X789Y1486D01*
X420Y1485D02*
X426Y1485D01*
X456Y1485D02*
X462Y1485D01*
X470Y1485D02*
X477Y1485D01*
X484Y1485D02*
X490Y1485D01*
X506Y1485D02*
X540Y1485D01*
X683Y1485D02*
X689Y1485D01*
X719Y1485D02*
X725Y1485D01*
X731Y1485D02*
X737Y1485D01*
X747Y1485D02*
X753Y1485D01*
X783Y1485D02*
X789Y1485D01*
X420Y1484D02*
X426Y1484D01*
X456Y1484D02*
X462Y1484D01*
X470Y1484D02*
X477Y1484D01*
X484Y1484D02*
X490Y1484D01*
X506Y1484D02*
X540Y1484D01*
X683Y1484D02*
X689Y1484D01*
X719Y1484D02*
X725Y1484D01*
X731Y1484D02*
X738Y1484D01*
X747Y1484D02*
X753Y1484D01*
X783Y1484D02*
X789Y1484D01*
X420Y1483D02*
X426Y1483D01*
X456Y1483D02*
X462Y1483D01*
X471Y1483D02*
X477Y1483D01*
X484Y1483D02*
X490Y1483D01*
X506Y1483D02*
X540Y1483D01*
X683Y1483D02*
X689Y1483D01*
X719Y1483D02*
X725Y1483D01*
X731Y1483D02*
X738Y1483D01*
X747Y1483D02*
X753Y1483D01*
X771Y1483D02*
X801Y1483D01*
X420Y1482D02*
X426Y1482D01*
X456Y1482D02*
X462Y1482D01*
X471Y1482D02*
X478Y1482D01*
X484Y1482D02*
X490Y1482D01*
X506Y1482D02*
X540Y1482D01*
X683Y1482D02*
X689Y1482D01*
X719Y1482D02*
X725Y1482D01*
X732Y1482D02*
X739Y1482D01*
X747Y1482D02*
X753Y1482D01*
X770Y1482D02*
X802Y1482D01*
X420Y1481D02*
X426Y1481D01*
X456Y1481D02*
X462Y1481D01*
X472Y1481D02*
X478Y1481D01*
X484Y1481D02*
X490Y1481D01*
X507Y1481D02*
X540Y1481D01*
X683Y1481D02*
X689Y1481D01*
X719Y1481D02*
X725Y1481D01*
X732Y1481D02*
X739Y1481D01*
X747Y1481D02*
X753Y1481D01*
X770Y1481D02*
X803Y1481D01*
X420Y1480D02*
X426Y1480D01*
X456Y1480D02*
X462Y1480D01*
X472Y1480D02*
X479Y1480D01*
X484Y1480D02*
X490Y1480D01*
X507Y1480D02*
X539Y1480D01*
X683Y1480D02*
X689Y1480D01*
X719Y1480D02*
X725Y1480D01*
X733Y1480D02*
X740Y1480D01*
X747Y1480D02*
X753Y1480D01*
X769Y1480D02*
X803Y1480D01*
X420Y1479D02*
X426Y1479D01*
X456Y1479D02*
X462Y1479D01*
X472Y1479D02*
X479Y1479D01*
X484Y1479D02*
X490Y1479D01*
X509Y1479D02*
X537Y1479D01*
X683Y1479D02*
X689Y1479D01*
X719Y1479D02*
X725Y1479D01*
X733Y1479D02*
X740Y1479D01*
X747Y1479D02*
X753Y1479D01*
X770Y1479D02*
X803Y1479D01*
X420Y1478D02*
X426Y1478D01*
X456Y1478D02*
X462Y1478D01*
X473Y1478D02*
X480Y1478D01*
X484Y1478D02*
X490Y1478D01*
X683Y1478D02*
X689Y1478D01*
X719Y1478D02*
X725Y1478D01*
X734Y1478D02*
X740Y1478D01*
X747Y1478D02*
X753Y1478D01*
X770Y1478D02*
X802Y1478D01*
X420Y1477D02*
X426Y1477D01*
X456Y1477D02*
X462Y1477D01*
X473Y1477D02*
X480Y1477D01*
X484Y1477D02*
X490Y1477D01*
X683Y1477D02*
X689Y1477D01*
X719Y1477D02*
X725Y1477D01*
X734Y1477D02*
X741Y1477D01*
X747Y1477D02*
X753Y1477D01*
X771Y1477D02*
X801Y1477D01*
X420Y1476D02*
X426Y1476D01*
X456Y1476D02*
X462Y1476D01*
X474Y1476D02*
X480Y1476D01*
X484Y1476D02*
X490Y1476D01*
X683Y1476D02*
X689Y1476D01*
X719Y1476D02*
X725Y1476D01*
X735Y1476D02*
X741Y1476D01*
X747Y1476D02*
X753Y1476D01*
X783Y1476D02*
X789Y1476D01*
X420Y1475D02*
X426Y1475D01*
X456Y1475D02*
X462Y1475D01*
X474Y1475D02*
X481Y1475D01*
X484Y1475D02*
X490Y1475D01*
X683Y1475D02*
X689Y1475D01*
X719Y1475D02*
X725Y1475D01*
X735Y1475D02*
X742Y1475D01*
X747Y1475D02*
X753Y1475D01*
X783Y1475D02*
X789Y1475D01*
X420Y1474D02*
X426Y1474D01*
X456Y1474D02*
X462Y1474D01*
X475Y1474D02*
X481Y1474D01*
X484Y1474D02*
X490Y1474D01*
X683Y1474D02*
X689Y1474D01*
X719Y1474D02*
X725Y1474D01*
X735Y1474D02*
X742Y1474D01*
X747Y1474D02*
X753Y1474D01*
X783Y1474D02*
X789Y1474D01*
X420Y1473D02*
X426Y1473D01*
X456Y1473D02*
X462Y1473D01*
X475Y1473D02*
X482Y1473D01*
X484Y1473D02*
X490Y1473D01*
X683Y1473D02*
X689Y1473D01*
X719Y1473D02*
X725Y1473D01*
X736Y1473D02*
X743Y1473D01*
X747Y1473D02*
X753Y1473D01*
X783Y1473D02*
X789Y1473D01*
X420Y1472D02*
X426Y1472D01*
X456Y1472D02*
X462Y1472D01*
X476Y1472D02*
X482Y1472D01*
X484Y1472D02*
X490Y1472D01*
X683Y1472D02*
X689Y1472D01*
X719Y1472D02*
X725Y1472D01*
X736Y1472D02*
X743Y1472D01*
X747Y1472D02*
X753Y1472D01*
X783Y1472D02*
X789Y1472D01*
X420Y1471D02*
X426Y1471D01*
X456Y1471D02*
X462Y1471D01*
X476Y1471D02*
X490Y1471D01*
X683Y1471D02*
X689Y1471D01*
X719Y1471D02*
X725Y1471D01*
X737Y1471D02*
X743Y1471D01*
X747Y1471D02*
X753Y1471D01*
X783Y1471D02*
X789Y1471D01*
X420Y1470D02*
X426Y1470D01*
X456Y1470D02*
X462Y1470D01*
X476Y1470D02*
X490Y1470D01*
X683Y1470D02*
X689Y1470D01*
X719Y1470D02*
X725Y1470D01*
X737Y1470D02*
X744Y1470D01*
X747Y1470D02*
X753Y1470D01*
X783Y1470D02*
X789Y1470D01*
X420Y1469D02*
X426Y1469D01*
X456Y1469D02*
X462Y1469D01*
X477Y1469D02*
X490Y1469D01*
X683Y1469D02*
X689Y1469D01*
X719Y1469D02*
X725Y1469D01*
X738Y1469D02*
X744Y1469D01*
X747Y1469D02*
X753Y1469D01*
X783Y1469D02*
X789Y1469D01*
X420Y1468D02*
X426Y1468D01*
X456Y1468D02*
X462Y1468D01*
X477Y1468D02*
X490Y1468D01*
X683Y1468D02*
X689Y1468D01*
X719Y1468D02*
X725Y1468D01*
X738Y1468D02*
X745Y1468D01*
X747Y1468D02*
X753Y1468D01*
X783Y1468D02*
X789Y1468D01*
X420Y1467D02*
X426Y1467D01*
X456Y1467D02*
X462Y1467D01*
X478Y1467D02*
X490Y1467D01*
X683Y1467D02*
X689Y1467D01*
X719Y1467D02*
X725Y1467D01*
X739Y1467D02*
X745Y1467D01*
X747Y1467D02*
X753Y1467D01*
X783Y1467D02*
X789Y1467D01*
X420Y1466D02*
X426Y1466D01*
X456Y1466D02*
X462Y1466D01*
X478Y1466D02*
X490Y1466D01*
X683Y1466D02*
X689Y1466D01*
X719Y1466D02*
X725Y1466D01*
X739Y1466D02*
X753Y1466D01*
X783Y1466D02*
X789Y1466D01*
X409Y1465D02*
X437Y1465D01*
X456Y1465D02*
X462Y1465D01*
X479Y1465D02*
X490Y1465D01*
X683Y1465D02*
X689Y1465D01*
X719Y1465D02*
X725Y1465D01*
X739Y1465D02*
X753Y1465D01*
X783Y1465D02*
X789Y1465D01*
X407Y1464D02*
X439Y1464D01*
X456Y1464D02*
X462Y1464D01*
X479Y1464D02*
X490Y1464D01*
X683Y1464D02*
X689Y1464D01*
X719Y1464D02*
X725Y1464D01*
X740Y1464D02*
X753Y1464D01*
X784Y1464D02*
X788Y1464D01*
X407Y1463D02*
X440Y1463D01*
X456Y1463D02*
X462Y1463D01*
X479Y1463D02*
X490Y1463D01*
X683Y1463D02*
X689Y1463D01*
X719Y1463D02*
X725Y1463D01*
X740Y1463D02*
X753Y1463D01*
X785Y1463D02*
X787Y1463D01*
X406Y1462D02*
X440Y1462D01*
X456Y1462D02*
X462Y1462D01*
X480Y1462D02*
X490Y1462D01*
X683Y1462D02*
X689Y1462D01*
X719Y1462D02*
X725Y1462D01*
X741Y1462D02*
X753Y1462D01*
X406Y1461D02*
X440Y1461D01*
X456Y1461D02*
X462Y1461D01*
X480Y1461D02*
X490Y1461D01*
X683Y1461D02*
X689Y1461D01*
X719Y1461D02*
X725Y1461D01*
X741Y1461D02*
X753Y1461D01*
X407Y1460D02*
X439Y1460D01*
X457Y1460D02*
X462Y1460D01*
X481Y1460D02*
X490Y1460D01*
X683Y1460D02*
X689Y1460D01*
X719Y1460D02*
X725Y1460D01*
X742Y1460D02*
X753Y1460D01*
X408Y1459D02*
X438Y1459D01*
X458Y1459D02*
X461Y1459D01*
X481Y1459D02*
X490Y1459D01*
X671Y1459D02*
X702Y1459D01*
X719Y1459D02*
X725Y1459D01*
X742Y1459D02*
X753Y1459D01*
X670Y1458D02*
X703Y1458D01*
X719Y1458D02*
X725Y1458D01*
X742Y1458D02*
X753Y1458D01*
X670Y1457D02*
X703Y1457D01*
X719Y1457D02*
X725Y1457D01*
X743Y1457D02*
X753Y1457D01*
X670Y1456D02*
X703Y1456D01*
X720Y1456D02*
X725Y1456D01*
X743Y1456D02*
X753Y1456D01*
X670Y1455D02*
X703Y1455D01*
X720Y1455D02*
X725Y1455D01*
X744Y1455D02*
X753Y1455D01*
X670Y1454D02*
X702Y1454D01*
X720Y1454D02*
X724Y1454D01*
X744Y1454D02*
X753Y1454D01*
X672Y1453D02*
X701Y1453D01*
X722Y1453D02*
X723Y1453D01*
X745Y1453D02*
X753Y1453D01*
X1090Y1379D02*
X1092Y1379D01*
X1117Y1379D02*
X1119Y1379D01*
X1153Y1379D02*
X1157Y1379D01*
X1089Y1378D02*
X1093Y1378D01*
X1116Y1378D02*
X1121Y1378D01*
X1150Y1378D02*
X1159Y1378D01*
X1088Y1377D02*
X1094Y1377D01*
X1116Y1377D02*
X1121Y1377D01*
X1149Y1377D02*
X1160Y1377D01*
X1088Y1376D02*
X1094Y1376D01*
X1116Y1376D02*
X1121Y1376D01*
X1148Y1376D02*
X1161Y1376D01*
X1247Y1376D02*
X1249Y1376D01*
X1088Y1375D02*
X1094Y1375D01*
X1115Y1375D02*
X1122Y1375D01*
X1147Y1375D02*
X1162Y1375D01*
X1245Y1375D02*
X1250Y1375D01*
X1088Y1374D02*
X1094Y1374D01*
X1115Y1374D02*
X1122Y1374D01*
X1147Y1374D02*
X1163Y1374D01*
X1245Y1374D02*
X1251Y1374D01*
X1372Y1374D02*
X1374Y1374D01*
X1399Y1374D02*
X1401Y1374D01*
X1434Y1374D02*
X1438Y1374D01*
X1088Y1373D02*
X1094Y1373D01*
X1115Y1373D02*
X1122Y1373D01*
X1146Y1373D02*
X1163Y1373D01*
X1245Y1373D02*
X1251Y1373D01*
X1370Y1373D02*
X1375Y1373D01*
X1398Y1373D02*
X1402Y1373D01*
X1432Y1373D02*
X1441Y1373D01*
X1088Y1372D02*
X1094Y1372D01*
X1115Y1372D02*
X1122Y1372D01*
X1146Y1372D02*
X1153Y1372D01*
X1156Y1372D02*
X1164Y1372D01*
X1245Y1372D02*
X1251Y1372D01*
X1370Y1372D02*
X1375Y1372D01*
X1397Y1372D02*
X1403Y1372D01*
X1431Y1372D02*
X1442Y1372D01*
X1088Y1371D02*
X1094Y1371D01*
X1115Y1371D02*
X1122Y1371D01*
X1145Y1371D02*
X1152Y1371D01*
X1157Y1371D02*
X1164Y1371D01*
X1245Y1371D02*
X1251Y1371D01*
X1370Y1371D02*
X1376Y1371D01*
X1397Y1371D02*
X1403Y1371D01*
X1430Y1371D02*
X1443Y1371D01*
X1528Y1371D02*
X1531Y1371D01*
X1088Y1370D02*
X1094Y1370D01*
X1115Y1370D02*
X1122Y1370D01*
X1145Y1370D02*
X1152Y1370D01*
X1158Y1370D02*
X1165Y1370D01*
X1245Y1370D02*
X1251Y1370D01*
X1370Y1370D02*
X1376Y1370D01*
X1397Y1370D02*
X1403Y1370D01*
X1429Y1370D02*
X1444Y1370D01*
X1527Y1370D02*
X1532Y1370D01*
X1088Y1369D02*
X1094Y1369D01*
X1115Y1369D02*
X1122Y1369D01*
X1144Y1369D02*
X1151Y1369D01*
X1158Y1369D02*
X1165Y1369D01*
X1245Y1369D02*
X1251Y1369D01*
X1370Y1369D02*
X1376Y1369D01*
X1397Y1369D02*
X1403Y1369D01*
X1429Y1369D02*
X1444Y1369D01*
X1527Y1369D02*
X1532Y1369D01*
X1088Y1368D02*
X1094Y1368D01*
X1115Y1368D02*
X1122Y1368D01*
X1144Y1368D02*
X1151Y1368D01*
X1159Y1368D02*
X1166Y1368D01*
X1245Y1368D02*
X1251Y1368D01*
X1370Y1368D02*
X1376Y1368D01*
X1397Y1368D02*
X1403Y1368D01*
X1428Y1368D02*
X1445Y1368D01*
X1526Y1368D02*
X1532Y1368D01*
X1088Y1367D02*
X1094Y1367D01*
X1115Y1367D02*
X1122Y1367D01*
X1143Y1367D02*
X1150Y1367D01*
X1159Y1367D02*
X1166Y1367D01*
X1245Y1367D02*
X1251Y1367D01*
X1370Y1367D02*
X1376Y1367D01*
X1397Y1367D02*
X1403Y1367D01*
X1428Y1367D02*
X1435Y1367D01*
X1438Y1367D02*
X1445Y1367D01*
X1526Y1367D02*
X1532Y1367D01*
X1088Y1366D02*
X1094Y1366D01*
X1115Y1366D02*
X1122Y1366D01*
X1143Y1366D02*
X1150Y1366D01*
X1160Y1366D02*
X1167Y1366D01*
X1245Y1366D02*
X1251Y1366D01*
X1370Y1366D02*
X1376Y1366D01*
X1397Y1366D02*
X1403Y1366D01*
X1427Y1366D02*
X1434Y1366D01*
X1439Y1366D02*
X1446Y1366D01*
X1526Y1366D02*
X1532Y1366D01*
X1088Y1365D02*
X1094Y1365D01*
X1115Y1365D02*
X1122Y1365D01*
X1142Y1365D02*
X1149Y1365D01*
X1160Y1365D02*
X1167Y1365D01*
X1245Y1365D02*
X1251Y1365D01*
X1370Y1365D02*
X1376Y1365D01*
X1397Y1365D02*
X1403Y1365D01*
X1427Y1365D02*
X1433Y1365D01*
X1439Y1365D02*
X1446Y1365D01*
X1526Y1365D02*
X1532Y1365D01*
X1088Y1364D02*
X1094Y1364D01*
X1115Y1364D02*
X1122Y1364D01*
X1142Y1364D02*
X1149Y1364D01*
X1161Y1364D02*
X1168Y1364D01*
X1189Y1364D02*
X1192Y1364D01*
X1217Y1364D02*
X1220Y1364D01*
X1239Y1364D02*
X1266Y1364D01*
X1370Y1364D02*
X1376Y1364D01*
X1397Y1364D02*
X1403Y1364D01*
X1426Y1364D02*
X1433Y1364D01*
X1440Y1364D02*
X1447Y1364D01*
X1526Y1364D02*
X1532Y1364D01*
X1585Y1364D02*
X1588Y1364D01*
X1088Y1363D02*
X1095Y1363D01*
X1115Y1363D02*
X1121Y1363D01*
X1141Y1363D02*
X1148Y1363D01*
X1161Y1363D02*
X1168Y1363D01*
X1188Y1363D02*
X1193Y1363D01*
X1216Y1363D02*
X1221Y1363D01*
X1238Y1363D02*
X1267Y1363D01*
X1370Y1363D02*
X1376Y1363D01*
X1397Y1363D02*
X1403Y1363D01*
X1426Y1363D02*
X1432Y1363D01*
X1440Y1363D02*
X1447Y1363D01*
X1526Y1363D02*
X1532Y1363D01*
X1584Y1363D02*
X1589Y1363D01*
X1088Y1362D02*
X1095Y1362D01*
X1114Y1362D02*
X1121Y1362D01*
X1141Y1362D02*
X1148Y1362D01*
X1162Y1362D02*
X1169Y1362D01*
X1188Y1362D02*
X1194Y1362D01*
X1216Y1362D02*
X1221Y1362D01*
X1238Y1362D02*
X1268Y1362D01*
X1370Y1362D02*
X1376Y1362D01*
X1397Y1362D02*
X1403Y1362D01*
X1425Y1362D02*
X1432Y1362D01*
X1441Y1362D02*
X1448Y1362D01*
X1526Y1362D02*
X1532Y1362D01*
X1583Y1362D02*
X1589Y1362D01*
X1089Y1361D02*
X1095Y1361D01*
X1114Y1361D02*
X1121Y1361D01*
X1140Y1361D02*
X1147Y1361D01*
X1162Y1361D02*
X1169Y1361D01*
X1188Y1361D02*
X1194Y1361D01*
X1215Y1361D02*
X1221Y1361D01*
X1238Y1361D02*
X1268Y1361D01*
X1370Y1361D02*
X1376Y1361D01*
X1397Y1361D02*
X1403Y1361D01*
X1425Y1361D02*
X1431Y1361D01*
X1441Y1361D02*
X1448Y1361D01*
X1526Y1361D02*
X1532Y1361D01*
X1583Y1361D02*
X1589Y1361D01*
X1089Y1360D02*
X1096Y1360D01*
X1114Y1360D02*
X1120Y1360D01*
X1140Y1360D02*
X1147Y1360D01*
X1163Y1360D02*
X1169Y1360D01*
X1188Y1360D02*
X1194Y1360D01*
X1215Y1360D02*
X1221Y1360D01*
X1238Y1360D02*
X1268Y1360D01*
X1370Y1360D02*
X1376Y1360D01*
X1397Y1360D02*
X1403Y1360D01*
X1424Y1360D02*
X1431Y1360D01*
X1442Y1360D02*
X1449Y1360D01*
X1526Y1360D02*
X1533Y1360D01*
X1583Y1360D02*
X1589Y1360D01*
X1090Y1359D02*
X1096Y1359D01*
X1113Y1359D02*
X1120Y1359D01*
X1139Y1359D02*
X1146Y1359D01*
X1163Y1359D02*
X1170Y1359D01*
X1188Y1359D02*
X1194Y1359D01*
X1215Y1359D02*
X1221Y1359D01*
X1239Y1359D02*
X1267Y1359D01*
X1370Y1359D02*
X1376Y1359D01*
X1397Y1359D02*
X1403Y1359D01*
X1424Y1359D02*
X1430Y1359D01*
X1442Y1359D02*
X1449Y1359D01*
X1471Y1359D02*
X1474Y1359D01*
X1499Y1359D02*
X1502Y1359D01*
X1521Y1359D02*
X1548Y1359D01*
X1583Y1359D02*
X1589Y1359D01*
X1090Y1358D02*
X1097Y1358D01*
X1113Y1358D02*
X1119Y1358D01*
X1139Y1358D02*
X1146Y1358D01*
X1164Y1358D02*
X1170Y1358D01*
X1188Y1358D02*
X1194Y1358D01*
X1215Y1358D02*
X1221Y1358D01*
X1240Y1358D02*
X1266Y1358D01*
X1370Y1358D02*
X1376Y1358D01*
X1397Y1358D02*
X1403Y1358D01*
X1423Y1358D02*
X1430Y1358D01*
X1443Y1358D02*
X1450Y1358D01*
X1470Y1358D02*
X1475Y1358D01*
X1498Y1358D02*
X1503Y1358D01*
X1520Y1358D02*
X1549Y1358D01*
X1583Y1358D02*
X1589Y1358D01*
X1090Y1357D02*
X1097Y1357D01*
X1112Y1357D02*
X1119Y1357D01*
X1139Y1357D02*
X1145Y1357D01*
X1164Y1357D02*
X1171Y1357D01*
X1188Y1357D02*
X1194Y1357D01*
X1215Y1357D02*
X1221Y1357D01*
X1245Y1357D02*
X1251Y1357D01*
X1370Y1357D02*
X1377Y1357D01*
X1396Y1357D02*
X1403Y1357D01*
X1423Y1357D02*
X1429Y1357D01*
X1443Y1357D02*
X1450Y1357D01*
X1470Y1357D02*
X1475Y1357D01*
X1497Y1357D02*
X1503Y1357D01*
X1520Y1357D02*
X1549Y1357D01*
X1583Y1357D02*
X1589Y1357D01*
X1091Y1356D02*
X1097Y1356D01*
X1112Y1356D02*
X1119Y1356D01*
X1138Y1356D02*
X1145Y1356D01*
X1165Y1356D02*
X1171Y1356D01*
X1188Y1356D02*
X1194Y1356D01*
X1215Y1356D02*
X1221Y1356D01*
X1245Y1356D02*
X1251Y1356D01*
X1371Y1356D02*
X1377Y1356D01*
X1396Y1356D02*
X1402Y1356D01*
X1422Y1356D02*
X1429Y1356D01*
X1444Y1356D02*
X1451Y1356D01*
X1470Y1356D02*
X1476Y1356D01*
X1497Y1356D02*
X1503Y1356D01*
X1520Y1356D02*
X1550Y1356D01*
X1583Y1356D02*
X1589Y1356D01*
X1091Y1355D02*
X1098Y1355D01*
X1112Y1355D02*
X1118Y1355D01*
X1138Y1355D02*
X1144Y1355D01*
X1165Y1355D02*
X1171Y1355D01*
X1188Y1355D02*
X1194Y1355D01*
X1215Y1355D02*
X1221Y1355D01*
X1245Y1355D02*
X1251Y1355D01*
X1289Y1355D02*
X1320Y1355D01*
X1371Y1355D02*
X1377Y1355D01*
X1395Y1355D02*
X1402Y1355D01*
X1422Y1355D02*
X1428Y1355D01*
X1444Y1355D02*
X1451Y1355D01*
X1470Y1355D02*
X1476Y1355D01*
X1497Y1355D02*
X1503Y1355D01*
X1520Y1355D02*
X1549Y1355D01*
X1583Y1355D02*
X1589Y1355D01*
X1092Y1354D02*
X1098Y1354D01*
X1111Y1354D02*
X1118Y1354D01*
X1138Y1354D02*
X1144Y1354D01*
X1165Y1354D02*
X1171Y1354D01*
X1188Y1354D02*
X1194Y1354D01*
X1215Y1354D02*
X1221Y1354D01*
X1245Y1354D02*
X1251Y1354D01*
X1288Y1354D02*
X1321Y1354D01*
X1371Y1354D02*
X1378Y1354D01*
X1395Y1354D02*
X1401Y1354D01*
X1421Y1354D02*
X1428Y1354D01*
X1445Y1354D02*
X1452Y1354D01*
X1470Y1354D02*
X1476Y1354D01*
X1497Y1354D02*
X1503Y1354D01*
X1520Y1354D02*
X1549Y1354D01*
X1583Y1354D02*
X1589Y1354D01*
X1092Y1353D02*
X1099Y1353D01*
X1111Y1353D02*
X1117Y1353D01*
X1138Y1353D02*
X1144Y1353D01*
X1165Y1353D02*
X1171Y1353D01*
X1188Y1353D02*
X1194Y1353D01*
X1215Y1353D02*
X1221Y1353D01*
X1245Y1353D02*
X1251Y1353D01*
X1288Y1353D02*
X1321Y1353D01*
X1372Y1353D02*
X1378Y1353D01*
X1395Y1353D02*
X1401Y1353D01*
X1421Y1353D02*
X1427Y1353D01*
X1445Y1353D02*
X1452Y1353D01*
X1470Y1353D02*
X1476Y1353D01*
X1497Y1353D02*
X1503Y1353D01*
X1522Y1353D02*
X1548Y1353D01*
X1583Y1353D02*
X1589Y1353D01*
X1092Y1352D02*
X1099Y1352D01*
X1110Y1352D02*
X1117Y1352D01*
X1138Y1352D02*
X1144Y1352D01*
X1165Y1352D02*
X1171Y1352D01*
X1188Y1352D02*
X1194Y1352D01*
X1215Y1352D02*
X1221Y1352D01*
X1245Y1352D02*
X1251Y1352D01*
X1288Y1352D02*
X1321Y1352D01*
X1372Y1352D02*
X1379Y1352D01*
X1394Y1352D02*
X1401Y1352D01*
X1420Y1352D02*
X1427Y1352D01*
X1446Y1352D02*
X1452Y1352D01*
X1470Y1352D02*
X1476Y1352D01*
X1497Y1352D02*
X1503Y1352D01*
X1526Y1352D02*
X1532Y1352D01*
X1583Y1352D02*
X1589Y1352D01*
X1093Y1351D02*
X1099Y1351D01*
X1110Y1351D02*
X1117Y1351D01*
X1138Y1351D02*
X1144Y1351D01*
X1165Y1351D02*
X1171Y1351D01*
X1188Y1351D02*
X1194Y1351D01*
X1215Y1351D02*
X1221Y1351D01*
X1245Y1351D02*
X1251Y1351D01*
X1288Y1351D02*
X1321Y1351D01*
X1372Y1351D02*
X1379Y1351D01*
X1394Y1351D02*
X1400Y1351D01*
X1420Y1351D02*
X1426Y1351D01*
X1446Y1351D02*
X1453Y1351D01*
X1470Y1351D02*
X1476Y1351D01*
X1497Y1351D02*
X1503Y1351D01*
X1526Y1351D02*
X1532Y1351D01*
X1583Y1351D02*
X1590Y1351D01*
X1093Y1350D02*
X1100Y1350D01*
X1110Y1350D02*
X1116Y1350D01*
X1138Y1350D02*
X1144Y1350D01*
X1165Y1350D02*
X1171Y1350D01*
X1188Y1350D02*
X1194Y1350D01*
X1215Y1350D02*
X1221Y1350D01*
X1245Y1350D02*
X1251Y1350D01*
X1288Y1350D02*
X1321Y1350D01*
X1373Y1350D02*
X1379Y1350D01*
X1393Y1350D02*
X1400Y1350D01*
X1420Y1350D02*
X1426Y1350D01*
X1447Y1350D02*
X1453Y1350D01*
X1470Y1350D02*
X1476Y1350D01*
X1497Y1350D02*
X1503Y1350D01*
X1526Y1350D02*
X1532Y1350D01*
X1571Y1350D02*
X1602Y1350D01*
X1094Y1349D02*
X1100Y1349D01*
X1109Y1349D02*
X1116Y1349D01*
X1138Y1349D02*
X1145Y1349D01*
X1165Y1349D02*
X1171Y1349D01*
X1188Y1349D02*
X1194Y1349D01*
X1215Y1349D02*
X1221Y1349D01*
X1245Y1349D02*
X1251Y1349D01*
X1288Y1349D02*
X1321Y1349D01*
X1373Y1349D02*
X1380Y1349D01*
X1393Y1349D02*
X1400Y1349D01*
X1420Y1349D02*
X1426Y1349D01*
X1447Y1349D02*
X1453Y1349D01*
X1470Y1349D02*
X1476Y1349D01*
X1497Y1349D02*
X1503Y1349D01*
X1526Y1349D02*
X1532Y1349D01*
X1570Y1349D02*
X1603Y1349D01*
X1094Y1348D02*
X1101Y1348D01*
X1109Y1348D02*
X1115Y1348D01*
X1139Y1348D02*
X1145Y1348D01*
X1164Y1348D02*
X1171Y1348D01*
X1188Y1348D02*
X1194Y1348D01*
X1215Y1348D02*
X1221Y1348D01*
X1245Y1348D02*
X1251Y1348D01*
X1288Y1348D02*
X1321Y1348D01*
X1374Y1348D02*
X1380Y1348D01*
X1393Y1348D02*
X1399Y1348D01*
X1420Y1348D02*
X1426Y1348D01*
X1447Y1348D02*
X1453Y1348D01*
X1470Y1348D02*
X1476Y1348D01*
X1497Y1348D02*
X1503Y1348D01*
X1526Y1348D02*
X1532Y1348D01*
X1570Y1348D02*
X1603Y1348D01*
X1094Y1347D02*
X1101Y1347D01*
X1109Y1347D02*
X1115Y1347D01*
X1139Y1347D02*
X1145Y1347D01*
X1164Y1347D02*
X1170Y1347D01*
X1188Y1347D02*
X1194Y1347D01*
X1215Y1347D02*
X1221Y1347D01*
X1245Y1347D02*
X1251Y1347D01*
X1289Y1347D02*
X1320Y1347D01*
X1374Y1347D02*
X1381Y1347D01*
X1392Y1347D02*
X1399Y1347D01*
X1420Y1347D02*
X1426Y1347D01*
X1447Y1347D02*
X1453Y1347D01*
X1470Y1347D02*
X1476Y1347D01*
X1497Y1347D02*
X1503Y1347D01*
X1526Y1347D02*
X1532Y1347D01*
X1570Y1347D02*
X1603Y1347D01*
X1095Y1346D02*
X1101Y1346D01*
X1108Y1346D02*
X1115Y1346D01*
X1139Y1346D02*
X1146Y1346D01*
X1163Y1346D02*
X1170Y1346D01*
X1188Y1346D02*
X1194Y1346D01*
X1215Y1346D02*
X1221Y1346D01*
X1245Y1346D02*
X1251Y1346D01*
X1291Y1346D02*
X1319Y1346D01*
X1374Y1346D02*
X1381Y1346D01*
X1392Y1346D02*
X1398Y1346D01*
X1420Y1346D02*
X1426Y1346D01*
X1447Y1346D02*
X1453Y1346D01*
X1470Y1346D02*
X1476Y1346D01*
X1497Y1346D02*
X1503Y1346D01*
X1526Y1346D02*
X1532Y1346D01*
X1570Y1346D02*
X1603Y1346D01*
X1095Y1345D02*
X1102Y1345D01*
X1108Y1345D02*
X1114Y1345D01*
X1140Y1345D02*
X1146Y1345D01*
X1163Y1345D02*
X1170Y1345D01*
X1188Y1345D02*
X1194Y1345D01*
X1215Y1345D02*
X1221Y1345D01*
X1245Y1345D02*
X1251Y1345D01*
X1375Y1345D02*
X1381Y1345D01*
X1391Y1345D02*
X1398Y1345D01*
X1420Y1345D02*
X1426Y1345D01*
X1447Y1345D02*
X1453Y1345D01*
X1470Y1345D02*
X1476Y1345D01*
X1497Y1345D02*
X1503Y1345D01*
X1526Y1345D02*
X1532Y1345D01*
X1571Y1345D02*
X1602Y1345D01*
X1095Y1344D02*
X1102Y1344D01*
X1107Y1344D02*
X1114Y1344D01*
X1140Y1344D02*
X1147Y1344D01*
X1162Y1344D02*
X1169Y1344D01*
X1188Y1344D02*
X1194Y1344D01*
X1215Y1344D02*
X1221Y1344D01*
X1245Y1344D02*
X1251Y1344D01*
X1375Y1344D02*
X1382Y1344D01*
X1391Y1344D02*
X1398Y1344D01*
X1420Y1344D02*
X1426Y1344D01*
X1446Y1344D02*
X1453Y1344D01*
X1470Y1344D02*
X1476Y1344D01*
X1497Y1344D02*
X1503Y1344D01*
X1526Y1344D02*
X1532Y1344D01*
X1572Y1344D02*
X1600Y1344D01*
X1096Y1343D02*
X1102Y1343D01*
X1107Y1343D02*
X1114Y1343D01*
X1141Y1343D02*
X1148Y1343D01*
X1162Y1343D02*
X1169Y1343D01*
X1188Y1343D02*
X1194Y1343D01*
X1215Y1343D02*
X1221Y1343D01*
X1245Y1343D02*
X1251Y1343D01*
X1376Y1343D02*
X1382Y1343D01*
X1391Y1343D02*
X1397Y1343D01*
X1420Y1343D02*
X1427Y1343D01*
X1446Y1343D02*
X1452Y1343D01*
X1470Y1343D02*
X1476Y1343D01*
X1497Y1343D02*
X1503Y1343D01*
X1526Y1343D02*
X1532Y1343D01*
X1583Y1343D02*
X1589Y1343D01*
X1096Y1342D02*
X1103Y1342D01*
X1107Y1342D02*
X1113Y1342D01*
X1141Y1342D02*
X1148Y1342D01*
X1161Y1342D02*
X1168Y1342D01*
X1189Y1342D02*
X1195Y1342D01*
X1215Y1342D02*
X1221Y1342D01*
X1245Y1342D02*
X1251Y1342D01*
X1376Y1342D02*
X1383Y1342D01*
X1390Y1342D02*
X1397Y1342D01*
X1421Y1342D02*
X1427Y1342D01*
X1446Y1342D02*
X1452Y1342D01*
X1470Y1342D02*
X1476Y1342D01*
X1497Y1342D02*
X1503Y1342D01*
X1526Y1342D02*
X1532Y1342D01*
X1583Y1342D02*
X1589Y1342D01*
X1097Y1341D02*
X1103Y1341D01*
X1106Y1341D02*
X1113Y1341D01*
X1142Y1341D02*
X1149Y1341D01*
X1161Y1341D02*
X1168Y1341D01*
X1189Y1341D02*
X1195Y1341D01*
X1215Y1341D02*
X1221Y1341D01*
X1245Y1341D02*
X1251Y1341D01*
X1376Y1341D02*
X1383Y1341D01*
X1390Y1341D02*
X1396Y1341D01*
X1421Y1341D02*
X1428Y1341D01*
X1445Y1341D02*
X1452Y1341D01*
X1470Y1341D02*
X1476Y1341D01*
X1497Y1341D02*
X1503Y1341D01*
X1526Y1341D02*
X1532Y1341D01*
X1583Y1341D02*
X1589Y1341D01*
X1097Y1340D02*
X1104Y1340D01*
X1106Y1340D02*
X1112Y1340D01*
X1142Y1340D02*
X1149Y1340D01*
X1160Y1340D02*
X1167Y1340D01*
X1189Y1340D02*
X1195Y1340D01*
X1215Y1340D02*
X1221Y1340D01*
X1245Y1340D02*
X1251Y1340D01*
X1377Y1340D02*
X1383Y1340D01*
X1389Y1340D02*
X1396Y1340D01*
X1421Y1340D02*
X1428Y1340D01*
X1445Y1340D02*
X1451Y1340D01*
X1470Y1340D02*
X1476Y1340D01*
X1497Y1340D02*
X1503Y1340D01*
X1526Y1340D02*
X1532Y1340D01*
X1583Y1340D02*
X1589Y1340D01*
X1097Y1339D02*
X1112Y1339D01*
X1143Y1339D02*
X1150Y1339D01*
X1160Y1339D02*
X1167Y1339D01*
X1189Y1339D02*
X1195Y1339D01*
X1215Y1339D02*
X1221Y1339D01*
X1245Y1339D02*
X1251Y1339D01*
X1377Y1339D02*
X1384Y1339D01*
X1389Y1339D02*
X1396Y1339D01*
X1422Y1339D02*
X1429Y1339D01*
X1444Y1339D02*
X1451Y1339D01*
X1470Y1339D02*
X1476Y1339D01*
X1497Y1339D02*
X1503Y1339D01*
X1526Y1339D02*
X1532Y1339D01*
X1583Y1339D02*
X1589Y1339D01*
X1098Y1338D02*
X1112Y1338D01*
X1143Y1338D02*
X1150Y1338D01*
X1159Y1338D02*
X1166Y1338D01*
X1189Y1338D02*
X1195Y1338D01*
X1213Y1338D02*
X1221Y1338D01*
X1245Y1338D02*
X1251Y1338D01*
X1268Y1338D02*
X1269Y1338D01*
X1378Y1338D02*
X1384Y1338D01*
X1389Y1338D02*
X1395Y1338D01*
X1422Y1338D02*
X1429Y1338D01*
X1444Y1338D02*
X1450Y1338D01*
X1470Y1338D02*
X1476Y1338D01*
X1497Y1338D02*
X1503Y1338D01*
X1526Y1338D02*
X1532Y1338D01*
X1583Y1338D02*
X1589Y1338D01*
X1098Y1337D02*
X1111Y1337D01*
X1144Y1337D02*
X1151Y1337D01*
X1159Y1337D02*
X1166Y1337D01*
X1189Y1337D02*
X1195Y1337D01*
X1212Y1337D02*
X1221Y1337D01*
X1245Y1337D02*
X1251Y1337D01*
X1266Y1337D02*
X1270Y1337D01*
X1378Y1337D02*
X1385Y1337D01*
X1388Y1337D02*
X1395Y1337D01*
X1423Y1337D02*
X1430Y1337D01*
X1443Y1337D02*
X1450Y1337D01*
X1470Y1337D02*
X1476Y1337D01*
X1497Y1337D02*
X1503Y1337D01*
X1526Y1337D02*
X1532Y1337D01*
X1583Y1337D02*
X1589Y1337D01*
X1099Y1336D02*
X1111Y1336D01*
X1144Y1336D02*
X1151Y1336D01*
X1158Y1336D02*
X1165Y1336D01*
X1189Y1336D02*
X1195Y1336D01*
X1210Y1336D02*
X1221Y1336D01*
X1245Y1336D02*
X1251Y1336D01*
X1266Y1336D02*
X1271Y1336D01*
X1378Y1336D02*
X1385Y1336D01*
X1388Y1336D02*
X1394Y1336D01*
X1423Y1336D02*
X1430Y1336D01*
X1443Y1336D02*
X1449Y1336D01*
X1470Y1336D02*
X1476Y1336D01*
X1497Y1336D02*
X1503Y1336D01*
X1526Y1336D02*
X1532Y1336D01*
X1583Y1336D02*
X1589Y1336D01*
X1099Y1335D02*
X1110Y1335D01*
X1145Y1335D02*
X1152Y1335D01*
X1158Y1335D02*
X1165Y1335D01*
X1189Y1335D02*
X1195Y1335D01*
X1208Y1335D02*
X1221Y1335D01*
X1245Y1335D02*
X1251Y1335D01*
X1265Y1335D02*
X1271Y1335D01*
X1379Y1335D02*
X1385Y1335D01*
X1388Y1335D02*
X1394Y1335D01*
X1424Y1335D02*
X1431Y1335D01*
X1442Y1335D02*
X1449Y1335D01*
X1470Y1335D02*
X1476Y1335D01*
X1497Y1335D02*
X1503Y1335D01*
X1526Y1335D02*
X1532Y1335D01*
X1583Y1335D02*
X1589Y1335D01*
X1099Y1334D02*
X1110Y1334D01*
X1145Y1334D02*
X1152Y1334D01*
X1157Y1334D02*
X1164Y1334D01*
X1189Y1334D02*
X1195Y1334D01*
X1207Y1334D02*
X1221Y1334D01*
X1245Y1334D02*
X1251Y1334D01*
X1265Y1334D02*
X1271Y1334D01*
X1379Y1334D02*
X1394Y1334D01*
X1424Y1334D02*
X1431Y1334D01*
X1442Y1334D02*
X1448Y1334D01*
X1470Y1334D02*
X1476Y1334D01*
X1496Y1334D02*
X1503Y1334D01*
X1526Y1334D02*
X1532Y1334D01*
X1583Y1334D02*
X1589Y1334D01*
X1100Y1333D02*
X1110Y1333D01*
X1146Y1333D02*
X1153Y1333D01*
X1157Y1333D02*
X1164Y1333D01*
X1189Y1333D02*
X1196Y1333D01*
X1205Y1333D02*
X1221Y1333D01*
X1245Y1333D02*
X1252Y1333D01*
X1264Y1333D02*
X1271Y1333D01*
X1379Y1333D02*
X1393Y1333D01*
X1425Y1333D02*
X1432Y1333D01*
X1441Y1333D02*
X1448Y1333D01*
X1470Y1333D02*
X1476Y1333D01*
X1495Y1333D02*
X1503Y1333D01*
X1526Y1333D02*
X1532Y1333D01*
X1550Y1333D02*
X1550Y1333D01*
X1583Y1333D02*
X1589Y1333D01*
X1100Y1332D02*
X1109Y1332D01*
X1146Y1332D02*
X1163Y1332D01*
X1189Y1332D02*
X1221Y1332D01*
X1245Y1332D02*
X1271Y1332D01*
X1380Y1332D02*
X1393Y1332D01*
X1425Y1332D02*
X1432Y1332D01*
X1441Y1332D02*
X1447Y1332D01*
X1470Y1332D02*
X1476Y1332D01*
X1493Y1332D02*
X1503Y1332D01*
X1526Y1332D02*
X1532Y1332D01*
X1548Y1332D02*
X1552Y1332D01*
X1584Y1332D02*
X1589Y1332D01*
X1101Y1331D02*
X1109Y1331D01*
X1147Y1331D02*
X1163Y1331D01*
X1190Y1331D02*
X1221Y1331D01*
X1246Y1331D02*
X1270Y1331D01*
X1380Y1331D02*
X1393Y1331D01*
X1426Y1331D02*
X1433Y1331D01*
X1440Y1331D02*
X1447Y1331D01*
X1470Y1331D02*
X1476Y1331D01*
X1492Y1331D02*
X1503Y1331D01*
X1526Y1331D02*
X1532Y1331D01*
X1548Y1331D02*
X1553Y1331D01*
X1584Y1331D02*
X1588Y1331D01*
X1101Y1330D02*
X1108Y1330D01*
X1147Y1330D02*
X1162Y1330D01*
X1190Y1330D02*
X1213Y1330D01*
X1215Y1330D02*
X1221Y1330D01*
X1246Y1330D02*
X1270Y1330D01*
X1381Y1330D02*
X1392Y1330D01*
X1426Y1330D02*
X1433Y1330D01*
X1440Y1330D02*
X1446Y1330D01*
X1470Y1330D02*
X1477Y1330D01*
X1490Y1330D02*
X1503Y1330D01*
X1527Y1330D02*
X1533Y1330D01*
X1547Y1330D02*
X1553Y1330D01*
X1101Y1329D02*
X1108Y1329D01*
X1148Y1329D02*
X1161Y1329D01*
X1191Y1329D02*
X1211Y1329D01*
X1215Y1329D02*
X1221Y1329D01*
X1247Y1329D02*
X1269Y1329D01*
X1381Y1329D02*
X1392Y1329D01*
X1427Y1329D02*
X1434Y1329D01*
X1439Y1329D02*
X1446Y1329D01*
X1471Y1329D02*
X1477Y1329D01*
X1489Y1329D02*
X1503Y1329D01*
X1527Y1329D02*
X1533Y1329D01*
X1547Y1329D02*
X1553Y1329D01*
X1102Y1328D02*
X1108Y1328D01*
X1149Y1328D02*
X1161Y1328D01*
X1192Y1328D02*
X1209Y1328D01*
X1216Y1328D02*
X1221Y1328D01*
X1248Y1328D02*
X1268Y1328D01*
X1381Y1328D02*
X1391Y1328D01*
X1427Y1328D02*
X1434Y1328D01*
X1438Y1328D02*
X1445Y1328D01*
X1471Y1328D02*
X1478Y1328D01*
X1487Y1328D02*
X1503Y1328D01*
X1527Y1328D02*
X1534Y1328D01*
X1546Y1328D02*
X1553Y1328D01*
X1102Y1327D02*
X1107Y1327D01*
X1150Y1327D02*
X1159Y1327D01*
X1193Y1327D02*
X1208Y1327D01*
X1216Y1327D02*
X1221Y1327D01*
X1249Y1327D02*
X1267Y1327D01*
X1382Y1327D02*
X1391Y1327D01*
X1428Y1327D02*
X1445Y1327D01*
X1471Y1327D02*
X1503Y1327D01*
X1527Y1327D02*
X1553Y1327D01*
X1103Y1326D02*
X1106Y1326D01*
X1152Y1326D02*
X1158Y1326D01*
X1195Y1326D02*
X1206Y1326D01*
X1217Y1326D02*
X1220Y1326D01*
X1251Y1326D02*
X1265Y1326D01*
X1382Y1326D02*
X1391Y1326D01*
X1428Y1326D02*
X1444Y1326D01*
X1472Y1326D02*
X1503Y1326D01*
X1528Y1326D02*
X1552Y1326D01*
X1383Y1325D02*
X1390Y1325D01*
X1429Y1325D02*
X1444Y1325D01*
X1472Y1325D02*
X1494Y1325D01*
X1497Y1325D02*
X1503Y1325D01*
X1528Y1325D02*
X1551Y1325D01*
X1383Y1324D02*
X1390Y1324D01*
X1430Y1324D02*
X1443Y1324D01*
X1473Y1324D02*
X1493Y1324D01*
X1497Y1324D02*
X1503Y1324D01*
X1529Y1324D02*
X1551Y1324D01*
X1383Y1323D02*
X1389Y1323D01*
X1430Y1323D02*
X1442Y1323D01*
X1474Y1323D02*
X1491Y1323D01*
X1497Y1323D02*
X1503Y1323D01*
X1530Y1323D02*
X1550Y1323D01*
X1384Y1322D02*
X1389Y1322D01*
X1432Y1322D02*
X1441Y1322D01*
X1475Y1322D02*
X1490Y1322D01*
X1498Y1322D02*
X1503Y1322D01*
X1531Y1322D02*
X1548Y1322D01*
X1385Y1321D02*
X1388Y1321D01*
X1433Y1321D02*
X1439Y1321D01*
X1477Y1321D02*
X1487Y1321D01*
X1499Y1321D02*
X1502Y1321D01*
X1533Y1321D02*
X1547Y1321D01*
X716Y768D02*
X739Y768D01*
X781Y768D02*
X784Y768D01*
X816Y768D02*
X849Y768D01*
X352Y767D02*
X377Y767D01*
X417Y767D02*
X421Y767D01*
X452Y767D02*
X486Y767D01*
X716Y767D02*
X741Y767D01*
X780Y767D02*
X785Y767D01*
X816Y767D02*
X849Y767D01*
X352Y766D02*
X379Y766D01*
X417Y766D02*
X422Y766D01*
X452Y766D02*
X486Y766D01*
X716Y766D02*
X743Y766D01*
X780Y766D02*
X785Y766D01*
X816Y766D02*
X849Y766D01*
X352Y765D02*
X380Y765D01*
X416Y765D02*
X422Y765D01*
X452Y765D02*
X486Y765D01*
X716Y765D02*
X744Y765D01*
X779Y765D02*
X786Y765D01*
X816Y765D02*
X849Y765D01*
X352Y764D02*
X381Y764D01*
X416Y764D02*
X422Y764D01*
X452Y764D02*
X486Y764D01*
X716Y764D02*
X745Y764D01*
X779Y764D02*
X786Y764D01*
X816Y764D02*
X849Y764D01*
X352Y763D02*
X382Y763D01*
X416Y763D02*
X423Y763D01*
X452Y763D02*
X486Y763D01*
X716Y763D02*
X746Y763D01*
X779Y763D02*
X786Y763D01*
X816Y763D02*
X849Y763D01*
X352Y762D02*
X383Y762D01*
X415Y762D02*
X423Y762D01*
X452Y762D02*
X486Y762D01*
X716Y762D02*
X747Y762D01*
X778Y762D02*
X786Y762D01*
X816Y762D02*
X849Y762D01*
X352Y761D02*
X384Y761D01*
X415Y761D02*
X423Y761D01*
X452Y761D02*
X486Y761D01*
X716Y761D02*
X722Y761D01*
X739Y761D02*
X748Y761D01*
X778Y761D02*
X787Y761D01*
X816Y761D02*
X822Y761D01*
X829Y761D02*
X835Y761D01*
X843Y761D02*
X849Y761D01*
X352Y760D02*
X358Y760D01*
X376Y760D02*
X384Y760D01*
X415Y760D02*
X424Y760D01*
X452Y760D02*
X458Y760D01*
X466Y760D02*
X472Y760D01*
X480Y760D02*
X486Y760D01*
X716Y760D02*
X722Y760D01*
X740Y760D02*
X748Y760D01*
X778Y760D02*
X787Y760D01*
X816Y760D02*
X822Y760D01*
X829Y760D02*
X835Y760D01*
X843Y760D02*
X849Y760D01*
X352Y759D02*
X358Y759D01*
X378Y759D02*
X385Y759D01*
X414Y759D02*
X424Y759D01*
X452Y759D02*
X458Y759D01*
X466Y759D02*
X472Y759D01*
X480Y759D02*
X486Y759D01*
X716Y759D02*
X722Y759D01*
X741Y759D02*
X748Y759D01*
X778Y759D02*
X787Y759D01*
X816Y759D02*
X822Y759D01*
X829Y759D02*
X835Y759D01*
X843Y759D02*
X849Y759D01*
X352Y758D02*
X358Y758D01*
X378Y758D02*
X385Y758D01*
X414Y758D02*
X424Y758D01*
X452Y758D02*
X458Y758D01*
X466Y758D02*
X472Y758D01*
X480Y758D02*
X486Y758D01*
X716Y758D02*
X722Y758D01*
X742Y758D02*
X749Y758D01*
X777Y758D02*
X788Y758D01*
X816Y758D02*
X821Y758D01*
X829Y758D02*
X835Y758D01*
X843Y758D02*
X849Y758D01*
X881Y758D02*
X884Y758D01*
X352Y757D02*
X358Y757D01*
X379Y757D02*
X386Y757D01*
X414Y757D02*
X424Y757D01*
X453Y757D02*
X458Y757D01*
X466Y757D02*
X472Y757D01*
X480Y757D02*
X486Y757D01*
X716Y757D02*
X722Y757D01*
X743Y757D02*
X749Y757D01*
X777Y757D02*
X788Y757D01*
X816Y757D02*
X821Y757D01*
X829Y757D02*
X835Y757D01*
X844Y757D02*
X848Y757D01*
X880Y757D02*
X885Y757D01*
X352Y756D02*
X358Y756D01*
X380Y756D02*
X386Y756D01*
X413Y756D02*
X425Y756D01*
X453Y756D02*
X457Y756D01*
X466Y756D02*
X472Y756D01*
X481Y756D02*
X485Y756D01*
X716Y756D02*
X722Y756D01*
X743Y756D02*
X749Y756D01*
X777Y756D02*
X788Y756D01*
X818Y756D02*
X820Y756D01*
X829Y756D02*
X835Y756D01*
X845Y756D02*
X847Y756D01*
X880Y756D02*
X885Y756D01*
X352Y755D02*
X358Y755D01*
X380Y755D02*
X386Y755D01*
X413Y755D02*
X425Y755D01*
X466Y755D02*
X472Y755D01*
X716Y755D02*
X722Y755D01*
X743Y755D02*
X749Y755D01*
X776Y755D02*
X789Y755D01*
X829Y755D02*
X835Y755D01*
X879Y755D02*
X885Y755D01*
X352Y754D02*
X358Y754D01*
X380Y754D02*
X386Y754D01*
X413Y754D02*
X425Y754D01*
X466Y754D02*
X472Y754D01*
X716Y754D02*
X722Y754D01*
X743Y754D02*
X749Y754D01*
X776Y754D02*
X789Y754D01*
X829Y754D02*
X835Y754D01*
X879Y754D02*
X885Y754D01*
X352Y753D02*
X358Y753D01*
X380Y753D02*
X386Y753D01*
X413Y753D02*
X426Y753D01*
X466Y753D02*
X472Y753D01*
X716Y753D02*
X722Y753D01*
X743Y753D02*
X749Y753D01*
X776Y753D02*
X789Y753D01*
X829Y753D02*
X835Y753D01*
X879Y753D02*
X885Y753D01*
X352Y752D02*
X358Y752D01*
X380Y752D02*
X386Y752D01*
X412Y752D02*
X426Y752D01*
X466Y752D02*
X472Y752D01*
X716Y752D02*
X722Y752D01*
X743Y752D02*
X749Y752D01*
X775Y752D02*
X789Y752D01*
X829Y752D02*
X835Y752D01*
X879Y752D02*
X885Y752D01*
X352Y751D02*
X358Y751D01*
X380Y751D02*
X386Y751D01*
X412Y751D02*
X418Y751D01*
X420Y751D02*
X426Y751D01*
X466Y751D02*
X472Y751D01*
X716Y751D02*
X722Y751D01*
X743Y751D02*
X749Y751D01*
X775Y751D02*
X790Y751D01*
X829Y751D02*
X835Y751D01*
X879Y751D02*
X885Y751D01*
X352Y750D02*
X358Y750D01*
X380Y750D02*
X386Y750D01*
X412Y750D02*
X418Y750D01*
X420Y750D02*
X426Y750D01*
X466Y750D02*
X472Y750D01*
X716Y750D02*
X722Y750D01*
X743Y750D02*
X749Y750D01*
X775Y750D02*
X781Y750D01*
X784Y750D02*
X790Y750D01*
X829Y750D02*
X835Y750D01*
X879Y750D02*
X885Y750D01*
X352Y749D02*
X358Y749D01*
X380Y749D02*
X386Y749D01*
X411Y749D02*
X418Y749D01*
X420Y749D02*
X427Y749D01*
X466Y749D02*
X472Y749D01*
X716Y749D02*
X722Y749D01*
X743Y749D02*
X749Y749D01*
X775Y749D02*
X781Y749D01*
X784Y749D02*
X790Y749D01*
X829Y749D02*
X835Y749D01*
X879Y749D02*
X885Y749D01*
X352Y748D02*
X358Y748D01*
X379Y748D02*
X386Y748D01*
X411Y748D02*
X417Y748D01*
X421Y748D02*
X427Y748D01*
X466Y748D02*
X472Y748D01*
X716Y748D02*
X722Y748D01*
X742Y748D02*
X749Y748D01*
X774Y748D02*
X781Y748D01*
X784Y748D02*
X791Y748D01*
X829Y748D02*
X835Y748D01*
X879Y748D02*
X885Y748D01*
X352Y747D02*
X358Y747D01*
X378Y747D02*
X385Y747D01*
X411Y747D02*
X417Y747D01*
X421Y747D02*
X427Y747D01*
X466Y747D02*
X472Y747D01*
X716Y747D02*
X722Y747D01*
X741Y747D02*
X748Y747D01*
X774Y747D02*
X780Y747D01*
X785Y747D02*
X791Y747D01*
X829Y747D02*
X835Y747D01*
X879Y747D02*
X885Y747D01*
X352Y746D02*
X358Y746D01*
X377Y746D02*
X385Y746D01*
X411Y746D02*
X417Y746D01*
X421Y746D02*
X428Y746D01*
X466Y746D02*
X472Y746D01*
X716Y746D02*
X722Y746D01*
X740Y746D02*
X748Y746D01*
X774Y746D02*
X780Y746D01*
X785Y746D02*
X791Y746D01*
X829Y746D02*
X835Y746D01*
X879Y746D02*
X885Y746D01*
X352Y745D02*
X358Y745D01*
X376Y745D02*
X384Y745D01*
X410Y745D02*
X417Y745D01*
X422Y745D02*
X428Y745D01*
X466Y745D02*
X472Y745D01*
X716Y745D02*
X722Y745D01*
X737Y745D02*
X747Y745D01*
X773Y745D02*
X780Y745D01*
X785Y745D02*
X791Y745D01*
X829Y745D02*
X835Y745D01*
X879Y745D02*
X886Y745D01*
X352Y744D02*
X384Y744D01*
X410Y744D02*
X416Y744D01*
X422Y744D02*
X428Y744D01*
X466Y744D02*
X472Y744D01*
X504Y744D02*
X534Y744D01*
X716Y744D02*
X747Y744D01*
X773Y744D02*
X779Y744D01*
X785Y744D02*
X792Y744D01*
X829Y744D02*
X835Y744D01*
X867Y744D02*
X898Y744D01*
X352Y743D02*
X383Y743D01*
X410Y743D02*
X416Y743D01*
X422Y743D02*
X429Y743D01*
X466Y743D02*
X472Y743D01*
X503Y743D02*
X535Y743D01*
X716Y743D02*
X746Y743D01*
X773Y743D02*
X779Y743D01*
X786Y743D02*
X792Y743D01*
X829Y743D02*
X835Y743D01*
X866Y743D02*
X899Y743D01*
X352Y742D02*
X382Y742D01*
X409Y742D02*
X416Y742D01*
X422Y742D02*
X429Y742D01*
X466Y742D02*
X472Y742D01*
X503Y742D02*
X536Y742D01*
X716Y742D02*
X745Y742D01*
X773Y742D02*
X779Y742D01*
X786Y742D02*
X792Y742D01*
X829Y742D02*
X835Y742D01*
X866Y742D02*
X899Y742D01*
X352Y741D02*
X381Y741D01*
X409Y741D02*
X415Y741D01*
X423Y741D02*
X429Y741D01*
X466Y741D02*
X472Y741D01*
X502Y741D02*
X536Y741D01*
X716Y741D02*
X745Y741D01*
X772Y741D02*
X779Y741D01*
X786Y741D02*
X793Y741D01*
X829Y741D02*
X835Y741D01*
X866Y741D02*
X899Y741D01*
X352Y740D02*
X382Y740D01*
X409Y740D02*
X415Y740D01*
X423Y740D02*
X429Y740D01*
X466Y740D02*
X472Y740D01*
X502Y740D02*
X536Y740D01*
X716Y740D02*
X746Y740D01*
X772Y740D02*
X778Y740D01*
X787Y740D02*
X793Y740D01*
X829Y740D02*
X835Y740D01*
X866Y740D02*
X899Y740D01*
X352Y739D02*
X383Y739D01*
X409Y739D02*
X415Y739D01*
X423Y739D02*
X430Y739D01*
X466Y739D02*
X472Y739D01*
X502Y739D02*
X536Y739D01*
X716Y739D02*
X747Y739D01*
X772Y739D02*
X778Y739D01*
X787Y739D02*
X793Y739D01*
X829Y739D02*
X835Y739D01*
X867Y739D02*
X898Y739D01*
X352Y738D02*
X384Y738D01*
X408Y738D02*
X415Y738D01*
X424Y738D02*
X430Y738D01*
X466Y738D02*
X472Y738D01*
X502Y738D02*
X536Y738D01*
X716Y738D02*
X747Y738D01*
X771Y738D02*
X778Y738D01*
X787Y738D02*
X793Y738D01*
X829Y738D02*
X835Y738D01*
X869Y738D02*
X896Y738D01*
X352Y737D02*
X358Y737D01*
X375Y737D02*
X384Y737D01*
X408Y737D02*
X414Y737D01*
X424Y737D02*
X430Y737D01*
X466Y737D02*
X472Y737D01*
X502Y737D02*
X536Y737D01*
X716Y737D02*
X722Y737D01*
X740Y737D02*
X748Y737D01*
X771Y737D02*
X777Y737D01*
X787Y737D02*
X794Y737D01*
X829Y737D02*
X835Y737D01*
X879Y737D02*
X885Y737D01*
X352Y736D02*
X358Y736D01*
X377Y736D02*
X385Y736D01*
X408Y736D02*
X414Y736D01*
X424Y736D02*
X431Y736D01*
X466Y736D02*
X472Y736D01*
X503Y736D02*
X535Y736D01*
X716Y736D02*
X722Y736D01*
X741Y736D02*
X748Y736D01*
X771Y736D02*
X777Y736D01*
X788Y736D02*
X794Y736D01*
X829Y736D02*
X835Y736D01*
X879Y736D02*
X885Y736D01*
X352Y735D02*
X358Y735D01*
X378Y735D02*
X385Y735D01*
X407Y735D02*
X414Y735D01*
X425Y735D02*
X431Y735D01*
X466Y735D02*
X472Y735D01*
X504Y735D02*
X534Y735D01*
X716Y735D02*
X722Y735D01*
X742Y735D02*
X749Y735D01*
X771Y735D02*
X777Y735D01*
X788Y735D02*
X794Y735D01*
X829Y735D02*
X835Y735D01*
X879Y735D02*
X885Y735D01*
X352Y734D02*
X358Y734D01*
X379Y734D02*
X385Y734D01*
X407Y734D02*
X413Y734D01*
X425Y734D02*
X431Y734D01*
X466Y734D02*
X472Y734D01*
X716Y734D02*
X722Y734D01*
X743Y734D02*
X749Y734D01*
X770Y734D02*
X777Y734D01*
X788Y734D02*
X795Y734D01*
X829Y734D02*
X835Y734D01*
X879Y734D02*
X885Y734D01*
X352Y733D02*
X358Y733D01*
X379Y733D02*
X386Y733D01*
X407Y733D02*
X413Y733D01*
X425Y733D02*
X431Y733D01*
X466Y733D02*
X472Y733D01*
X716Y733D02*
X722Y733D01*
X743Y733D02*
X749Y733D01*
X770Y733D02*
X795Y733D01*
X829Y733D02*
X835Y733D01*
X879Y733D02*
X885Y733D01*
X352Y732D02*
X358Y732D01*
X380Y732D02*
X386Y732D01*
X406Y732D02*
X432Y732D01*
X466Y732D02*
X472Y732D01*
X716Y732D02*
X722Y732D01*
X743Y732D02*
X749Y732D01*
X770Y732D02*
X795Y732D01*
X829Y732D02*
X835Y732D01*
X879Y732D02*
X885Y732D01*
X352Y731D02*
X358Y731D01*
X380Y731D02*
X386Y731D01*
X406Y731D02*
X432Y731D01*
X466Y731D02*
X472Y731D01*
X716Y731D02*
X722Y731D01*
X743Y731D02*
X749Y731D01*
X769Y731D02*
X796Y731D01*
X829Y731D02*
X835Y731D01*
X879Y731D02*
X885Y731D01*
X352Y730D02*
X358Y730D01*
X380Y730D02*
X386Y730D01*
X406Y730D02*
X432Y730D01*
X466Y730D02*
X472Y730D01*
X716Y730D02*
X722Y730D01*
X743Y730D02*
X749Y730D01*
X769Y730D02*
X796Y730D01*
X829Y730D02*
X835Y730D01*
X879Y730D02*
X885Y730D01*
X352Y729D02*
X358Y729D01*
X380Y729D02*
X386Y729D01*
X406Y729D02*
X433Y729D01*
X466Y729D02*
X472Y729D01*
X716Y729D02*
X722Y729D01*
X743Y729D02*
X749Y729D01*
X769Y729D02*
X796Y729D01*
X829Y729D02*
X835Y729D01*
X879Y729D02*
X885Y729D01*
X352Y728D02*
X358Y728D01*
X380Y728D02*
X386Y728D01*
X405Y728D02*
X433Y728D01*
X466Y728D02*
X472Y728D01*
X716Y728D02*
X722Y728D01*
X743Y728D02*
X749Y728D01*
X768Y728D02*
X796Y728D01*
X829Y728D02*
X835Y728D01*
X879Y728D02*
X885Y728D01*
X352Y727D02*
X358Y727D01*
X380Y727D02*
X386Y727D01*
X405Y727D02*
X433Y727D01*
X466Y727D02*
X472Y727D01*
X716Y727D02*
X722Y727D01*
X743Y727D02*
X749Y727D01*
X768Y727D02*
X797Y727D01*
X829Y727D02*
X835Y727D01*
X880Y727D02*
X885Y727D01*
X352Y726D02*
X358Y726D01*
X380Y726D02*
X386Y726D01*
X405Y726D02*
X433Y726D01*
X466Y726D02*
X472Y726D01*
X716Y726D02*
X722Y726D01*
X743Y726D02*
X749Y726D01*
X768Y726D02*
X774Y726D01*
X790Y726D02*
X797Y726D01*
X829Y726D02*
X835Y726D01*
X880Y726D02*
X885Y726D01*
X352Y725D02*
X358Y725D01*
X379Y725D02*
X386Y725D01*
X404Y725D02*
X411Y725D01*
X428Y725D02*
X434Y725D01*
X466Y725D02*
X472Y725D01*
X716Y725D02*
X722Y725D01*
X742Y725D02*
X749Y725D01*
X768Y725D02*
X774Y725D01*
X791Y725D02*
X797Y725D01*
X829Y725D02*
X835Y725D01*
X881Y725D02*
X884Y725D01*
X352Y724D02*
X358Y724D01*
X379Y724D02*
X385Y724D01*
X404Y724D02*
X410Y724D01*
X428Y724D02*
X434Y724D01*
X466Y724D02*
X472Y724D01*
X716Y724D02*
X722Y724D01*
X742Y724D02*
X749Y724D01*
X767Y724D02*
X774Y724D01*
X791Y724D02*
X798Y724D01*
X829Y724D02*
X835Y724D01*
X352Y723D02*
X358Y723D01*
X378Y723D02*
X385Y723D01*
X404Y723D02*
X410Y723D01*
X428Y723D02*
X434Y723D01*
X466Y723D02*
X472Y723D01*
X716Y723D02*
X722Y723D01*
X741Y723D02*
X748Y723D01*
X767Y723D02*
X773Y723D01*
X792Y723D02*
X798Y723D01*
X829Y723D02*
X835Y723D01*
X352Y722D02*
X358Y722D01*
X377Y722D02*
X385Y722D01*
X404Y722D02*
X410Y722D01*
X428Y722D02*
X435Y722D01*
X466Y722D02*
X472Y722D01*
X716Y722D02*
X722Y722D01*
X739Y722D02*
X748Y722D01*
X767Y722D02*
X773Y722D01*
X792Y722D02*
X798Y722D01*
X829Y722D02*
X835Y722D01*
X352Y721D02*
X359Y721D01*
X375Y721D02*
X384Y721D01*
X403Y721D02*
X410Y721D01*
X429Y721D02*
X435Y721D01*
X466Y721D02*
X472Y721D01*
X716Y721D02*
X747Y721D01*
X766Y721D02*
X773Y721D01*
X792Y721D02*
X798Y721D01*
X829Y721D02*
X835Y721D01*
X352Y720D02*
X384Y720D01*
X403Y720D02*
X409Y720D01*
X429Y720D02*
X435Y720D01*
X466Y720D02*
X472Y720D01*
X716Y720D02*
X746Y720D01*
X766Y720D02*
X772Y720D01*
X792Y720D02*
X799Y720D01*
X829Y720D02*
X835Y720D01*
X352Y719D02*
X383Y719D01*
X403Y719D02*
X409Y719D01*
X429Y719D02*
X436Y719D01*
X466Y719D02*
X472Y719D01*
X716Y719D02*
X746Y719D01*
X766Y719D02*
X772Y719D01*
X793Y719D02*
X799Y719D01*
X829Y719D02*
X835Y719D01*
X352Y718D02*
X382Y718D01*
X402Y718D02*
X409Y718D01*
X430Y718D02*
X436Y718D01*
X466Y718D02*
X472Y718D01*
X716Y718D02*
X745Y718D01*
X766Y718D02*
X772Y718D01*
X793Y718D02*
X799Y718D01*
X829Y718D02*
X835Y718D01*
X352Y717D02*
X381Y717D01*
X402Y717D02*
X408Y717D01*
X430Y717D02*
X436Y717D01*
X466Y717D02*
X472Y717D01*
X716Y717D02*
X743Y717D01*
X766Y717D02*
X772Y717D01*
X793Y717D02*
X799Y717D01*
X830Y717D02*
X835Y717D01*
X352Y716D02*
X379Y716D01*
X402Y716D02*
X408Y716D01*
X430Y716D02*
X436Y716D01*
X466Y716D02*
X472Y716D01*
X716Y716D02*
X742Y716D01*
X766Y716D02*
X771Y716D01*
X794Y716D02*
X799Y716D01*
X830Y716D02*
X835Y716D01*
X352Y715D02*
X378Y715D01*
X403Y715D02*
X407Y715D01*
X431Y715D02*
X435Y715D01*
X467Y715D02*
X471Y715D01*
X716Y715D02*
X739Y715D01*
X767Y715D02*
X770Y715D01*
X795Y715D02*
X798Y715D01*
X831Y715D02*
X834Y715D01*
X353Y714D02*
X374Y714D01*
X405Y714D02*
X406Y714D01*
X432Y714D02*
X434Y714D01*
X468Y714D02*
X470Y714D01*
X588Y460D02*
X612Y460D01*
X640Y460D02*
X657Y460D01*
X587Y459D02*
X615Y459D01*
X638Y459D02*
X657Y459D01*
X587Y458D02*
X617Y458D01*
X638Y458D02*
X657Y458D01*
X587Y457D02*
X618Y457D01*
X637Y457D02*
X657Y457D01*
X587Y456D02*
X619Y456D01*
X638Y456D02*
X657Y456D01*
X587Y455D02*
X619Y455D01*
X638Y455D02*
X657Y455D01*
X587Y454D02*
X620Y454D01*
X639Y454D02*
X657Y454D01*
X587Y453D02*
X594Y453D01*
X612Y453D02*
X620Y453D01*
X651Y453D02*
X657Y453D01*
X587Y452D02*
X593Y452D01*
X614Y452D02*
X621Y452D01*
X651Y452D02*
X657Y452D01*
X587Y451D02*
X593Y451D01*
X615Y451D02*
X621Y451D01*
X651Y451D02*
X657Y451D01*
X587Y450D02*
X593Y450D01*
X615Y450D02*
X621Y450D01*
X651Y450D02*
X657Y450D01*
X587Y449D02*
X593Y449D01*
X615Y449D02*
X621Y449D01*
X651Y449D02*
X657Y449D01*
X587Y448D02*
X593Y448D01*
X615Y448D02*
X621Y448D01*
X651Y448D02*
X657Y448D01*
X587Y447D02*
X593Y447D01*
X615Y447D02*
X621Y447D01*
X651Y447D02*
X657Y447D01*
X587Y446D02*
X593Y446D01*
X615Y446D02*
X621Y446D01*
X651Y446D02*
X657Y446D01*
X587Y445D02*
X593Y445D01*
X615Y445D02*
X621Y445D01*
X651Y445D02*
X657Y445D01*
X587Y444D02*
X593Y444D01*
X614Y444D02*
X621Y444D01*
X651Y444D02*
X657Y444D01*
X587Y443D02*
X593Y443D01*
X613Y443D02*
X621Y443D01*
X651Y443D02*
X657Y443D01*
X587Y442D02*
X620Y442D01*
X651Y442D02*
X657Y442D01*
X587Y441D02*
X620Y441D01*
X651Y441D02*
X657Y441D01*
X587Y440D02*
X619Y440D01*
X651Y440D02*
X657Y440D01*
X587Y439D02*
X618Y439D01*
X651Y439D02*
X657Y439D01*
X587Y438D02*
X617Y438D01*
X651Y438D02*
X657Y438D01*
X587Y437D02*
X616Y437D01*
X651Y437D02*
X657Y437D01*
X587Y436D02*
X614Y436D01*
X651Y436D02*
X657Y436D01*
X587Y435D02*
X593Y435D01*
X599Y435D02*
X607Y435D01*
X651Y435D02*
X657Y435D01*
X587Y434D02*
X593Y434D01*
X600Y434D02*
X607Y434D01*
X651Y434D02*
X657Y434D01*
X587Y433D02*
X593Y433D01*
X601Y433D02*
X608Y433D01*
X651Y433D02*
X657Y433D01*
X587Y432D02*
X593Y432D01*
X601Y432D02*
X608Y432D01*
X651Y432D02*
X657Y432D01*
X587Y431D02*
X593Y431D01*
X602Y431D02*
X609Y431D01*
X651Y431D02*
X657Y431D01*
X587Y430D02*
X593Y430D01*
X602Y430D02*
X610Y430D01*
X651Y430D02*
X657Y430D01*
X666Y430D02*
X669Y430D01*
X587Y429D02*
X593Y429D01*
X603Y429D02*
X610Y429D01*
X651Y429D02*
X657Y429D01*
X666Y429D02*
X670Y429D01*
X587Y428D02*
X593Y428D01*
X604Y428D02*
X611Y428D01*
X651Y428D02*
X657Y428D01*
X665Y428D02*
X671Y428D01*
X587Y427D02*
X593Y427D01*
X604Y427D02*
X611Y427D01*
X651Y427D02*
X657Y427D01*
X665Y427D02*
X671Y427D01*
X587Y426D02*
X593Y426D01*
X605Y426D02*
X612Y426D01*
X651Y426D02*
X657Y426D01*
X665Y426D02*
X671Y426D01*
X587Y425D02*
X593Y425D01*
X605Y425D02*
X613Y425D01*
X651Y425D02*
X657Y425D01*
X665Y425D02*
X671Y425D01*
X587Y424D02*
X593Y424D01*
X606Y424D02*
X613Y424D01*
X651Y424D02*
X657Y424D01*
X665Y424D02*
X671Y424D01*
X587Y423D02*
X593Y423D01*
X606Y423D02*
X614Y423D01*
X651Y423D02*
X657Y423D01*
X665Y423D02*
X671Y423D01*
X587Y422D02*
X593Y422D01*
X607Y422D02*
X614Y422D01*
X651Y422D02*
X657Y422D01*
X665Y422D02*
X671Y422D01*
X587Y421D02*
X593Y421D01*
X608Y421D02*
X615Y421D01*
X651Y421D02*
X657Y421D01*
X665Y421D02*
X671Y421D01*
X587Y420D02*
X593Y420D01*
X608Y420D02*
X615Y420D01*
X651Y420D02*
X657Y420D01*
X665Y420D02*
X671Y420D01*
X587Y419D02*
X593Y419D01*
X609Y419D02*
X616Y419D01*
X651Y419D02*
X657Y419D01*
X665Y419D02*
X671Y419D01*
X587Y418D02*
X593Y418D01*
X609Y418D02*
X617Y418D01*
X651Y418D02*
X657Y418D01*
X665Y418D02*
X671Y418D01*
X587Y417D02*
X593Y417D01*
X610Y417D02*
X617Y417D01*
X651Y417D02*
X657Y417D01*
X665Y417D02*
X671Y417D01*
X587Y416D02*
X593Y416D01*
X611Y416D02*
X618Y416D01*
X651Y416D02*
X657Y416D01*
X665Y416D02*
X671Y416D01*
X587Y415D02*
X593Y415D01*
X611Y415D02*
X618Y415D01*
X651Y415D02*
X657Y415D01*
X665Y415D02*
X671Y415D01*
X587Y414D02*
X593Y414D01*
X612Y414D02*
X619Y414D01*
X651Y414D02*
X657Y414D01*
X665Y414D02*
X671Y414D01*
X587Y413D02*
X593Y413D01*
X612Y413D02*
X620Y413D01*
X641Y413D02*
X671Y413D01*
X587Y412D02*
X593Y412D01*
X613Y412D02*
X620Y412D01*
X639Y412D02*
X671Y412D01*
X587Y411D02*
X593Y411D01*
X613Y411D02*
X621Y411D01*
X638Y411D02*
X671Y411D01*
X587Y410D02*
X593Y410D01*
X614Y410D02*
X621Y410D01*
X637Y410D02*
X671Y410D01*
X588Y409D02*
X593Y409D01*
X615Y409D02*
X621Y409D01*
X638Y409D02*
X671Y409D01*
X588Y408D02*
X593Y408D01*
X615Y408D02*
X621Y408D01*
X638Y408D02*
X671Y408D01*
X589Y407D02*
X592Y407D01*
X616Y407D02*
X620Y407D01*
X639Y407D02*
X670Y407D01*
X641Y406D02*
X667Y406D01*
X584Y357D02*
X610Y357D01*
X636Y357D02*
X663Y357D01*
X584Y356D02*
X612Y356D01*
X635Y356D02*
X665Y356D01*
X584Y355D02*
X614Y355D01*
X634Y355D02*
X666Y355D01*
X584Y354D02*
X615Y354D01*
X634Y354D02*
X667Y354D01*
X584Y353D02*
X616Y353D01*
X634Y353D02*
X667Y353D01*
X584Y352D02*
X616Y352D01*
X635Y352D02*
X667Y352D01*
X584Y351D02*
X617Y351D01*
X636Y351D02*
X668Y351D01*
X584Y350D02*
X590Y350D01*
X609Y350D02*
X617Y350D01*
X662Y350D02*
X668Y350D01*
X584Y349D02*
X590Y349D01*
X611Y349D02*
X617Y349D01*
X662Y349D02*
X668Y349D01*
X584Y348D02*
X590Y348D01*
X611Y348D02*
X618Y348D01*
X662Y348D02*
X668Y348D01*
X584Y347D02*
X590Y347D01*
X612Y347D02*
X618Y347D01*
X662Y347D02*
X668Y347D01*
X584Y346D02*
X590Y346D01*
X612Y346D02*
X618Y346D01*
X662Y346D02*
X668Y346D01*
X584Y345D02*
X590Y345D01*
X612Y345D02*
X618Y345D01*
X662Y345D02*
X668Y345D01*
X584Y344D02*
X590Y344D01*
X612Y344D02*
X618Y344D01*
X662Y344D02*
X668Y344D01*
X584Y343D02*
X590Y343D01*
X612Y343D02*
X618Y343D01*
X662Y343D02*
X668Y343D01*
X584Y342D02*
X590Y342D01*
X611Y342D02*
X618Y342D01*
X662Y342D02*
X668Y342D01*
X584Y341D02*
X590Y341D01*
X611Y341D02*
X617Y341D01*
X662Y341D02*
X668Y341D01*
X584Y340D02*
X590Y340D01*
X610Y340D02*
X617Y340D01*
X662Y340D02*
X668Y340D01*
X584Y339D02*
X617Y339D01*
X662Y339D02*
X668Y339D01*
X584Y338D02*
X616Y338D01*
X662Y338D02*
X668Y338D01*
X584Y337D02*
X616Y337D01*
X662Y337D02*
X668Y337D01*
X584Y336D02*
X615Y336D01*
X662Y336D02*
X668Y336D01*
X584Y335D02*
X614Y335D01*
X662Y335D02*
X668Y335D01*
X584Y334D02*
X612Y334D01*
X662Y334D02*
X668Y334D01*
X584Y333D02*
X610Y333D01*
X638Y333D02*
X668Y333D01*
X584Y332D02*
X590Y332D01*
X596Y332D02*
X603Y332D01*
X637Y332D02*
X667Y332D01*
X584Y331D02*
X590Y331D01*
X597Y331D02*
X604Y331D01*
X636Y331D02*
X667Y331D01*
X584Y330D02*
X590Y330D01*
X597Y330D02*
X605Y330D01*
X635Y330D02*
X667Y330D01*
X584Y329D02*
X590Y329D01*
X598Y329D02*
X605Y329D01*
X635Y329D02*
X666Y329D01*
X584Y328D02*
X590Y328D01*
X599Y328D02*
X606Y328D01*
X634Y328D02*
X665Y328D01*
X584Y327D02*
X590Y327D01*
X599Y327D02*
X606Y327D01*
X634Y327D02*
X662Y327D01*
X584Y326D02*
X590Y326D01*
X600Y326D02*
X607Y326D01*
X634Y326D02*
X640Y326D01*
X584Y325D02*
X590Y325D01*
X600Y325D02*
X608Y325D01*
X634Y325D02*
X640Y325D01*
X584Y324D02*
X590Y324D01*
X601Y324D02*
X608Y324D01*
X634Y324D02*
X640Y324D01*
X584Y323D02*
X590Y323D01*
X602Y323D02*
X609Y323D01*
X634Y323D02*
X640Y323D01*
X584Y322D02*
X590Y322D01*
X602Y322D02*
X609Y322D01*
X634Y322D02*
X640Y322D01*
X584Y321D02*
X590Y321D01*
X603Y321D02*
X610Y321D01*
X634Y321D02*
X640Y321D01*
X584Y320D02*
X590Y320D01*
X603Y320D02*
X610Y320D01*
X634Y320D02*
X640Y320D01*
X584Y319D02*
X590Y319D01*
X604Y319D02*
X611Y319D01*
X634Y319D02*
X640Y319D01*
X584Y318D02*
X590Y318D01*
X604Y318D02*
X612Y318D01*
X634Y318D02*
X640Y318D01*
X584Y317D02*
X590Y317D01*
X605Y317D02*
X612Y317D01*
X634Y317D02*
X640Y317D01*
X584Y316D02*
X590Y316D01*
X606Y316D02*
X613Y316D01*
X634Y316D02*
X640Y316D01*
X584Y315D02*
X590Y315D01*
X606Y315D02*
X613Y315D01*
X634Y315D02*
X640Y315D01*
X584Y314D02*
X590Y314D01*
X607Y314D02*
X614Y314D01*
X634Y314D02*
X640Y314D01*
X584Y313D02*
X590Y313D01*
X607Y313D02*
X615Y313D01*
X634Y313D02*
X640Y313D01*
X584Y312D02*
X590Y312D01*
X608Y312D02*
X615Y312D01*
X634Y312D02*
X640Y312D01*
X584Y311D02*
X590Y311D01*
X609Y311D02*
X616Y311D01*
X634Y311D02*
X640Y311D01*
X584Y310D02*
X590Y310D01*
X609Y310D02*
X616Y310D01*
X634Y310D02*
X665Y310D01*
X584Y309D02*
X590Y309D01*
X610Y309D02*
X617Y309D01*
X634Y309D02*
X667Y309D01*
X584Y308D02*
X590Y308D01*
X610Y308D02*
X617Y308D01*
X634Y308D02*
X667Y308D01*
X584Y307D02*
X590Y307D01*
X611Y307D02*
X618Y307D01*
X634Y307D02*
X668Y307D01*
X584Y306D02*
X590Y306D01*
X611Y306D02*
X618Y306D01*
X634Y306D02*
X668Y306D01*
X585Y305D02*
X590Y305D01*
X612Y305D02*
X617Y305D01*
X634Y305D02*
X667Y305D01*
X585Y304D02*
X589Y304D01*
X613Y304D02*
X616Y304D01*
X634Y304D02*
X666Y304D01*
D02*
G04 End of Silk1*
M02*