; NON-PLATED HOLES START AT T1
; THROUGH (PLATED) HOLES START AT T100
M48
INCH
T1C0.086614
T100C0.042000
T101C0.038000
%
T1
X001027Y001289
X016527Y001289
X001027Y011289
X016527Y014789
T100
X008527Y005289
X005547Y005289
T101
X007027Y000789
X009027Y014789
X001027Y012789
X010527Y000789
X002527Y003289
X013027Y002789
X014694Y014755
X016527Y010289
X001027Y013789
X011943Y014739
X003111Y014755
X003527Y003289
X016527Y009289
X004161Y006272
X001027Y014789
X016527Y011289
X007694Y006306
X016527Y012289
X014027Y002789
X008027Y000789
T00
M30
