G04 MADE WITH FRITZING*
G04 WWW.FRITZING.ORG*
G04 DOUBLE SIDED*
G04 HOLES PLATED*
G04 CONTOUR ON CENTER OF CONTOUR VECTOR*
%ASAXBY*%
%FSLAX23Y23*%
%MOIN*%
%OFA0B0*%
%SFA1.0B1.0*%
%ADD10C,0.088000*%
%ADD11C,0.062000*%
%ADD12C,0.072992*%
%ADD13R,0.084803X0.072992*%
%ADD14R,0.088736X0.059208*%
%ADD15R,0.088736X0.059222*%
%ADD16R,0.072992X0.084803*%
%ADD17R,0.001000X0.001000*%
%LNMASK0*%
G90*
G70*
G54D10*
X2207Y209D03*
X2207Y309D03*
G54D11*
X2307Y309D03*
X2307Y209D03*
X2607Y209D03*
X2607Y309D03*
G54D10*
X907Y409D03*
X907Y309D03*
X907Y209D03*
X907Y109D03*
X2007Y409D03*
X2007Y309D03*
X2007Y209D03*
X2007Y109D03*
X1832Y109D03*
X1832Y209D03*
X1832Y309D03*
G54D12*
X240Y334D03*
X161Y334D03*
X82Y334D03*
X240Y159D03*
X161Y159D03*
X82Y159D03*
G54D10*
X557Y159D03*
X457Y159D03*
X557Y359D03*
X457Y359D03*
G54D13*
X1507Y237D03*
X1507Y359D03*
G54D14*
X657Y434D03*
G54D15*
X657Y306D03*
G54D14*
X657Y212D03*
G54D15*
X657Y84D03*
G54D14*
X357Y434D03*
G54D15*
X357Y306D03*
G54D14*
X357Y212D03*
G54D15*
X357Y84D03*
G54D13*
X1407Y356D03*
X1407Y234D03*
G54D16*
X1110Y359D03*
X1232Y359D03*
G54D17*
X2277Y341D02*
X2336Y341D01*
X2577Y341D02*
X2636Y341D01*
X2273Y340D02*
X2341Y340D01*
X2573Y340D02*
X2641Y340D01*
X2270Y339D02*
X2344Y339D01*
X2570Y339D02*
X2644Y339D01*
X2267Y338D02*
X2346Y338D01*
X2567Y338D02*
X2646Y338D01*
X2266Y337D02*
X2348Y337D01*
X2566Y337D02*
X2648Y337D01*
X2264Y336D02*
X2349Y336D01*
X2564Y336D02*
X2649Y336D01*
X2263Y335D02*
X2351Y335D01*
X2563Y335D02*
X2651Y335D01*
X2261Y334D02*
X2352Y334D01*
X2561Y334D02*
X2652Y334D01*
X2260Y333D02*
X2353Y333D01*
X2560Y333D02*
X2653Y333D01*
X2259Y332D02*
X2354Y332D01*
X2559Y332D02*
X2654Y332D01*
X2258Y331D02*
X2355Y331D01*
X2558Y331D02*
X2655Y331D01*
X2257Y330D02*
X2356Y330D01*
X2557Y330D02*
X2656Y330D01*
X2257Y329D02*
X2357Y329D01*
X2556Y329D02*
X2657Y329D01*
X2256Y328D02*
X2358Y328D01*
X2556Y328D02*
X2658Y328D01*
X2255Y327D02*
X2358Y327D01*
X2555Y327D02*
X2658Y327D01*
X2255Y326D02*
X2359Y326D01*
X2555Y326D02*
X2659Y326D01*
X2254Y325D02*
X2359Y325D01*
X2554Y325D02*
X2659Y325D01*
X2253Y324D02*
X2360Y324D01*
X2553Y324D02*
X2660Y324D01*
X2253Y323D02*
X2360Y323D01*
X2553Y323D02*
X2660Y323D01*
X2253Y322D02*
X2361Y322D01*
X2553Y322D02*
X2661Y322D01*
X2252Y321D02*
X2303Y321D01*
X2310Y321D02*
X2361Y321D01*
X2552Y321D02*
X2603Y321D01*
X2610Y321D02*
X2661Y321D01*
X2252Y320D02*
X2301Y320D01*
X2313Y320D02*
X2362Y320D01*
X2552Y320D02*
X2601Y320D01*
X2612Y320D02*
X2662Y320D01*
X2252Y319D02*
X2299Y319D01*
X2314Y319D02*
X2362Y319D01*
X2551Y319D02*
X2599Y319D01*
X2614Y319D02*
X2662Y319D01*
X2251Y318D02*
X2298Y318D01*
X2315Y318D02*
X2362Y318D01*
X2551Y318D02*
X2598Y318D01*
X2615Y318D02*
X2662Y318D01*
X2251Y317D02*
X2297Y317D01*
X2316Y317D02*
X2362Y317D01*
X2551Y317D02*
X2597Y317D01*
X2616Y317D02*
X2662Y317D01*
X2251Y316D02*
X2297Y316D01*
X2317Y316D02*
X2363Y316D01*
X2551Y316D02*
X2597Y316D01*
X2617Y316D02*
X2663Y316D01*
X2251Y315D02*
X2296Y315D01*
X2317Y315D02*
X2363Y315D01*
X2551Y315D02*
X2596Y315D01*
X2617Y315D02*
X2663Y315D01*
X2250Y314D02*
X2296Y314D01*
X2318Y314D02*
X2363Y314D01*
X2550Y314D02*
X2596Y314D01*
X2618Y314D02*
X2663Y314D01*
X2250Y313D02*
X2295Y313D01*
X2318Y313D02*
X2363Y313D01*
X2550Y313D02*
X2595Y313D01*
X2618Y313D02*
X2663Y313D01*
X2250Y312D02*
X2295Y312D01*
X2318Y312D02*
X2363Y312D01*
X2550Y312D02*
X2595Y312D01*
X2618Y312D02*
X2663Y312D01*
X2250Y311D02*
X2295Y311D01*
X2318Y311D02*
X2363Y311D01*
X2550Y311D02*
X2595Y311D01*
X2618Y311D02*
X2663Y311D01*
X2250Y310D02*
X2295Y310D01*
X2318Y310D02*
X2363Y310D01*
X2550Y310D02*
X2595Y310D01*
X2618Y310D02*
X2663Y310D01*
X2250Y309D02*
X2295Y309D01*
X2318Y309D02*
X2363Y309D01*
X2550Y309D02*
X2595Y309D01*
X2618Y309D02*
X2663Y309D01*
X2250Y308D02*
X2295Y308D01*
X2318Y308D02*
X2363Y308D01*
X2550Y308D02*
X2595Y308D01*
X2618Y308D02*
X2663Y308D01*
X2250Y307D02*
X2296Y307D01*
X2318Y307D02*
X2363Y307D01*
X2550Y307D02*
X2596Y307D01*
X2618Y307D02*
X2663Y307D01*
X2251Y306D02*
X2296Y306D01*
X2317Y306D02*
X2363Y306D01*
X2551Y306D02*
X2596Y306D01*
X2617Y306D02*
X2663Y306D01*
X2251Y305D02*
X2297Y305D01*
X2317Y305D02*
X2363Y305D01*
X2551Y305D02*
X2597Y305D01*
X2617Y305D02*
X2663Y305D01*
X2251Y304D02*
X2297Y304D01*
X2316Y304D02*
X2362Y304D01*
X2551Y304D02*
X2597Y304D01*
X2616Y304D02*
X2662Y304D01*
X2251Y303D02*
X2298Y303D01*
X2315Y303D02*
X2362Y303D01*
X2551Y303D02*
X2598Y303D01*
X2615Y303D02*
X2662Y303D01*
X2251Y302D02*
X2299Y302D01*
X2314Y302D02*
X2362Y302D01*
X2551Y302D02*
X2599Y302D01*
X2614Y302D02*
X2662Y302D01*
X2252Y301D02*
X2300Y301D01*
X2313Y301D02*
X2362Y301D01*
X2552Y301D02*
X2600Y301D01*
X2613Y301D02*
X2662Y301D01*
X2252Y300D02*
X2302Y300D01*
X2311Y300D02*
X2361Y300D01*
X2552Y300D02*
X2602Y300D01*
X2611Y300D02*
X2661Y300D01*
X2252Y299D02*
X2361Y299D01*
X2552Y299D02*
X2661Y299D01*
X2253Y298D02*
X2360Y298D01*
X2553Y298D02*
X2660Y298D01*
X2253Y297D02*
X2360Y297D01*
X2553Y297D02*
X2660Y297D01*
X2254Y296D02*
X2360Y296D01*
X2554Y296D02*
X2660Y296D01*
X2254Y295D02*
X2359Y295D01*
X2554Y295D02*
X2659Y295D01*
X2255Y294D02*
X2358Y294D01*
X2555Y294D02*
X2658Y294D01*
X2256Y293D02*
X2358Y293D01*
X2556Y293D02*
X2658Y293D01*
X2256Y292D02*
X2357Y292D01*
X2556Y292D02*
X2657Y292D01*
X2257Y291D02*
X2356Y291D01*
X2557Y291D02*
X2656Y291D01*
X2258Y290D02*
X2355Y290D01*
X2558Y290D02*
X2655Y290D01*
X2259Y289D02*
X2355Y289D01*
X2559Y289D02*
X2655Y289D01*
X2260Y288D02*
X2354Y288D01*
X2560Y288D02*
X2654Y288D01*
X2261Y287D02*
X2352Y287D01*
X2561Y287D02*
X2652Y287D01*
X2262Y286D02*
X2351Y286D01*
X2562Y286D02*
X2651Y286D01*
X2264Y285D02*
X2350Y285D01*
X2564Y285D02*
X2650Y285D01*
X2265Y284D02*
X2348Y284D01*
X2565Y284D02*
X2648Y284D01*
X2267Y283D02*
X2346Y283D01*
X2567Y283D02*
X2646Y283D01*
X2269Y282D02*
X2344Y282D01*
X2569Y282D02*
X2644Y282D01*
X2272Y281D02*
X2342Y281D01*
X2572Y281D02*
X2642Y281D01*
X2275Y280D02*
X2338Y280D01*
X2575Y280D02*
X2638Y280D01*
X2276Y241D02*
X2337Y241D01*
X2576Y241D02*
X2637Y241D01*
X2272Y240D02*
X2341Y240D01*
X2572Y240D02*
X2641Y240D01*
X2269Y239D02*
X2344Y239D01*
X2569Y239D02*
X2644Y239D01*
X2267Y238D02*
X2346Y238D01*
X2567Y238D02*
X2646Y238D01*
X2265Y237D02*
X2348Y237D01*
X2565Y237D02*
X2648Y237D01*
X2264Y236D02*
X2350Y236D01*
X2564Y236D02*
X2650Y236D01*
X2262Y235D02*
X2351Y235D01*
X2562Y235D02*
X2651Y235D01*
X2261Y234D02*
X2352Y234D01*
X2561Y234D02*
X2652Y234D01*
X2260Y233D02*
X2353Y233D01*
X2560Y233D02*
X2653Y233D01*
X2259Y232D02*
X2354Y232D01*
X2559Y232D02*
X2654Y232D01*
X2258Y231D02*
X2355Y231D01*
X2558Y231D02*
X2655Y231D01*
X2257Y230D02*
X2356Y230D01*
X2557Y230D02*
X2656Y230D01*
X2256Y229D02*
X2357Y229D01*
X2556Y229D02*
X2657Y229D01*
X2256Y228D02*
X2358Y228D01*
X2556Y228D02*
X2658Y228D01*
X2255Y227D02*
X2358Y227D01*
X2555Y227D02*
X2658Y227D01*
X2254Y226D02*
X2359Y226D01*
X2554Y226D02*
X2659Y226D01*
X2254Y225D02*
X2359Y225D01*
X2554Y225D02*
X2659Y225D01*
X2253Y224D02*
X2360Y224D01*
X2553Y224D02*
X2660Y224D01*
X2253Y223D02*
X2360Y223D01*
X2553Y223D02*
X2660Y223D01*
X2253Y222D02*
X2361Y222D01*
X2552Y222D02*
X2661Y222D01*
X2252Y221D02*
X2303Y221D01*
X2311Y221D02*
X2361Y221D01*
X2552Y221D02*
X2603Y221D01*
X2611Y221D02*
X2661Y221D01*
X2252Y220D02*
X2301Y220D01*
X2313Y220D02*
X2362Y220D01*
X2552Y220D02*
X2601Y220D01*
X2613Y220D02*
X2662Y220D01*
X2251Y219D02*
X2299Y219D01*
X2314Y219D02*
X2362Y219D01*
X2551Y219D02*
X2599Y219D01*
X2614Y219D02*
X2662Y219D01*
X2251Y218D02*
X2298Y218D01*
X2315Y218D02*
X2362Y218D01*
X2551Y218D02*
X2598Y218D01*
X2615Y218D02*
X2662Y218D01*
X2251Y217D02*
X2297Y217D01*
X2316Y217D02*
X2362Y217D01*
X2551Y217D02*
X2597Y217D01*
X2616Y217D02*
X2662Y217D01*
X2251Y216D02*
X2297Y216D01*
X2317Y216D02*
X2363Y216D01*
X2551Y216D02*
X2597Y216D01*
X2617Y216D02*
X2663Y216D01*
X2251Y215D02*
X2296Y215D01*
X2317Y215D02*
X2363Y215D01*
X2551Y215D02*
X2596Y215D01*
X2617Y215D02*
X2663Y215D01*
X2250Y214D02*
X2296Y214D01*
X2318Y214D02*
X2363Y214D01*
X2550Y214D02*
X2596Y214D01*
X2618Y214D02*
X2663Y214D01*
X2250Y213D02*
X2295Y213D01*
X2318Y213D02*
X2363Y213D01*
X2550Y213D02*
X2595Y213D01*
X2618Y213D02*
X2663Y213D01*
X2250Y212D02*
X2295Y212D01*
X2318Y212D02*
X2363Y212D01*
X2550Y212D02*
X2595Y212D01*
X2618Y212D02*
X2663Y212D01*
X2250Y211D02*
X2295Y211D01*
X2318Y211D02*
X2363Y211D01*
X2550Y211D02*
X2595Y211D01*
X2618Y211D02*
X2663Y211D01*
X2250Y210D02*
X2295Y210D01*
X2318Y210D02*
X2363Y210D01*
X2550Y210D02*
X2595Y210D01*
X2618Y210D02*
X2663Y210D01*
X2250Y209D02*
X2295Y209D01*
X2318Y209D02*
X2363Y209D01*
X2550Y209D02*
X2595Y209D01*
X2618Y209D02*
X2663Y209D01*
X2250Y208D02*
X2295Y208D01*
X2318Y208D02*
X2363Y208D01*
X2550Y208D02*
X2595Y208D01*
X2618Y208D02*
X2663Y208D01*
X2250Y207D02*
X2296Y207D01*
X2318Y207D02*
X2363Y207D01*
X2550Y207D02*
X2596Y207D01*
X2618Y207D02*
X2663Y207D01*
X2251Y206D02*
X2296Y206D01*
X2317Y206D02*
X2363Y206D01*
X2551Y206D02*
X2596Y206D01*
X2617Y206D02*
X2663Y206D01*
X2251Y205D02*
X2297Y205D01*
X2317Y205D02*
X2363Y205D01*
X2551Y205D02*
X2597Y205D01*
X2617Y205D02*
X2663Y205D01*
X2251Y204D02*
X2297Y204D01*
X2316Y204D02*
X2362Y204D01*
X2551Y204D02*
X2597Y204D01*
X2616Y204D02*
X2662Y204D01*
X2251Y203D02*
X2298Y203D01*
X2315Y203D02*
X2362Y203D01*
X2551Y203D02*
X2598Y203D01*
X2615Y203D02*
X2662Y203D01*
X2251Y202D02*
X2299Y202D01*
X2314Y202D02*
X2362Y202D01*
X2551Y202D02*
X2599Y202D01*
X2614Y202D02*
X2662Y202D01*
X2252Y201D02*
X2301Y201D01*
X2313Y201D02*
X2362Y201D01*
X2552Y201D02*
X2601Y201D01*
X2613Y201D02*
X2662Y201D01*
X2252Y200D02*
X2303Y200D01*
X2310Y200D02*
X2361Y200D01*
X2552Y200D02*
X2603Y200D01*
X2610Y200D02*
X2661Y200D01*
X2253Y199D02*
X2361Y199D01*
X2553Y199D02*
X2661Y199D01*
X2253Y198D02*
X2360Y198D01*
X2553Y198D02*
X2660Y198D01*
X2253Y197D02*
X2360Y197D01*
X2553Y197D02*
X2660Y197D01*
X2254Y196D02*
X2359Y196D01*
X2554Y196D02*
X2659Y196D01*
X2254Y195D02*
X2359Y195D01*
X2554Y195D02*
X2659Y195D01*
X2255Y194D02*
X2358Y194D01*
X2555Y194D02*
X2658Y194D01*
X2256Y193D02*
X2358Y193D01*
X2556Y193D02*
X2658Y193D01*
X2256Y192D02*
X2357Y192D01*
X2556Y192D02*
X2657Y192D01*
X2257Y191D02*
X2356Y191D01*
X2557Y191D02*
X2656Y191D01*
X2258Y190D02*
X2355Y190D01*
X2558Y190D02*
X2655Y190D01*
X2259Y189D02*
X2354Y189D01*
X2559Y189D02*
X2654Y189D01*
X2260Y188D02*
X2353Y188D01*
X2560Y188D02*
X2653Y188D01*
X2261Y187D02*
X2352Y187D01*
X2561Y187D02*
X2652Y187D01*
X2262Y186D02*
X2351Y186D01*
X2562Y186D02*
X2651Y186D01*
X2264Y185D02*
X2350Y185D01*
X2564Y185D02*
X2650Y185D01*
X2265Y184D02*
X2348Y184D01*
X2565Y184D02*
X2648Y184D01*
X2267Y183D02*
X2346Y183D01*
X2567Y183D02*
X2646Y183D01*
X2269Y182D02*
X2344Y182D01*
X2569Y182D02*
X2644Y182D01*
X2272Y181D02*
X2341Y181D01*
X2572Y181D02*
X2641Y181D01*
X2277Y180D02*
X2337Y180D01*
X2576Y180D02*
X2637Y180D01*
D02*
G04 End of Mask0*
M02*