G04 MADE WITH FRITZING*
G04 WWW.FRITZING.ORG*
G04 DOUBLE SIDED*
G04 HOLES PLATED*
G04 CONTOUR ON CENTER OF CONTOUR VECTOR*
%ASAXBY*%
%FSLAX23Y23*%
%MOIN*%
%OFA0B0*%
%SFA1.0B1.0*%
%ADD10R,0.015000X0.040000*%
%ADD11C,0.010000*%
%ADD12C,0.008000*%
%ADD13C,0.005000*%
%ADD14R,0.001000X0.001000*%
%LNSILK1*%
G90*
G70*
G54D10*
X2450Y209D03*
X2425Y209D03*
X2400Y209D03*
X2450Y309D03*
X2425Y309D03*
X2400Y309D03*
G54D11*
X2257Y359D02*
X2157Y359D01*
D02*
X2157Y359D02*
X2157Y159D01*
D02*
X2157Y159D02*
X2257Y159D01*
G54D12*
D02*
X2652Y389D02*
X2522Y389D01*
D02*
X2392Y389D02*
X2392Y369D01*
D02*
X2392Y369D02*
X2522Y369D01*
D02*
X2522Y369D02*
X2522Y389D01*
D02*
X2392Y389D02*
X2262Y389D01*
D02*
X2522Y389D02*
X2392Y389D01*
D02*
X2262Y129D02*
X2392Y129D01*
D02*
X2522Y129D02*
X2522Y149D01*
D02*
X2522Y149D02*
X2392Y149D01*
D02*
X2392Y149D02*
X2392Y129D01*
D02*
X2522Y129D02*
X2652Y129D01*
D02*
X2392Y129D02*
X2522Y129D01*
D02*
X2532Y239D02*
X2382Y239D01*
D02*
X2532Y239D02*
X2532Y179D01*
D02*
X2382Y179D02*
X2532Y179D01*
D02*
X2382Y179D02*
X2382Y239D01*
D02*
X2532Y339D02*
X2382Y339D01*
D02*
X2532Y339D02*
X2532Y279D01*
D02*
X2382Y279D02*
X2532Y279D01*
D02*
X2382Y279D02*
X2382Y339D01*
G54D11*
D02*
X857Y459D02*
X857Y59D01*
D02*
X857Y59D02*
X957Y59D01*
D02*
X957Y59D02*
X957Y459D01*
D02*
X957Y459D02*
X857Y459D01*
D02*
X1957Y459D02*
X1957Y59D01*
D02*
X1957Y59D02*
X2057Y59D01*
D02*
X2057Y59D02*
X2057Y459D01*
D02*
X2057Y459D02*
X1957Y459D01*
D02*
X1882Y59D02*
X1882Y359D01*
D02*
X1882Y359D02*
X1782Y359D01*
D02*
X1782Y359D02*
X1782Y59D01*
D02*
X1782Y59D02*
X1882Y59D01*
D02*
X290Y384D02*
X32Y384D01*
D02*
X32Y384D02*
X32Y284D01*
D02*
X32Y284D02*
X290Y284D01*
D02*
X290Y284D02*
X290Y384D01*
G54D13*
D02*
X255Y384D02*
X290Y349D01*
G54D11*
D02*
X290Y209D02*
X32Y209D01*
D02*
X32Y209D02*
X32Y109D01*
D02*
X32Y109D02*
X290Y109D01*
D02*
X290Y109D02*
X290Y209D01*
G54D13*
D02*
X255Y209D02*
X290Y174D01*
G54D11*
D02*
X607Y209D02*
X407Y209D01*
D02*
X407Y209D02*
X407Y109D01*
D02*
X407Y109D02*
X607Y109D01*
D02*
X607Y109D02*
X607Y209D01*
D02*
X607Y409D02*
X407Y409D01*
D02*
X407Y409D02*
X407Y309D01*
D02*
X407Y309D02*
X607Y309D01*
D02*
X607Y309D02*
X607Y409D01*
G36*
X2260Y116D02*
X2260Y113D01*
X2667Y113D01*
X2667Y116D01*
X2260Y116D01*
G37*
D02*
G36*
X2260Y116D02*
X2260Y113D01*
X2667Y113D01*
X2667Y116D01*
X2260Y116D01*
G37*
D02*
G36*
X2260Y113D02*
X2260Y106D01*
X2264Y106D01*
X2264Y103D01*
X2664Y103D01*
X2664Y106D01*
X2667Y106D01*
X2667Y113D01*
X2260Y113D01*
G37*
D02*
G36*
X20Y386D02*
X20Y383D01*
X17Y383D01*
X17Y373D01*
X294Y373D01*
X294Y110D01*
X304Y110D01*
X304Y383D01*
X300Y383D01*
X300Y386D01*
X20Y386D01*
G37*
D02*
G36*
X17Y373D02*
X17Y110D01*
X27Y110D01*
X27Y373D01*
X17Y373D01*
G37*
D02*
G36*
X17Y110D02*
X17Y106D01*
X304Y106D01*
X304Y110D01*
X17Y110D01*
G37*
D02*
G36*
X17Y110D02*
X17Y106D01*
X304Y106D01*
X304Y110D01*
X17Y110D01*
G37*
D02*
G36*
X17Y106D02*
X17Y100D01*
X304Y100D01*
X304Y106D01*
X17Y106D01*
G37*
D02*
G54D14*
X0Y512D02*
X2676Y512D01*
X0Y511D02*
X2676Y511D01*
X0Y510D02*
X2676Y510D01*
X0Y509D02*
X2676Y509D01*
X0Y508D02*
X2676Y508D01*
X0Y507D02*
X2676Y507D01*
X0Y506D02*
X2676Y506D01*
X0Y505D02*
X2676Y505D01*
X0Y504D02*
X7Y504D01*
X640Y504D02*
X648Y504D01*
X656Y504D02*
X662Y504D01*
X667Y504D02*
X675Y504D01*
X877Y504D02*
X883Y504D01*
X900Y504D02*
X906Y504D01*
X924Y504D02*
X930Y504D01*
X2669Y504D02*
X2676Y504D01*
X0Y503D02*
X7Y503D01*
X641Y503D02*
X674Y503D01*
X877Y503D02*
X883Y503D01*
X900Y503D02*
X906Y503D01*
X924Y503D02*
X930Y503D01*
X2669Y503D02*
X2676Y503D01*
X0Y502D02*
X7Y502D01*
X641Y502D02*
X674Y502D01*
X877Y502D02*
X883Y502D01*
X900Y502D02*
X906Y502D01*
X924Y502D02*
X930Y502D01*
X2669Y502D02*
X2676Y502D01*
X0Y501D02*
X7Y501D01*
X642Y501D02*
X673Y501D01*
X877Y501D02*
X883Y501D01*
X900Y501D02*
X906Y501D01*
X924Y501D02*
X930Y501D01*
X2669Y501D02*
X2676Y501D01*
X0Y500D02*
X7Y500D01*
X643Y500D02*
X672Y500D01*
X877Y500D02*
X883Y500D01*
X900Y500D02*
X906Y500D01*
X924Y500D02*
X930Y500D01*
X2669Y500D02*
X2676Y500D01*
X0Y499D02*
X7Y499D01*
X644Y499D02*
X671Y499D01*
X877Y499D02*
X883Y499D01*
X900Y499D02*
X906Y499D01*
X924Y499D02*
X930Y499D01*
X2669Y499D02*
X2676Y499D01*
X0Y498D02*
X7Y498D01*
X646Y498D02*
X669Y498D01*
X877Y498D02*
X883Y498D01*
X900Y498D02*
X906Y498D01*
X924Y498D02*
X930Y498D01*
X2669Y498D02*
X2676Y498D01*
X0Y497D02*
X7Y497D01*
X648Y497D02*
X667Y497D01*
X877Y497D02*
X883Y497D01*
X900Y497D02*
X906Y497D01*
X924Y497D02*
X930Y497D01*
X2669Y497D02*
X2676Y497D01*
X0Y496D02*
X7Y496D01*
X877Y496D02*
X883Y496D01*
X900Y496D02*
X906Y496D01*
X924Y496D02*
X930Y496D01*
X2669Y496D02*
X2676Y496D01*
X0Y495D02*
X7Y495D01*
X877Y495D02*
X883Y495D01*
X900Y495D02*
X906Y495D01*
X924Y495D02*
X930Y495D01*
X2669Y495D02*
X2676Y495D01*
X0Y494D02*
X7Y494D01*
X877Y494D02*
X883Y494D01*
X900Y494D02*
X906Y494D01*
X924Y494D02*
X930Y494D01*
X2669Y494D02*
X2676Y494D01*
X0Y493D02*
X7Y493D01*
X877Y493D02*
X883Y493D01*
X900Y493D02*
X906Y493D01*
X924Y493D02*
X930Y493D01*
X2669Y493D02*
X2676Y493D01*
X0Y492D02*
X7Y492D01*
X877Y492D02*
X883Y492D01*
X900Y492D02*
X906Y492D01*
X924Y492D02*
X930Y492D01*
X2669Y492D02*
X2676Y492D01*
X0Y491D02*
X7Y491D01*
X877Y491D02*
X883Y491D01*
X900Y491D02*
X907Y491D01*
X924Y491D02*
X930Y491D01*
X2669Y491D02*
X2676Y491D01*
X0Y490D02*
X7Y490D01*
X877Y490D02*
X930Y490D01*
X2669Y490D02*
X2676Y490D01*
X0Y489D02*
X7Y489D01*
X877Y489D02*
X930Y489D01*
X2669Y489D02*
X2676Y489D01*
X0Y488D02*
X7Y488D01*
X877Y488D02*
X930Y488D01*
X2669Y488D02*
X2676Y488D01*
X0Y487D02*
X7Y487D01*
X877Y487D02*
X930Y487D01*
X2669Y487D02*
X2676Y487D01*
X0Y486D02*
X7Y486D01*
X877Y486D02*
X930Y486D01*
X2669Y486D02*
X2676Y486D01*
X0Y485D02*
X7Y485D01*
X877Y485D02*
X930Y485D01*
X2669Y485D02*
X2676Y485D01*
X0Y484D02*
X7Y484D01*
X877Y484D02*
X930Y484D01*
X2669Y484D02*
X2676Y484D01*
X0Y483D02*
X7Y483D01*
X2669Y483D02*
X2676Y483D01*
X0Y482D02*
X7Y482D01*
X2669Y482D02*
X2676Y482D01*
X0Y481D02*
X7Y481D01*
X667Y481D02*
X668Y481D01*
X2669Y481D02*
X2676Y481D01*
X0Y480D02*
X7Y480D01*
X666Y480D02*
X671Y480D01*
X2669Y480D02*
X2676Y480D01*
X0Y479D02*
X7Y479D01*
X665Y479D02*
X673Y479D01*
X2669Y479D02*
X2676Y479D01*
X0Y478D02*
X7Y478D01*
X665Y478D02*
X674Y478D01*
X2669Y478D02*
X2676Y478D01*
X0Y477D02*
X7Y477D01*
X640Y477D02*
X643Y477D01*
X665Y477D02*
X674Y477D01*
X2669Y477D02*
X2676Y477D01*
X0Y476D02*
X7Y476D01*
X639Y476D02*
X644Y476D01*
X665Y476D02*
X675Y476D01*
X2669Y476D02*
X2676Y476D01*
X0Y475D02*
X7Y475D01*
X638Y475D02*
X644Y475D01*
X666Y475D02*
X676Y475D01*
X2669Y475D02*
X2676Y475D01*
X0Y474D02*
X7Y474D01*
X638Y474D02*
X644Y474D01*
X668Y474D02*
X676Y474D01*
X2669Y474D02*
X2676Y474D01*
X0Y473D02*
X7Y473D01*
X638Y473D02*
X644Y473D01*
X670Y473D02*
X676Y473D01*
X2669Y473D02*
X2676Y473D01*
X0Y472D02*
X7Y472D01*
X638Y472D02*
X644Y472D01*
X670Y472D02*
X677Y472D01*
X2669Y472D02*
X2676Y472D01*
X0Y471D02*
X7Y471D01*
X638Y471D02*
X644Y471D01*
X671Y471D02*
X677Y471D01*
X2669Y471D02*
X2676Y471D01*
X0Y470D02*
X7Y470D01*
X638Y470D02*
X644Y470D01*
X671Y470D02*
X677Y470D01*
X2669Y470D02*
X2676Y470D01*
X0Y469D02*
X7Y469D01*
X638Y469D02*
X644Y469D01*
X671Y469D02*
X677Y469D01*
X2669Y469D02*
X2676Y469D01*
X0Y468D02*
X7Y468D01*
X638Y468D02*
X644Y468D01*
X671Y468D02*
X677Y468D01*
X2669Y468D02*
X2676Y468D01*
X0Y467D02*
X7Y467D01*
X638Y467D02*
X644Y467D01*
X671Y467D02*
X677Y467D01*
X2669Y467D02*
X2676Y467D01*
X0Y466D02*
X7Y466D01*
X638Y466D02*
X644Y466D01*
X671Y466D02*
X677Y466D01*
X2669Y466D02*
X2676Y466D01*
X0Y465D02*
X7Y465D01*
X638Y465D02*
X644Y465D01*
X671Y465D02*
X677Y465D01*
X2669Y465D02*
X2676Y465D01*
X0Y464D02*
X7Y464D01*
X638Y464D02*
X644Y464D01*
X671Y464D02*
X677Y464D01*
X2669Y464D02*
X2676Y464D01*
X0Y463D02*
X7Y463D01*
X638Y463D02*
X644Y463D01*
X671Y463D02*
X677Y463D01*
X2669Y463D02*
X2676Y463D01*
X0Y462D02*
X7Y462D01*
X638Y462D02*
X644Y462D01*
X670Y462D02*
X677Y462D01*
X2669Y462D02*
X2676Y462D01*
X0Y461D02*
X7Y461D01*
X638Y461D02*
X644Y461D01*
X669Y461D02*
X676Y461D01*
X890Y461D02*
X890Y461D01*
X1990Y461D02*
X1990Y461D01*
X2669Y461D02*
X2676Y461D01*
X0Y460D02*
X7Y460D01*
X628Y460D02*
X676Y460D01*
X889Y460D02*
X891Y460D01*
X1989Y460D02*
X1991Y460D01*
X2669Y460D02*
X2676Y460D01*
X0Y459D02*
X7Y459D01*
X627Y459D02*
X675Y459D01*
X888Y459D02*
X892Y459D01*
X1988Y459D02*
X1992Y459D01*
X2669Y459D02*
X2676Y459D01*
X0Y458D02*
X7Y458D01*
X627Y458D02*
X675Y458D01*
X887Y458D02*
X893Y458D01*
X1987Y458D02*
X1993Y458D01*
X2669Y458D02*
X2676Y458D01*
X0Y457D02*
X7Y457D01*
X626Y457D02*
X674Y457D01*
X886Y457D02*
X892Y457D01*
X1986Y457D02*
X1992Y457D01*
X2669Y457D02*
X2676Y457D01*
X0Y456D02*
X7Y456D01*
X627Y456D02*
X673Y456D01*
X885Y456D02*
X891Y456D01*
X1985Y456D02*
X1991Y456D01*
X2669Y456D02*
X2676Y456D01*
X0Y455D02*
X7Y455D01*
X627Y455D02*
X672Y455D01*
X884Y455D02*
X890Y455D01*
X1984Y455D02*
X1990Y455D01*
X2669Y455D02*
X2676Y455D01*
X0Y454D02*
X7Y454D01*
X628Y454D02*
X669Y454D01*
X883Y454D02*
X889Y454D01*
X1983Y454D02*
X1989Y454D01*
X2669Y454D02*
X2676Y454D01*
X0Y453D02*
X7Y453D01*
X638Y453D02*
X644Y453D01*
X882Y453D02*
X888Y453D01*
X1982Y453D02*
X1988Y453D01*
X2669Y453D02*
X2676Y453D01*
X0Y452D02*
X7Y452D01*
X638Y452D02*
X644Y452D01*
X881Y452D02*
X887Y452D01*
X1981Y452D02*
X1987Y452D01*
X2669Y452D02*
X2676Y452D01*
X0Y451D02*
X7Y451D01*
X638Y451D02*
X644Y451D01*
X880Y451D02*
X886Y451D01*
X1980Y451D02*
X1986Y451D01*
X2669Y451D02*
X2676Y451D01*
X0Y450D02*
X7Y450D01*
X638Y450D02*
X644Y450D01*
X879Y450D02*
X885Y450D01*
X1979Y450D02*
X1985Y450D01*
X2669Y450D02*
X2676Y450D01*
X0Y449D02*
X7Y449D01*
X638Y449D02*
X644Y449D01*
X878Y449D02*
X884Y449D01*
X1978Y449D02*
X1984Y449D01*
X2669Y449D02*
X2676Y449D01*
X0Y448D02*
X7Y448D01*
X639Y448D02*
X643Y448D01*
X877Y448D02*
X883Y448D01*
X1977Y448D02*
X1983Y448D01*
X2669Y448D02*
X2676Y448D01*
X0Y447D02*
X7Y447D01*
X640Y447D02*
X642Y447D01*
X876Y447D02*
X882Y447D01*
X1976Y447D02*
X1982Y447D01*
X2669Y447D02*
X2676Y447D01*
X0Y446D02*
X7Y446D01*
X875Y446D02*
X881Y446D01*
X1975Y446D02*
X1981Y446D01*
X2669Y446D02*
X2676Y446D01*
X0Y445D02*
X7Y445D01*
X874Y445D02*
X880Y445D01*
X1974Y445D02*
X1979Y445D01*
X2669Y445D02*
X2676Y445D01*
X0Y444D02*
X7Y444D01*
X873Y444D02*
X878Y444D01*
X1973Y444D02*
X1978Y444D01*
X2669Y444D02*
X2676Y444D01*
X0Y443D02*
X7Y443D01*
X872Y443D02*
X877Y443D01*
X1972Y443D02*
X1977Y443D01*
X2669Y443D02*
X2676Y443D01*
X0Y442D02*
X7Y442D01*
X871Y442D02*
X876Y442D01*
X1971Y442D02*
X1976Y442D01*
X2669Y442D02*
X2676Y442D01*
X0Y441D02*
X7Y441D01*
X870Y441D02*
X875Y441D01*
X1970Y441D02*
X1975Y441D01*
X2669Y441D02*
X2676Y441D01*
X0Y440D02*
X7Y440D01*
X869Y440D02*
X874Y440D01*
X1968Y440D02*
X1974Y440D01*
X2669Y440D02*
X2676Y440D01*
X0Y439D02*
X7Y439D01*
X868Y439D02*
X873Y439D01*
X1967Y439D02*
X1973Y439D01*
X2669Y439D02*
X2676Y439D01*
X0Y438D02*
X7Y438D01*
X867Y438D02*
X872Y438D01*
X1966Y438D02*
X1972Y438D01*
X2669Y438D02*
X2676Y438D01*
X0Y437D02*
X7Y437D01*
X866Y437D02*
X872Y437D01*
X1965Y437D02*
X1971Y437D01*
X2669Y437D02*
X2676Y437D01*
X0Y436D02*
X7Y436D01*
X865Y436D02*
X871Y436D01*
X1964Y436D02*
X1971Y436D01*
X2669Y436D02*
X2676Y436D01*
X0Y435D02*
X7Y435D01*
X864Y435D02*
X870Y435D01*
X1963Y435D02*
X1970Y435D01*
X2669Y435D02*
X2676Y435D01*
X0Y434D02*
X7Y434D01*
X863Y434D02*
X869Y434D01*
X1962Y434D02*
X1969Y434D01*
X2669Y434D02*
X2676Y434D01*
X0Y433D02*
X7Y433D01*
X862Y433D02*
X868Y433D01*
X1961Y433D02*
X1968Y433D01*
X2669Y433D02*
X2676Y433D01*
X0Y432D02*
X7Y432D01*
X861Y432D02*
X867Y432D01*
X1960Y432D02*
X1967Y432D01*
X2669Y432D02*
X2676Y432D01*
X0Y431D02*
X7Y431D01*
X667Y431D02*
X669Y431D01*
X860Y431D02*
X866Y431D01*
X1959Y431D02*
X1966Y431D01*
X2669Y431D02*
X2676Y431D01*
X0Y430D02*
X7Y430D01*
X666Y430D02*
X671Y430D01*
X859Y430D02*
X865Y430D01*
X1958Y430D02*
X1965Y430D01*
X2669Y430D02*
X2676Y430D01*
X0Y429D02*
X7Y429D01*
X665Y429D02*
X673Y429D01*
X858Y429D02*
X864Y429D01*
X1957Y429D02*
X1964Y429D01*
X2669Y429D02*
X2676Y429D01*
X0Y428D02*
X7Y428D01*
X665Y428D02*
X674Y428D01*
X857Y428D02*
X863Y428D01*
X1956Y428D02*
X1963Y428D01*
X2669Y428D02*
X2676Y428D01*
X0Y427D02*
X7Y427D01*
X640Y427D02*
X643Y427D01*
X665Y427D02*
X675Y427D01*
X856Y427D02*
X862Y427D01*
X1956Y427D02*
X1962Y427D01*
X2669Y427D02*
X2676Y427D01*
X0Y426D02*
X7Y426D01*
X639Y426D02*
X644Y426D01*
X665Y426D02*
X675Y426D01*
X856Y426D02*
X861Y426D01*
X1956Y426D02*
X1961Y426D01*
X2669Y426D02*
X2676Y426D01*
X0Y425D02*
X7Y425D01*
X638Y425D02*
X644Y425D01*
X666Y425D02*
X676Y425D01*
X857Y425D02*
X860Y425D01*
X1957Y425D02*
X1960Y425D01*
X2669Y425D02*
X2676Y425D01*
X0Y424D02*
X7Y424D01*
X638Y424D02*
X644Y424D01*
X668Y424D02*
X676Y424D01*
X858Y424D02*
X859Y424D01*
X1958Y424D02*
X1959Y424D01*
X2669Y424D02*
X2676Y424D01*
X0Y423D02*
X7Y423D01*
X638Y423D02*
X644Y423D01*
X670Y423D02*
X676Y423D01*
X2669Y423D02*
X2676Y423D01*
X0Y422D02*
X7Y422D01*
X638Y422D02*
X644Y422D01*
X670Y422D02*
X677Y422D01*
X2669Y422D02*
X2676Y422D01*
X0Y421D02*
X7Y421D01*
X638Y421D02*
X644Y421D01*
X671Y421D02*
X677Y421D01*
X2669Y421D02*
X2676Y421D01*
X0Y420D02*
X7Y420D01*
X638Y420D02*
X644Y420D01*
X671Y420D02*
X677Y420D01*
X2669Y420D02*
X2676Y420D01*
X0Y419D02*
X7Y419D01*
X638Y419D02*
X644Y419D01*
X671Y419D02*
X677Y419D01*
X2669Y419D02*
X2676Y419D01*
X0Y418D02*
X7Y418D01*
X638Y418D02*
X644Y418D01*
X671Y418D02*
X677Y418D01*
X2669Y418D02*
X2676Y418D01*
X0Y417D02*
X7Y417D01*
X638Y417D02*
X644Y417D01*
X671Y417D02*
X677Y417D01*
X2669Y417D02*
X2676Y417D01*
X0Y416D02*
X7Y416D01*
X638Y416D02*
X644Y416D01*
X671Y416D02*
X677Y416D01*
X2669Y416D02*
X2676Y416D01*
X0Y415D02*
X7Y415D01*
X638Y415D02*
X644Y415D01*
X671Y415D02*
X677Y415D01*
X2669Y415D02*
X2676Y415D01*
X0Y414D02*
X7Y414D01*
X638Y414D02*
X644Y414D01*
X671Y414D02*
X677Y414D01*
X2669Y414D02*
X2676Y414D01*
X0Y413D02*
X7Y413D01*
X638Y413D02*
X644Y413D01*
X671Y413D02*
X677Y413D01*
X2669Y413D02*
X2676Y413D01*
X0Y412D02*
X7Y412D01*
X638Y412D02*
X644Y412D01*
X670Y412D02*
X677Y412D01*
X2669Y412D02*
X2676Y412D01*
X0Y411D02*
X7Y411D01*
X573Y411D02*
X574Y411D01*
X638Y411D02*
X644Y411D01*
X669Y411D02*
X676Y411D01*
X2669Y411D02*
X2676Y411D01*
X0Y410D02*
X7Y410D01*
X572Y410D02*
X575Y410D01*
X628Y410D02*
X676Y410D01*
X2264Y410D02*
X2666Y410D01*
X2669Y410D02*
X2676Y410D01*
X0Y409D02*
X7Y409D01*
X571Y409D02*
X576Y409D01*
X627Y409D02*
X675Y409D01*
X2263Y409D02*
X2666Y409D01*
X2669Y409D02*
X2676Y409D01*
X0Y408D02*
X7Y408D01*
X571Y408D02*
X577Y408D01*
X627Y408D02*
X675Y408D01*
X2263Y408D02*
X2666Y408D01*
X2669Y408D02*
X2676Y408D01*
X0Y407D02*
X7Y407D01*
X572Y407D02*
X578Y407D01*
X626Y407D02*
X674Y407D01*
X2260Y407D02*
X2666Y407D01*
X2669Y407D02*
X2676Y407D01*
X0Y406D02*
X7Y406D01*
X573Y406D02*
X579Y406D01*
X627Y406D02*
X673Y406D01*
X2260Y406D02*
X2666Y406D01*
X2669Y406D02*
X2676Y406D01*
X0Y405D02*
X7Y405D01*
X574Y405D02*
X580Y405D01*
X627Y405D02*
X671Y405D01*
X2260Y405D02*
X2666Y405D01*
X2669Y405D02*
X2676Y405D01*
X0Y404D02*
X7Y404D01*
X575Y404D02*
X581Y404D01*
X628Y404D02*
X669Y404D01*
X2260Y404D02*
X2666Y404D01*
X2669Y404D02*
X2676Y404D01*
X0Y403D02*
X7Y403D01*
X576Y403D02*
X582Y403D01*
X638Y403D02*
X644Y403D01*
X2260Y403D02*
X2666Y403D01*
X2669Y403D02*
X2676Y403D01*
X0Y402D02*
X7Y402D01*
X577Y402D02*
X583Y402D01*
X638Y402D02*
X644Y402D01*
X2260Y402D02*
X2666Y402D01*
X2669Y402D02*
X2676Y402D01*
X0Y401D02*
X7Y401D01*
X578Y401D02*
X584Y401D01*
X638Y401D02*
X644Y401D01*
X2260Y401D02*
X2666Y401D01*
X2669Y401D02*
X2676Y401D01*
X0Y400D02*
X7Y400D01*
X579Y400D02*
X585Y400D01*
X638Y400D02*
X644Y400D01*
X2260Y400D02*
X2272Y400D01*
X2657Y400D02*
X2666Y400D01*
X2669Y400D02*
X2676Y400D01*
X0Y399D02*
X7Y399D01*
X580Y399D02*
X586Y399D01*
X639Y399D02*
X644Y399D01*
X2260Y399D02*
X2272Y399D01*
X2657Y399D02*
X2666Y399D01*
X2669Y399D02*
X2676Y399D01*
X0Y398D02*
X7Y398D01*
X581Y398D02*
X587Y398D01*
X639Y398D02*
X643Y398D01*
X2260Y398D02*
X2272Y398D01*
X2657Y398D02*
X2666Y398D01*
X2669Y398D02*
X2676Y398D01*
X0Y397D02*
X7Y397D01*
X582Y397D02*
X588Y397D01*
X640Y397D02*
X642Y397D01*
X2260Y397D02*
X2272Y397D01*
X2657Y397D02*
X2666Y397D01*
X2669Y397D02*
X2676Y397D01*
X0Y396D02*
X7Y396D01*
X583Y396D02*
X589Y396D01*
X2260Y396D02*
X2272Y396D01*
X2657Y396D02*
X2666Y396D01*
X2669Y396D02*
X2676Y396D01*
X0Y395D02*
X7Y395D01*
X584Y395D02*
X590Y395D01*
X2260Y395D02*
X2272Y395D01*
X2657Y395D02*
X2666Y395D01*
X2669Y395D02*
X2676Y395D01*
X0Y394D02*
X7Y394D01*
X585Y394D02*
X591Y394D01*
X2260Y394D02*
X2272Y394D01*
X2651Y394D02*
X2652Y394D01*
X2657Y394D02*
X2666Y394D01*
X2669Y394D02*
X2676Y394D01*
X0Y393D02*
X7Y393D01*
X587Y393D02*
X592Y393D01*
X2259Y393D02*
X2272Y393D01*
X2649Y393D02*
X2654Y393D01*
X2657Y393D02*
X2666Y393D01*
X2669Y393D02*
X2676Y393D01*
X0Y392D02*
X7Y392D01*
X588Y392D02*
X593Y392D01*
X2259Y392D02*
X2272Y392D01*
X2649Y392D02*
X2655Y392D01*
X2657Y392D02*
X2666Y392D01*
X2669Y392D02*
X2676Y392D01*
X0Y391D02*
X7Y391D01*
X589Y391D02*
X594Y391D01*
X2258Y391D02*
X2272Y391D01*
X2648Y391D02*
X2655Y391D01*
X2657Y391D02*
X2666Y391D01*
X2669Y391D02*
X2676Y391D01*
X0Y390D02*
X7Y390D01*
X590Y390D02*
X595Y390D01*
X2258Y390D02*
X2272Y390D01*
X2648Y390D02*
X2655Y390D01*
X2657Y390D02*
X2666Y390D01*
X2669Y390D02*
X2676Y390D01*
X0Y389D02*
X7Y389D01*
X591Y389D02*
X596Y389D01*
X2258Y389D02*
X2272Y389D01*
X2648Y389D02*
X2655Y389D01*
X2657Y389D02*
X2666Y389D01*
X2669Y389D02*
X2676Y389D01*
X0Y388D02*
X7Y388D01*
X591Y388D02*
X597Y388D01*
X2258Y388D02*
X2272Y388D01*
X2648Y388D02*
X2655Y388D01*
X2657Y388D02*
X2666Y388D01*
X2669Y388D02*
X2676Y388D01*
X0Y387D02*
X7Y387D01*
X592Y387D02*
X598Y387D01*
X2258Y387D02*
X2272Y387D01*
X2648Y387D02*
X2655Y387D01*
X2657Y387D02*
X2666Y387D01*
X2669Y387D02*
X2676Y387D01*
X0Y386D02*
X7Y386D01*
X593Y386D02*
X599Y386D01*
X2258Y386D02*
X2272Y386D01*
X2648Y386D02*
X2655Y386D01*
X2657Y386D02*
X2666Y386D01*
X2669Y386D02*
X2676Y386D01*
X0Y385D02*
X7Y385D01*
X594Y385D02*
X600Y385D01*
X2258Y385D02*
X2272Y385D01*
X2648Y385D02*
X2655Y385D01*
X2657Y385D02*
X2666Y385D01*
X2669Y385D02*
X2676Y385D01*
X0Y384D02*
X7Y384D01*
X595Y384D02*
X601Y384D01*
X2258Y384D02*
X2272Y384D01*
X2648Y384D02*
X2655Y384D01*
X2657Y384D02*
X2666Y384D01*
X2669Y384D02*
X2676Y384D01*
X0Y383D02*
X7Y383D01*
X596Y383D02*
X602Y383D01*
X2258Y383D02*
X2272Y383D01*
X2648Y383D02*
X2655Y383D01*
X2657Y383D02*
X2666Y383D01*
X2669Y383D02*
X2676Y383D01*
X0Y382D02*
X7Y382D01*
X597Y382D02*
X603Y382D01*
X2258Y382D02*
X2272Y382D01*
X2648Y382D02*
X2655Y382D01*
X2657Y382D02*
X2666Y382D01*
X2669Y382D02*
X2676Y382D01*
X0Y381D02*
X7Y381D01*
X598Y381D02*
X604Y381D01*
X665Y381D02*
X675Y381D01*
X2258Y381D02*
X2272Y381D01*
X2648Y381D02*
X2655Y381D01*
X2657Y381D02*
X2666Y381D01*
X2669Y381D02*
X2676Y381D01*
X0Y380D02*
X7Y380D01*
X599Y380D02*
X605Y380D01*
X646Y380D02*
X676Y380D01*
X2258Y380D02*
X2272Y380D01*
X2648Y380D02*
X2655Y380D01*
X2657Y380D02*
X2666Y380D01*
X2669Y380D02*
X2676Y380D01*
X0Y379D02*
X7Y379D01*
X600Y379D02*
X606Y379D01*
X643Y379D02*
X676Y379D01*
X2258Y379D02*
X2272Y379D01*
X2648Y379D02*
X2655Y379D01*
X2657Y379D02*
X2666Y379D01*
X2669Y379D02*
X2676Y379D01*
X0Y378D02*
X7Y378D01*
X601Y378D02*
X607Y378D01*
X642Y378D02*
X677Y378D01*
X2258Y378D02*
X2272Y378D01*
X2648Y378D02*
X2655Y378D01*
X2657Y378D02*
X2666Y378D01*
X2669Y378D02*
X2676Y378D01*
X0Y377D02*
X7Y377D01*
X602Y377D02*
X608Y377D01*
X641Y377D02*
X677Y377D01*
X2258Y377D02*
X2272Y377D01*
X2648Y377D02*
X2655Y377D01*
X2657Y377D02*
X2666Y377D01*
X2669Y377D02*
X2676Y377D01*
X0Y376D02*
X7Y376D01*
X603Y376D02*
X607Y376D01*
X640Y376D02*
X676Y376D01*
X2258Y376D02*
X2272Y376D01*
X2648Y376D02*
X2655Y376D01*
X2657Y376D02*
X2666Y376D01*
X2669Y376D02*
X2676Y376D01*
X0Y375D02*
X7Y375D01*
X604Y375D02*
X606Y375D01*
X640Y375D02*
X675Y375D01*
X2258Y375D02*
X2272Y375D01*
X2648Y375D02*
X2655Y375D01*
X2657Y375D02*
X2666Y375D01*
X2669Y375D02*
X2676Y375D01*
X0Y374D02*
X7Y374D01*
X605Y374D02*
X605Y374D01*
X639Y374D02*
X674Y374D01*
X2258Y374D02*
X2272Y374D01*
X2648Y374D02*
X2655Y374D01*
X2657Y374D02*
X2666Y374D01*
X2669Y374D02*
X2676Y374D01*
X0Y373D02*
X7Y373D01*
X639Y373D02*
X646Y373D01*
X653Y373D02*
X660Y373D01*
X667Y373D02*
X674Y373D01*
X2258Y373D02*
X2272Y373D01*
X2648Y373D02*
X2655Y373D01*
X2657Y373D02*
X2666Y373D01*
X2669Y373D02*
X2676Y373D01*
X0Y372D02*
X7Y372D01*
X638Y372D02*
X645Y372D01*
X653Y372D02*
X659Y372D01*
X667Y372D02*
X675Y372D01*
X2258Y372D02*
X2272Y372D01*
X2648Y372D02*
X2655Y372D01*
X2657Y372D02*
X2666Y372D01*
X2669Y372D02*
X2676Y372D01*
X0Y371D02*
X7Y371D01*
X638Y371D02*
X644Y371D01*
X653Y371D02*
X659Y371D01*
X668Y371D02*
X675Y371D01*
X2258Y371D02*
X2272Y371D01*
X2648Y371D02*
X2655Y371D01*
X2657Y371D02*
X2666Y371D01*
X2669Y371D02*
X2676Y371D01*
X0Y370D02*
X7Y370D01*
X638Y370D02*
X644Y370D01*
X653Y370D02*
X659Y370D01*
X669Y370D02*
X676Y370D01*
X2258Y370D02*
X2272Y370D01*
X2648Y370D02*
X2655Y370D01*
X2657Y370D02*
X2666Y370D01*
X2669Y370D02*
X2676Y370D01*
X0Y369D02*
X7Y369D01*
X638Y369D02*
X644Y369D01*
X653Y369D02*
X659Y369D01*
X669Y369D02*
X676Y369D01*
X2258Y369D02*
X2272Y369D01*
X2648Y369D02*
X2655Y369D01*
X2657Y369D02*
X2666Y369D01*
X2669Y369D02*
X2676Y369D01*
X0Y368D02*
X7Y368D01*
X638Y368D02*
X644Y368D01*
X653Y368D02*
X659Y368D01*
X670Y368D02*
X677Y368D01*
X2258Y368D02*
X2272Y368D01*
X2648Y368D02*
X2655Y368D01*
X2657Y368D02*
X2666Y368D01*
X2669Y368D02*
X2676Y368D01*
X0Y367D02*
X7Y367D01*
X638Y367D02*
X644Y367D01*
X653Y367D02*
X659Y367D01*
X670Y367D02*
X677Y367D01*
X2258Y367D02*
X2272Y367D01*
X2648Y367D02*
X2655Y367D01*
X2657Y367D02*
X2666Y367D01*
X2669Y367D02*
X2676Y367D01*
X0Y366D02*
X7Y366D01*
X638Y366D02*
X644Y366D01*
X653Y366D02*
X659Y366D01*
X671Y366D02*
X677Y366D01*
X2258Y366D02*
X2272Y366D01*
X2648Y366D02*
X2655Y366D01*
X2657Y366D02*
X2666Y366D01*
X2669Y366D02*
X2676Y366D01*
X0Y365D02*
X7Y365D01*
X638Y365D02*
X644Y365D01*
X653Y365D02*
X659Y365D01*
X671Y365D02*
X677Y365D01*
X2258Y365D02*
X2272Y365D01*
X2648Y365D02*
X2655Y365D01*
X2657Y365D02*
X2666Y365D01*
X2669Y365D02*
X2676Y365D01*
X0Y364D02*
X7Y364D01*
X638Y364D02*
X644Y364D01*
X653Y364D02*
X659Y364D01*
X671Y364D02*
X677Y364D01*
X2258Y364D02*
X2272Y364D01*
X2648Y364D02*
X2655Y364D01*
X2657Y364D02*
X2666Y364D01*
X2669Y364D02*
X2676Y364D01*
X0Y363D02*
X7Y363D01*
X638Y363D02*
X644Y363D01*
X653Y363D02*
X659Y363D01*
X671Y363D02*
X677Y363D01*
X2258Y363D02*
X2272Y363D01*
X2648Y363D02*
X2655Y363D01*
X2657Y363D02*
X2666Y363D01*
X2669Y363D02*
X2676Y363D01*
X0Y362D02*
X7Y362D01*
X638Y362D02*
X644Y362D01*
X653Y362D02*
X659Y362D01*
X671Y362D02*
X677Y362D01*
X2258Y362D02*
X2272Y362D01*
X2648Y362D02*
X2655Y362D01*
X2657Y362D02*
X2666Y362D01*
X2669Y362D02*
X2676Y362D01*
X0Y361D02*
X7Y361D01*
X638Y361D02*
X644Y361D01*
X653Y361D02*
X659Y361D01*
X671Y361D02*
X677Y361D01*
X2258Y361D02*
X2272Y361D01*
X2648Y361D02*
X2655Y361D01*
X2657Y361D02*
X2666Y361D01*
X2669Y361D02*
X2676Y361D01*
X0Y360D02*
X7Y360D01*
X638Y360D02*
X644Y360D01*
X653Y360D02*
X659Y360D01*
X671Y360D02*
X677Y360D01*
X2252Y360D02*
X2272Y360D01*
X2648Y360D02*
X2655Y360D01*
X2657Y360D02*
X2666Y360D01*
X2669Y360D02*
X2676Y360D01*
X0Y359D02*
X7Y359D01*
X638Y359D02*
X644Y359D01*
X653Y359D02*
X659Y359D01*
X671Y359D02*
X677Y359D01*
X2252Y359D02*
X2272Y359D01*
X2648Y359D02*
X2655Y359D01*
X2657Y359D02*
X2666Y359D01*
X2669Y359D02*
X2676Y359D01*
X0Y358D02*
X7Y358D01*
X638Y358D02*
X644Y358D01*
X653Y358D02*
X659Y358D01*
X671Y358D02*
X677Y358D01*
X2252Y358D02*
X2272Y358D01*
X2648Y358D02*
X2655Y358D01*
X2657Y358D02*
X2666Y358D01*
X2669Y358D02*
X2676Y358D01*
X0Y357D02*
X7Y357D01*
X638Y357D02*
X644Y357D01*
X653Y357D02*
X659Y357D01*
X671Y357D02*
X677Y357D01*
X2252Y357D02*
X2272Y357D01*
X2648Y357D02*
X2655Y357D01*
X2657Y357D02*
X2666Y357D01*
X2669Y357D02*
X2676Y357D01*
X0Y356D02*
X7Y356D01*
X638Y356D02*
X644Y356D01*
X653Y356D02*
X659Y356D01*
X670Y356D02*
X677Y356D01*
X2252Y356D02*
X2272Y356D01*
X2648Y356D02*
X2655Y356D01*
X2657Y356D02*
X2666Y356D01*
X2669Y356D02*
X2676Y356D01*
X0Y355D02*
X7Y355D01*
X639Y355D02*
X643Y355D01*
X653Y355D02*
X660Y355D01*
X670Y355D02*
X676Y355D01*
X2252Y355D02*
X2272Y355D01*
X2648Y355D02*
X2655Y355D01*
X2657Y355D02*
X2666Y355D01*
X2669Y355D02*
X2676Y355D01*
X0Y354D02*
X7Y354D01*
X640Y354D02*
X642Y354D01*
X653Y354D02*
X661Y354D01*
X668Y354D02*
X676Y354D01*
X2252Y354D02*
X2272Y354D01*
X2648Y354D02*
X2655Y354D01*
X2657Y354D02*
X2666Y354D01*
X2669Y354D02*
X2676Y354D01*
X0Y353D02*
X7Y353D01*
X654Y353D02*
X676Y353D01*
X2252Y353D02*
X2272Y353D01*
X2648Y353D02*
X2655Y353D01*
X2657Y353D02*
X2666Y353D01*
X2669Y353D02*
X2676Y353D01*
X0Y352D02*
X7Y352D01*
X654Y352D02*
X675Y352D01*
X2252Y352D02*
X2272Y352D01*
X2648Y352D02*
X2655Y352D01*
X2657Y352D02*
X2666Y352D01*
X2669Y352D02*
X2676Y352D01*
X0Y351D02*
X7Y351D01*
X655Y351D02*
X675Y351D01*
X2252Y351D02*
X2272Y351D01*
X2648Y351D02*
X2655Y351D01*
X2657Y351D02*
X2666Y351D01*
X2669Y351D02*
X2676Y351D01*
X0Y350D02*
X7Y350D01*
X656Y350D02*
X674Y350D01*
X2252Y350D02*
X2272Y350D01*
X2648Y350D02*
X2655Y350D01*
X2657Y350D02*
X2666Y350D01*
X2669Y350D02*
X2676Y350D01*
X0Y349D02*
X7Y349D01*
X657Y349D02*
X673Y349D01*
X2252Y349D02*
X2272Y349D01*
X2648Y349D02*
X2655Y349D01*
X2657Y349D02*
X2666Y349D01*
X2669Y349D02*
X2676Y349D01*
X0Y348D02*
X7Y348D01*
X659Y348D02*
X671Y348D01*
X2252Y348D02*
X2272Y348D01*
X2648Y348D02*
X2655Y348D01*
X2657Y348D02*
X2666Y348D01*
X2669Y348D02*
X2676Y348D01*
X0Y347D02*
X7Y347D01*
X661Y347D02*
X668Y347D01*
X2252Y347D02*
X2272Y347D01*
X2648Y347D02*
X2655Y347D01*
X2657Y347D02*
X2666Y347D01*
X2669Y347D02*
X2676Y347D01*
X0Y346D02*
X7Y346D01*
X2252Y346D02*
X2272Y346D01*
X2648Y346D02*
X2655Y346D01*
X2657Y346D02*
X2666Y346D01*
X2669Y346D02*
X2676Y346D01*
X0Y345D02*
X7Y345D01*
X2252Y345D02*
X2272Y345D01*
X2648Y345D02*
X2655Y345D01*
X2657Y345D02*
X2666Y345D01*
X2669Y345D02*
X2676Y345D01*
X0Y344D02*
X7Y344D01*
X2252Y344D02*
X2272Y344D01*
X2648Y344D02*
X2655Y344D01*
X2657Y344D02*
X2666Y344D01*
X2669Y344D02*
X2676Y344D01*
X0Y343D02*
X7Y343D01*
X2252Y343D02*
X2272Y343D01*
X2648Y343D02*
X2655Y343D01*
X2657Y343D02*
X2666Y343D01*
X2669Y343D02*
X2676Y343D01*
X0Y342D02*
X7Y342D01*
X2252Y342D02*
X2272Y342D01*
X2648Y342D02*
X2655Y342D01*
X2657Y342D02*
X2666Y342D01*
X2669Y342D02*
X2676Y342D01*
X0Y341D02*
X7Y341D01*
X2252Y341D02*
X2272Y341D01*
X2648Y341D02*
X2655Y341D01*
X2657Y341D02*
X2666Y341D01*
X2669Y341D02*
X2676Y341D01*
X0Y340D02*
X7Y340D01*
X2252Y340D02*
X2272Y340D01*
X2648Y340D02*
X2655Y340D01*
X2657Y340D02*
X2666Y340D01*
X2669Y340D02*
X2676Y340D01*
X0Y339D02*
X7Y339D01*
X2252Y339D02*
X2269Y339D01*
X2648Y339D02*
X2655Y339D01*
X2657Y339D02*
X2666Y339D01*
X2669Y339D02*
X2676Y339D01*
X0Y338D02*
X7Y338D01*
X2252Y338D02*
X2266Y338D01*
X2648Y338D02*
X2655Y338D01*
X2657Y338D02*
X2666Y338D01*
X2669Y338D02*
X2676Y338D01*
X0Y337D02*
X7Y337D01*
X2252Y337D02*
X2265Y337D01*
X2649Y337D02*
X2655Y337D01*
X2657Y337D02*
X2666Y337D01*
X2669Y337D02*
X2676Y337D01*
X0Y336D02*
X7Y336D01*
X2252Y336D02*
X2263Y336D01*
X2650Y336D02*
X2655Y336D01*
X2657Y336D02*
X2666Y336D01*
X2669Y336D02*
X2676Y336D01*
X0Y335D02*
X7Y335D01*
X2252Y335D02*
X2262Y335D01*
X2652Y335D02*
X2655Y335D01*
X2657Y335D02*
X2666Y335D01*
X2669Y335D02*
X2676Y335D01*
X0Y334D02*
X7Y334D01*
X2252Y334D02*
X2260Y334D01*
X2653Y334D02*
X2655Y334D01*
X2657Y334D02*
X2666Y334D01*
X2669Y334D02*
X2676Y334D01*
X0Y333D02*
X7Y333D01*
X2252Y333D02*
X2259Y333D01*
X2654Y333D02*
X2655Y333D01*
X2657Y333D02*
X2666Y333D01*
X2669Y333D02*
X2676Y333D01*
X0Y332D02*
X7Y332D01*
X2252Y332D02*
X2258Y332D01*
X2655Y332D02*
X2655Y332D01*
X2657Y332D02*
X2666Y332D01*
X2669Y332D02*
X2676Y332D01*
X0Y331D02*
X7Y331D01*
X634Y331D02*
X642Y331D01*
X658Y331D02*
X666Y331D01*
X2252Y331D02*
X2257Y331D01*
X2657Y331D02*
X2666Y331D01*
X2669Y331D02*
X2676Y331D01*
X0Y330D02*
X7Y330D01*
X632Y330D02*
X645Y330D01*
X655Y330D02*
X669Y330D01*
X2252Y330D02*
X2256Y330D01*
X2657Y330D02*
X2666Y330D01*
X2669Y330D02*
X2676Y330D01*
X0Y329D02*
X7Y329D01*
X630Y329D02*
X647Y329D01*
X653Y329D02*
X670Y329D01*
X2252Y329D02*
X2256Y329D01*
X2658Y329D02*
X2666Y329D01*
X2669Y329D02*
X2676Y329D01*
X0Y328D02*
X7Y328D01*
X629Y328D02*
X648Y328D01*
X652Y328D02*
X672Y328D01*
X2252Y328D02*
X2255Y328D01*
X2659Y328D02*
X2666Y328D01*
X2669Y328D02*
X2676Y328D01*
X0Y327D02*
X7Y327D01*
X628Y327D02*
X649Y327D01*
X651Y327D02*
X673Y327D01*
X2252Y327D02*
X2254Y327D01*
X2659Y327D02*
X2666Y327D01*
X2669Y327D02*
X2676Y327D01*
X0Y326D02*
X7Y326D01*
X627Y326D02*
X674Y326D01*
X2252Y326D02*
X2254Y326D01*
X2660Y326D02*
X2666Y326D01*
X2669Y326D02*
X2676Y326D01*
X0Y325D02*
X7Y325D01*
X626Y325D02*
X674Y325D01*
X2252Y325D02*
X2253Y325D01*
X2660Y325D02*
X2666Y325D01*
X2669Y325D02*
X2676Y325D01*
X0Y324D02*
X7Y324D01*
X625Y324D02*
X634Y324D01*
X642Y324D02*
X658Y324D01*
X666Y324D02*
X675Y324D01*
X2252Y324D02*
X2252Y324D01*
X2661Y324D02*
X2666Y324D01*
X2669Y324D02*
X2676Y324D01*
X0Y323D02*
X7Y323D01*
X625Y323D02*
X632Y323D01*
X644Y323D02*
X656Y323D01*
X668Y323D02*
X675Y323D01*
X2252Y323D02*
X2252Y323D01*
X2661Y323D02*
X2666Y323D01*
X2669Y323D02*
X2676Y323D01*
X0Y322D02*
X7Y322D01*
X624Y322D02*
X631Y322D01*
X645Y322D02*
X655Y322D01*
X669Y322D02*
X676Y322D01*
X2252Y322D02*
X2252Y322D01*
X2662Y322D02*
X2666Y322D01*
X2669Y322D02*
X2676Y322D01*
X0Y321D02*
X7Y321D01*
X624Y321D02*
X631Y321D01*
X646Y321D02*
X654Y321D01*
X670Y321D02*
X676Y321D01*
X2662Y321D02*
X2666Y321D01*
X2669Y321D02*
X2676Y321D01*
X0Y320D02*
X7Y320D01*
X624Y320D02*
X630Y320D01*
X647Y320D02*
X654Y320D01*
X670Y320D02*
X676Y320D01*
X2663Y320D02*
X2666Y320D01*
X2669Y320D02*
X2676Y320D01*
X0Y319D02*
X7Y319D01*
X624Y319D02*
X630Y319D01*
X647Y319D02*
X653Y319D01*
X670Y319D02*
X677Y319D01*
X2663Y319D02*
X2666Y319D01*
X2669Y319D02*
X2676Y319D01*
X0Y318D02*
X7Y318D01*
X624Y318D02*
X630Y318D01*
X647Y318D02*
X653Y318D01*
X671Y318D02*
X677Y318D01*
X2663Y318D02*
X2666Y318D01*
X2669Y318D02*
X2676Y318D01*
X0Y317D02*
X7Y317D01*
X624Y317D02*
X630Y317D01*
X647Y317D02*
X653Y317D01*
X671Y317D02*
X677Y317D01*
X2663Y317D02*
X2666Y317D01*
X2669Y317D02*
X2676Y317D01*
X0Y316D02*
X7Y316D01*
X624Y316D02*
X630Y316D01*
X647Y316D02*
X653Y316D01*
X671Y316D02*
X677Y316D01*
X2664Y316D02*
X2666Y316D01*
X2669Y316D02*
X2676Y316D01*
X0Y315D02*
X7Y315D01*
X624Y315D02*
X630Y315D01*
X647Y315D02*
X653Y315D01*
X671Y315D02*
X677Y315D01*
X2664Y315D02*
X2666Y315D01*
X2669Y315D02*
X2676Y315D01*
X0Y314D02*
X7Y314D01*
X624Y314D02*
X630Y314D01*
X647Y314D02*
X653Y314D01*
X671Y314D02*
X677Y314D01*
X2664Y314D02*
X2666Y314D01*
X2669Y314D02*
X2676Y314D01*
X0Y313D02*
X7Y313D01*
X624Y313D02*
X630Y313D01*
X647Y313D02*
X653Y313D01*
X671Y313D02*
X677Y313D01*
X2664Y313D02*
X2666Y313D01*
X2669Y313D02*
X2676Y313D01*
X0Y312D02*
X7Y312D01*
X624Y312D02*
X630Y312D01*
X647Y312D02*
X653Y312D01*
X671Y312D02*
X677Y312D01*
X2664Y312D02*
X2666Y312D01*
X2669Y312D02*
X2676Y312D01*
X0Y311D02*
X7Y311D01*
X624Y311D02*
X630Y311D01*
X647Y311D02*
X653Y311D01*
X671Y311D02*
X677Y311D01*
X2664Y311D02*
X2666Y311D01*
X2669Y311D02*
X2676Y311D01*
X0Y310D02*
X7Y310D01*
X624Y310D02*
X630Y310D01*
X647Y310D02*
X653Y310D01*
X671Y310D02*
X677Y310D01*
X2664Y310D02*
X2666Y310D01*
X2669Y310D02*
X2676Y310D01*
X0Y309D02*
X7Y309D01*
X624Y309D02*
X630Y309D01*
X647Y309D02*
X653Y309D01*
X671Y309D02*
X677Y309D01*
X2664Y309D02*
X2666Y309D01*
X2669Y309D02*
X2676Y309D01*
X0Y308D02*
X7Y308D01*
X624Y308D02*
X630Y308D01*
X647Y308D02*
X653Y308D01*
X671Y308D02*
X677Y308D01*
X2664Y308D02*
X2666Y308D01*
X2669Y308D02*
X2676Y308D01*
X0Y307D02*
X7Y307D01*
X624Y307D02*
X630Y307D01*
X647Y307D02*
X653Y307D01*
X671Y307D02*
X677Y307D01*
X2664Y307D02*
X2666Y307D01*
X2669Y307D02*
X2676Y307D01*
X0Y306D02*
X7Y306D01*
X624Y306D02*
X630Y306D01*
X647Y306D02*
X653Y306D01*
X671Y306D02*
X677Y306D01*
X2664Y306D02*
X2666Y306D01*
X2669Y306D02*
X2676Y306D01*
X0Y305D02*
X7Y305D01*
X624Y305D02*
X630Y305D01*
X647Y305D02*
X653Y305D01*
X671Y305D02*
X677Y305D01*
X2664Y305D02*
X2666Y305D01*
X2669Y305D02*
X2676Y305D01*
X0Y304D02*
X7Y304D01*
X624Y304D02*
X630Y304D01*
X647Y304D02*
X653Y304D01*
X670Y304D02*
X677Y304D01*
X2663Y304D02*
X2666Y304D01*
X2669Y304D02*
X2676Y304D01*
X0Y303D02*
X7Y303D01*
X624Y303D02*
X677Y303D01*
X2663Y303D02*
X2666Y303D01*
X2669Y303D02*
X2676Y303D01*
X0Y302D02*
X7Y302D01*
X624Y302D02*
X677Y302D01*
X2663Y302D02*
X2666Y302D01*
X2669Y302D02*
X2676Y302D01*
X0Y301D02*
X7Y301D01*
X624Y301D02*
X677Y301D01*
X2663Y301D02*
X2666Y301D01*
X2669Y301D02*
X2676Y301D01*
X0Y300D02*
X7Y300D01*
X624Y300D02*
X677Y300D01*
X2662Y300D02*
X2666Y300D01*
X2669Y300D02*
X2676Y300D01*
X0Y299D02*
X7Y299D01*
X624Y299D02*
X677Y299D01*
X2662Y299D02*
X2666Y299D01*
X2669Y299D02*
X2676Y299D01*
X0Y298D02*
X7Y298D01*
X624Y298D02*
X677Y298D01*
X2252Y298D02*
X2252Y298D01*
X2661Y298D02*
X2666Y298D01*
X2669Y298D02*
X2676Y298D01*
X0Y297D02*
X7Y297D01*
X624Y297D02*
X676Y297D01*
X2252Y297D02*
X2252Y297D01*
X2661Y297D02*
X2666Y297D01*
X2669Y297D02*
X2676Y297D01*
X0Y296D02*
X7Y296D01*
X2252Y296D02*
X2253Y296D01*
X2661Y296D02*
X2666Y296D01*
X2669Y296D02*
X2676Y296D01*
X0Y295D02*
X7Y295D01*
X2252Y295D02*
X2253Y295D01*
X2660Y295D02*
X2666Y295D01*
X2669Y295D02*
X2676Y295D01*
X0Y294D02*
X7Y294D01*
X2252Y294D02*
X2254Y294D01*
X2659Y294D02*
X2666Y294D01*
X2669Y294D02*
X2676Y294D01*
X0Y293D02*
X7Y293D01*
X2252Y293D02*
X2255Y293D01*
X2659Y293D02*
X2666Y293D01*
X2669Y293D02*
X2676Y293D01*
X0Y292D02*
X7Y292D01*
X2252Y292D02*
X2255Y292D01*
X2658Y292D02*
X2666Y292D01*
X2669Y292D02*
X2676Y292D01*
X0Y291D02*
X7Y291D01*
X2252Y291D02*
X2256Y291D01*
X2657Y291D02*
X2666Y291D01*
X2669Y291D02*
X2676Y291D01*
X0Y290D02*
X7Y290D01*
X2252Y290D02*
X2257Y290D01*
X2657Y290D02*
X2666Y290D01*
X2669Y290D02*
X2676Y290D01*
X0Y289D02*
X7Y289D01*
X2252Y289D02*
X2258Y289D01*
X2657Y289D02*
X2666Y289D01*
X2669Y289D02*
X2676Y289D01*
X0Y288D02*
X7Y288D01*
X2252Y288D02*
X2259Y288D01*
X2655Y288D02*
X2655Y288D01*
X2657Y288D02*
X2666Y288D01*
X2669Y288D02*
X2676Y288D01*
X0Y287D02*
X7Y287D01*
X2252Y287D02*
X2260Y287D01*
X2653Y287D02*
X2655Y287D01*
X2657Y287D02*
X2666Y287D01*
X2669Y287D02*
X2676Y287D01*
X0Y286D02*
X7Y286D01*
X2252Y286D02*
X2261Y286D01*
X2652Y286D02*
X2655Y286D01*
X2657Y286D02*
X2666Y286D01*
X2669Y286D02*
X2676Y286D01*
X0Y285D02*
X7Y285D01*
X2252Y285D02*
X2263Y285D01*
X2651Y285D02*
X2655Y285D01*
X2657Y285D02*
X2666Y285D01*
X2669Y285D02*
X2676Y285D01*
X0Y284D02*
X7Y284D01*
X2252Y284D02*
X2264Y284D01*
X2649Y284D02*
X2655Y284D01*
X2657Y284D02*
X2666Y284D01*
X2669Y284D02*
X2676Y284D01*
X0Y283D02*
X7Y283D01*
X2252Y283D02*
X2266Y283D01*
X2648Y283D02*
X2655Y283D01*
X2657Y283D02*
X2666Y283D01*
X2669Y283D02*
X2676Y283D01*
X0Y282D02*
X7Y282D01*
X2252Y282D02*
X2268Y282D01*
X2648Y282D02*
X2655Y282D01*
X2657Y282D02*
X2666Y282D01*
X2669Y282D02*
X2676Y282D01*
X0Y281D02*
X7Y281D01*
X2252Y281D02*
X2271Y281D01*
X2648Y281D02*
X2655Y281D01*
X2657Y281D02*
X2666Y281D01*
X2669Y281D02*
X2676Y281D01*
X0Y280D02*
X7Y280D01*
X2252Y280D02*
X2272Y280D01*
X2648Y280D02*
X2655Y280D01*
X2657Y280D02*
X2666Y280D01*
X2669Y280D02*
X2676Y280D01*
X0Y279D02*
X7Y279D01*
X2252Y279D02*
X2272Y279D01*
X2648Y279D02*
X2655Y279D01*
X2657Y279D02*
X2666Y279D01*
X2669Y279D02*
X2676Y279D01*
X0Y278D02*
X7Y278D01*
X2252Y278D02*
X2272Y278D01*
X2648Y278D02*
X2655Y278D01*
X2657Y278D02*
X2666Y278D01*
X2669Y278D02*
X2676Y278D01*
X0Y277D02*
X7Y277D01*
X2252Y277D02*
X2272Y277D01*
X2648Y277D02*
X2655Y277D01*
X2657Y277D02*
X2666Y277D01*
X2669Y277D02*
X2676Y277D01*
X0Y276D02*
X7Y276D01*
X2252Y276D02*
X2272Y276D01*
X2648Y276D02*
X2655Y276D01*
X2657Y276D02*
X2666Y276D01*
X2669Y276D02*
X2676Y276D01*
X0Y275D02*
X7Y275D01*
X2252Y275D02*
X2272Y275D01*
X2648Y275D02*
X2655Y275D01*
X2657Y275D02*
X2666Y275D01*
X2669Y275D02*
X2676Y275D01*
X0Y274D02*
X7Y274D01*
X2252Y274D02*
X2272Y274D01*
X2648Y274D02*
X2655Y274D01*
X2657Y274D02*
X2666Y274D01*
X2669Y274D02*
X2676Y274D01*
X0Y273D02*
X7Y273D01*
X2252Y273D02*
X2272Y273D01*
X2648Y273D02*
X2655Y273D01*
X2657Y273D02*
X2666Y273D01*
X2669Y273D02*
X2676Y273D01*
X0Y272D02*
X7Y272D01*
X2252Y272D02*
X2272Y272D01*
X2648Y272D02*
X2655Y272D01*
X2657Y272D02*
X2666Y272D01*
X2669Y272D02*
X2676Y272D01*
X0Y271D02*
X7Y271D01*
X2252Y271D02*
X2272Y271D01*
X2648Y271D02*
X2655Y271D01*
X2657Y271D02*
X2666Y271D01*
X2669Y271D02*
X2676Y271D01*
X0Y270D02*
X7Y270D01*
X2252Y270D02*
X2272Y270D01*
X2648Y270D02*
X2655Y270D01*
X2657Y270D02*
X2666Y270D01*
X2669Y270D02*
X2676Y270D01*
X0Y269D02*
X7Y269D01*
X2252Y269D02*
X2272Y269D01*
X2648Y269D02*
X2655Y269D01*
X2657Y269D02*
X2666Y269D01*
X2669Y269D02*
X2676Y269D01*
X0Y268D02*
X7Y268D01*
X2252Y268D02*
X2272Y268D01*
X2648Y268D02*
X2655Y268D01*
X2657Y268D02*
X2666Y268D01*
X2669Y268D02*
X2676Y268D01*
X0Y267D02*
X7Y267D01*
X2252Y267D02*
X2272Y267D01*
X2648Y267D02*
X2655Y267D01*
X2657Y267D02*
X2666Y267D01*
X2669Y267D02*
X2676Y267D01*
X0Y266D02*
X7Y266D01*
X2252Y266D02*
X2272Y266D01*
X2648Y266D02*
X2655Y266D01*
X2657Y266D02*
X2666Y266D01*
X2669Y266D02*
X2676Y266D01*
X0Y265D02*
X7Y265D01*
X2252Y265D02*
X2272Y265D01*
X2648Y265D02*
X2655Y265D01*
X2657Y265D02*
X2666Y265D01*
X2669Y265D02*
X2676Y265D01*
X0Y264D02*
X7Y264D01*
X2252Y264D02*
X2272Y264D01*
X2648Y264D02*
X2655Y264D01*
X2657Y264D02*
X2666Y264D01*
X2669Y264D02*
X2676Y264D01*
X0Y263D02*
X7Y263D01*
X2252Y263D02*
X2272Y263D01*
X2648Y263D02*
X2655Y263D01*
X2657Y263D02*
X2666Y263D01*
X2669Y263D02*
X2676Y263D01*
X0Y262D02*
X7Y262D01*
X2252Y262D02*
X2272Y262D01*
X2648Y262D02*
X2655Y262D01*
X2657Y262D02*
X2666Y262D01*
X2669Y262D02*
X2676Y262D01*
X0Y261D02*
X7Y261D01*
X2252Y261D02*
X2272Y261D01*
X2648Y261D02*
X2655Y261D01*
X2657Y261D02*
X2666Y261D01*
X2669Y261D02*
X2676Y261D01*
X0Y260D02*
X7Y260D01*
X2252Y260D02*
X2272Y260D01*
X2648Y260D02*
X2655Y260D01*
X2657Y260D02*
X2666Y260D01*
X2669Y260D02*
X2676Y260D01*
X0Y259D02*
X7Y259D01*
X2252Y259D02*
X2272Y259D01*
X2648Y259D02*
X2655Y259D01*
X2657Y259D02*
X2666Y259D01*
X2669Y259D02*
X2676Y259D01*
X0Y258D02*
X7Y258D01*
X2252Y258D02*
X2272Y258D01*
X2648Y258D02*
X2655Y258D01*
X2657Y258D02*
X2666Y258D01*
X2669Y258D02*
X2676Y258D01*
X0Y257D02*
X7Y257D01*
X2252Y257D02*
X2272Y257D01*
X2648Y257D02*
X2655Y257D01*
X2657Y257D02*
X2666Y257D01*
X2669Y257D02*
X2676Y257D01*
X0Y256D02*
X7Y256D01*
X2252Y256D02*
X2272Y256D01*
X2648Y256D02*
X2655Y256D01*
X2657Y256D02*
X2666Y256D01*
X2669Y256D02*
X2676Y256D01*
X0Y255D02*
X7Y255D01*
X2252Y255D02*
X2272Y255D01*
X2648Y255D02*
X2655Y255D01*
X2657Y255D02*
X2666Y255D01*
X2669Y255D02*
X2676Y255D01*
X0Y254D02*
X7Y254D01*
X2252Y254D02*
X2272Y254D01*
X2648Y254D02*
X2655Y254D01*
X2657Y254D02*
X2666Y254D01*
X2669Y254D02*
X2676Y254D01*
X0Y253D02*
X7Y253D01*
X2252Y253D02*
X2272Y253D01*
X2648Y253D02*
X2655Y253D01*
X2657Y253D02*
X2666Y253D01*
X2669Y253D02*
X2676Y253D01*
X0Y252D02*
X7Y252D01*
X2252Y252D02*
X2272Y252D01*
X2648Y252D02*
X2655Y252D01*
X2657Y252D02*
X2666Y252D01*
X2669Y252D02*
X2676Y252D01*
X0Y251D02*
X7Y251D01*
X2252Y251D02*
X2272Y251D01*
X2648Y251D02*
X2655Y251D01*
X2657Y251D02*
X2666Y251D01*
X2669Y251D02*
X2676Y251D01*
X0Y250D02*
X7Y250D01*
X2252Y250D02*
X2272Y250D01*
X2648Y250D02*
X2655Y250D01*
X2657Y250D02*
X2666Y250D01*
X2669Y250D02*
X2676Y250D01*
X0Y249D02*
X7Y249D01*
X2252Y249D02*
X2272Y249D01*
X2648Y249D02*
X2655Y249D01*
X2657Y249D02*
X2666Y249D01*
X2669Y249D02*
X2676Y249D01*
X0Y248D02*
X7Y248D01*
X2252Y248D02*
X2272Y248D01*
X2648Y248D02*
X2655Y248D01*
X2657Y248D02*
X2666Y248D01*
X2669Y248D02*
X2676Y248D01*
X0Y247D02*
X7Y247D01*
X2252Y247D02*
X2272Y247D01*
X2648Y247D02*
X2655Y247D01*
X2657Y247D02*
X2666Y247D01*
X2669Y247D02*
X2676Y247D01*
X0Y246D02*
X7Y246D01*
X2252Y246D02*
X2272Y246D01*
X2648Y246D02*
X2655Y246D01*
X2657Y246D02*
X2666Y246D01*
X2669Y246D02*
X2676Y246D01*
X0Y245D02*
X7Y245D01*
X2252Y245D02*
X2272Y245D01*
X2648Y245D02*
X2655Y245D01*
X2657Y245D02*
X2666Y245D01*
X2669Y245D02*
X2676Y245D01*
X0Y244D02*
X7Y244D01*
X2252Y244D02*
X2272Y244D01*
X2648Y244D02*
X2655Y244D01*
X2657Y244D02*
X2666Y244D01*
X2669Y244D02*
X2676Y244D01*
X0Y243D02*
X7Y243D01*
X2252Y243D02*
X2272Y243D01*
X2648Y243D02*
X2655Y243D01*
X2657Y243D02*
X2666Y243D01*
X2669Y243D02*
X2676Y243D01*
X0Y242D02*
X7Y242D01*
X2252Y242D02*
X2272Y242D01*
X2648Y242D02*
X2655Y242D01*
X2657Y242D02*
X2666Y242D01*
X2669Y242D02*
X2676Y242D01*
X0Y241D02*
X7Y241D01*
X2252Y241D02*
X2272Y241D01*
X2648Y241D02*
X2655Y241D01*
X2657Y241D02*
X2666Y241D01*
X2669Y241D02*
X2676Y241D01*
X0Y240D02*
X7Y240D01*
X2252Y240D02*
X2270Y240D01*
X2648Y240D02*
X2655Y240D01*
X2657Y240D02*
X2666Y240D01*
X2669Y240D02*
X2676Y240D01*
X0Y239D02*
X7Y239D01*
X2252Y239D02*
X2267Y239D01*
X2648Y239D02*
X2655Y239D01*
X2657Y239D02*
X2666Y239D01*
X2669Y239D02*
X2676Y239D01*
X0Y238D02*
X7Y238D01*
X2252Y238D02*
X2265Y238D01*
X2648Y238D02*
X2655Y238D01*
X2657Y238D02*
X2666Y238D01*
X2669Y238D02*
X2676Y238D01*
X0Y237D02*
X7Y237D01*
X2252Y237D02*
X2263Y237D01*
X2649Y237D02*
X2655Y237D01*
X2657Y237D02*
X2666Y237D01*
X2669Y237D02*
X2676Y237D01*
X0Y236D02*
X7Y236D01*
X2252Y236D02*
X2262Y236D01*
X2651Y236D02*
X2655Y236D01*
X2657Y236D02*
X2666Y236D01*
X2669Y236D02*
X2676Y236D01*
X0Y235D02*
X7Y235D01*
X2252Y235D02*
X2260Y235D01*
X2652Y235D02*
X2655Y235D01*
X2657Y235D02*
X2666Y235D01*
X2669Y235D02*
X2676Y235D01*
X0Y234D02*
X7Y234D01*
X2252Y234D02*
X2259Y234D01*
X2653Y234D02*
X2655Y234D01*
X2657Y234D02*
X2666Y234D01*
X2669Y234D02*
X2676Y234D01*
X0Y233D02*
X7Y233D01*
X2252Y233D02*
X2258Y233D01*
X2654Y233D02*
X2655Y233D01*
X2657Y233D02*
X2666Y233D01*
X2669Y233D02*
X2676Y233D01*
X0Y232D02*
X7Y232D01*
X2252Y232D02*
X2257Y232D01*
X2655Y232D02*
X2655Y232D01*
X2657Y232D02*
X2666Y232D01*
X2669Y232D02*
X2676Y232D01*
X0Y231D02*
X7Y231D01*
X2252Y231D02*
X2256Y231D01*
X2657Y231D02*
X2666Y231D01*
X2669Y231D02*
X2676Y231D01*
X0Y230D02*
X7Y230D01*
X2252Y230D02*
X2255Y230D01*
X2657Y230D02*
X2666Y230D01*
X2669Y230D02*
X2676Y230D01*
X0Y229D02*
X7Y229D01*
X2252Y229D02*
X2255Y229D01*
X2658Y229D02*
X2666Y229D01*
X2669Y229D02*
X2676Y229D01*
X0Y228D02*
X7Y228D01*
X2252Y228D02*
X2254Y228D01*
X2659Y228D02*
X2666Y228D01*
X2669Y228D02*
X2676Y228D01*
X0Y227D02*
X7Y227D01*
X2252Y227D02*
X2253Y227D01*
X2659Y227D02*
X2666Y227D01*
X2669Y227D02*
X2676Y227D01*
X0Y226D02*
X7Y226D01*
X2252Y226D02*
X2253Y226D01*
X2660Y226D02*
X2666Y226D01*
X2669Y226D02*
X2676Y226D01*
X0Y225D02*
X7Y225D01*
X2252Y225D02*
X2252Y225D01*
X2660Y225D02*
X2666Y225D01*
X2669Y225D02*
X2676Y225D01*
X0Y224D02*
X7Y224D01*
X2252Y224D02*
X2252Y224D01*
X2661Y224D02*
X2666Y224D01*
X2669Y224D02*
X2676Y224D01*
X0Y223D02*
X7Y223D01*
X2252Y223D02*
X2252Y223D01*
X2661Y223D02*
X2666Y223D01*
X2669Y223D02*
X2676Y223D01*
X0Y222D02*
X7Y222D01*
X2662Y222D02*
X2666Y222D01*
X2669Y222D02*
X2676Y222D01*
X0Y221D02*
X7Y221D01*
X2662Y221D02*
X2666Y221D01*
X2669Y221D02*
X2676Y221D01*
X0Y220D02*
X7Y220D01*
X2663Y220D02*
X2666Y220D01*
X2669Y220D02*
X2676Y220D01*
X0Y219D02*
X7Y219D01*
X2663Y219D02*
X2666Y219D01*
X2669Y219D02*
X2676Y219D01*
X0Y218D02*
X7Y218D01*
X2663Y218D02*
X2666Y218D01*
X2669Y218D02*
X2676Y218D01*
X0Y217D02*
X7Y217D01*
X2663Y217D02*
X2666Y217D01*
X2669Y217D02*
X2676Y217D01*
X0Y216D02*
X7Y216D01*
X2664Y216D02*
X2666Y216D01*
X2669Y216D02*
X2676Y216D01*
X0Y215D02*
X7Y215D01*
X2664Y215D02*
X2666Y215D01*
X2669Y215D02*
X2676Y215D01*
X0Y214D02*
X7Y214D01*
X2664Y214D02*
X2666Y214D01*
X2669Y214D02*
X2676Y214D01*
X0Y213D02*
X7Y213D01*
X2664Y213D02*
X2666Y213D01*
X2669Y213D02*
X2676Y213D01*
X0Y212D02*
X7Y212D01*
X2664Y212D02*
X2666Y212D01*
X2669Y212D02*
X2676Y212D01*
X0Y211D02*
X7Y211D01*
X573Y211D02*
X574Y211D01*
X2664Y211D02*
X2666Y211D01*
X2669Y211D02*
X2676Y211D01*
X0Y210D02*
X7Y210D01*
X572Y210D02*
X575Y210D01*
X2664Y210D02*
X2666Y210D01*
X2669Y210D02*
X2676Y210D01*
X0Y209D02*
X7Y209D01*
X571Y209D02*
X576Y209D01*
X2664Y209D02*
X2666Y209D01*
X2669Y209D02*
X2676Y209D01*
X0Y208D02*
X7Y208D01*
X571Y208D02*
X577Y208D01*
X2664Y208D02*
X2666Y208D01*
X2669Y208D02*
X2676Y208D01*
X0Y207D02*
X7Y207D01*
X572Y207D02*
X578Y207D01*
X2664Y207D02*
X2666Y207D01*
X2669Y207D02*
X2676Y207D01*
X0Y206D02*
X7Y206D01*
X573Y206D02*
X579Y206D01*
X2664Y206D02*
X2666Y206D01*
X2669Y206D02*
X2676Y206D01*
X0Y205D02*
X7Y205D01*
X347Y205D02*
X353Y205D01*
X574Y205D02*
X580Y205D01*
X2663Y205D02*
X2666Y205D01*
X2669Y205D02*
X2676Y205D01*
X0Y204D02*
X7Y204D01*
X345Y204D02*
X354Y204D01*
X575Y204D02*
X581Y204D01*
X2663Y204D02*
X2666Y204D01*
X2669Y204D02*
X2676Y204D01*
X0Y203D02*
X7Y203D01*
X344Y203D02*
X355Y203D01*
X576Y203D02*
X582Y203D01*
X2663Y203D02*
X2666Y203D01*
X2669Y203D02*
X2676Y203D01*
X0Y202D02*
X7Y202D01*
X342Y202D02*
X355Y202D01*
X577Y202D02*
X583Y202D01*
X2663Y202D02*
X2666Y202D01*
X2669Y202D02*
X2676Y202D01*
X0Y201D02*
X7Y201D01*
X342Y201D02*
X354Y201D01*
X578Y201D02*
X584Y201D01*
X2662Y201D02*
X2666Y201D01*
X2669Y201D02*
X2676Y201D01*
X0Y200D02*
X7Y200D01*
X341Y200D02*
X354Y200D01*
X579Y200D02*
X585Y200D01*
X2662Y200D02*
X2666Y200D01*
X2669Y200D02*
X2676Y200D01*
X0Y199D02*
X7Y199D01*
X341Y199D02*
X353Y199D01*
X580Y199D02*
X586Y199D01*
X2252Y199D02*
X2252Y199D01*
X2661Y199D02*
X2666Y199D01*
X2669Y199D02*
X2676Y199D01*
X0Y198D02*
X7Y198D01*
X340Y198D02*
X347Y198D01*
X581Y198D02*
X587Y198D01*
X2252Y198D02*
X2252Y198D01*
X2661Y198D02*
X2666Y198D01*
X2669Y198D02*
X2676Y198D01*
X0Y197D02*
X7Y197D01*
X340Y197D02*
X346Y197D01*
X582Y197D02*
X588Y197D01*
X2252Y197D02*
X2252Y197D01*
X2660Y197D02*
X2666Y197D01*
X2669Y197D02*
X2676Y197D01*
X0Y196D02*
X7Y196D01*
X340Y196D02*
X346Y196D01*
X583Y196D02*
X589Y196D01*
X2252Y196D02*
X2253Y196D01*
X2660Y196D02*
X2666Y196D01*
X2669Y196D02*
X2676Y196D01*
X0Y195D02*
X7Y195D01*
X340Y195D02*
X346Y195D01*
X585Y195D02*
X590Y195D01*
X2252Y195D02*
X2253Y195D01*
X2659Y195D02*
X2666Y195D01*
X2669Y195D02*
X2676Y195D01*
X0Y194D02*
X7Y194D01*
X340Y194D02*
X346Y194D01*
X586Y194D02*
X591Y194D01*
X2252Y194D02*
X2254Y194D01*
X2659Y194D02*
X2666Y194D01*
X2669Y194D02*
X2676Y194D01*
X0Y193D02*
X7Y193D01*
X340Y193D02*
X346Y193D01*
X587Y193D02*
X592Y193D01*
X2251Y193D02*
X2255Y193D01*
X2658Y193D02*
X2666Y193D01*
X2669Y193D02*
X2676Y193D01*
X0Y192D02*
X7Y192D01*
X340Y192D02*
X346Y192D01*
X588Y192D02*
X593Y192D01*
X2250Y192D02*
X2255Y192D01*
X2657Y192D02*
X2666Y192D01*
X2669Y192D02*
X2676Y192D01*
X0Y191D02*
X7Y191D01*
X340Y191D02*
X346Y191D01*
X589Y191D02*
X594Y191D01*
X2249Y191D02*
X2256Y191D01*
X2657Y191D02*
X2666Y191D01*
X2669Y191D02*
X2676Y191D01*
X0Y190D02*
X7Y190D01*
X340Y190D02*
X346Y190D01*
X590Y190D02*
X595Y190D01*
X2248Y190D02*
X2257Y190D01*
X2655Y190D02*
X2655Y190D01*
X2657Y190D02*
X2666Y190D01*
X2669Y190D02*
X2676Y190D01*
X0Y189D02*
X7Y189D01*
X340Y189D02*
X346Y189D01*
X591Y189D02*
X596Y189D01*
X2247Y189D02*
X2258Y189D01*
X2654Y189D02*
X2655Y189D01*
X2657Y189D02*
X2666Y189D01*
X2669Y189D02*
X2676Y189D01*
X0Y188D02*
X7Y188D01*
X340Y188D02*
X347Y188D01*
X592Y188D02*
X597Y188D01*
X2246Y188D02*
X2259Y188D01*
X2653Y188D02*
X2655Y188D01*
X2657Y188D02*
X2666Y188D01*
X2669Y188D02*
X2676Y188D01*
X0Y187D02*
X7Y187D01*
X340Y187D02*
X348Y187D01*
X592Y187D02*
X598Y187D01*
X2245Y187D02*
X2260Y187D01*
X2652Y187D02*
X2655Y187D01*
X2657Y187D02*
X2666Y187D01*
X2669Y187D02*
X2676Y187D01*
X0Y186D02*
X7Y186D01*
X341Y186D02*
X349Y186D01*
X593Y186D02*
X599Y186D01*
X2244Y186D02*
X2250Y186D01*
X2252Y186D02*
X2262Y186D01*
X2651Y186D02*
X2655Y186D01*
X2657Y186D02*
X2666Y186D01*
X2669Y186D02*
X2676Y186D01*
X0Y185D02*
X7Y185D01*
X342Y185D02*
X350Y185D01*
X594Y185D02*
X600Y185D01*
X2243Y185D02*
X2249Y185D01*
X2252Y185D02*
X2263Y185D01*
X2649Y185D02*
X2655Y185D01*
X2657Y185D02*
X2666Y185D01*
X2669Y185D02*
X2676Y185D01*
X0Y184D02*
X7Y184D01*
X342Y184D02*
X351Y184D01*
X595Y184D02*
X601Y184D01*
X2242Y184D02*
X2248Y184D01*
X2252Y184D02*
X2265Y184D01*
X2648Y184D02*
X2655Y184D01*
X2657Y184D02*
X2666Y184D01*
X2669Y184D02*
X2676Y184D01*
X0Y183D02*
X7Y183D01*
X343Y183D02*
X352Y183D01*
X596Y183D02*
X602Y183D01*
X2241Y183D02*
X2247Y183D01*
X2252Y183D02*
X2267Y183D01*
X2648Y183D02*
X2655Y183D01*
X2657Y183D02*
X2666Y183D01*
X2669Y183D02*
X2676Y183D01*
X0Y182D02*
X7Y182D01*
X344Y182D02*
X352Y182D01*
X597Y182D02*
X603Y182D01*
X2241Y182D02*
X2246Y182D01*
X2252Y182D02*
X2270Y182D01*
X2648Y182D02*
X2655Y182D01*
X2657Y182D02*
X2666Y182D01*
X2669Y182D02*
X2676Y182D01*
X0Y181D02*
X7Y181D01*
X345Y181D02*
X353Y181D01*
X598Y181D02*
X604Y181D01*
X2240Y181D02*
X2245Y181D01*
X2252Y181D02*
X2272Y181D01*
X2648Y181D02*
X2655Y181D01*
X2657Y181D02*
X2666Y181D01*
X2669Y181D02*
X2676Y181D01*
X0Y180D02*
X7Y180D01*
X346Y180D02*
X354Y180D01*
X599Y180D02*
X605Y180D01*
X2239Y180D02*
X2244Y180D01*
X2252Y180D02*
X2272Y180D01*
X2648Y180D02*
X2655Y180D01*
X2657Y180D02*
X2666Y180D01*
X2669Y180D02*
X2676Y180D01*
X0Y179D02*
X7Y179D01*
X347Y179D02*
X355Y179D01*
X600Y179D02*
X606Y179D01*
X2238Y179D02*
X2243Y179D01*
X2252Y179D02*
X2272Y179D01*
X2648Y179D02*
X2655Y179D01*
X2657Y179D02*
X2666Y179D01*
X2669Y179D02*
X2676Y179D01*
X0Y178D02*
X7Y178D01*
X343Y178D02*
X375Y178D01*
X601Y178D02*
X607Y178D01*
X2237Y178D02*
X2242Y178D01*
X2252Y178D02*
X2272Y178D01*
X2648Y178D02*
X2655Y178D01*
X2657Y178D02*
X2666Y178D01*
X2669Y178D02*
X2676Y178D01*
X0Y177D02*
X7Y177D01*
X341Y177D02*
X377Y177D01*
X602Y177D02*
X608Y177D01*
X2236Y177D02*
X2241Y177D01*
X2252Y177D02*
X2272Y177D01*
X2648Y177D02*
X2655Y177D01*
X2657Y177D02*
X2666Y177D01*
X2669Y177D02*
X2676Y177D01*
X0Y176D02*
X7Y176D01*
X340Y176D02*
X378Y176D01*
X603Y176D02*
X607Y176D01*
X2234Y176D02*
X2240Y176D01*
X2252Y176D02*
X2272Y176D01*
X2648Y176D02*
X2655Y176D01*
X2657Y176D02*
X2666Y176D01*
X2669Y176D02*
X2676Y176D01*
X0Y175D02*
X7Y175D01*
X340Y175D02*
X378Y175D01*
X604Y175D02*
X606Y175D01*
X2233Y175D02*
X2239Y175D01*
X2252Y175D02*
X2272Y175D01*
X2648Y175D02*
X2655Y175D01*
X2657Y175D02*
X2666Y175D01*
X2669Y175D02*
X2676Y175D01*
X0Y174D02*
X7Y174D01*
X340Y174D02*
X378Y174D01*
X2232Y174D02*
X2238Y174D01*
X2252Y174D02*
X2272Y174D01*
X2648Y174D02*
X2655Y174D01*
X2657Y174D02*
X2666Y174D01*
X2669Y174D02*
X2676Y174D01*
X0Y173D02*
X7Y173D01*
X340Y173D02*
X378Y173D01*
X2231Y173D02*
X2237Y173D01*
X2252Y173D02*
X2272Y173D01*
X2648Y173D02*
X2655Y173D01*
X2657Y173D02*
X2666Y173D01*
X2669Y173D02*
X2676Y173D01*
X0Y172D02*
X7Y172D01*
X341Y172D02*
X377Y172D01*
X2230Y172D02*
X2236Y172D01*
X2252Y172D02*
X2272Y172D01*
X2648Y172D02*
X2655Y172D01*
X2657Y172D02*
X2666Y172D01*
X2669Y172D02*
X2676Y172D01*
X0Y171D02*
X7Y171D01*
X2229Y171D02*
X2235Y171D01*
X2252Y171D02*
X2272Y171D01*
X2648Y171D02*
X2655Y171D01*
X2657Y171D02*
X2666Y171D01*
X2669Y171D02*
X2676Y171D01*
X0Y170D02*
X7Y170D01*
X1054Y170D02*
X1509Y170D01*
X2228Y170D02*
X2234Y170D01*
X2252Y170D02*
X2272Y170D01*
X2648Y170D02*
X2655Y170D01*
X2657Y170D02*
X2666Y170D01*
X2669Y170D02*
X2676Y170D01*
X0Y169D02*
X7Y169D01*
X1054Y169D02*
X1509Y169D01*
X2227Y169D02*
X2233Y169D01*
X2252Y169D02*
X2272Y169D01*
X2648Y169D02*
X2655Y169D01*
X2657Y169D02*
X2666Y169D01*
X2669Y169D02*
X2676Y169D01*
X0Y168D02*
X7Y168D01*
X1054Y168D02*
X1509Y168D01*
X2226Y168D02*
X2232Y168D01*
X2252Y168D02*
X2272Y168D01*
X2648Y168D02*
X2655Y168D01*
X2657Y168D02*
X2666Y168D01*
X2669Y168D02*
X2676Y168D01*
X0Y167D02*
X7Y167D01*
X1050Y167D02*
X1513Y167D01*
X2225Y167D02*
X2231Y167D01*
X2252Y167D02*
X2272Y167D01*
X2648Y167D02*
X2655Y167D01*
X2657Y167D02*
X2666Y167D01*
X2669Y167D02*
X2676Y167D01*
X0Y166D02*
X7Y166D01*
X1050Y166D02*
X1513Y166D01*
X2224Y166D02*
X2230Y166D01*
X2252Y166D02*
X2272Y166D01*
X2648Y166D02*
X2655Y166D01*
X2657Y166D02*
X2666Y166D01*
X2669Y166D02*
X2676Y166D01*
X0Y165D02*
X7Y165D01*
X1050Y165D02*
X1513Y165D01*
X2223Y165D02*
X2229Y165D01*
X2252Y165D02*
X2272Y165D01*
X2648Y165D02*
X2655Y165D01*
X2657Y165D02*
X2666Y165D01*
X2669Y165D02*
X2676Y165D01*
X0Y164D02*
X7Y164D01*
X1050Y164D02*
X1513Y164D01*
X2222Y164D02*
X2228Y164D01*
X2252Y164D02*
X2272Y164D01*
X2648Y164D02*
X2655Y164D01*
X2657Y164D02*
X2666Y164D01*
X2669Y164D02*
X2676Y164D01*
X0Y163D02*
X7Y163D01*
X1050Y163D02*
X1513Y163D01*
X2221Y163D02*
X2227Y163D01*
X2252Y163D02*
X2272Y163D01*
X2648Y163D02*
X2655Y163D01*
X2657Y163D02*
X2666Y163D01*
X2669Y163D02*
X2676Y163D01*
X0Y162D02*
X7Y162D01*
X1050Y162D02*
X1513Y162D01*
X2221Y162D02*
X2226Y162D01*
X2252Y162D02*
X2272Y162D01*
X2648Y162D02*
X2655Y162D01*
X2657Y162D02*
X2666Y162D01*
X2669Y162D02*
X2676Y162D01*
X0Y161D02*
X7Y161D01*
X1050Y161D02*
X1513Y161D01*
X2222Y161D02*
X2225Y161D01*
X2252Y161D02*
X2272Y161D01*
X2648Y161D02*
X2655Y161D01*
X2657Y161D02*
X2666Y161D01*
X2669Y161D02*
X2676Y161D01*
X0Y160D02*
X7Y160D01*
X1050Y160D02*
X1513Y160D01*
X2223Y160D02*
X2224Y160D01*
X2258Y160D02*
X2272Y160D01*
X2648Y160D02*
X2655Y160D01*
X2657Y160D02*
X2666Y160D01*
X2669Y160D02*
X2676Y160D01*
X0Y159D02*
X7Y159D01*
X1050Y159D02*
X1513Y159D01*
X2258Y159D02*
X2272Y159D01*
X2648Y159D02*
X2655Y159D01*
X2657Y159D02*
X2666Y159D01*
X2669Y159D02*
X2676Y159D01*
X0Y158D02*
X7Y158D01*
X1050Y158D02*
X1513Y158D01*
X2258Y158D02*
X2272Y158D01*
X2648Y158D02*
X2655Y158D01*
X2657Y158D02*
X2666Y158D01*
X2669Y158D02*
X2676Y158D01*
X0Y157D02*
X7Y157D01*
X1050Y157D02*
X1059Y157D01*
X1504Y157D02*
X1513Y157D01*
X2258Y157D02*
X2272Y157D01*
X2648Y157D02*
X2655Y157D01*
X2657Y157D02*
X2666Y157D01*
X2669Y157D02*
X2676Y157D01*
X0Y156D02*
X7Y156D01*
X1050Y156D02*
X1059Y156D01*
X1504Y156D02*
X1513Y156D01*
X2258Y156D02*
X2272Y156D01*
X2648Y156D02*
X2655Y156D01*
X2657Y156D02*
X2666Y156D01*
X2669Y156D02*
X2676Y156D01*
X0Y155D02*
X7Y155D01*
X349Y155D02*
X362Y155D01*
X374Y155D02*
X377Y155D01*
X1050Y155D02*
X1059Y155D01*
X1504Y155D02*
X1513Y155D01*
X2258Y155D02*
X2272Y155D01*
X2648Y155D02*
X2655Y155D01*
X2657Y155D02*
X2666Y155D01*
X2669Y155D02*
X2676Y155D01*
X0Y154D02*
X7Y154D01*
X347Y154D02*
X363Y154D01*
X373Y154D02*
X378Y154D01*
X1050Y154D02*
X1059Y154D01*
X1504Y154D02*
X1513Y154D01*
X2258Y154D02*
X2272Y154D01*
X2648Y154D02*
X2655Y154D01*
X2657Y154D02*
X2666Y154D01*
X2669Y154D02*
X2676Y154D01*
X0Y153D02*
X7Y153D01*
X346Y153D02*
X363Y153D01*
X372Y153D02*
X378Y153D01*
X1050Y153D02*
X1059Y153D01*
X1504Y153D02*
X1513Y153D01*
X2258Y153D02*
X2272Y153D01*
X2648Y153D02*
X2655Y153D01*
X2657Y153D02*
X2666Y153D01*
X2669Y153D02*
X2676Y153D01*
X0Y152D02*
X7Y152D01*
X345Y152D02*
X364Y152D01*
X372Y152D02*
X378Y152D01*
X1050Y152D02*
X1059Y152D01*
X1504Y152D02*
X1513Y152D01*
X2258Y152D02*
X2272Y152D01*
X2648Y152D02*
X2655Y152D01*
X2657Y152D02*
X2666Y152D01*
X2669Y152D02*
X2676Y152D01*
X0Y151D02*
X7Y151D01*
X344Y151D02*
X364Y151D01*
X372Y151D02*
X378Y151D01*
X1050Y151D02*
X1059Y151D01*
X1504Y151D02*
X1513Y151D01*
X2258Y151D02*
X2272Y151D01*
X2648Y151D02*
X2655Y151D01*
X2657Y151D02*
X2666Y151D01*
X2669Y151D02*
X2676Y151D01*
X0Y150D02*
X7Y150D01*
X343Y150D02*
X364Y150D01*
X372Y150D02*
X378Y150D01*
X1050Y150D02*
X1059Y150D01*
X1504Y150D02*
X1513Y150D01*
X2258Y150D02*
X2272Y150D01*
X2648Y150D02*
X2655Y150D01*
X2657Y150D02*
X2666Y150D01*
X2669Y150D02*
X2676Y150D01*
X0Y149D02*
X7Y149D01*
X342Y149D02*
X364Y149D01*
X372Y149D02*
X378Y149D01*
X1050Y149D02*
X1059Y149D01*
X1504Y149D02*
X1513Y149D01*
X2258Y149D02*
X2272Y149D01*
X2648Y149D02*
X2655Y149D01*
X2657Y149D02*
X2666Y149D01*
X2669Y149D02*
X2676Y149D01*
X0Y148D02*
X7Y148D01*
X341Y148D02*
X349Y148D01*
X358Y148D02*
X364Y148D01*
X372Y148D02*
X378Y148D01*
X1050Y148D02*
X1059Y148D01*
X1504Y148D02*
X1513Y148D01*
X2258Y148D02*
X2272Y148D01*
X2648Y148D02*
X2655Y148D01*
X2657Y148D02*
X2666Y148D01*
X2669Y148D02*
X2676Y148D01*
X0Y147D02*
X7Y147D01*
X341Y147D02*
X348Y147D01*
X358Y147D02*
X364Y147D01*
X372Y147D02*
X378Y147D01*
X1050Y147D02*
X1059Y147D01*
X1504Y147D02*
X1513Y147D01*
X2258Y147D02*
X2272Y147D01*
X2648Y147D02*
X2655Y147D01*
X2657Y147D02*
X2666Y147D01*
X2669Y147D02*
X2676Y147D01*
X0Y146D02*
X7Y146D01*
X340Y146D02*
X347Y146D01*
X358Y146D02*
X364Y146D01*
X372Y146D02*
X378Y146D01*
X1050Y146D02*
X1059Y146D01*
X1504Y146D02*
X1513Y146D01*
X2258Y146D02*
X2272Y146D01*
X2648Y146D02*
X2655Y146D01*
X2657Y146D02*
X2666Y146D01*
X2669Y146D02*
X2676Y146D01*
X0Y145D02*
X7Y145D01*
X340Y145D02*
X347Y145D01*
X358Y145D02*
X364Y145D01*
X372Y145D02*
X378Y145D01*
X1050Y145D02*
X1059Y145D01*
X1504Y145D02*
X1513Y145D01*
X2258Y145D02*
X2272Y145D01*
X2648Y145D02*
X2655Y145D01*
X2657Y145D02*
X2666Y145D01*
X2669Y145D02*
X2676Y145D01*
X0Y144D02*
X7Y144D01*
X340Y144D02*
X346Y144D01*
X358Y144D02*
X364Y144D01*
X372Y144D02*
X378Y144D01*
X1050Y144D02*
X1059Y144D01*
X1504Y144D02*
X1513Y144D01*
X2258Y144D02*
X2272Y144D01*
X2648Y144D02*
X2655Y144D01*
X2657Y144D02*
X2666Y144D01*
X2669Y144D02*
X2676Y144D01*
X0Y143D02*
X7Y143D01*
X340Y143D02*
X346Y143D01*
X358Y143D02*
X364Y143D01*
X372Y143D02*
X378Y143D01*
X1050Y143D02*
X1059Y143D01*
X1504Y143D02*
X1513Y143D01*
X2258Y143D02*
X2272Y143D01*
X2648Y143D02*
X2655Y143D01*
X2657Y143D02*
X2666Y143D01*
X2669Y143D02*
X2676Y143D01*
X0Y142D02*
X7Y142D01*
X340Y142D02*
X346Y142D01*
X358Y142D02*
X364Y142D01*
X372Y142D02*
X378Y142D01*
X1050Y142D02*
X1059Y142D01*
X1504Y142D02*
X1513Y142D01*
X2258Y142D02*
X2272Y142D01*
X2648Y142D02*
X2655Y142D01*
X2657Y142D02*
X2666Y142D01*
X2669Y142D02*
X2676Y142D01*
X0Y141D02*
X7Y141D01*
X340Y141D02*
X346Y141D01*
X358Y141D02*
X364Y141D01*
X372Y141D02*
X378Y141D01*
X1050Y141D02*
X1059Y141D01*
X1504Y141D02*
X1513Y141D01*
X2258Y141D02*
X2272Y141D01*
X2648Y141D02*
X2655Y141D01*
X2657Y141D02*
X2666Y141D01*
X2669Y141D02*
X2676Y141D01*
X0Y140D02*
X7Y140D01*
X340Y140D02*
X346Y140D01*
X358Y140D02*
X364Y140D01*
X372Y140D02*
X378Y140D01*
X1050Y140D02*
X1059Y140D01*
X1504Y140D02*
X1513Y140D01*
X2258Y140D02*
X2272Y140D01*
X2648Y140D02*
X2655Y140D01*
X2657Y140D02*
X2666Y140D01*
X2669Y140D02*
X2676Y140D01*
X0Y139D02*
X7Y139D01*
X340Y139D02*
X346Y139D01*
X358Y139D02*
X364Y139D01*
X372Y139D02*
X378Y139D01*
X1050Y139D02*
X1059Y139D01*
X1504Y139D02*
X1513Y139D01*
X2258Y139D02*
X2272Y139D01*
X2648Y139D02*
X2655Y139D01*
X2657Y139D02*
X2666Y139D01*
X2669Y139D02*
X2676Y139D01*
X0Y138D02*
X7Y138D01*
X340Y138D02*
X346Y138D01*
X358Y138D02*
X364Y138D01*
X372Y138D02*
X378Y138D01*
X1050Y138D02*
X1059Y138D01*
X1504Y138D02*
X1513Y138D01*
X2258Y138D02*
X2272Y138D01*
X2648Y138D02*
X2655Y138D01*
X2657Y138D02*
X2666Y138D01*
X2669Y138D02*
X2676Y138D01*
X0Y137D02*
X7Y137D01*
X340Y137D02*
X346Y137D01*
X358Y137D02*
X364Y137D01*
X372Y137D02*
X378Y137D01*
X1050Y137D02*
X1059Y137D01*
X1504Y137D02*
X1513Y137D01*
X2258Y137D02*
X2272Y137D01*
X2648Y137D02*
X2655Y137D01*
X2657Y137D02*
X2666Y137D01*
X2669Y137D02*
X2676Y137D01*
X0Y136D02*
X7Y136D01*
X340Y136D02*
X346Y136D01*
X358Y136D02*
X364Y136D01*
X372Y136D02*
X378Y136D01*
X1050Y136D02*
X1059Y136D01*
X1504Y136D02*
X1513Y136D01*
X2258Y136D02*
X2272Y136D01*
X2648Y136D02*
X2655Y136D01*
X2657Y136D02*
X2666Y136D01*
X2669Y136D02*
X2676Y136D01*
X0Y135D02*
X7Y135D01*
X340Y135D02*
X346Y135D01*
X358Y135D02*
X364Y135D01*
X372Y135D02*
X378Y135D01*
X1050Y135D02*
X1059Y135D01*
X1504Y135D02*
X1513Y135D01*
X2258Y135D02*
X2272Y135D01*
X2648Y135D02*
X2655Y135D01*
X2657Y135D02*
X2666Y135D01*
X2669Y135D02*
X2676Y135D01*
X0Y134D02*
X7Y134D01*
X340Y134D02*
X346Y134D01*
X358Y134D02*
X364Y134D01*
X372Y134D02*
X378Y134D01*
X1050Y134D02*
X1059Y134D01*
X1504Y134D02*
X1513Y134D01*
X2258Y134D02*
X2272Y134D01*
X2648Y134D02*
X2655Y134D01*
X2657Y134D02*
X2666Y134D01*
X2669Y134D02*
X2676Y134D01*
X0Y133D02*
X7Y133D01*
X340Y133D02*
X346Y133D01*
X358Y133D02*
X364Y133D01*
X372Y133D02*
X378Y133D01*
X1050Y133D02*
X1059Y133D01*
X1504Y133D02*
X1513Y133D01*
X2258Y133D02*
X2272Y133D01*
X2648Y133D02*
X2655Y133D01*
X2657Y133D02*
X2666Y133D01*
X2669Y133D02*
X2676Y133D01*
X0Y132D02*
X7Y132D01*
X340Y132D02*
X347Y132D01*
X358Y132D02*
X364Y132D01*
X372Y132D02*
X378Y132D01*
X1050Y132D02*
X1059Y132D01*
X1504Y132D02*
X1513Y132D01*
X2258Y132D02*
X2272Y132D01*
X2648Y132D02*
X2655Y132D01*
X2657Y132D02*
X2666Y132D01*
X2669Y132D02*
X2676Y132D01*
X0Y131D02*
X7Y131D01*
X340Y131D02*
X347Y131D01*
X358Y131D02*
X364Y131D01*
X371Y131D02*
X378Y131D01*
X1050Y131D02*
X1059Y131D01*
X1504Y131D02*
X1513Y131D01*
X2258Y131D02*
X2272Y131D01*
X2648Y131D02*
X2655Y131D01*
X2657Y131D02*
X2666Y131D01*
X2669Y131D02*
X2676Y131D01*
X0Y130D02*
X7Y130D01*
X341Y130D02*
X348Y130D01*
X358Y130D02*
X364Y130D01*
X370Y130D02*
X377Y130D01*
X1050Y130D02*
X1059Y130D01*
X1504Y130D02*
X1513Y130D01*
X2258Y130D02*
X2272Y130D01*
X2648Y130D02*
X2655Y130D01*
X2657Y130D02*
X2666Y130D01*
X2669Y130D02*
X2676Y130D01*
X0Y129D02*
X7Y129D01*
X341Y129D02*
X349Y129D01*
X358Y129D02*
X364Y129D01*
X369Y129D02*
X377Y129D01*
X1050Y129D02*
X1059Y129D01*
X1504Y129D02*
X1513Y129D01*
X2259Y129D02*
X2272Y129D01*
X2649Y129D02*
X2655Y129D01*
X2657Y129D02*
X2666Y129D01*
X2669Y129D02*
X2676Y129D01*
X0Y128D02*
X7Y128D01*
X342Y128D02*
X376Y128D01*
X1050Y128D02*
X1059Y128D01*
X1504Y128D02*
X1513Y128D01*
X2259Y128D02*
X2272Y128D01*
X2649Y128D02*
X2654Y128D01*
X2657Y128D02*
X2666Y128D01*
X2669Y128D02*
X2676Y128D01*
X0Y127D02*
X7Y127D01*
X343Y127D02*
X376Y127D01*
X1050Y127D02*
X1059Y127D01*
X1504Y127D02*
X1513Y127D01*
X2260Y127D02*
X2272Y127D01*
X2651Y127D02*
X2653Y127D01*
X2657Y127D02*
X2666Y127D01*
X2669Y127D02*
X2676Y127D01*
X0Y126D02*
X7Y126D01*
X343Y126D02*
X375Y126D01*
X1050Y126D02*
X1059Y126D01*
X1504Y126D02*
X1513Y126D01*
X2260Y126D02*
X2272Y126D01*
X2657Y126D02*
X2666Y126D01*
X2669Y126D02*
X2676Y126D01*
X0Y125D02*
X7Y125D01*
X344Y125D02*
X374Y125D01*
X1050Y125D02*
X1059Y125D01*
X1504Y125D02*
X1513Y125D01*
X2260Y125D02*
X2272Y125D01*
X2657Y125D02*
X2666Y125D01*
X2669Y125D02*
X2676Y125D01*
X0Y124D02*
X7Y124D01*
X345Y124D02*
X373Y124D01*
X1050Y124D02*
X1059Y124D01*
X1504Y124D02*
X1513Y124D01*
X2260Y124D02*
X2272Y124D01*
X2657Y124D02*
X2666Y124D01*
X2669Y124D02*
X2676Y124D01*
X0Y123D02*
X7Y123D01*
X347Y123D02*
X372Y123D01*
X1050Y123D02*
X1059Y123D01*
X1504Y123D02*
X1513Y123D01*
X2260Y123D02*
X2272Y123D01*
X2657Y123D02*
X2666Y123D01*
X2669Y123D02*
X2676Y123D01*
X0Y122D02*
X7Y122D01*
X349Y122D02*
X370Y122D01*
X1050Y122D02*
X1059Y122D01*
X1504Y122D02*
X1513Y122D01*
X2260Y122D02*
X2272Y122D01*
X2657Y122D02*
X2666Y122D01*
X2669Y122D02*
X2676Y122D01*
X0Y121D02*
X7Y121D01*
X1050Y121D02*
X1059Y121D01*
X1504Y121D02*
X1513Y121D01*
X2260Y121D02*
X2272Y121D01*
X2657Y121D02*
X2666Y121D01*
X2669Y121D02*
X2676Y121D01*
X0Y120D02*
X7Y120D01*
X1050Y120D02*
X1059Y120D01*
X1504Y120D02*
X1513Y120D01*
X2260Y120D02*
X2272Y120D01*
X2657Y120D02*
X2666Y120D01*
X2669Y120D02*
X2676Y120D01*
X0Y119D02*
X7Y119D01*
X1050Y119D02*
X1059Y119D01*
X1504Y119D02*
X1513Y119D01*
X2260Y119D02*
X2272Y119D01*
X2657Y119D02*
X2666Y119D01*
X2669Y119D02*
X2676Y119D01*
X0Y118D02*
X7Y118D01*
X1050Y118D02*
X1059Y118D01*
X1504Y118D02*
X1513Y118D01*
X2260Y118D02*
X2272Y118D01*
X2657Y118D02*
X2666Y118D01*
X2669Y118D02*
X2676Y118D01*
X0Y117D02*
X7Y117D01*
X1050Y117D02*
X1059Y117D01*
X1504Y117D02*
X1513Y117D01*
X2669Y117D02*
X2676Y117D01*
X0Y116D02*
X7Y116D01*
X1050Y116D02*
X1059Y116D01*
X1504Y116D02*
X1513Y116D01*
X2669Y116D02*
X2676Y116D01*
X0Y115D02*
X7Y115D01*
X1050Y115D02*
X1059Y115D01*
X1504Y115D02*
X1513Y115D01*
X2669Y115D02*
X2676Y115D01*
X0Y114D02*
X7Y114D01*
X1050Y114D02*
X1059Y114D01*
X1504Y114D02*
X1513Y114D01*
X2669Y114D02*
X2676Y114D01*
X0Y113D02*
X7Y113D01*
X1050Y113D02*
X1059Y113D01*
X1504Y113D02*
X1513Y113D01*
X2669Y113D02*
X2676Y113D01*
X0Y112D02*
X7Y112D01*
X1050Y112D02*
X1059Y112D01*
X1504Y112D02*
X1513Y112D01*
X2669Y112D02*
X2676Y112D01*
X0Y111D02*
X7Y111D01*
X1050Y111D02*
X1059Y111D01*
X1504Y111D02*
X1513Y111D01*
X2669Y111D02*
X2676Y111D01*
X0Y110D02*
X7Y110D01*
X1050Y110D02*
X1059Y110D01*
X1504Y110D02*
X1513Y110D01*
X2669Y110D02*
X2676Y110D01*
X0Y109D02*
X7Y109D01*
X1050Y109D02*
X1059Y109D01*
X1504Y109D02*
X1513Y109D01*
X2669Y109D02*
X2676Y109D01*
X0Y108D02*
X7Y108D01*
X1050Y108D02*
X1059Y108D01*
X1504Y108D02*
X1513Y108D01*
X2669Y108D02*
X2676Y108D01*
X0Y107D02*
X7Y107D01*
X1050Y107D02*
X1059Y107D01*
X1504Y107D02*
X1513Y107D01*
X2669Y107D02*
X2676Y107D01*
X0Y106D02*
X7Y106D01*
X1050Y106D02*
X1059Y106D01*
X1504Y106D02*
X1513Y106D01*
X2669Y106D02*
X2676Y106D01*
X0Y105D02*
X7Y105D01*
X341Y105D02*
X384Y105D01*
X1050Y105D02*
X1059Y105D01*
X1504Y105D02*
X1513Y105D01*
X2669Y105D02*
X2676Y105D01*
X0Y104D02*
X7Y104D01*
X340Y104D02*
X386Y104D01*
X1050Y104D02*
X1059Y104D01*
X1504Y104D02*
X1513Y104D01*
X2669Y104D02*
X2676Y104D01*
X0Y103D02*
X7Y103D01*
X340Y103D02*
X387Y103D01*
X1050Y103D02*
X1059Y103D01*
X1504Y103D02*
X1513Y103D01*
X2669Y103D02*
X2676Y103D01*
X0Y102D02*
X7Y102D01*
X340Y102D02*
X388Y102D01*
X1050Y102D02*
X1059Y102D01*
X1504Y102D02*
X1513Y102D01*
X2669Y102D02*
X2676Y102D01*
X0Y101D02*
X7Y101D01*
X340Y101D02*
X389Y101D01*
X1050Y101D02*
X1059Y101D01*
X1504Y101D02*
X1513Y101D01*
X2669Y101D02*
X2676Y101D01*
X0Y100D02*
X7Y100D01*
X341Y100D02*
X390Y100D01*
X1050Y100D02*
X1059Y100D01*
X1504Y100D02*
X1513Y100D01*
X2669Y100D02*
X2676Y100D01*
X0Y99D02*
X7Y99D01*
X342Y99D02*
X391Y99D01*
X1050Y99D02*
X1059Y99D01*
X1504Y99D02*
X1513Y99D01*
X2669Y99D02*
X2676Y99D01*
X0Y98D02*
X7Y98D01*
X344Y98D02*
X352Y98D01*
X363Y98D02*
X371Y98D01*
X383Y98D02*
X392Y98D01*
X1050Y98D02*
X1059Y98D01*
X1504Y98D02*
X1513Y98D01*
X2669Y98D02*
X2676Y98D01*
X0Y97D02*
X7Y97D01*
X343Y97D02*
X351Y97D01*
X364Y97D02*
X372Y97D01*
X384Y97D02*
X392Y97D01*
X1050Y97D02*
X1059Y97D01*
X1504Y97D02*
X1513Y97D01*
X1880Y97D02*
X1880Y97D01*
X2669Y97D02*
X2676Y97D01*
X0Y96D02*
X7Y96D01*
X342Y96D02*
X351Y96D01*
X365Y96D02*
X373Y96D01*
X385Y96D02*
X392Y96D01*
X1050Y96D02*
X1059Y96D01*
X1504Y96D02*
X1513Y96D01*
X1879Y96D02*
X1881Y96D01*
X2669Y96D02*
X2676Y96D01*
X0Y95D02*
X7Y95D01*
X342Y95D02*
X350Y95D01*
X366Y95D02*
X374Y95D01*
X386Y95D02*
X393Y95D01*
X1050Y95D02*
X1059Y95D01*
X1504Y95D02*
X1513Y95D01*
X1878Y95D02*
X1882Y95D01*
X2669Y95D02*
X2676Y95D01*
X0Y94D02*
X7Y94D01*
X341Y94D02*
X349Y94D01*
X366Y94D02*
X374Y94D01*
X387Y94D02*
X393Y94D01*
X1050Y94D02*
X1059Y94D01*
X1504Y94D02*
X1513Y94D01*
X1877Y94D02*
X1883Y94D01*
X2669Y94D02*
X2676Y94D01*
X0Y93D02*
X7Y93D01*
X341Y93D02*
X348Y93D01*
X367Y93D02*
X375Y93D01*
X387Y93D02*
X393Y93D01*
X1050Y93D02*
X1059Y93D01*
X1504Y93D02*
X1513Y93D01*
X1876Y93D02*
X1882Y93D01*
X2669Y93D02*
X2676Y93D01*
X0Y92D02*
X7Y92D01*
X340Y92D02*
X347Y92D01*
X368Y92D02*
X375Y92D01*
X387Y92D02*
X393Y92D01*
X1050Y92D02*
X1059Y92D01*
X1504Y92D02*
X1513Y92D01*
X1875Y92D02*
X1881Y92D01*
X2669Y92D02*
X2676Y92D01*
X0Y91D02*
X7Y91D01*
X340Y91D02*
X346Y91D01*
X369Y91D02*
X375Y91D01*
X387Y91D02*
X393Y91D01*
X1050Y91D02*
X1059Y91D01*
X1504Y91D02*
X1513Y91D01*
X1874Y91D02*
X1880Y91D01*
X2669Y91D02*
X2676Y91D01*
X0Y90D02*
X7Y90D01*
X340Y90D02*
X346Y90D01*
X369Y90D02*
X375Y90D01*
X387Y90D02*
X393Y90D01*
X1050Y90D02*
X1059Y90D01*
X1504Y90D02*
X1513Y90D01*
X1873Y90D02*
X1879Y90D01*
X2669Y90D02*
X2676Y90D01*
X0Y89D02*
X7Y89D01*
X340Y89D02*
X346Y89D01*
X369Y89D02*
X375Y89D01*
X387Y89D02*
X393Y89D01*
X1050Y89D02*
X1059Y89D01*
X1504Y89D02*
X1513Y89D01*
X1872Y89D02*
X1878Y89D01*
X2669Y89D02*
X2676Y89D01*
X0Y88D02*
X7Y88D01*
X340Y88D02*
X346Y88D01*
X369Y88D02*
X375Y88D01*
X387Y88D02*
X393Y88D01*
X1050Y88D02*
X1059Y88D01*
X1504Y88D02*
X1513Y88D01*
X1871Y88D02*
X1877Y88D01*
X2669Y88D02*
X2676Y88D01*
X0Y87D02*
X7Y87D01*
X340Y87D02*
X346Y87D01*
X369Y87D02*
X375Y87D01*
X387Y87D02*
X393Y87D01*
X1050Y87D02*
X1059Y87D01*
X1504Y87D02*
X1513Y87D01*
X1870Y87D02*
X1876Y87D01*
X2669Y87D02*
X2676Y87D01*
X0Y86D02*
X7Y86D01*
X340Y86D02*
X346Y86D01*
X369Y86D02*
X375Y86D01*
X387Y86D02*
X393Y86D01*
X1050Y86D02*
X1059Y86D01*
X1504Y86D02*
X1513Y86D01*
X1869Y86D02*
X1875Y86D01*
X2669Y86D02*
X2676Y86D01*
X0Y85D02*
X7Y85D01*
X340Y85D02*
X346Y85D01*
X369Y85D02*
X375Y85D01*
X387Y85D02*
X393Y85D01*
X1050Y85D02*
X1059Y85D01*
X1504Y85D02*
X1513Y85D01*
X1868Y85D02*
X1874Y85D01*
X2669Y85D02*
X2676Y85D01*
X0Y84D02*
X7Y84D01*
X340Y84D02*
X346Y84D01*
X369Y84D02*
X375Y84D01*
X387Y84D02*
X393Y84D01*
X1050Y84D02*
X1059Y84D01*
X1504Y84D02*
X1513Y84D01*
X1867Y84D02*
X1873Y84D01*
X2669Y84D02*
X2676Y84D01*
X0Y83D02*
X7Y83D01*
X340Y83D02*
X346Y83D01*
X369Y83D02*
X375Y83D01*
X387Y83D02*
X393Y83D01*
X1050Y83D02*
X1059Y83D01*
X1504Y83D02*
X1513Y83D01*
X1866Y83D02*
X1872Y83D01*
X2669Y83D02*
X2676Y83D01*
X0Y82D02*
X7Y82D01*
X340Y82D02*
X347Y82D01*
X369Y82D02*
X375Y82D01*
X387Y82D02*
X393Y82D01*
X1050Y82D02*
X1059Y82D01*
X1504Y82D02*
X1513Y82D01*
X1865Y82D02*
X1871Y82D01*
X2669Y82D02*
X2676Y82D01*
X0Y81D02*
X7Y81D01*
X340Y81D02*
X347Y81D01*
X368Y81D02*
X375Y81D01*
X387Y81D02*
X393Y81D01*
X1050Y81D02*
X1059Y81D01*
X1504Y81D02*
X1513Y81D01*
X1865Y81D02*
X1870Y81D01*
X2669Y81D02*
X2676Y81D01*
X0Y80D02*
X7Y80D01*
X341Y80D02*
X348Y80D01*
X367Y80D02*
X374Y80D01*
X387Y80D02*
X393Y80D01*
X1050Y80D02*
X1059Y80D01*
X1504Y80D02*
X1513Y80D01*
X1864Y80D02*
X1869Y80D01*
X2669Y80D02*
X2676Y80D01*
X0Y79D02*
X7Y79D01*
X341Y79D02*
X349Y79D01*
X366Y79D02*
X374Y79D01*
X387Y79D02*
X393Y79D01*
X1050Y79D02*
X1059Y79D01*
X1504Y79D02*
X1513Y79D01*
X1863Y79D02*
X1868Y79D01*
X2669Y79D02*
X2676Y79D01*
X0Y78D02*
X7Y78D01*
X342Y78D02*
X373Y78D01*
X387Y78D02*
X393Y78D01*
X1050Y78D02*
X1059Y78D01*
X1504Y78D02*
X1513Y78D01*
X1862Y78D02*
X1867Y78D01*
X2669Y78D02*
X2676Y78D01*
X0Y77D02*
X7Y77D01*
X343Y77D02*
X372Y77D01*
X387Y77D02*
X393Y77D01*
X1050Y77D02*
X1059Y77D01*
X1504Y77D02*
X1513Y77D01*
X1860Y77D02*
X1866Y77D01*
X2669Y77D02*
X2676Y77D01*
X0Y76D02*
X7Y76D01*
X344Y76D02*
X372Y76D01*
X388Y76D02*
X392Y76D01*
X1050Y76D02*
X1059Y76D01*
X1504Y76D02*
X1513Y76D01*
X1859Y76D02*
X1865Y76D01*
X2669Y76D02*
X2676Y76D01*
X0Y75D02*
X7Y75D01*
X344Y75D02*
X371Y75D01*
X389Y75D02*
X391Y75D01*
X1050Y75D02*
X1059Y75D01*
X1504Y75D02*
X1513Y75D01*
X1858Y75D02*
X1864Y75D01*
X2669Y75D02*
X2676Y75D01*
X0Y74D02*
X7Y74D01*
X345Y74D02*
X370Y74D01*
X1050Y74D02*
X1059Y74D01*
X1504Y74D02*
X1513Y74D01*
X1857Y74D02*
X1863Y74D01*
X2669Y74D02*
X2676Y74D01*
X0Y73D02*
X7Y73D01*
X347Y73D02*
X369Y73D01*
X1050Y73D02*
X1059Y73D01*
X1504Y73D02*
X1513Y73D01*
X1856Y73D02*
X1862Y73D01*
X2669Y73D02*
X2676Y73D01*
X0Y72D02*
X7Y72D01*
X348Y72D02*
X367Y72D01*
X1050Y72D02*
X1059Y72D01*
X1504Y72D02*
X1513Y72D01*
X1855Y72D02*
X1861Y72D01*
X2669Y72D02*
X2676Y72D01*
X0Y71D02*
X7Y71D01*
X1050Y71D02*
X1059Y71D01*
X1504Y71D02*
X1513Y71D01*
X1854Y71D02*
X1860Y71D01*
X2669Y71D02*
X2676Y71D01*
X0Y70D02*
X7Y70D01*
X1050Y70D02*
X1059Y70D01*
X1504Y70D02*
X1513Y70D01*
X1853Y70D02*
X1859Y70D01*
X2669Y70D02*
X2676Y70D01*
X0Y69D02*
X7Y69D01*
X1050Y69D02*
X1059Y69D01*
X1504Y69D02*
X1513Y69D01*
X1852Y69D02*
X1858Y69D01*
X2669Y69D02*
X2676Y69D01*
X0Y68D02*
X7Y68D01*
X1050Y68D02*
X1059Y68D01*
X1504Y68D02*
X1513Y68D01*
X1851Y68D02*
X1857Y68D01*
X2669Y68D02*
X2676Y68D01*
X0Y67D02*
X7Y67D01*
X1050Y67D02*
X1059Y67D01*
X1504Y67D02*
X1513Y67D01*
X1850Y67D02*
X1856Y67D01*
X2669Y67D02*
X2676Y67D01*
X0Y66D02*
X7Y66D01*
X1050Y66D02*
X1059Y66D01*
X1504Y66D02*
X1513Y66D01*
X1849Y66D02*
X1855Y66D01*
X2669Y66D02*
X2676Y66D01*
X0Y65D02*
X7Y65D01*
X1050Y65D02*
X1059Y65D01*
X1504Y65D02*
X1513Y65D01*
X1848Y65D02*
X1854Y65D01*
X2669Y65D02*
X2676Y65D01*
X0Y64D02*
X7Y64D01*
X1050Y64D02*
X1059Y64D01*
X1504Y64D02*
X1513Y64D01*
X1847Y64D02*
X1853Y64D01*
X2669Y64D02*
X2676Y64D01*
X0Y63D02*
X7Y63D01*
X1050Y63D02*
X1059Y63D01*
X1504Y63D02*
X1513Y63D01*
X1846Y63D02*
X1852Y63D01*
X2669Y63D02*
X2676Y63D01*
X0Y62D02*
X7Y62D01*
X1050Y62D02*
X1059Y62D01*
X1504Y62D02*
X1513Y62D01*
X1846Y62D02*
X1851Y62D01*
X2669Y62D02*
X2676Y62D01*
X0Y61D02*
X7Y61D01*
X1050Y61D02*
X1059Y61D01*
X1504Y61D02*
X1513Y61D01*
X1847Y61D02*
X1850Y61D01*
X2669Y61D02*
X2676Y61D01*
X0Y60D02*
X7Y60D01*
X1050Y60D02*
X1059Y60D01*
X1504Y60D02*
X1513Y60D01*
X1848Y60D02*
X1849Y60D01*
X2669Y60D02*
X2676Y60D01*
X0Y59D02*
X7Y59D01*
X1050Y59D02*
X1059Y59D01*
X1504Y59D02*
X1513Y59D01*
X2669Y59D02*
X2676Y59D01*
X0Y58D02*
X7Y58D01*
X1050Y58D02*
X1059Y58D01*
X1504Y58D02*
X1513Y58D01*
X2669Y58D02*
X2676Y58D01*
X0Y57D02*
X7Y57D01*
X1050Y57D02*
X1059Y57D01*
X1504Y57D02*
X1513Y57D01*
X2669Y57D02*
X2676Y57D01*
X0Y56D02*
X7Y56D01*
X1050Y56D02*
X1059Y56D01*
X1504Y56D02*
X1513Y56D01*
X2669Y56D02*
X2676Y56D01*
X0Y55D02*
X7Y55D01*
X346Y55D02*
X353Y55D01*
X1050Y55D02*
X1059Y55D01*
X1504Y55D02*
X1513Y55D01*
X2669Y55D02*
X2676Y55D01*
X0Y54D02*
X7Y54D01*
X344Y54D02*
X354Y54D01*
X1050Y54D02*
X1059Y54D01*
X1504Y54D02*
X1513Y54D01*
X2669Y54D02*
X2676Y54D01*
X0Y53D02*
X7Y53D01*
X343Y53D02*
X355Y53D01*
X1050Y53D02*
X1059Y53D01*
X1504Y53D02*
X1513Y53D01*
X2669Y53D02*
X2676Y53D01*
X0Y52D02*
X7Y52D01*
X342Y52D02*
X355Y52D01*
X1050Y52D02*
X1059Y52D01*
X1504Y52D02*
X1513Y52D01*
X2669Y52D02*
X2676Y52D01*
X0Y51D02*
X7Y51D01*
X342Y51D02*
X354Y51D01*
X1050Y51D02*
X1059Y51D01*
X1504Y51D02*
X1513Y51D01*
X2669Y51D02*
X2676Y51D01*
X0Y50D02*
X7Y50D01*
X341Y50D02*
X354Y50D01*
X1050Y50D02*
X1059Y50D01*
X1504Y50D02*
X1513Y50D01*
X2669Y50D02*
X2676Y50D01*
X0Y49D02*
X7Y49D01*
X340Y49D02*
X352Y49D01*
X1050Y49D02*
X1059Y49D01*
X1504Y49D02*
X1513Y49D01*
X2669Y49D02*
X2676Y49D01*
X0Y48D02*
X7Y48D01*
X340Y48D02*
X347Y48D01*
X1050Y48D02*
X1059Y48D01*
X1504Y48D02*
X1513Y48D01*
X2669Y48D02*
X2676Y48D01*
X0Y47D02*
X7Y47D01*
X340Y47D02*
X346Y47D01*
X1050Y47D02*
X1059Y47D01*
X1504Y47D02*
X1513Y47D01*
X2669Y47D02*
X2676Y47D01*
X0Y46D02*
X7Y46D01*
X340Y46D02*
X346Y46D01*
X1050Y46D02*
X1059Y46D01*
X1504Y46D02*
X1513Y46D01*
X2669Y46D02*
X2676Y46D01*
X0Y45D02*
X7Y45D01*
X340Y45D02*
X346Y45D01*
X1050Y45D02*
X1059Y45D01*
X1504Y45D02*
X1513Y45D01*
X2669Y45D02*
X2676Y45D01*
X0Y44D02*
X7Y44D01*
X340Y44D02*
X346Y44D01*
X1050Y44D02*
X1059Y44D01*
X1504Y44D02*
X1513Y44D01*
X2669Y44D02*
X2676Y44D01*
X0Y43D02*
X7Y43D01*
X340Y43D02*
X346Y43D01*
X1050Y43D02*
X1059Y43D01*
X1504Y43D02*
X1513Y43D01*
X2669Y43D02*
X2676Y43D01*
X0Y42D02*
X7Y42D01*
X340Y42D02*
X346Y42D01*
X1050Y42D02*
X1059Y42D01*
X1504Y42D02*
X1513Y42D01*
X2669Y42D02*
X2676Y42D01*
X0Y41D02*
X7Y41D01*
X340Y41D02*
X346Y41D01*
X1050Y41D02*
X1059Y41D01*
X1504Y41D02*
X1513Y41D01*
X2669Y41D02*
X2676Y41D01*
X0Y40D02*
X7Y40D01*
X340Y40D02*
X346Y40D01*
X1050Y40D02*
X1059Y40D01*
X1504Y40D02*
X1513Y40D01*
X1624Y40D02*
X1651Y40D01*
X1725Y40D02*
X1729Y40D01*
X1925Y40D02*
X1956Y40D01*
X2669Y40D02*
X2676Y40D01*
X0Y39D02*
X7Y39D01*
X340Y39D02*
X347Y39D01*
X1050Y39D02*
X1059Y39D01*
X1504Y39D02*
X1513Y39D01*
X1624Y39D02*
X1653Y39D01*
X1724Y39D02*
X1730Y39D01*
X1924Y39D02*
X1957Y39D01*
X2669Y39D02*
X2676Y39D01*
X0Y38D02*
X7Y38D01*
X340Y38D02*
X347Y38D01*
X1050Y38D02*
X1059Y38D01*
X1504Y38D02*
X1513Y38D01*
X1624Y38D02*
X1654Y38D01*
X1724Y38D02*
X1730Y38D01*
X1924Y38D02*
X1957Y38D01*
X2669Y38D02*
X2676Y38D01*
X0Y37D02*
X7Y37D01*
X340Y37D02*
X348Y37D01*
X1050Y37D02*
X1059Y37D01*
X1504Y37D02*
X1513Y37D01*
X1624Y37D02*
X1655Y37D01*
X1724Y37D02*
X1730Y37D01*
X1832Y37D02*
X1836Y37D01*
X1924Y37D02*
X1957Y37D01*
X2669Y37D02*
X2676Y37D01*
X0Y36D02*
X7Y36D01*
X341Y36D02*
X349Y36D01*
X1050Y36D02*
X1059Y36D01*
X1504Y36D02*
X1513Y36D01*
X1624Y36D02*
X1656Y36D01*
X1724Y36D02*
X1730Y36D01*
X1831Y36D02*
X1836Y36D01*
X1924Y36D02*
X1957Y36D01*
X2669Y36D02*
X2676Y36D01*
X0Y35D02*
X7Y35D01*
X342Y35D02*
X350Y35D01*
X1050Y35D02*
X1059Y35D01*
X1504Y35D02*
X1513Y35D01*
X1624Y35D02*
X1656Y35D01*
X1724Y35D02*
X1730Y35D01*
X1831Y35D02*
X1837Y35D01*
X1925Y35D02*
X1957Y35D01*
X2669Y35D02*
X2676Y35D01*
X0Y34D02*
X7Y34D01*
X343Y34D02*
X351Y34D01*
X1050Y34D02*
X1059Y34D01*
X1504Y34D02*
X1513Y34D01*
X1624Y34D02*
X1657Y34D01*
X1724Y34D02*
X1730Y34D01*
X1831Y34D02*
X1837Y34D01*
X1927Y34D02*
X1955Y34D01*
X2669Y34D02*
X2676Y34D01*
X0Y33D02*
X7Y33D01*
X343Y33D02*
X352Y33D01*
X1050Y33D02*
X1059Y33D01*
X1504Y33D02*
X1513Y33D01*
X1624Y33D02*
X1630Y33D01*
X1650Y33D02*
X1657Y33D01*
X1724Y33D02*
X1730Y33D01*
X1831Y33D02*
X1837Y33D01*
X1938Y33D02*
X1944Y33D01*
X2669Y33D02*
X2676Y33D01*
X0Y32D02*
X7Y32D01*
X344Y32D02*
X353Y32D01*
X1050Y32D02*
X1059Y32D01*
X1504Y32D02*
X1513Y32D01*
X1624Y32D02*
X1630Y32D01*
X1651Y32D02*
X1657Y32D01*
X1724Y32D02*
X1730Y32D01*
X1831Y32D02*
X1837Y32D01*
X1938Y32D02*
X1944Y32D01*
X2669Y32D02*
X2676Y32D01*
X0Y31D02*
X7Y31D01*
X345Y31D02*
X353Y31D01*
X1050Y31D02*
X1059Y31D01*
X1504Y31D02*
X1513Y31D01*
X1624Y31D02*
X1630Y31D01*
X1651Y31D02*
X1658Y31D01*
X1724Y31D02*
X1730Y31D01*
X1831Y31D02*
X1837Y31D01*
X1938Y31D02*
X1944Y31D01*
X2669Y31D02*
X2676Y31D01*
X0Y30D02*
X7Y30D01*
X346Y30D02*
X354Y30D01*
X1050Y30D02*
X1059Y30D01*
X1504Y30D02*
X1513Y30D01*
X1624Y30D02*
X1630Y30D01*
X1652Y30D02*
X1658Y30D01*
X1724Y30D02*
X1730Y30D01*
X1831Y30D02*
X1837Y30D01*
X1938Y30D02*
X1944Y30D01*
X2669Y30D02*
X2676Y30D01*
X0Y29D02*
X7Y29D01*
X347Y29D02*
X355Y29D01*
X1050Y29D02*
X1059Y29D01*
X1504Y29D02*
X1513Y29D01*
X1624Y29D02*
X1630Y29D01*
X1652Y29D02*
X1658Y29D01*
X1724Y29D02*
X1730Y29D01*
X1831Y29D02*
X1837Y29D01*
X1938Y29D02*
X1944Y29D01*
X2669Y29D02*
X2676Y29D01*
X0Y28D02*
X7Y28D01*
X342Y28D02*
X376Y28D01*
X1050Y28D02*
X1059Y28D01*
X1504Y28D02*
X1513Y28D01*
X1624Y28D02*
X1630Y28D01*
X1652Y28D02*
X1658Y28D01*
X1724Y28D02*
X1730Y28D01*
X1831Y28D02*
X1837Y28D01*
X1938Y28D02*
X1944Y28D01*
X2669Y28D02*
X2676Y28D01*
X0Y27D02*
X7Y27D01*
X341Y27D02*
X377Y27D01*
X1050Y27D02*
X1059Y27D01*
X1504Y27D02*
X1513Y27D01*
X1624Y27D02*
X1630Y27D01*
X1652Y27D02*
X1658Y27D01*
X1724Y27D02*
X1730Y27D01*
X1831Y27D02*
X1837Y27D01*
X1938Y27D02*
X1944Y27D01*
X2669Y27D02*
X2676Y27D01*
X0Y26D02*
X7Y26D01*
X340Y26D02*
X378Y26D01*
X1050Y26D02*
X1059Y26D01*
X1504Y26D02*
X1513Y26D01*
X1624Y26D02*
X1630Y26D01*
X1651Y26D02*
X1658Y26D01*
X1685Y26D02*
X1697Y26D01*
X1724Y26D02*
X1730Y26D01*
X1739Y26D02*
X1747Y26D01*
X1785Y26D02*
X1797Y26D01*
X1827Y26D02*
X1851Y26D01*
X1938Y26D02*
X1944Y26D01*
X1977Y26D02*
X1977Y26D01*
X1992Y26D02*
X1998Y26D01*
X2669Y26D02*
X2676Y26D01*
X0Y25D02*
X7Y25D01*
X340Y25D02*
X378Y25D01*
X1050Y25D02*
X1059Y25D01*
X1504Y25D02*
X1513Y25D01*
X1624Y25D02*
X1630Y25D01*
X1651Y25D02*
X1657Y25D01*
X1682Y25D02*
X1699Y25D01*
X1724Y25D02*
X1730Y25D01*
X1736Y25D02*
X1749Y25D01*
X1782Y25D02*
X1799Y25D01*
X1825Y25D02*
X1853Y25D01*
X1938Y25D02*
X1944Y25D01*
X1975Y25D02*
X1979Y25D01*
X1989Y25D02*
X2001Y25D01*
X2669Y25D02*
X2676Y25D01*
X0Y24D02*
X7Y24D01*
X340Y24D02*
X378Y24D01*
X1050Y24D02*
X1059Y24D01*
X1504Y24D02*
X1513Y24D01*
X1624Y24D02*
X1630Y24D01*
X1650Y24D02*
X1657Y24D01*
X1681Y24D02*
X1701Y24D01*
X1724Y24D02*
X1730Y24D01*
X1734Y24D02*
X1751Y24D01*
X1781Y24D02*
X1801Y24D01*
X1824Y24D02*
X1854Y24D01*
X1938Y24D02*
X1944Y24D01*
X1974Y24D02*
X1980Y24D01*
X1987Y24D02*
X2003Y24D01*
X2669Y24D02*
X2676Y24D01*
X0Y23D02*
X7Y23D01*
X340Y23D02*
X378Y23D01*
X1050Y23D02*
X1059Y23D01*
X1504Y23D02*
X1513Y23D01*
X1624Y23D02*
X1657Y23D01*
X1679Y23D02*
X1702Y23D01*
X1724Y23D02*
X1730Y23D01*
X1733Y23D02*
X1752Y23D01*
X1779Y23D02*
X1802Y23D01*
X1824Y23D02*
X1854Y23D01*
X1938Y23D02*
X1944Y23D01*
X1974Y23D02*
X1980Y23D01*
X1985Y23D02*
X2004Y23D01*
X2669Y23D02*
X2676Y23D01*
X0Y22D02*
X7Y22D01*
X341Y22D02*
X377Y22D01*
X1050Y22D02*
X1059Y22D01*
X1504Y22D02*
X1513Y22D01*
X1624Y22D02*
X1656Y22D01*
X1678Y22D02*
X1703Y22D01*
X1724Y22D02*
X1753Y22D01*
X1778Y22D02*
X1803Y22D01*
X1824Y22D02*
X1854Y22D01*
X1938Y22D02*
X1944Y22D01*
X1974Y22D02*
X1980Y22D01*
X1984Y22D02*
X2005Y22D01*
X2669Y22D02*
X2676Y22D01*
X0Y21D02*
X7Y21D01*
X1050Y21D02*
X1059Y21D01*
X1504Y21D02*
X1513Y21D01*
X1624Y21D02*
X1656Y21D01*
X1677Y21D02*
X1704Y21D01*
X1724Y21D02*
X1754Y21D01*
X1777Y21D02*
X1804Y21D01*
X1824Y21D02*
X1854Y21D01*
X1938Y21D02*
X1944Y21D01*
X1974Y21D02*
X1980Y21D01*
X1982Y21D02*
X2005Y21D01*
X2669Y21D02*
X2676Y21D01*
X0Y20D02*
X7Y20D01*
X1050Y20D02*
X1059Y20D01*
X1504Y20D02*
X1513Y20D01*
X1624Y20D02*
X1655Y20D01*
X1676Y20D02*
X1705Y20D01*
X1724Y20D02*
X1755Y20D01*
X1776Y20D02*
X1805Y20D01*
X1825Y20D02*
X1853Y20D01*
X1938Y20D02*
X1944Y20D01*
X1974Y20D02*
X2006Y20D01*
X2669Y20D02*
X2676Y20D01*
X0Y19D02*
X7Y19D01*
X1050Y19D02*
X1059Y19D01*
X1504Y19D02*
X1513Y19D01*
X1624Y19D02*
X1654Y19D01*
X1676Y19D02*
X1685Y19D01*
X1696Y19D02*
X1706Y19D01*
X1724Y19D02*
X1738Y19D01*
X1746Y19D02*
X1756Y19D01*
X1776Y19D02*
X1785Y19D01*
X1796Y19D02*
X1806Y19D01*
X1831Y19D02*
X1837Y19D01*
X1938Y19D02*
X1944Y19D01*
X1974Y19D02*
X1991Y19D01*
X1998Y19D02*
X2006Y19D01*
X2669Y19D02*
X2676Y19D01*
X0Y18D02*
X7Y18D01*
X1050Y18D02*
X1059Y18D01*
X1504Y18D02*
X1513Y18D01*
X1624Y18D02*
X1653Y18D01*
X1675Y18D02*
X1683Y18D01*
X1698Y18D02*
X1707Y18D01*
X1724Y18D02*
X1737Y18D01*
X1748Y18D02*
X1757Y18D01*
X1775Y18D02*
X1783Y18D01*
X1798Y18D02*
X1807Y18D01*
X1831Y18D02*
X1837Y18D01*
X1938Y18D02*
X1944Y18D01*
X1974Y18D02*
X1990Y18D01*
X2000Y18D02*
X2006Y18D01*
X2669Y18D02*
X2676Y18D01*
X0Y17D02*
X7Y17D01*
X1050Y17D02*
X1059Y17D01*
X1504Y17D02*
X1513Y17D01*
X1624Y17D02*
X1651Y17D01*
X1675Y17D02*
X1682Y17D01*
X1700Y17D02*
X1707Y17D01*
X1724Y17D02*
X1736Y17D01*
X1749Y17D02*
X1757Y17D01*
X1775Y17D02*
X1782Y17D01*
X1800Y17D02*
X1807Y17D01*
X1831Y17D02*
X1837Y17D01*
X1938Y17D02*
X1944Y17D01*
X1974Y17D02*
X1988Y17D01*
X2000Y17D02*
X2007Y17D01*
X2669Y17D02*
X2676Y17D01*
X0Y16D02*
X7Y16D01*
X1050Y16D02*
X1059Y16D01*
X1504Y16D02*
X1513Y16D01*
X1624Y16D02*
X1630Y16D01*
X1636Y16D02*
X1643Y16D01*
X1674Y16D02*
X1681Y16D01*
X1701Y16D02*
X1707Y16D01*
X1724Y16D02*
X1734Y16D01*
X1750Y16D02*
X1757Y16D01*
X1774Y16D02*
X1781Y16D01*
X1801Y16D02*
X1807Y16D01*
X1831Y16D02*
X1837Y16D01*
X1938Y16D02*
X1944Y16D01*
X1974Y16D02*
X1986Y16D01*
X2001Y16D02*
X2007Y16D01*
X2669Y16D02*
X2676Y16D01*
X0Y15D02*
X7Y15D01*
X1050Y15D02*
X1059Y15D01*
X1504Y15D02*
X1513Y15D01*
X1624Y15D02*
X1630Y15D01*
X1636Y15D02*
X1644Y15D01*
X1674Y15D02*
X1680Y15D01*
X1701Y15D02*
X1707Y15D01*
X1724Y15D02*
X1733Y15D01*
X1751Y15D02*
X1757Y15D01*
X1774Y15D02*
X1780Y15D01*
X1801Y15D02*
X1807Y15D01*
X1831Y15D02*
X1837Y15D01*
X1938Y15D02*
X1944Y15D01*
X1974Y15D02*
X1985Y15D01*
X2001Y15D02*
X2007Y15D01*
X2669Y15D02*
X2676Y15D01*
X0Y14D02*
X7Y14D01*
X1050Y14D02*
X1059Y14D01*
X1504Y14D02*
X1513Y14D01*
X1624Y14D02*
X1630Y14D01*
X1637Y14D02*
X1644Y14D01*
X1674Y14D02*
X1680Y14D01*
X1702Y14D02*
X1708Y14D01*
X1724Y14D02*
X1732Y14D01*
X1752Y14D02*
X1758Y14D01*
X1774Y14D02*
X1780Y14D01*
X1802Y14D02*
X1808Y14D01*
X1831Y14D02*
X1837Y14D01*
X1938Y14D02*
X1944Y14D01*
X1974Y14D02*
X1983Y14D01*
X2001Y14D02*
X2007Y14D01*
X2669Y14D02*
X2676Y14D01*
X0Y13D02*
X7Y13D01*
X1050Y13D02*
X1059Y13D01*
X1504Y13D02*
X1513Y13D01*
X1624Y13D02*
X1630Y13D01*
X1638Y13D02*
X1645Y13D01*
X1674Y13D02*
X1680Y13D01*
X1702Y13D02*
X1708Y13D01*
X1724Y13D02*
X1731Y13D01*
X1752Y13D02*
X1758Y13D01*
X1774Y13D02*
X1780Y13D01*
X1802Y13D02*
X1808Y13D01*
X1831Y13D02*
X1837Y13D01*
X1938Y13D02*
X1944Y13D01*
X1974Y13D02*
X1982Y13D01*
X2001Y13D02*
X2007Y13D01*
X2669Y13D02*
X2676Y13D01*
X0Y12D02*
X7Y12D01*
X1050Y12D02*
X1059Y12D01*
X1504Y12D02*
X1513Y12D01*
X1624Y12D02*
X1630Y12D01*
X1638Y12D02*
X1645Y12D01*
X1674Y12D02*
X1680Y12D01*
X1702Y12D02*
X1708Y12D01*
X1724Y12D02*
X1730Y12D01*
X1752Y12D02*
X1758Y12D01*
X1774Y12D02*
X1780Y12D01*
X1802Y12D02*
X1808Y12D01*
X1831Y12D02*
X1837Y12D01*
X1938Y12D02*
X1944Y12D01*
X1974Y12D02*
X1980Y12D01*
X2001Y12D02*
X2007Y12D01*
X2669Y12D02*
X2676Y12D01*
X0Y11D02*
X7Y11D01*
X1050Y11D02*
X1059Y11D01*
X1504Y11D02*
X1513Y11D01*
X1624Y11D02*
X1630Y11D01*
X1639Y11D02*
X1646Y11D01*
X1674Y11D02*
X1680Y11D01*
X1702Y11D02*
X1708Y11D01*
X1724Y11D02*
X1730Y11D01*
X1752Y11D02*
X1758Y11D01*
X1774Y11D02*
X1780Y11D01*
X1802Y11D02*
X1808Y11D01*
X1831Y11D02*
X1837Y11D01*
X1938Y11D02*
X1944Y11D01*
X1974Y11D02*
X1980Y11D01*
X2001Y11D02*
X2007Y11D01*
X2669Y11D02*
X2676Y11D01*
X0Y10D02*
X7Y10D01*
X1050Y10D02*
X1059Y10D01*
X1504Y10D02*
X1513Y10D01*
X1624Y10D02*
X1630Y10D01*
X1639Y10D02*
X1647Y10D01*
X1674Y10D02*
X1680Y10D01*
X1702Y10D02*
X1708Y10D01*
X1724Y10D02*
X1730Y10D01*
X1752Y10D02*
X1758Y10D01*
X1774Y10D02*
X1780Y10D01*
X1802Y10D02*
X1808Y10D01*
X1831Y10D02*
X1837Y10D01*
X1938Y10D02*
X1944Y10D01*
X1974Y10D02*
X1980Y10D01*
X2001Y10D02*
X2007Y10D01*
X2669Y10D02*
X2676Y10D01*
X0Y9D02*
X2676Y9D01*
X0Y8D02*
X2676Y8D01*
X0Y7D02*
X2676Y7D01*
X0Y6D02*
X2676Y6D01*
X0Y5D02*
X2676Y5D01*
X0Y4D02*
X2676Y4D01*
X0Y3D02*
X2676Y3D01*
X0Y2D02*
X2676Y2D01*
X342Y1D02*
X378Y1D01*
X1050Y1D02*
X1059Y1D01*
X1504Y1D02*
X1513Y1D01*
X1624Y1D02*
X1630Y1D01*
X1645Y1D02*
X1652Y1D01*
X1674Y1D02*
X1680Y1D01*
X1702Y1D02*
X1708Y1D01*
X1724Y1D02*
X1730Y1D01*
X1752Y1D02*
X1758Y1D01*
X1774Y1D02*
X1780Y1D01*
X1802Y1D02*
X1808Y1D01*
X1831Y1D02*
X1837Y1D01*
X1938Y1D02*
X1944Y1D01*
X1974Y1D02*
X1980Y1D01*
X2001Y1D02*
X2007Y1D01*
X341Y0D02*
X377Y0D01*
X1050Y0D02*
X1059Y0D01*
X1504Y0D02*
X1513Y0D01*
X1624Y0D02*
X1630Y0D01*
X1645Y0D02*
X1652Y0D01*
X1674Y0D02*
X1680Y0D01*
X1702Y0D02*
X1708Y0D01*
X1724Y0D02*
X1731Y0D01*
X1752Y0D02*
X1758Y0D01*
X1774Y0D02*
X1780Y0D01*
X1802Y0D02*
X1808Y0D01*
X1831Y0D02*
X1837Y0D01*
X1938Y0D02*
X1944Y0D01*
X1974Y0D02*
X1980Y0D01*
X2001Y0D02*
X2007Y0D01*
D02*
G04 End of Silk1*
M02*