G04 MADE WITH FRITZING*
G04 WWW.FRITZING.ORG*
G04 SINGLE SIDED*
G04 HOLES NOT PLATED*
G04 CONTOUR ON CENTER OF CONTOUR VECTOR*
%ASAXBY*%
%FSLAX23Y23*%
%MOIN*%
%OFA0B0*%
%SFA1.0B1.0*%
%ADD10R,1.799170X1.242500X1.783170X1.226500*%
%ADD11C,0.008000*%
%ADD12C,0.010000*%
%ADD13C,0.005000*%
%ADD14C,0.005120*%
%ADD15R,0.001000X0.001000*%
%LNSILK1*%
G90*
G70*
G54D11*
X4Y1239D02*
X1795Y1239D01*
X1795Y4D01*
X4Y4D01*
X4Y1239D01*
D02*
G54D12*
X1574Y1058D02*
X1574Y958D01*
D02*
X1574Y958D02*
X1674Y958D01*
D02*
X1674Y958D02*
X1674Y1058D01*
D02*
X1674Y1058D02*
X1574Y1058D01*
G54D13*
D02*
X1574Y1023D02*
X1609Y1058D01*
G54D12*
D02*
X174Y1058D02*
X174Y958D01*
D02*
X174Y958D02*
X274Y958D01*
D02*
X274Y958D02*
X274Y1058D01*
D02*
X274Y1058D02*
X174Y1058D01*
G54D13*
D02*
X174Y1023D02*
X209Y1058D01*
G54D12*
D02*
X724Y808D02*
X724Y108D01*
D02*
X724Y108D02*
X1124Y108D01*
D02*
X1124Y108D02*
X1124Y808D01*
D02*
X724Y808D02*
X874Y808D01*
D02*
X974Y808D02*
X1124Y808D01*
D02*
X1224Y1058D02*
X924Y1058D01*
D02*
X924Y1058D02*
X924Y958D01*
D02*
X924Y958D02*
X1224Y958D01*
D02*
X1224Y958D02*
X1224Y1058D01*
G54D13*
D02*
X1189Y1058D02*
X1224Y1023D01*
G54D12*
D02*
X924Y1058D02*
X624Y1058D01*
D02*
X624Y1058D02*
X624Y958D01*
D02*
X624Y958D02*
X924Y958D01*
D02*
X924Y958D02*
X924Y1058D01*
G54D13*
D02*
X889Y1058D02*
X924Y1023D01*
G54D12*
D02*
X1524Y608D02*
X1224Y608D01*
D02*
X1224Y608D02*
X1224Y508D01*
D02*
X1224Y508D02*
X1524Y508D01*
D02*
X1524Y508D02*
X1524Y608D01*
G54D13*
D02*
X1489Y608D02*
X1524Y573D01*
G54D12*
D02*
X324Y508D02*
X624Y508D01*
D02*
X624Y508D02*
X624Y608D01*
D02*
X624Y608D02*
X324Y608D01*
D02*
X324Y608D02*
X324Y508D01*
G54D13*
D02*
X359Y508D02*
X324Y543D01*
G54D12*
D02*
X144Y555D02*
X144Y155D01*
D02*
X144Y155D02*
X244Y155D01*
D02*
X244Y155D02*
X244Y555D01*
D02*
X244Y555D02*
X144Y555D01*
G54D13*
D02*
X144Y520D02*
X179Y555D01*
G54D12*
D02*
X1594Y555D02*
X1594Y155D01*
D02*
X1594Y155D02*
X1694Y155D01*
D02*
X1694Y155D02*
X1694Y555D01*
D02*
X1694Y555D02*
X1594Y555D01*
G54D13*
D02*
X1594Y520D02*
X1629Y555D01*
G54D12*
D02*
X324Y308D02*
X624Y308D01*
D02*
X624Y308D02*
X624Y408D01*
D02*
X624Y408D02*
X324Y408D01*
D02*
X324Y408D02*
X324Y308D01*
G54D13*
D02*
X359Y308D02*
X324Y343D01*
G54D12*
D02*
X1524Y408D02*
X1224Y408D01*
D02*
X1224Y408D02*
X1224Y308D01*
D02*
X1224Y308D02*
X1524Y308D01*
D02*
X1524Y308D02*
X1524Y408D01*
G54D13*
D02*
X1489Y408D02*
X1524Y373D01*
G54D12*
D02*
X624Y208D02*
X624Y108D01*
D02*
X624Y108D02*
X724Y108D01*
D02*
X724Y108D02*
X724Y208D01*
D02*
X724Y208D02*
X624Y208D01*
G54D13*
D02*
X624Y173D02*
X659Y208D01*
G54D12*
D02*
X1124Y208D02*
X1124Y108D01*
D02*
X1124Y108D02*
X1224Y108D01*
D02*
X1224Y108D02*
X1224Y208D01*
D02*
X1224Y208D02*
X1124Y208D01*
G54D13*
D02*
X1124Y173D02*
X1159Y208D01*
G54D12*
D02*
X624Y408D02*
X624Y308D01*
D02*
X624Y308D02*
X724Y308D01*
D02*
X724Y308D02*
X724Y408D01*
D02*
X724Y408D02*
X624Y408D01*
G54D13*
D02*
X624Y373D02*
X659Y408D01*
G54D12*
D02*
X1124Y408D02*
X1124Y308D01*
D02*
X1124Y308D02*
X1224Y308D01*
D02*
X1224Y308D02*
X1224Y408D01*
D02*
X1224Y408D02*
X1124Y408D01*
G54D13*
D02*
X1124Y373D02*
X1159Y408D01*
G54D14*
X1340Y1073D02*
X1327Y1073D01*
D02*
X1420Y1073D02*
X1408Y1073D01*
D02*
X440Y1073D02*
X427Y1073D01*
D02*
X520Y1073D02*
X508Y1073D01*
D02*
G54D15*
X1327Y1076D02*
X1327Y1076D01*
X426Y1075D02*
X429Y1075D01*
X518Y1075D02*
X521Y1075D01*
X1326Y1075D02*
X1329Y1075D01*
X1418Y1075D02*
X1421Y1075D01*
X424Y1074D02*
X429Y1074D01*
X518Y1074D02*
X522Y1074D01*
X1324Y1074D02*
X1329Y1074D01*
X1418Y1074D02*
X1422Y1074D01*
X423Y1073D02*
X429Y1073D01*
X518Y1073D02*
X523Y1073D01*
X1323Y1073D02*
X1329Y1073D01*
X1418Y1073D02*
X1423Y1073D01*
X422Y1072D02*
X429Y1072D01*
X518Y1072D02*
X525Y1072D01*
X1322Y1072D02*
X1329Y1072D01*
X1418Y1072D02*
X1425Y1072D01*
X421Y1071D02*
X428Y1071D01*
X519Y1071D02*
X526Y1071D01*
X1321Y1071D02*
X1328Y1071D01*
X1419Y1071D02*
X1426Y1071D01*
X420Y1070D02*
X427Y1070D01*
X520Y1070D02*
X527Y1070D01*
X1320Y1070D02*
X1326Y1070D01*
X1420Y1070D02*
X1427Y1070D01*
X419Y1069D02*
X425Y1069D01*
X521Y1069D02*
X528Y1069D01*
X1319Y1069D02*
X1325Y1069D01*
X1421Y1069D02*
X1428Y1069D01*
X418Y1068D02*
X424Y1068D01*
X523Y1068D02*
X529Y1068D01*
X1318Y1068D02*
X1324Y1068D01*
X1422Y1068D02*
X1429Y1068D01*
X417Y1067D02*
X423Y1067D01*
X524Y1067D02*
X530Y1067D01*
X1317Y1067D02*
X1323Y1067D01*
X1424Y1067D02*
X1430Y1067D01*
X416Y1066D02*
X422Y1066D01*
X525Y1066D02*
X531Y1066D01*
X1316Y1066D02*
X1322Y1066D01*
X1425Y1066D02*
X1431Y1066D01*
X415Y1065D02*
X421Y1065D01*
X526Y1065D02*
X532Y1065D01*
X1315Y1065D02*
X1321Y1065D01*
X1426Y1065D02*
X1432Y1065D01*
X414Y1064D02*
X420Y1064D01*
X527Y1064D02*
X533Y1064D01*
X1314Y1064D02*
X1320Y1064D01*
X1427Y1064D02*
X1433Y1064D01*
X413Y1063D02*
X419Y1063D01*
X528Y1063D02*
X534Y1063D01*
X1313Y1063D02*
X1319Y1063D01*
X1428Y1063D02*
X1433Y1063D01*
X412Y1062D02*
X418Y1062D01*
X529Y1062D02*
X534Y1062D01*
X1312Y1062D02*
X1318Y1062D01*
X1429Y1062D02*
X1434Y1062D01*
X411Y1061D02*
X417Y1061D01*
X530Y1061D02*
X535Y1061D01*
X1311Y1061D02*
X1317Y1061D01*
X1430Y1061D02*
X1435Y1061D01*
X411Y1060D02*
X416Y1060D01*
X531Y1060D02*
X536Y1060D01*
X1311Y1060D02*
X1316Y1060D01*
X1430Y1060D02*
X1436Y1060D01*
X410Y1059D02*
X415Y1059D01*
X531Y1059D02*
X537Y1059D01*
X1310Y1059D02*
X1315Y1059D01*
X1431Y1059D02*
X1437Y1059D01*
X409Y1058D02*
X415Y1058D01*
X532Y1058D02*
X537Y1058D01*
X1309Y1058D02*
X1315Y1058D01*
X1432Y1058D02*
X1437Y1058D01*
X409Y1057D02*
X414Y1057D01*
X533Y1057D02*
X538Y1057D01*
X1309Y1057D02*
X1314Y1057D01*
X1433Y1057D02*
X1438Y1057D01*
X408Y1056D02*
X413Y1056D01*
X534Y1056D02*
X539Y1056D01*
X1308Y1056D02*
X1313Y1056D01*
X1434Y1056D02*
X1439Y1056D01*
X407Y1055D02*
X412Y1055D01*
X534Y1055D02*
X539Y1055D01*
X1307Y1055D02*
X1312Y1055D01*
X1434Y1055D02*
X1439Y1055D01*
X407Y1054D02*
X412Y1054D01*
X535Y1054D02*
X540Y1054D01*
X1306Y1054D02*
X1312Y1054D01*
X1435Y1054D02*
X1440Y1054D01*
X406Y1053D02*
X411Y1053D01*
X536Y1053D02*
X541Y1053D01*
X1306Y1053D02*
X1311Y1053D01*
X1436Y1053D02*
X1441Y1053D01*
X405Y1052D02*
X410Y1052D01*
X536Y1052D02*
X541Y1052D01*
X1305Y1052D02*
X1310Y1052D01*
X1436Y1052D02*
X1441Y1052D01*
X405Y1051D02*
X410Y1051D01*
X537Y1051D02*
X542Y1051D01*
X1305Y1051D02*
X1310Y1051D01*
X1437Y1051D02*
X1442Y1051D01*
X404Y1050D02*
X409Y1050D01*
X538Y1050D02*
X542Y1050D01*
X1304Y1050D02*
X1309Y1050D01*
X1438Y1050D02*
X1442Y1050D01*
X404Y1049D02*
X409Y1049D01*
X538Y1049D02*
X543Y1049D01*
X1304Y1049D02*
X1308Y1049D01*
X1438Y1049D02*
X1443Y1049D01*
X403Y1048D02*
X408Y1048D01*
X539Y1048D02*
X543Y1048D01*
X1303Y1048D02*
X1308Y1048D01*
X1439Y1048D02*
X1443Y1048D01*
X403Y1047D02*
X407Y1047D01*
X539Y1047D02*
X544Y1047D01*
X1303Y1047D02*
X1307Y1047D01*
X1439Y1047D02*
X1444Y1047D01*
X402Y1046D02*
X407Y1046D01*
X540Y1046D02*
X544Y1046D01*
X1302Y1046D02*
X1307Y1046D01*
X1440Y1046D02*
X1444Y1046D01*
X402Y1045D02*
X406Y1045D01*
X540Y1045D02*
X545Y1045D01*
X1302Y1045D02*
X1306Y1045D01*
X1440Y1045D02*
X1445Y1045D01*
X401Y1044D02*
X406Y1044D01*
X541Y1044D02*
X545Y1044D01*
X1301Y1044D02*
X1306Y1044D01*
X1441Y1044D02*
X1445Y1044D01*
X401Y1043D02*
X405Y1043D01*
X541Y1043D02*
X546Y1043D01*
X1301Y1043D02*
X1305Y1043D01*
X1441Y1043D02*
X1446Y1043D01*
X401Y1042D02*
X405Y1042D01*
X542Y1042D02*
X546Y1042D01*
X1300Y1042D02*
X1305Y1042D01*
X1442Y1042D02*
X1446Y1042D01*
X400Y1041D02*
X405Y1041D01*
X542Y1041D02*
X546Y1041D01*
X1300Y1041D02*
X1304Y1041D01*
X1442Y1041D02*
X1446Y1041D01*
X400Y1040D02*
X404Y1040D01*
X543Y1040D02*
X547Y1040D01*
X1300Y1040D02*
X1304Y1040D01*
X1443Y1040D02*
X1447Y1040D01*
X399Y1039D02*
X404Y1039D01*
X543Y1039D02*
X547Y1039D01*
X1299Y1039D02*
X1304Y1039D01*
X1443Y1039D02*
X1447Y1039D01*
X399Y1038D02*
X403Y1038D01*
X544Y1038D02*
X548Y1038D01*
X1299Y1038D02*
X1303Y1038D01*
X1443Y1038D02*
X1448Y1038D01*
X399Y1037D02*
X403Y1037D01*
X544Y1037D02*
X548Y1037D01*
X1299Y1037D02*
X1303Y1037D01*
X1444Y1037D02*
X1448Y1037D01*
X398Y1036D02*
X403Y1036D01*
X544Y1036D02*
X548Y1036D01*
X1298Y1036D02*
X1302Y1036D01*
X1444Y1036D02*
X1448Y1036D01*
X398Y1035D02*
X402Y1035D01*
X545Y1035D02*
X549Y1035D01*
X1298Y1035D02*
X1302Y1035D01*
X1445Y1035D02*
X1448Y1035D01*
X398Y1034D02*
X402Y1034D01*
X545Y1034D02*
X549Y1034D01*
X1298Y1034D02*
X1302Y1034D01*
X1445Y1034D02*
X1449Y1034D01*
X397Y1033D02*
X402Y1033D01*
X545Y1033D02*
X549Y1033D01*
X1297Y1033D02*
X1302Y1033D01*
X1445Y1033D02*
X1449Y1033D01*
X397Y1032D02*
X401Y1032D01*
X545Y1032D02*
X549Y1032D01*
X1297Y1032D02*
X1301Y1032D01*
X1445Y1032D02*
X1449Y1032D01*
X397Y1031D02*
X401Y1031D01*
X546Y1031D02*
X550Y1031D01*
X1297Y1031D02*
X1301Y1031D01*
X1446Y1031D02*
X1450Y1031D01*
X397Y1030D02*
X401Y1030D01*
X546Y1030D02*
X550Y1030D01*
X1297Y1030D02*
X1301Y1030D01*
X1446Y1030D02*
X1450Y1030D01*
X397Y1029D02*
X401Y1029D01*
X546Y1029D02*
X550Y1029D01*
X1296Y1029D02*
X1300Y1029D01*
X1446Y1029D02*
X1450Y1029D01*
X396Y1028D02*
X400Y1028D01*
X546Y1028D02*
X550Y1028D01*
X1296Y1028D02*
X1300Y1028D01*
X1446Y1028D02*
X1450Y1028D01*
X396Y1027D02*
X400Y1027D01*
X547Y1027D02*
X551Y1027D01*
X1296Y1027D02*
X1300Y1027D01*
X1447Y1027D02*
X1450Y1027D01*
X396Y1026D02*
X400Y1026D01*
X547Y1026D02*
X551Y1026D01*
X1296Y1026D02*
X1300Y1026D01*
X1447Y1026D02*
X1451Y1026D01*
X396Y1025D02*
X400Y1025D01*
X547Y1025D02*
X551Y1025D01*
X1296Y1025D02*
X1300Y1025D01*
X1447Y1025D02*
X1451Y1025D01*
X396Y1024D02*
X400Y1024D01*
X547Y1024D02*
X551Y1024D01*
X1295Y1024D02*
X1299Y1024D01*
X1447Y1024D02*
X1451Y1024D01*
X395Y1023D02*
X399Y1023D01*
X547Y1023D02*
X551Y1023D01*
X1295Y1023D02*
X1299Y1023D01*
X1447Y1023D02*
X1451Y1023D01*
X395Y1022D02*
X399Y1022D01*
X548Y1022D02*
X551Y1022D01*
X1295Y1022D02*
X1299Y1022D01*
X1448Y1022D02*
X1451Y1022D01*
X395Y1021D02*
X399Y1021D01*
X548Y1021D02*
X551Y1021D01*
X1295Y1021D02*
X1299Y1021D01*
X1448Y1021D02*
X1451Y1021D01*
X395Y1020D02*
X399Y1020D01*
X548Y1020D02*
X552Y1020D01*
X1295Y1020D02*
X1299Y1020D01*
X1448Y1020D02*
X1451Y1020D01*
X395Y1019D02*
X399Y1019D01*
X548Y1019D02*
X552Y1019D01*
X1295Y1019D02*
X1299Y1019D01*
X1448Y1019D02*
X1452Y1019D01*
X395Y1018D02*
X399Y1018D01*
X548Y1018D02*
X552Y1018D01*
X1295Y1018D02*
X1299Y1018D01*
X1448Y1018D02*
X1452Y1018D01*
X395Y1017D02*
X399Y1017D01*
X548Y1017D02*
X552Y1017D01*
X1295Y1017D02*
X1299Y1017D01*
X1448Y1017D02*
X1452Y1017D01*
X395Y1016D02*
X399Y1016D01*
X548Y1016D02*
X552Y1016D01*
X1295Y1016D02*
X1299Y1016D01*
X1448Y1016D02*
X1452Y1016D01*
X395Y1015D02*
X399Y1015D01*
X548Y1015D02*
X552Y1015D01*
X1295Y1015D02*
X1298Y1015D01*
X1448Y1015D02*
X1452Y1015D01*
X395Y1014D02*
X399Y1014D01*
X548Y1014D02*
X552Y1014D01*
X1295Y1014D02*
X1298Y1014D01*
X1448Y1014D02*
X1452Y1014D01*
X395Y1013D02*
X399Y1013D01*
X548Y1013D02*
X552Y1013D01*
X1295Y1013D02*
X1298Y1013D01*
X1448Y1013D02*
X1452Y1013D01*
X395Y1012D02*
X399Y1012D01*
X548Y1012D02*
X552Y1012D01*
X1295Y1012D02*
X1298Y1012D01*
X1448Y1012D02*
X1452Y1012D01*
X395Y1011D02*
X399Y1011D01*
X548Y1011D02*
X552Y1011D01*
X1295Y1011D02*
X1298Y1011D01*
X1448Y1011D02*
X1452Y1011D01*
X395Y1010D02*
X399Y1010D01*
X548Y1010D02*
X552Y1010D01*
X1295Y1010D02*
X1298Y1010D01*
X1448Y1010D02*
X1452Y1010D01*
X395Y1009D02*
X399Y1009D01*
X548Y1009D02*
X552Y1009D01*
X1295Y1009D02*
X1298Y1009D01*
X1448Y1009D02*
X1452Y1009D01*
X395Y1008D02*
X399Y1008D01*
X548Y1008D02*
X552Y1008D01*
X1295Y1008D02*
X1299Y1008D01*
X1448Y1008D02*
X1452Y1008D01*
X395Y1007D02*
X399Y1007D01*
X548Y1007D02*
X552Y1007D01*
X1295Y1007D02*
X1299Y1007D01*
X1448Y1007D02*
X1452Y1007D01*
X395Y1006D02*
X399Y1006D01*
X548Y1006D02*
X552Y1006D01*
X1295Y1006D02*
X1299Y1006D01*
X1448Y1006D02*
X1452Y1006D01*
X395Y1005D02*
X399Y1005D01*
X548Y1005D02*
X552Y1005D01*
X1295Y1005D02*
X1299Y1005D01*
X1448Y1005D02*
X1452Y1005D01*
X395Y1004D02*
X399Y1004D01*
X548Y1004D02*
X552Y1004D01*
X1295Y1004D02*
X1299Y1004D01*
X1448Y1004D02*
X1451Y1004D01*
X395Y1003D02*
X399Y1003D01*
X548Y1003D02*
X551Y1003D01*
X1295Y1003D02*
X1299Y1003D01*
X1448Y1003D02*
X1451Y1003D01*
X395Y1002D02*
X399Y1002D01*
X548Y1002D02*
X551Y1002D01*
X1295Y1002D02*
X1299Y1002D01*
X1447Y1002D02*
X1451Y1002D01*
X395Y1001D02*
X399Y1001D01*
X547Y1001D02*
X551Y1001D01*
X1295Y1001D02*
X1299Y1001D01*
X1447Y1001D02*
X1451Y1001D01*
X396Y1000D02*
X399Y1000D01*
X547Y1000D02*
X551Y1000D01*
X1296Y1000D02*
X1299Y1000D01*
X1447Y1000D02*
X1451Y1000D01*
X396Y999D02*
X400Y999D01*
X547Y999D02*
X551Y999D01*
X1296Y999D02*
X1300Y999D01*
X1447Y999D02*
X1451Y999D01*
X396Y998D02*
X400Y998D01*
X547Y998D02*
X551Y998D01*
X1296Y998D02*
X1300Y998D01*
X1447Y998D02*
X1451Y998D01*
X396Y997D02*
X400Y997D01*
X547Y997D02*
X551Y997D01*
X1296Y997D02*
X1300Y997D01*
X1447Y997D02*
X1451Y997D01*
X396Y996D02*
X400Y996D01*
X546Y996D02*
X550Y996D01*
X1296Y996D02*
X1300Y996D01*
X1446Y996D02*
X1450Y996D01*
X397Y995D02*
X400Y995D01*
X546Y995D02*
X550Y995D01*
X1297Y995D02*
X1300Y995D01*
X1446Y995D02*
X1450Y995D01*
X397Y994D02*
X401Y994D01*
X546Y994D02*
X550Y994D01*
X1297Y994D02*
X1301Y994D01*
X1446Y994D02*
X1450Y994D01*
X397Y993D02*
X401Y993D01*
X546Y993D02*
X550Y993D01*
X1297Y993D02*
X1301Y993D01*
X1446Y993D02*
X1450Y993D01*
X397Y992D02*
X401Y992D01*
X545Y992D02*
X550Y992D01*
X1297Y992D02*
X1301Y992D01*
X1445Y992D02*
X1449Y992D01*
X398Y991D02*
X402Y991D01*
X545Y991D02*
X549Y991D01*
X1298Y991D02*
X1302Y991D01*
X1445Y991D02*
X1449Y991D01*
X398Y990D02*
X402Y990D01*
X545Y990D02*
X549Y990D01*
X1298Y990D02*
X1302Y990D01*
X1445Y990D02*
X1449Y990D01*
X398Y989D02*
X402Y989D01*
X544Y989D02*
X549Y989D01*
X1298Y989D02*
X1302Y989D01*
X1444Y989D02*
X1449Y989D01*
X398Y988D02*
X402Y988D01*
X544Y988D02*
X548Y988D01*
X1298Y988D02*
X1302Y988D01*
X1444Y988D02*
X1448Y988D01*
X399Y987D02*
X403Y987D01*
X544Y987D02*
X548Y987D01*
X1299Y987D02*
X1303Y987D01*
X1444Y987D02*
X1448Y987D01*
X399Y986D02*
X403Y986D01*
X543Y986D02*
X548Y986D01*
X1299Y986D02*
X1303Y986D01*
X1443Y986D02*
X1448Y986D01*
X399Y985D02*
X404Y985D01*
X543Y985D02*
X547Y985D01*
X1299Y985D02*
X1304Y985D01*
X1443Y985D02*
X1447Y985D01*
X400Y984D02*
X404Y984D01*
X543Y984D02*
X547Y984D01*
X1300Y984D02*
X1304Y984D01*
X1442Y984D02*
X1447Y984D01*
X400Y983D02*
X404Y983D01*
X542Y983D02*
X547Y983D01*
X1300Y983D02*
X1304Y983D01*
X1442Y983D02*
X1447Y983D01*
X401Y982D02*
X405Y982D01*
X542Y982D02*
X546Y982D01*
X1301Y982D02*
X1305Y982D01*
X1442Y982D02*
X1446Y982D01*
X401Y981D02*
X405Y981D01*
X541Y981D02*
X546Y981D01*
X1301Y981D02*
X1305Y981D01*
X1441Y981D02*
X1446Y981D01*
X401Y980D02*
X406Y980D01*
X541Y980D02*
X545Y980D01*
X1301Y980D02*
X1306Y980D01*
X1441Y980D02*
X1445Y980D01*
X402Y979D02*
X406Y979D01*
X540Y979D02*
X545Y979D01*
X1302Y979D02*
X1306Y979D01*
X1440Y979D02*
X1445Y979D01*
X402Y978D02*
X407Y978D01*
X540Y978D02*
X545Y978D01*
X1302Y978D02*
X1307Y978D01*
X1440Y978D02*
X1444Y978D01*
X403Y977D02*
X407Y977D01*
X539Y977D02*
X544Y977D01*
X1303Y977D02*
X1307Y977D01*
X1439Y977D02*
X1444Y977D01*
X403Y976D02*
X408Y976D01*
X539Y976D02*
X543Y976D01*
X1303Y976D02*
X1308Y976D01*
X1439Y976D02*
X1443Y976D01*
X404Y975D02*
X408Y975D01*
X538Y975D02*
X543Y975D01*
X1304Y975D02*
X1308Y975D01*
X1438Y975D02*
X1443Y975D01*
X404Y974D02*
X409Y974D01*
X538Y974D02*
X542Y974D01*
X1304Y974D02*
X1309Y974D01*
X1438Y974D02*
X1442Y974D01*
X405Y973D02*
X410Y973D01*
X537Y973D02*
X542Y973D01*
X1305Y973D02*
X1310Y973D01*
X1437Y973D02*
X1442Y973D01*
X405Y972D02*
X410Y972D01*
X536Y972D02*
X541Y972D01*
X1305Y972D02*
X1310Y972D01*
X1436Y972D02*
X1441Y972D01*
X406Y971D02*
X411Y971D01*
X536Y971D02*
X541Y971D01*
X1306Y971D02*
X1311Y971D01*
X1436Y971D02*
X1441Y971D01*
X407Y970D02*
X412Y970D01*
X535Y970D02*
X540Y970D01*
X1307Y970D02*
X1312Y970D01*
X1435Y970D02*
X1440Y970D01*
X407Y969D02*
X412Y969D01*
X534Y969D02*
X539Y969D01*
X1307Y969D02*
X1312Y969D01*
X1434Y969D02*
X1439Y969D01*
X408Y968D02*
X413Y968D01*
X534Y968D02*
X539Y968D01*
X1308Y968D02*
X1313Y968D01*
X1434Y968D02*
X1439Y968D01*
X409Y967D02*
X414Y967D01*
X533Y967D02*
X538Y967D01*
X1309Y967D02*
X1314Y967D01*
X1433Y967D02*
X1438Y967D01*
X409Y966D02*
X415Y966D01*
X532Y966D02*
X537Y966D01*
X1309Y966D02*
X1315Y966D01*
X1432Y966D02*
X1437Y966D01*
X410Y965D02*
X415Y965D01*
X531Y965D02*
X537Y965D01*
X1310Y965D02*
X1315Y965D01*
X1431Y965D02*
X1437Y965D01*
X411Y964D02*
X416Y964D01*
X530Y964D02*
X536Y964D01*
X1311Y964D02*
X1316Y964D01*
X1430Y964D02*
X1436Y964D01*
X412Y963D02*
X417Y963D01*
X530Y963D02*
X535Y963D01*
X1312Y963D02*
X1317Y963D01*
X1429Y963D02*
X1435Y963D01*
X412Y962D02*
X418Y962D01*
X529Y962D02*
X534Y962D01*
X1312Y962D02*
X1318Y962D01*
X1429Y962D02*
X1434Y962D01*
X413Y961D02*
X419Y961D01*
X528Y961D02*
X534Y961D01*
X1313Y961D02*
X1319Y961D01*
X1428Y961D02*
X1433Y961D01*
X414Y960D02*
X420Y960D01*
X527Y960D02*
X533Y960D01*
X1314Y960D02*
X1320Y960D01*
X1427Y960D02*
X1433Y960D01*
X415Y959D02*
X421Y959D01*
X526Y959D02*
X532Y959D01*
X1315Y959D02*
X1321Y959D01*
X1426Y959D02*
X1432Y959D01*
X416Y958D02*
X422Y958D01*
X525Y958D02*
X531Y958D01*
X1316Y958D02*
X1322Y958D01*
X1425Y958D02*
X1431Y958D01*
X417Y957D02*
X423Y957D01*
X524Y957D02*
X530Y957D01*
X1317Y957D02*
X1323Y957D01*
X1424Y957D02*
X1430Y957D01*
X418Y956D02*
X424Y956D01*
X523Y956D02*
X529Y956D01*
X1318Y956D02*
X1324Y956D01*
X1422Y956D02*
X1429Y956D01*
X419Y955D02*
X426Y955D01*
X521Y955D02*
X528Y955D01*
X1319Y955D02*
X1325Y955D01*
X1421Y955D02*
X1428Y955D01*
X420Y954D02*
X427Y954D01*
X520Y954D02*
X527Y954D01*
X1320Y954D02*
X1327Y954D01*
X1420Y954D02*
X1427Y954D01*
X421Y953D02*
X428Y953D01*
X519Y953D02*
X526Y953D01*
X1321Y953D02*
X1328Y953D01*
X1419Y953D02*
X1426Y953D01*
X422Y952D02*
X429Y952D01*
X518Y952D02*
X525Y952D01*
X1322Y952D02*
X1329Y952D01*
X1417Y952D02*
X1425Y952D01*
X423Y951D02*
X431Y951D01*
X516Y951D02*
X523Y951D01*
X1323Y951D02*
X1331Y951D01*
X1416Y951D02*
X1423Y951D01*
X425Y950D02*
X432Y950D01*
X515Y950D02*
X522Y950D01*
X1324Y950D02*
X1332Y950D01*
X1414Y950D02*
X1422Y950D01*
X426Y949D02*
X434Y949D01*
X513Y949D02*
X521Y949D01*
X1326Y949D02*
X1334Y949D01*
X1413Y949D02*
X1421Y949D01*
X427Y948D02*
X435Y948D01*
X512Y948D02*
X520Y948D01*
X1327Y948D02*
X1335Y948D01*
X1412Y948D02*
X1420Y948D01*
X428Y947D02*
X437Y947D01*
X511Y947D02*
X518Y947D01*
X1328Y947D02*
X1336Y947D01*
X1411Y947D02*
X1418Y947D01*
X430Y946D02*
X437Y946D01*
X511Y946D02*
X517Y946D01*
X1330Y946D02*
X1337Y946D01*
X1411Y946D02*
X1417Y946D01*
X431Y945D02*
X437Y945D01*
X511Y945D02*
X515Y945D01*
X1331Y945D02*
X1337Y945D01*
X1411Y945D02*
X1415Y945D01*
X433Y944D02*
X437Y944D01*
X512Y944D02*
X514Y944D01*
X1333Y944D02*
X1336Y944D01*
X1412Y944D02*
X1414Y944D01*
X435Y943D02*
X435Y943D01*
X1335Y943D02*
X1335Y943D01*
D02*
G04 End of Silk1*
M02*