; NON-PLATED HOLES START AT T1
; THROUGH (PLATED) HOLES START AT T100
M48
INCH,LZ
T100C0.031497
T101C0.038000
T102C0.035000
%
T100
X013739Y009578
X004739Y010562
X013739Y010562
X004739Y009578
T101
X016442Y003049
X006739Y010078
X013739Y005578
X005739Y003578
X016239Y010078
X011739Y001578
X013739Y003578
X012739Y005578
X016442Y005049
X001942Y004049
X002239Y010078
X001942Y005049
X014739Y003578
X001942Y003049
X012739Y003578
X005739Y005578
X016442Y002049
X016442Y004049
X004739Y003578
X007739Y010078
X008739Y010078
X003739Y003578
X006739Y003578
X009739Y010078
X006739Y001578
X011739Y003578
X010739Y010078
X004739Y005578
X003739Y005578
X014739Y005578
X011739Y010078
X001942Y002049
T102
X010739Y003578
X007739Y004578
X010739Y005578
X010739Y001578
X007739Y001578
X007739Y005578
X007739Y002578
X007739Y003578
X007739Y006578
X007739Y007578
X010739Y004578
X010739Y006578
X010739Y007578
X010739Y002578
T00
M30
